M48
;GenerationSoftware,Autodesk,EAGLE,8.6.1*%
;CreationDate,2018-02-22T11:29:47Z*%
FMAT,2
ICI,OFF
METRIC,TZ,000.000
T5C0.254
T4C0.787
T3C0.850
T2C1.300
T1C1.499
%
G90
M71
T1
X20358Y2540
X12154Y2540
T2
X9509Y1524
X1159Y1524
T3
X7559Y4524
X3109Y4524
T4
X14249Y2540
X18263Y2540
X16256Y2540
T5
X1346Y44196
X1346Y48514
X4064Y51054
X7366Y51054
X9398Y51054
X10668Y54102
X18034Y45466
X13970Y39116
X18034Y40386
X13716Y34798
X13716Y31242
X13716Y29464
X9652Y29464
X9652Y27686
X13716Y27686
X5334Y27686
X5334Y29464
X1466Y27936
X1494Y34543
X5334Y40894
X11684Y51054
X13970Y51054
X23368Y39878
X2286Y20066
X3556Y11430
X6604Y8890
X5588Y9906
X5588Y7874
X7620Y7874
X7620Y9906
X23368Y26416
X20066Y26162
X10160Y57658
X10160Y56388
X2032Y5842
X15494Y56388
X6731Y17780
X7493Y18669
X6223Y16891
X5334Y16002
X21971Y27559
X21082Y32385
X18034Y33401
X18034Y32385
X1524Y30226
X2286Y24384
X4445Y36322
X5461Y35433
X14478Y18288
X10414Y18288
X9144Y17272
X13462Y17272
X22352Y21082
X21436Y1346
X22860Y48514
X19304Y50038
X21590Y50038
X5791Y5588
X5334Y12446
X4318Y5842
X1778Y7620
X2540Y14732
X13208Y7874
X24130Y4064
X6858Y37719
X4191Y38862
X13208Y6858
X22606Y3810
X1346Y46482
X24638Y19050
X21336Y10160
X15494Y14478
X8636Y16002
X10922Y14478
X6604Y5588
X6604Y2286
X15494Y57658
M30