G75*
%MOIN*%
%OFA0B0*%
%FSLAX25Y25*%
%IPPOS*%
%LPD*%
%AMOC8*
5,1,8,0,0,1.08239X$1,22.5*
%
%ADD10C,0.00000*%
%ADD11C,0.00001*%
%ADD12C,0.00400*%
%ADD13C,0.00500*%
D10*
X0013400Y0040400D02*
X0113400Y0040400D01*
X0118400Y0045400D02*
X0118400Y0269400D01*
X0113400Y0274400D02*
X0013400Y0274400D01*
X0008400Y0269400D02*
X0008400Y0045400D01*
D11*
X0008402Y0045260D01*
X0008408Y0045120D01*
X0008418Y0044980D01*
X0008431Y0044840D01*
X0008449Y0044701D01*
X0008471Y0044562D01*
X0008496Y0044425D01*
X0008525Y0044287D01*
X0008558Y0044151D01*
X0008595Y0044016D01*
X0008636Y0043882D01*
X0008681Y0043749D01*
X0008729Y0043617D01*
X0008781Y0043487D01*
X0008836Y0043358D01*
X0008895Y0043231D01*
X0008958Y0043105D01*
X0009024Y0042981D01*
X0009093Y0042860D01*
X0009166Y0042740D01*
X0009243Y0042622D01*
X0009322Y0042507D01*
X0009405Y0042393D01*
X0009491Y0042283D01*
X0009580Y0042174D01*
X0009672Y0042068D01*
X0009767Y0041965D01*
X0009864Y0041864D01*
X0009965Y0041767D01*
X0010068Y0041672D01*
X0010174Y0041580D01*
X0010283Y0041491D01*
X0010393Y0041405D01*
X0010507Y0041322D01*
X0010622Y0041243D01*
X0010740Y0041166D01*
X0010860Y0041093D01*
X0010981Y0041024D01*
X0011105Y0040958D01*
X0011231Y0040895D01*
X0011358Y0040836D01*
X0011487Y0040781D01*
X0011617Y0040729D01*
X0011749Y0040681D01*
X0011882Y0040636D01*
X0012016Y0040595D01*
X0012151Y0040558D01*
X0012287Y0040525D01*
X0012425Y0040496D01*
X0012562Y0040471D01*
X0012701Y0040449D01*
X0012840Y0040431D01*
X0012980Y0040418D01*
X0013120Y0040408D01*
X0013260Y0040402D01*
X0013400Y0040400D01*
X0113400Y0040400D02*
X0113540Y0040402D01*
X0113680Y0040408D01*
X0113820Y0040418D01*
X0113960Y0040431D01*
X0114099Y0040449D01*
X0114238Y0040471D01*
X0114375Y0040496D01*
X0114513Y0040525D01*
X0114649Y0040558D01*
X0114784Y0040595D01*
X0114918Y0040636D01*
X0115051Y0040681D01*
X0115183Y0040729D01*
X0115313Y0040781D01*
X0115442Y0040836D01*
X0115569Y0040895D01*
X0115695Y0040958D01*
X0115819Y0041024D01*
X0115940Y0041093D01*
X0116060Y0041166D01*
X0116178Y0041243D01*
X0116293Y0041322D01*
X0116407Y0041405D01*
X0116517Y0041491D01*
X0116626Y0041580D01*
X0116732Y0041672D01*
X0116835Y0041767D01*
X0116936Y0041864D01*
X0117033Y0041965D01*
X0117128Y0042068D01*
X0117220Y0042174D01*
X0117309Y0042283D01*
X0117395Y0042393D01*
X0117478Y0042507D01*
X0117557Y0042622D01*
X0117634Y0042740D01*
X0117707Y0042860D01*
X0117776Y0042981D01*
X0117842Y0043105D01*
X0117905Y0043231D01*
X0117964Y0043358D01*
X0118019Y0043487D01*
X0118071Y0043617D01*
X0118119Y0043749D01*
X0118164Y0043882D01*
X0118205Y0044016D01*
X0118242Y0044151D01*
X0118275Y0044287D01*
X0118304Y0044425D01*
X0118329Y0044562D01*
X0118351Y0044701D01*
X0118369Y0044840D01*
X0118382Y0044980D01*
X0118392Y0045120D01*
X0118398Y0045260D01*
X0118400Y0045400D01*
X0118400Y0269400D02*
X0118398Y0269540D01*
X0118392Y0269680D01*
X0118382Y0269820D01*
X0118369Y0269960D01*
X0118351Y0270099D01*
X0118329Y0270238D01*
X0118304Y0270375D01*
X0118275Y0270513D01*
X0118242Y0270649D01*
X0118205Y0270784D01*
X0118164Y0270918D01*
X0118119Y0271051D01*
X0118071Y0271183D01*
X0118019Y0271313D01*
X0117964Y0271442D01*
X0117905Y0271569D01*
X0117842Y0271695D01*
X0117776Y0271819D01*
X0117707Y0271940D01*
X0117634Y0272060D01*
X0117557Y0272178D01*
X0117478Y0272293D01*
X0117395Y0272407D01*
X0117309Y0272517D01*
X0117220Y0272626D01*
X0117128Y0272732D01*
X0117033Y0272835D01*
X0116936Y0272936D01*
X0116835Y0273033D01*
X0116732Y0273128D01*
X0116626Y0273220D01*
X0116517Y0273309D01*
X0116407Y0273395D01*
X0116293Y0273478D01*
X0116178Y0273557D01*
X0116060Y0273634D01*
X0115940Y0273707D01*
X0115819Y0273776D01*
X0115695Y0273842D01*
X0115569Y0273905D01*
X0115442Y0273964D01*
X0115313Y0274019D01*
X0115183Y0274071D01*
X0115051Y0274119D01*
X0114918Y0274164D01*
X0114784Y0274205D01*
X0114649Y0274242D01*
X0114513Y0274275D01*
X0114375Y0274304D01*
X0114238Y0274329D01*
X0114099Y0274351D01*
X0113960Y0274369D01*
X0113820Y0274382D01*
X0113680Y0274392D01*
X0113540Y0274398D01*
X0113400Y0274400D01*
X0013400Y0274400D02*
X0013260Y0274398D01*
X0013120Y0274392D01*
X0012980Y0274382D01*
X0012840Y0274369D01*
X0012701Y0274351D01*
X0012562Y0274329D01*
X0012425Y0274304D01*
X0012287Y0274275D01*
X0012151Y0274242D01*
X0012016Y0274205D01*
X0011882Y0274164D01*
X0011749Y0274119D01*
X0011617Y0274071D01*
X0011487Y0274019D01*
X0011358Y0273964D01*
X0011231Y0273905D01*
X0011105Y0273842D01*
X0010981Y0273776D01*
X0010860Y0273707D01*
X0010740Y0273634D01*
X0010622Y0273557D01*
X0010507Y0273478D01*
X0010393Y0273395D01*
X0010283Y0273309D01*
X0010174Y0273220D01*
X0010068Y0273128D01*
X0009965Y0273033D01*
X0009864Y0272936D01*
X0009767Y0272835D01*
X0009672Y0272732D01*
X0009580Y0272626D01*
X0009491Y0272517D01*
X0009405Y0272407D01*
X0009322Y0272293D01*
X0009243Y0272178D01*
X0009166Y0272060D01*
X0009093Y0271940D01*
X0009024Y0271819D01*
X0008958Y0271695D01*
X0008895Y0271569D01*
X0008836Y0271442D01*
X0008781Y0271313D01*
X0008729Y0271183D01*
X0008681Y0271051D01*
X0008636Y0270918D01*
X0008595Y0270784D01*
X0008558Y0270649D01*
X0008525Y0270513D01*
X0008496Y0270375D01*
X0008471Y0270238D01*
X0008449Y0270099D01*
X0008431Y0269960D01*
X0008418Y0269820D01*
X0008408Y0269680D01*
X0008402Y0269540D01*
X0008400Y0269400D01*
D12*
X0040600Y0194349D02*
X0045200Y0195627D01*
X0045200Y0193071D01*
X0044689Y0193071D01*
X0045200Y0189878D02*
X0045200Y0188600D01*
X0040600Y0188600D01*
X0042644Y0188600D02*
X0042644Y0189878D01*
X0042644Y0190133D02*
X0040600Y0191156D01*
X0042644Y0189878D02*
X0042646Y0189948D01*
X0042652Y0190019D01*
X0042661Y0190088D01*
X0042675Y0190157D01*
X0042692Y0190226D01*
X0042713Y0190293D01*
X0042738Y0190359D01*
X0042766Y0190423D01*
X0042798Y0190486D01*
X0042833Y0190547D01*
X0042872Y0190606D01*
X0042913Y0190663D01*
X0042958Y0190717D01*
X0043006Y0190769D01*
X0043056Y0190818D01*
X0043110Y0190865D01*
X0043165Y0190908D01*
X0043223Y0190948D01*
X0043283Y0190985D01*
X0043345Y0191018D01*
X0043409Y0191048D01*
X0043474Y0191075D01*
X0043540Y0191098D01*
X0043608Y0191117D01*
X0043677Y0191132D01*
X0043746Y0191144D01*
X0043816Y0191152D01*
X0043887Y0191156D01*
X0043957Y0191156D01*
X0044028Y0191152D01*
X0044098Y0191144D01*
X0044167Y0191132D01*
X0044236Y0191117D01*
X0044304Y0191098D01*
X0044370Y0191075D01*
X0044435Y0191048D01*
X0044499Y0191018D01*
X0044561Y0190985D01*
X0044621Y0190948D01*
X0044679Y0190908D01*
X0044734Y0190865D01*
X0044788Y0190818D01*
X0044838Y0190769D01*
X0044886Y0190717D01*
X0044931Y0190663D01*
X0044972Y0190606D01*
X0045011Y0190547D01*
X0045046Y0190486D01*
X0045078Y0190423D01*
X0045106Y0190359D01*
X0045131Y0190293D01*
X0045152Y0190226D01*
X0045169Y0190157D01*
X0045183Y0190088D01*
X0045192Y0190019D01*
X0045198Y0189948D01*
X0045200Y0189878D01*
X0046378Y0188627D02*
X0046308Y0188625D01*
X0046237Y0188619D01*
X0046168Y0188610D01*
X0046099Y0188596D01*
X0046030Y0188579D01*
X0045963Y0188558D01*
X0045897Y0188533D01*
X0045833Y0188505D01*
X0045770Y0188473D01*
X0045709Y0188438D01*
X0045650Y0188399D01*
X0045593Y0188358D01*
X0045539Y0188313D01*
X0045487Y0188265D01*
X0045438Y0188215D01*
X0045391Y0188161D01*
X0045348Y0188106D01*
X0045308Y0188048D01*
X0045271Y0187988D01*
X0045238Y0187926D01*
X0045208Y0187862D01*
X0045181Y0187797D01*
X0045158Y0187731D01*
X0045139Y0187663D01*
X0045124Y0187594D01*
X0045112Y0187525D01*
X0045104Y0187455D01*
X0045100Y0187384D01*
X0045100Y0187314D01*
X0045104Y0187243D01*
X0045112Y0187173D01*
X0045124Y0187104D01*
X0045139Y0187035D01*
X0045158Y0186967D01*
X0045181Y0186901D01*
X0045208Y0186836D01*
X0045238Y0186772D01*
X0045271Y0186710D01*
X0045308Y0186650D01*
X0045348Y0186592D01*
X0045391Y0186537D01*
X0045438Y0186483D01*
X0045487Y0186433D01*
X0045539Y0186385D01*
X0045593Y0186340D01*
X0045650Y0186299D01*
X0045709Y0186260D01*
X0045770Y0186225D01*
X0045833Y0186193D01*
X0045897Y0186165D01*
X0045963Y0186140D01*
X0046030Y0186119D01*
X0046099Y0186102D01*
X0046168Y0186088D01*
X0046237Y0186079D01*
X0046308Y0186073D01*
X0046378Y0186071D01*
X0046448Y0186073D01*
X0046519Y0186079D01*
X0046588Y0186088D01*
X0046657Y0186102D01*
X0046726Y0186119D01*
X0046793Y0186140D01*
X0046859Y0186165D01*
X0046923Y0186193D01*
X0046986Y0186225D01*
X0047047Y0186260D01*
X0047106Y0186299D01*
X0047163Y0186340D01*
X0047217Y0186385D01*
X0047269Y0186433D01*
X0047318Y0186483D01*
X0047365Y0186537D01*
X0047408Y0186592D01*
X0047448Y0186650D01*
X0047485Y0186710D01*
X0047518Y0186772D01*
X0047548Y0186836D01*
X0047575Y0186901D01*
X0047598Y0186967D01*
X0047617Y0187035D01*
X0047632Y0187104D01*
X0047644Y0187173D01*
X0047652Y0187243D01*
X0047656Y0187314D01*
X0047656Y0187384D01*
X0047652Y0187455D01*
X0047644Y0187525D01*
X0047632Y0187594D01*
X0047617Y0187663D01*
X0047598Y0187731D01*
X0047575Y0187797D01*
X0047548Y0187862D01*
X0047518Y0187926D01*
X0047485Y0187988D01*
X0047448Y0188048D01*
X0047408Y0188106D01*
X0047365Y0188161D01*
X0047318Y0188215D01*
X0047269Y0188265D01*
X0047217Y0188313D01*
X0047163Y0188358D01*
X0047106Y0188399D01*
X0047047Y0188438D01*
X0046986Y0188473D01*
X0046923Y0188505D01*
X0046859Y0188533D01*
X0046793Y0188558D01*
X0046726Y0188579D01*
X0046657Y0188596D01*
X0046588Y0188610D01*
X0046519Y0188619D01*
X0046448Y0188625D01*
X0046378Y0188627D01*
X0045100Y0184156D02*
X0047144Y0183133D01*
X0047144Y0182878D02*
X0047144Y0181600D01*
X0047144Y0182878D02*
X0047146Y0182948D01*
X0047152Y0183019D01*
X0047161Y0183088D01*
X0047175Y0183157D01*
X0047192Y0183226D01*
X0047213Y0183293D01*
X0047238Y0183359D01*
X0047266Y0183423D01*
X0047298Y0183486D01*
X0047333Y0183547D01*
X0047372Y0183606D01*
X0047413Y0183663D01*
X0047458Y0183717D01*
X0047506Y0183769D01*
X0047556Y0183818D01*
X0047610Y0183865D01*
X0047665Y0183908D01*
X0047723Y0183948D01*
X0047783Y0183985D01*
X0047845Y0184018D01*
X0047909Y0184048D01*
X0047974Y0184075D01*
X0048040Y0184098D01*
X0048108Y0184117D01*
X0048177Y0184132D01*
X0048246Y0184144D01*
X0048316Y0184152D01*
X0048387Y0184156D01*
X0048457Y0184156D01*
X0048528Y0184152D01*
X0048598Y0184144D01*
X0048667Y0184132D01*
X0048736Y0184117D01*
X0048804Y0184098D01*
X0048870Y0184075D01*
X0048935Y0184048D01*
X0048999Y0184018D01*
X0049061Y0183985D01*
X0049121Y0183948D01*
X0049179Y0183908D01*
X0049234Y0183865D01*
X0049288Y0183818D01*
X0049338Y0183769D01*
X0049386Y0183717D01*
X0049431Y0183663D01*
X0049472Y0183606D01*
X0049511Y0183547D01*
X0049546Y0183486D01*
X0049578Y0183423D01*
X0049606Y0183359D01*
X0049631Y0183293D01*
X0049652Y0183226D01*
X0049669Y0183157D01*
X0049683Y0183088D01*
X0049692Y0183019D01*
X0049698Y0182948D01*
X0049700Y0182878D01*
X0049700Y0181600D01*
X0045100Y0181600D01*
X0048678Y0186327D02*
X0048615Y0186329D01*
X0048552Y0186335D01*
X0048490Y0186344D01*
X0048429Y0186358D01*
X0048368Y0186375D01*
X0048309Y0186396D01*
X0048251Y0186421D01*
X0048194Y0186449D01*
X0048140Y0186480D01*
X0048088Y0186515D01*
X0048037Y0186553D01*
X0047989Y0186594D01*
X0047944Y0186638D01*
X0047902Y0186684D01*
X0047862Y0186733D01*
X0047826Y0186784D01*
X0047793Y0186838D01*
X0047763Y0186893D01*
X0047737Y0186951D01*
X0047714Y0187009D01*
X0047695Y0187069D01*
X0047680Y0187130D01*
X0047668Y0187192D01*
X0047660Y0187255D01*
X0047656Y0187318D01*
X0047656Y0187380D01*
X0047660Y0187443D01*
X0047668Y0187506D01*
X0047680Y0187568D01*
X0047695Y0187629D01*
X0047714Y0187689D01*
X0047737Y0187747D01*
X0047763Y0187805D01*
X0047793Y0187860D01*
X0047826Y0187914D01*
X0047862Y0187965D01*
X0047902Y0188014D01*
X0047944Y0188060D01*
X0047989Y0188104D01*
X0048037Y0188145D01*
X0048088Y0188183D01*
X0048140Y0188218D01*
X0048194Y0188249D01*
X0048251Y0188277D01*
X0048309Y0188302D01*
X0048368Y0188323D01*
X0048429Y0188340D01*
X0048490Y0188354D01*
X0048552Y0188363D01*
X0048615Y0188369D01*
X0048678Y0188371D01*
X0048741Y0188369D01*
X0048804Y0188363D01*
X0048866Y0188354D01*
X0048927Y0188340D01*
X0048988Y0188323D01*
X0049047Y0188302D01*
X0049105Y0188277D01*
X0049162Y0188249D01*
X0049216Y0188218D01*
X0049268Y0188183D01*
X0049319Y0188145D01*
X0049367Y0188104D01*
X0049412Y0188060D01*
X0049454Y0188014D01*
X0049494Y0187965D01*
X0049530Y0187914D01*
X0049563Y0187860D01*
X0049593Y0187805D01*
X0049619Y0187747D01*
X0049642Y0187689D01*
X0049661Y0187629D01*
X0049676Y0187568D01*
X0049688Y0187506D01*
X0049696Y0187443D01*
X0049700Y0187380D01*
X0049700Y0187318D01*
X0049696Y0187255D01*
X0049688Y0187192D01*
X0049676Y0187130D01*
X0049661Y0187069D01*
X0049642Y0187009D01*
X0049619Y0186951D01*
X0049593Y0186893D01*
X0049563Y0186838D01*
X0049530Y0186784D01*
X0049494Y0186733D01*
X0049454Y0186684D01*
X0049412Y0186638D01*
X0049367Y0186594D01*
X0049319Y0186553D01*
X0049268Y0186515D01*
X0049216Y0186480D01*
X0049162Y0186449D01*
X0049105Y0186421D01*
X0049047Y0186396D01*
X0048988Y0186375D01*
X0048927Y0186358D01*
X0048866Y0186344D01*
X0048804Y0186335D01*
X0048741Y0186329D01*
X0048678Y0186327D01*
X0051600Y0181922D02*
X0051600Y0180644D01*
X0056200Y0180644D01*
X0056200Y0181922D01*
X0056198Y0181991D01*
X0056193Y0182060D01*
X0056183Y0182129D01*
X0056170Y0182197D01*
X0056153Y0182264D01*
X0056133Y0182330D01*
X0056109Y0182395D01*
X0056082Y0182459D01*
X0056051Y0182521D01*
X0056017Y0182581D01*
X0055980Y0182639D01*
X0055939Y0182695D01*
X0055896Y0182749D01*
X0055850Y0182801D01*
X0055801Y0182850D01*
X0055749Y0182896D01*
X0055695Y0182939D01*
X0055639Y0182980D01*
X0055581Y0183017D01*
X0055521Y0183051D01*
X0055459Y0183082D01*
X0055395Y0183109D01*
X0055330Y0183133D01*
X0055264Y0183153D01*
X0055197Y0183170D01*
X0055129Y0183183D01*
X0055060Y0183193D01*
X0054991Y0183198D01*
X0054922Y0183200D01*
X0052878Y0183200D01*
X0052809Y0183198D01*
X0052740Y0183193D01*
X0052671Y0183183D01*
X0052603Y0183170D01*
X0052536Y0183153D01*
X0052470Y0183133D01*
X0052405Y0183109D01*
X0052341Y0183082D01*
X0052279Y0183051D01*
X0052219Y0183017D01*
X0052161Y0182980D01*
X0052105Y0182939D01*
X0052051Y0182896D01*
X0051999Y0182850D01*
X0051950Y0182801D01*
X0051904Y0182749D01*
X0051861Y0182695D01*
X0051820Y0182639D01*
X0051783Y0182581D01*
X0051749Y0182521D01*
X0051718Y0182459D01*
X0051691Y0182395D01*
X0051667Y0182330D01*
X0051647Y0182264D01*
X0051630Y0182197D01*
X0051617Y0182129D01*
X0051607Y0182060D01*
X0051602Y0181991D01*
X0051600Y0181922D01*
X0053517Y0178189D02*
X0054283Y0176783D01*
X0056200Y0177294D02*
X0056198Y0177376D01*
X0056193Y0177458D01*
X0056184Y0177540D01*
X0056172Y0177621D01*
X0056156Y0177702D01*
X0056137Y0177782D01*
X0056114Y0177861D01*
X0056088Y0177939D01*
X0056059Y0178016D01*
X0056026Y0178091D01*
X0055990Y0178165D01*
X0055952Y0178238D01*
X0055910Y0178309D01*
X0055865Y0178377D01*
X0055817Y0178444D01*
X0054284Y0176783D02*
X0054318Y0176729D01*
X0054355Y0176678D01*
X0054395Y0176629D01*
X0054438Y0176582D01*
X0054484Y0176539D01*
X0054532Y0176498D01*
X0054583Y0176460D01*
X0054636Y0176425D01*
X0054691Y0176393D01*
X0054748Y0176365D01*
X0054806Y0176341D01*
X0054866Y0176320D01*
X0054927Y0176303D01*
X0054989Y0176289D01*
X0055052Y0176280D01*
X0055115Y0176274D01*
X0055178Y0176272D01*
X0055240Y0176274D01*
X0055301Y0176279D01*
X0055362Y0176289D01*
X0055423Y0176302D01*
X0055482Y0176318D01*
X0055540Y0176338D01*
X0055597Y0176362D01*
X0055653Y0176389D01*
X0055707Y0176419D01*
X0055759Y0176453D01*
X0055808Y0176490D01*
X0055856Y0176529D01*
X0055901Y0176571D01*
X0055943Y0176616D01*
X0055983Y0176664D01*
X0056019Y0176713D01*
X0056053Y0176765D01*
X0056083Y0176819D01*
X0056110Y0176875D01*
X0056134Y0176932D01*
X0056154Y0176990D01*
X0056170Y0177049D01*
X0056183Y0177110D01*
X0056193Y0177171D01*
X0056198Y0177232D01*
X0056200Y0177294D01*
X0052239Y0176145D02*
X0052176Y0176209D01*
X0052117Y0176277D01*
X0052060Y0176346D01*
X0052006Y0176418D01*
X0051955Y0176492D01*
X0051907Y0176568D01*
X0051863Y0176645D01*
X0051822Y0176725D01*
X0051784Y0176806D01*
X0051749Y0176889D01*
X0051718Y0176973D01*
X0051691Y0177059D01*
X0051667Y0177145D01*
X0051646Y0177233D01*
X0051630Y0177321D01*
X0051617Y0177410D01*
X0051607Y0177499D01*
X0051602Y0177588D01*
X0051600Y0177678D01*
X0051602Y0177740D01*
X0051607Y0177801D01*
X0051617Y0177862D01*
X0051630Y0177923D01*
X0051646Y0177982D01*
X0051666Y0178040D01*
X0051690Y0178097D01*
X0051717Y0178153D01*
X0051747Y0178207D01*
X0051781Y0178259D01*
X0051817Y0178308D01*
X0051857Y0178356D01*
X0051899Y0178401D01*
X0051944Y0178443D01*
X0051992Y0178483D01*
X0052041Y0178519D01*
X0052093Y0178553D01*
X0052147Y0178583D01*
X0052203Y0178610D01*
X0052260Y0178634D01*
X0052318Y0178654D01*
X0052377Y0178670D01*
X0052438Y0178683D01*
X0052499Y0178693D01*
X0052560Y0178698D01*
X0052622Y0178700D01*
X0052685Y0178698D01*
X0052748Y0178692D01*
X0052811Y0178683D01*
X0052873Y0178669D01*
X0052934Y0178652D01*
X0052994Y0178631D01*
X0053052Y0178607D01*
X0053109Y0178579D01*
X0053164Y0178547D01*
X0053217Y0178512D01*
X0053268Y0178474D01*
X0053316Y0178433D01*
X0053362Y0178390D01*
X0053405Y0178343D01*
X0053445Y0178294D01*
X0053482Y0178243D01*
X0053516Y0178189D01*
X0052878Y0174350D02*
X0054922Y0174350D01*
X0054992Y0174348D01*
X0055063Y0174342D01*
X0055132Y0174333D01*
X0055201Y0174319D01*
X0055270Y0174302D01*
X0055337Y0174281D01*
X0055403Y0174256D01*
X0055467Y0174228D01*
X0055530Y0174196D01*
X0055591Y0174161D01*
X0055650Y0174122D01*
X0055707Y0174081D01*
X0055761Y0174036D01*
X0055813Y0173988D01*
X0055862Y0173938D01*
X0055909Y0173884D01*
X0055952Y0173829D01*
X0055992Y0173771D01*
X0056029Y0173711D01*
X0056062Y0173649D01*
X0056092Y0173585D01*
X0056119Y0173520D01*
X0056142Y0173454D01*
X0056161Y0173386D01*
X0056176Y0173317D01*
X0056188Y0173248D01*
X0056196Y0173178D01*
X0056200Y0173107D01*
X0056200Y0173037D01*
X0056196Y0172966D01*
X0056188Y0172896D01*
X0056176Y0172827D01*
X0056161Y0172758D01*
X0056142Y0172690D01*
X0056119Y0172624D01*
X0056092Y0172559D01*
X0056062Y0172495D01*
X0056029Y0172433D01*
X0055992Y0172373D01*
X0055952Y0172315D01*
X0055909Y0172260D01*
X0055862Y0172206D01*
X0055813Y0172156D01*
X0055761Y0172108D01*
X0055707Y0172063D01*
X0055650Y0172022D01*
X0055591Y0171983D01*
X0055530Y0171948D01*
X0055467Y0171916D01*
X0055403Y0171888D01*
X0055337Y0171863D01*
X0055270Y0171842D01*
X0055201Y0171825D01*
X0055132Y0171811D01*
X0055063Y0171802D01*
X0054992Y0171796D01*
X0054922Y0171794D01*
X0052878Y0171794D01*
X0052808Y0171796D01*
X0052737Y0171802D01*
X0052668Y0171811D01*
X0052599Y0171825D01*
X0052530Y0171842D01*
X0052463Y0171863D01*
X0052397Y0171888D01*
X0052333Y0171916D01*
X0052270Y0171948D01*
X0052209Y0171983D01*
X0052150Y0172022D01*
X0052093Y0172063D01*
X0052039Y0172108D01*
X0051987Y0172156D01*
X0051938Y0172206D01*
X0051891Y0172260D01*
X0051848Y0172315D01*
X0051808Y0172373D01*
X0051771Y0172433D01*
X0051738Y0172495D01*
X0051708Y0172559D01*
X0051681Y0172624D01*
X0051658Y0172690D01*
X0051639Y0172758D01*
X0051624Y0172827D01*
X0051612Y0172896D01*
X0051604Y0172966D01*
X0051600Y0173037D01*
X0051600Y0173107D01*
X0051604Y0173178D01*
X0051612Y0173248D01*
X0051624Y0173317D01*
X0051639Y0173386D01*
X0051658Y0173454D01*
X0051681Y0173520D01*
X0051708Y0173585D01*
X0051738Y0173649D01*
X0051771Y0173711D01*
X0051808Y0173771D01*
X0051848Y0173829D01*
X0051891Y0173884D01*
X0051938Y0173938D01*
X0051987Y0173988D01*
X0052039Y0174036D01*
X0052093Y0174081D01*
X0052150Y0174122D01*
X0052209Y0174161D01*
X0052270Y0174196D01*
X0052333Y0174228D01*
X0052397Y0174256D01*
X0052463Y0174281D01*
X0052530Y0174302D01*
X0052599Y0174319D01*
X0052668Y0174333D01*
X0052737Y0174342D01*
X0052808Y0174348D01*
X0052878Y0174350D01*
X0051600Y0169879D02*
X0053644Y0168857D01*
X0053644Y0168601D02*
X0053644Y0167323D01*
X0053644Y0168601D02*
X0053646Y0168671D01*
X0053652Y0168742D01*
X0053661Y0168811D01*
X0053675Y0168880D01*
X0053692Y0168949D01*
X0053713Y0169016D01*
X0053738Y0169082D01*
X0053766Y0169146D01*
X0053798Y0169209D01*
X0053833Y0169270D01*
X0053872Y0169329D01*
X0053913Y0169386D01*
X0053958Y0169440D01*
X0054006Y0169492D01*
X0054056Y0169541D01*
X0054110Y0169588D01*
X0054165Y0169631D01*
X0054223Y0169671D01*
X0054283Y0169708D01*
X0054345Y0169741D01*
X0054409Y0169771D01*
X0054474Y0169798D01*
X0054540Y0169821D01*
X0054608Y0169840D01*
X0054677Y0169855D01*
X0054746Y0169867D01*
X0054816Y0169875D01*
X0054887Y0169879D01*
X0054957Y0169879D01*
X0055028Y0169875D01*
X0055098Y0169867D01*
X0055167Y0169855D01*
X0055236Y0169840D01*
X0055304Y0169821D01*
X0055370Y0169798D01*
X0055435Y0169771D01*
X0055499Y0169741D01*
X0055561Y0169708D01*
X0055621Y0169671D01*
X0055679Y0169631D01*
X0055734Y0169588D01*
X0055788Y0169541D01*
X0055838Y0169492D01*
X0055886Y0169440D01*
X0055931Y0169386D01*
X0055972Y0169329D01*
X0056011Y0169270D01*
X0056046Y0169209D01*
X0056078Y0169146D01*
X0056106Y0169082D01*
X0056131Y0169016D01*
X0056152Y0168949D01*
X0056169Y0168880D01*
X0056183Y0168811D01*
X0056192Y0168742D01*
X0056198Y0168671D01*
X0056200Y0168601D01*
X0056200Y0167323D01*
X0051600Y0167323D01*
X0051600Y0165426D02*
X0051600Y0164404D01*
X0051602Y0164342D01*
X0051607Y0164281D01*
X0051617Y0164220D01*
X0051630Y0164159D01*
X0051646Y0164100D01*
X0051666Y0164042D01*
X0051690Y0163985D01*
X0051717Y0163929D01*
X0051747Y0163875D01*
X0051781Y0163823D01*
X0051817Y0163774D01*
X0051857Y0163726D01*
X0051899Y0163681D01*
X0051944Y0163639D01*
X0051992Y0163599D01*
X0052041Y0163563D01*
X0052093Y0163529D01*
X0052147Y0163499D01*
X0052203Y0163472D01*
X0052260Y0163448D01*
X0052318Y0163428D01*
X0052377Y0163412D01*
X0052438Y0163399D01*
X0052499Y0163389D01*
X0052560Y0163384D01*
X0052622Y0163382D01*
X0052622Y0163381D02*
X0055178Y0163381D01*
X0055178Y0163382D02*
X0055240Y0163384D01*
X0055301Y0163389D01*
X0055362Y0163399D01*
X0055423Y0163412D01*
X0055482Y0163428D01*
X0055540Y0163448D01*
X0055597Y0163472D01*
X0055653Y0163499D01*
X0055707Y0163529D01*
X0055759Y0163563D01*
X0055808Y0163599D01*
X0055856Y0163639D01*
X0055901Y0163681D01*
X0055943Y0163726D01*
X0055982Y0163774D01*
X0056019Y0163823D01*
X0056053Y0163875D01*
X0056083Y0163929D01*
X0056110Y0163985D01*
X0056134Y0164042D01*
X0056154Y0164100D01*
X0056170Y0164159D01*
X0056183Y0164220D01*
X0056193Y0164281D01*
X0056198Y0164342D01*
X0056200Y0164404D01*
X0056200Y0165426D01*
X0056200Y0161583D02*
X0056200Y0160561D01*
X0056200Y0161072D02*
X0051600Y0161072D01*
X0051600Y0160561D02*
X0051600Y0161583D01*
X0051600Y0158556D02*
X0056200Y0158556D01*
X0053644Y0157022D01*
X0056200Y0155489D01*
X0051600Y0155489D01*
X0046200Y0168600D02*
X0041600Y0168600D01*
X0040700Y0168600D02*
X0040700Y0169878D01*
X0040698Y0169948D01*
X0040692Y0170019D01*
X0040683Y0170088D01*
X0040669Y0170157D01*
X0040652Y0170226D01*
X0040631Y0170293D01*
X0040606Y0170359D01*
X0040578Y0170423D01*
X0040546Y0170486D01*
X0040511Y0170547D01*
X0040472Y0170606D01*
X0040431Y0170663D01*
X0040386Y0170717D01*
X0040338Y0170769D01*
X0040288Y0170818D01*
X0040234Y0170865D01*
X0040179Y0170908D01*
X0040121Y0170948D01*
X0040061Y0170985D01*
X0039999Y0171018D01*
X0039935Y0171048D01*
X0039870Y0171075D01*
X0039804Y0171098D01*
X0039736Y0171117D01*
X0039667Y0171132D01*
X0039598Y0171144D01*
X0039528Y0171152D01*
X0039457Y0171156D01*
X0039387Y0171156D01*
X0039316Y0171152D01*
X0039246Y0171144D01*
X0039177Y0171132D01*
X0039108Y0171117D01*
X0039040Y0171098D01*
X0038974Y0171075D01*
X0038909Y0171048D01*
X0038845Y0171018D01*
X0038783Y0170985D01*
X0038723Y0170948D01*
X0038665Y0170908D01*
X0038610Y0170865D01*
X0038556Y0170818D01*
X0038506Y0170769D01*
X0038458Y0170717D01*
X0038413Y0170663D01*
X0038372Y0170606D01*
X0038333Y0170547D01*
X0038298Y0170486D01*
X0038266Y0170423D01*
X0038238Y0170359D01*
X0038213Y0170293D01*
X0038192Y0170226D01*
X0038175Y0170157D01*
X0038161Y0170088D01*
X0038152Y0170019D01*
X0038146Y0169948D01*
X0038144Y0169878D01*
X0038144Y0168600D01*
X0038144Y0170133D02*
X0036100Y0171156D01*
X0037122Y0173071D02*
X0037122Y0175627D01*
X0038144Y0174860D02*
X0036100Y0174860D01*
X0037122Y0173071D02*
X0040700Y0174093D01*
X0041600Y0174349D02*
X0041600Y0173071D01*
X0041600Y0174349D02*
X0041602Y0174419D01*
X0041608Y0174490D01*
X0041617Y0174559D01*
X0041631Y0174628D01*
X0041648Y0174697D01*
X0041669Y0174764D01*
X0041694Y0174830D01*
X0041722Y0174894D01*
X0041754Y0174957D01*
X0041789Y0175018D01*
X0041828Y0175077D01*
X0041869Y0175134D01*
X0041914Y0175188D01*
X0041962Y0175240D01*
X0042012Y0175289D01*
X0042066Y0175336D01*
X0042121Y0175379D01*
X0042179Y0175419D01*
X0042239Y0175456D01*
X0042301Y0175489D01*
X0042365Y0175519D01*
X0042430Y0175546D01*
X0042496Y0175569D01*
X0042564Y0175588D01*
X0042633Y0175603D01*
X0042702Y0175615D01*
X0042772Y0175623D01*
X0042843Y0175627D01*
X0042913Y0175627D01*
X0042984Y0175623D01*
X0043054Y0175615D01*
X0043123Y0175603D01*
X0043192Y0175588D01*
X0043260Y0175569D01*
X0043326Y0175546D01*
X0043391Y0175519D01*
X0043455Y0175489D01*
X0043517Y0175456D01*
X0043577Y0175419D01*
X0043635Y0175379D01*
X0043690Y0175336D01*
X0043744Y0175289D01*
X0043794Y0175240D01*
X0043842Y0175188D01*
X0043887Y0175134D01*
X0043928Y0175077D01*
X0043967Y0175018D01*
X0044002Y0174957D01*
X0044034Y0174894D01*
X0044062Y0174830D01*
X0044087Y0174764D01*
X0044108Y0174697D01*
X0044125Y0174628D01*
X0044139Y0174559D01*
X0044148Y0174490D01*
X0044154Y0174419D01*
X0044156Y0174349D01*
X0044156Y0174604D02*
X0044156Y0173582D01*
X0044156Y0174604D02*
X0044158Y0174667D01*
X0044164Y0174730D01*
X0044173Y0174792D01*
X0044187Y0174853D01*
X0044204Y0174914D01*
X0044225Y0174973D01*
X0044250Y0175031D01*
X0044278Y0175088D01*
X0044309Y0175142D01*
X0044344Y0175194D01*
X0044382Y0175245D01*
X0044423Y0175293D01*
X0044467Y0175338D01*
X0044513Y0175380D01*
X0044562Y0175420D01*
X0044613Y0175456D01*
X0044667Y0175489D01*
X0044722Y0175519D01*
X0044780Y0175545D01*
X0044838Y0175568D01*
X0044898Y0175587D01*
X0044959Y0175602D01*
X0045021Y0175614D01*
X0045084Y0175622D01*
X0045147Y0175626D01*
X0045209Y0175626D01*
X0045272Y0175622D01*
X0045335Y0175614D01*
X0045397Y0175602D01*
X0045458Y0175587D01*
X0045518Y0175568D01*
X0045576Y0175545D01*
X0045634Y0175519D01*
X0045689Y0175489D01*
X0045743Y0175456D01*
X0045794Y0175420D01*
X0045843Y0175380D01*
X0045889Y0175338D01*
X0045933Y0175293D01*
X0045974Y0175245D01*
X0046012Y0175194D01*
X0046047Y0175142D01*
X0046078Y0175088D01*
X0046106Y0175031D01*
X0046131Y0174973D01*
X0046152Y0174914D01*
X0046169Y0174853D01*
X0046183Y0174792D01*
X0046192Y0174730D01*
X0046198Y0174667D01*
X0046200Y0174604D01*
X0046200Y0173071D01*
X0046200Y0169878D02*
X0046200Y0168600D01*
X0046200Y0169878D02*
X0046198Y0169948D01*
X0046192Y0170019D01*
X0046183Y0170088D01*
X0046169Y0170157D01*
X0046152Y0170226D01*
X0046131Y0170293D01*
X0046106Y0170359D01*
X0046078Y0170423D01*
X0046046Y0170486D01*
X0046011Y0170547D01*
X0045972Y0170606D01*
X0045931Y0170663D01*
X0045886Y0170717D01*
X0045838Y0170769D01*
X0045788Y0170818D01*
X0045734Y0170865D01*
X0045679Y0170908D01*
X0045621Y0170948D01*
X0045561Y0170985D01*
X0045499Y0171018D01*
X0045435Y0171048D01*
X0045370Y0171075D01*
X0045304Y0171098D01*
X0045236Y0171117D01*
X0045167Y0171132D01*
X0045098Y0171144D01*
X0045028Y0171152D01*
X0044957Y0171156D01*
X0044887Y0171156D01*
X0044816Y0171152D01*
X0044746Y0171144D01*
X0044677Y0171132D01*
X0044608Y0171117D01*
X0044540Y0171098D01*
X0044474Y0171075D01*
X0044409Y0171048D01*
X0044345Y0171018D01*
X0044283Y0170985D01*
X0044223Y0170948D01*
X0044165Y0170908D01*
X0044110Y0170865D01*
X0044056Y0170818D01*
X0044006Y0170769D01*
X0043958Y0170717D01*
X0043913Y0170663D01*
X0043872Y0170606D01*
X0043833Y0170547D01*
X0043798Y0170486D01*
X0043766Y0170423D01*
X0043738Y0170359D01*
X0043713Y0170293D01*
X0043692Y0170226D01*
X0043675Y0170157D01*
X0043661Y0170088D01*
X0043652Y0170019D01*
X0043646Y0169948D01*
X0043644Y0169878D01*
X0043644Y0168600D01*
X0043644Y0170133D02*
X0041600Y0171156D01*
X0040700Y0168600D02*
X0036100Y0168600D01*
X0061600Y0166444D02*
X0066200Y0166444D01*
X0064922Y0168539D02*
X0062878Y0168539D01*
X0062808Y0168541D01*
X0062737Y0168547D01*
X0062668Y0168556D01*
X0062599Y0168570D01*
X0062530Y0168587D01*
X0062463Y0168608D01*
X0062397Y0168633D01*
X0062333Y0168661D01*
X0062270Y0168693D01*
X0062209Y0168728D01*
X0062150Y0168767D01*
X0062093Y0168808D01*
X0062039Y0168853D01*
X0061987Y0168901D01*
X0061938Y0168951D01*
X0061891Y0169005D01*
X0061848Y0169060D01*
X0061808Y0169118D01*
X0061771Y0169178D01*
X0061738Y0169240D01*
X0061708Y0169304D01*
X0061681Y0169369D01*
X0061658Y0169435D01*
X0061639Y0169503D01*
X0061624Y0169572D01*
X0061612Y0169641D01*
X0061604Y0169711D01*
X0061600Y0169782D01*
X0061600Y0169852D01*
X0061604Y0169923D01*
X0061612Y0169993D01*
X0061624Y0170062D01*
X0061639Y0170131D01*
X0061658Y0170199D01*
X0061681Y0170265D01*
X0061708Y0170330D01*
X0061738Y0170394D01*
X0061771Y0170456D01*
X0061808Y0170516D01*
X0061848Y0170574D01*
X0061891Y0170629D01*
X0061938Y0170683D01*
X0061987Y0170733D01*
X0062039Y0170781D01*
X0062093Y0170826D01*
X0062150Y0170867D01*
X0062209Y0170906D01*
X0062270Y0170941D01*
X0062333Y0170973D01*
X0062397Y0171001D01*
X0062463Y0171026D01*
X0062530Y0171047D01*
X0062599Y0171064D01*
X0062668Y0171078D01*
X0062737Y0171087D01*
X0062808Y0171093D01*
X0062878Y0171095D01*
X0062878Y0171094D02*
X0064922Y0171094D01*
X0064922Y0171095D02*
X0064992Y0171093D01*
X0065063Y0171087D01*
X0065132Y0171078D01*
X0065201Y0171064D01*
X0065270Y0171047D01*
X0065337Y0171026D01*
X0065403Y0171001D01*
X0065467Y0170973D01*
X0065530Y0170941D01*
X0065591Y0170906D01*
X0065650Y0170867D01*
X0065707Y0170826D01*
X0065761Y0170781D01*
X0065813Y0170733D01*
X0065862Y0170683D01*
X0065909Y0170629D01*
X0065952Y0170574D01*
X0065992Y0170516D01*
X0066029Y0170456D01*
X0066062Y0170394D01*
X0066092Y0170330D01*
X0066119Y0170265D01*
X0066142Y0170199D01*
X0066161Y0170131D01*
X0066176Y0170062D01*
X0066188Y0169993D01*
X0066196Y0169923D01*
X0066200Y0169852D01*
X0066200Y0169782D01*
X0066196Y0169711D01*
X0066188Y0169641D01*
X0066176Y0169572D01*
X0066161Y0169503D01*
X0066142Y0169435D01*
X0066119Y0169369D01*
X0066092Y0169304D01*
X0066062Y0169240D01*
X0066029Y0169178D01*
X0065992Y0169118D01*
X0065952Y0169060D01*
X0065909Y0169005D01*
X0065862Y0168951D01*
X0065813Y0168901D01*
X0065761Y0168853D01*
X0065707Y0168808D01*
X0065650Y0168767D01*
X0065591Y0168728D01*
X0065530Y0168693D01*
X0065467Y0168661D01*
X0065403Y0168633D01*
X0065337Y0168608D01*
X0065270Y0168587D01*
X0065201Y0168570D01*
X0065132Y0168556D01*
X0065063Y0168547D01*
X0064992Y0168541D01*
X0064922Y0168539D01*
X0064283Y0173528D02*
X0063517Y0174933D01*
X0061600Y0174422D02*
X0061602Y0174332D01*
X0061607Y0174243D01*
X0061617Y0174154D01*
X0061630Y0174065D01*
X0061646Y0173977D01*
X0061667Y0173889D01*
X0061691Y0173803D01*
X0061718Y0173717D01*
X0061749Y0173633D01*
X0061784Y0173550D01*
X0061822Y0173469D01*
X0061863Y0173389D01*
X0061907Y0173312D01*
X0061955Y0173236D01*
X0062006Y0173162D01*
X0062060Y0173090D01*
X0062117Y0173021D01*
X0062176Y0172953D01*
X0062239Y0172889D01*
X0063516Y0174933D02*
X0063482Y0174987D01*
X0063445Y0175038D01*
X0063405Y0175087D01*
X0063362Y0175134D01*
X0063316Y0175177D01*
X0063268Y0175218D01*
X0063217Y0175256D01*
X0063164Y0175291D01*
X0063109Y0175323D01*
X0063052Y0175351D01*
X0062994Y0175375D01*
X0062934Y0175396D01*
X0062873Y0175413D01*
X0062811Y0175427D01*
X0062748Y0175436D01*
X0062685Y0175442D01*
X0062622Y0175444D01*
X0062560Y0175442D01*
X0062499Y0175437D01*
X0062438Y0175427D01*
X0062377Y0175414D01*
X0062318Y0175398D01*
X0062260Y0175378D01*
X0062203Y0175354D01*
X0062147Y0175327D01*
X0062093Y0175297D01*
X0062041Y0175263D01*
X0061992Y0175227D01*
X0061944Y0175187D01*
X0061899Y0175145D01*
X0061857Y0175100D01*
X0061817Y0175052D01*
X0061781Y0175003D01*
X0061747Y0174951D01*
X0061717Y0174897D01*
X0061690Y0174841D01*
X0061666Y0174784D01*
X0061646Y0174726D01*
X0061630Y0174667D01*
X0061617Y0174606D01*
X0061607Y0174545D01*
X0061602Y0174484D01*
X0061600Y0174422D01*
X0061600Y0177106D02*
X0061600Y0178128D01*
X0061600Y0177617D02*
X0066200Y0177617D01*
X0066200Y0177106D02*
X0066200Y0178128D01*
X0066200Y0180133D02*
X0063644Y0181667D01*
X0066200Y0183200D01*
X0061600Y0183200D01*
X0061600Y0180133D02*
X0066200Y0180133D01*
X0064284Y0173528D02*
X0064318Y0173474D01*
X0064355Y0173423D01*
X0064395Y0173374D01*
X0064438Y0173327D01*
X0064484Y0173284D01*
X0064532Y0173243D01*
X0064583Y0173205D01*
X0064636Y0173170D01*
X0064691Y0173138D01*
X0064748Y0173110D01*
X0064806Y0173086D01*
X0064866Y0173065D01*
X0064927Y0173048D01*
X0064989Y0173034D01*
X0065052Y0173025D01*
X0065115Y0173019D01*
X0065178Y0173017D01*
X0065240Y0173019D01*
X0065301Y0173024D01*
X0065362Y0173034D01*
X0065423Y0173047D01*
X0065482Y0173063D01*
X0065540Y0173083D01*
X0065597Y0173107D01*
X0065653Y0173134D01*
X0065707Y0173164D01*
X0065759Y0173198D01*
X0065808Y0173235D01*
X0065856Y0173274D01*
X0065901Y0173316D01*
X0065943Y0173361D01*
X0065983Y0173409D01*
X0066019Y0173458D01*
X0066053Y0173510D01*
X0066083Y0173564D01*
X0066110Y0173620D01*
X0066134Y0173677D01*
X0066154Y0173735D01*
X0066170Y0173794D01*
X0066183Y0173855D01*
X0066193Y0173916D01*
X0066198Y0173977D01*
X0066200Y0174039D01*
X0066198Y0174121D01*
X0066193Y0174203D01*
X0066184Y0174285D01*
X0066172Y0174366D01*
X0066156Y0174447D01*
X0066137Y0174527D01*
X0066114Y0174606D01*
X0066088Y0174684D01*
X0066059Y0174761D01*
X0066026Y0174836D01*
X0065990Y0174910D01*
X0065952Y0174983D01*
X0065910Y0175054D01*
X0065865Y0175122D01*
X0065817Y0175189D01*
X0061600Y0166444D02*
X0066200Y0163889D01*
X0061600Y0163889D01*
X0061600Y0162050D02*
X0066200Y0160517D01*
X0061600Y0158983D01*
X0062750Y0159367D02*
X0062750Y0161667D01*
X0061600Y0157144D02*
X0066200Y0157144D01*
X0066200Y0154589D02*
X0061600Y0157144D01*
X0061600Y0154589D02*
X0066200Y0154589D01*
X0063133Y0150700D02*
X0061728Y0148783D01*
X0061702Y0148746D01*
X0061678Y0148707D01*
X0061658Y0148666D01*
X0061640Y0148624D01*
X0061626Y0148580D01*
X0061615Y0148536D01*
X0061607Y0148491D01*
X0061602Y0148446D01*
X0061600Y0148400D01*
X0061602Y0148345D01*
X0061608Y0148291D01*
X0061618Y0148237D01*
X0061631Y0148184D01*
X0061648Y0148132D01*
X0061669Y0148081D01*
X0061694Y0148032D01*
X0061722Y0147985D01*
X0061753Y0147940D01*
X0061787Y0147898D01*
X0061825Y0147858D01*
X0061865Y0147820D01*
X0061907Y0147786D01*
X0061952Y0147755D01*
X0061999Y0147727D01*
X0062048Y0147702D01*
X0062099Y0147681D01*
X0062151Y0147664D01*
X0062204Y0147651D01*
X0062258Y0147641D01*
X0062312Y0147635D01*
X0062367Y0147633D01*
X0062750Y0147761D02*
X0065050Y0149295D01*
X0065051Y0148018D02*
X0065097Y0147991D01*
X0065145Y0147968D01*
X0065194Y0147948D01*
X0065245Y0147932D01*
X0065297Y0147919D01*
X0065350Y0147910D01*
X0065403Y0147905D01*
X0065456Y0147904D01*
X0065509Y0147907D01*
X0065562Y0147913D01*
X0065615Y0147923D01*
X0065666Y0147936D01*
X0065717Y0147954D01*
X0065766Y0147974D01*
X0065813Y0147999D01*
X0065859Y0148026D01*
X0065902Y0148057D01*
X0065944Y0148091D01*
X0065983Y0148127D01*
X0066019Y0148166D01*
X0066052Y0148208D01*
X0066082Y0148252D01*
X0066109Y0148298D01*
X0066133Y0148346D01*
X0066153Y0148395D01*
X0066170Y0148446D01*
X0066183Y0148497D01*
X0066192Y0148550D01*
X0066198Y0148603D01*
X0066200Y0148656D01*
X0066198Y0148709D01*
X0066192Y0148762D01*
X0066183Y0148815D01*
X0066170Y0148866D01*
X0066153Y0148917D01*
X0066133Y0148966D01*
X0066109Y0149014D01*
X0066082Y0149060D01*
X0066052Y0149104D01*
X0066019Y0149146D01*
X0065983Y0149185D01*
X0065944Y0149221D01*
X0065902Y0149255D01*
X0065859Y0149286D01*
X0065813Y0149313D01*
X0065766Y0149338D01*
X0065717Y0149358D01*
X0065666Y0149376D01*
X0065615Y0149389D01*
X0065562Y0149399D01*
X0065509Y0149405D01*
X0065456Y0149408D01*
X0065403Y0149407D01*
X0065350Y0149402D01*
X0065297Y0149393D01*
X0065245Y0149380D01*
X0065194Y0149364D01*
X0065145Y0149344D01*
X0065097Y0149321D01*
X0065051Y0149294D01*
X0065050Y0148017D02*
X0061600Y0150189D01*
X0062367Y0147633D02*
X0062413Y0147635D01*
X0062458Y0147640D01*
X0062503Y0147648D01*
X0062547Y0147659D01*
X0062591Y0147673D01*
X0062633Y0147691D01*
X0062674Y0147711D01*
X0062713Y0147735D01*
X0062750Y0147761D01*
X0091381Y0137122D02*
X0093937Y0137122D01*
X0092915Y0140700D01*
X0092148Y0138144D02*
X0092148Y0136100D01*
X0095656Y0136100D02*
X0096678Y0136100D01*
X0096740Y0136102D01*
X0096801Y0136107D01*
X0096862Y0136117D01*
X0096923Y0136130D01*
X0096982Y0136146D01*
X0097040Y0136166D01*
X0097097Y0136190D01*
X0097153Y0136217D01*
X0097207Y0136247D01*
X0097259Y0136281D01*
X0097308Y0136317D01*
X0097356Y0136357D01*
X0097401Y0136399D01*
X0097443Y0136444D01*
X0097483Y0136492D01*
X0097519Y0136541D01*
X0097553Y0136593D01*
X0097583Y0136647D01*
X0097610Y0136703D01*
X0097634Y0136760D01*
X0097654Y0136818D01*
X0097670Y0136877D01*
X0097683Y0136938D01*
X0097693Y0136999D01*
X0097698Y0137060D01*
X0097700Y0137122D01*
X0097700Y0139678D01*
X0097698Y0139740D01*
X0097693Y0139801D01*
X0097683Y0139862D01*
X0097670Y0139923D01*
X0097654Y0139982D01*
X0097634Y0140040D01*
X0097610Y0140097D01*
X0097583Y0140153D01*
X0097553Y0140207D01*
X0097519Y0140259D01*
X0097483Y0140308D01*
X0097443Y0140356D01*
X0097401Y0140401D01*
X0097356Y0140443D01*
X0097308Y0140483D01*
X0097259Y0140519D01*
X0097207Y0140553D01*
X0097153Y0140583D01*
X0097097Y0140610D01*
X0097040Y0140634D01*
X0096982Y0140654D01*
X0096923Y0140670D01*
X0096862Y0140683D01*
X0096801Y0140693D01*
X0096740Y0140698D01*
X0096678Y0140700D01*
X0095656Y0140700D01*
X0102100Y0130700D02*
X0103378Y0126100D01*
X0102356Y0124678D02*
X0102358Y0124615D01*
X0102364Y0124552D01*
X0102373Y0124490D01*
X0102387Y0124429D01*
X0102404Y0124368D01*
X0102425Y0124309D01*
X0102450Y0124251D01*
X0102478Y0124194D01*
X0102509Y0124140D01*
X0102544Y0124088D01*
X0102582Y0124037D01*
X0102623Y0123989D01*
X0102667Y0123944D01*
X0102713Y0123902D01*
X0102762Y0123862D01*
X0102813Y0123826D01*
X0102867Y0123793D01*
X0102922Y0123763D01*
X0102980Y0123737D01*
X0103038Y0123714D01*
X0103098Y0123695D01*
X0103159Y0123680D01*
X0103221Y0123668D01*
X0103284Y0123660D01*
X0103347Y0123656D01*
X0103409Y0123656D01*
X0103472Y0123660D01*
X0103535Y0123668D01*
X0103597Y0123680D01*
X0103658Y0123695D01*
X0103718Y0123714D01*
X0103776Y0123737D01*
X0103834Y0123763D01*
X0103889Y0123793D01*
X0103943Y0123826D01*
X0103994Y0123862D01*
X0104043Y0123902D01*
X0104089Y0123944D01*
X0104133Y0123989D01*
X0104174Y0124037D01*
X0104212Y0124088D01*
X0104247Y0124140D01*
X0104278Y0124194D01*
X0104306Y0124251D01*
X0104331Y0124309D01*
X0104352Y0124368D01*
X0104369Y0124429D01*
X0104383Y0124490D01*
X0104392Y0124552D01*
X0104398Y0124615D01*
X0104400Y0124678D01*
X0104398Y0124741D01*
X0104392Y0124804D01*
X0104383Y0124866D01*
X0104369Y0124927D01*
X0104352Y0124988D01*
X0104331Y0125047D01*
X0104306Y0125105D01*
X0104278Y0125162D01*
X0104247Y0125216D01*
X0104212Y0125268D01*
X0104174Y0125319D01*
X0104133Y0125367D01*
X0104089Y0125412D01*
X0104043Y0125454D01*
X0103994Y0125494D01*
X0103943Y0125530D01*
X0103889Y0125563D01*
X0103834Y0125593D01*
X0103776Y0125619D01*
X0103718Y0125642D01*
X0103658Y0125661D01*
X0103597Y0125676D01*
X0103535Y0125688D01*
X0103472Y0125696D01*
X0103409Y0125700D01*
X0103347Y0125700D01*
X0103284Y0125696D01*
X0103221Y0125688D01*
X0103159Y0125676D01*
X0103098Y0125661D01*
X0103038Y0125642D01*
X0102980Y0125619D01*
X0102922Y0125593D01*
X0102867Y0125563D01*
X0102813Y0125530D01*
X0102762Y0125494D01*
X0102713Y0125454D01*
X0102667Y0125412D01*
X0102623Y0125367D01*
X0102582Y0125319D01*
X0102544Y0125268D01*
X0102509Y0125216D01*
X0102478Y0125162D01*
X0102450Y0125105D01*
X0102425Y0125047D01*
X0102404Y0124988D01*
X0102387Y0124927D01*
X0102373Y0124866D01*
X0102364Y0124804D01*
X0102358Y0124741D01*
X0102356Y0124678D01*
X0102100Y0122378D02*
X0102102Y0122308D01*
X0102108Y0122237D01*
X0102117Y0122168D01*
X0102131Y0122099D01*
X0102148Y0122030D01*
X0102169Y0121963D01*
X0102194Y0121897D01*
X0102222Y0121833D01*
X0102254Y0121770D01*
X0102289Y0121709D01*
X0102328Y0121650D01*
X0102369Y0121593D01*
X0102414Y0121539D01*
X0102462Y0121487D01*
X0102512Y0121438D01*
X0102566Y0121391D01*
X0102621Y0121348D01*
X0102679Y0121308D01*
X0102739Y0121271D01*
X0102801Y0121238D01*
X0102865Y0121208D01*
X0102930Y0121181D01*
X0102996Y0121158D01*
X0103064Y0121139D01*
X0103133Y0121124D01*
X0103202Y0121112D01*
X0103272Y0121104D01*
X0103343Y0121100D01*
X0103413Y0121100D01*
X0103484Y0121104D01*
X0103554Y0121112D01*
X0103623Y0121124D01*
X0103692Y0121139D01*
X0103760Y0121158D01*
X0103826Y0121181D01*
X0103891Y0121208D01*
X0103955Y0121238D01*
X0104017Y0121271D01*
X0104077Y0121308D01*
X0104135Y0121348D01*
X0104190Y0121391D01*
X0104244Y0121438D01*
X0104294Y0121487D01*
X0104342Y0121539D01*
X0104387Y0121593D01*
X0104428Y0121650D01*
X0104467Y0121709D01*
X0104502Y0121770D01*
X0104534Y0121833D01*
X0104562Y0121897D01*
X0104587Y0121963D01*
X0104608Y0122030D01*
X0104625Y0122099D01*
X0104639Y0122168D01*
X0104648Y0122237D01*
X0104654Y0122308D01*
X0104656Y0122378D01*
X0104654Y0122448D01*
X0104648Y0122519D01*
X0104639Y0122588D01*
X0104625Y0122657D01*
X0104608Y0122726D01*
X0104587Y0122793D01*
X0104562Y0122859D01*
X0104534Y0122923D01*
X0104502Y0122986D01*
X0104467Y0123047D01*
X0104428Y0123106D01*
X0104387Y0123163D01*
X0104342Y0123217D01*
X0104294Y0123269D01*
X0104244Y0123318D01*
X0104190Y0123365D01*
X0104135Y0123408D01*
X0104077Y0123448D01*
X0104017Y0123485D01*
X0103955Y0123518D01*
X0103891Y0123548D01*
X0103826Y0123575D01*
X0103760Y0123598D01*
X0103692Y0123617D01*
X0103623Y0123632D01*
X0103554Y0123644D01*
X0103484Y0123652D01*
X0103413Y0123656D01*
X0103343Y0123656D01*
X0103272Y0123652D01*
X0103202Y0123644D01*
X0103133Y0123632D01*
X0103064Y0123617D01*
X0102996Y0123598D01*
X0102930Y0123575D01*
X0102865Y0123548D01*
X0102801Y0123518D01*
X0102739Y0123485D01*
X0102679Y0123448D01*
X0102621Y0123408D01*
X0102566Y0123365D01*
X0102512Y0123318D01*
X0102462Y0123269D01*
X0102414Y0123217D01*
X0102369Y0123163D01*
X0102328Y0123106D01*
X0102289Y0123047D01*
X0102254Y0122986D01*
X0102222Y0122923D01*
X0102194Y0122859D01*
X0102169Y0122793D01*
X0102148Y0122726D01*
X0102131Y0122657D01*
X0102117Y0122588D01*
X0102108Y0122519D01*
X0102102Y0122448D01*
X0102100Y0122378D01*
X0106374Y0121100D02*
X0107396Y0121100D01*
X0107458Y0121102D01*
X0107519Y0121107D01*
X0107580Y0121117D01*
X0107641Y0121130D01*
X0107700Y0121146D01*
X0107758Y0121166D01*
X0107815Y0121190D01*
X0107871Y0121217D01*
X0107925Y0121247D01*
X0107977Y0121281D01*
X0108026Y0121317D01*
X0108074Y0121357D01*
X0108119Y0121399D01*
X0108161Y0121444D01*
X0108201Y0121492D01*
X0108237Y0121541D01*
X0108271Y0121593D01*
X0108301Y0121647D01*
X0108328Y0121703D01*
X0108352Y0121760D01*
X0108372Y0121818D01*
X0108388Y0121877D01*
X0108401Y0121938D01*
X0108411Y0121999D01*
X0108416Y0122060D01*
X0108418Y0122122D01*
X0108419Y0122122D02*
X0108419Y0124678D01*
X0108418Y0124678D02*
X0108416Y0124740D01*
X0108411Y0124801D01*
X0108401Y0124862D01*
X0108388Y0124923D01*
X0108372Y0124982D01*
X0108352Y0125040D01*
X0108328Y0125097D01*
X0108301Y0125153D01*
X0108271Y0125207D01*
X0108237Y0125259D01*
X0108201Y0125308D01*
X0108161Y0125356D01*
X0108119Y0125401D01*
X0108074Y0125443D01*
X0108026Y0125483D01*
X0107977Y0125519D01*
X0107925Y0125553D01*
X0107871Y0125583D01*
X0107815Y0125610D01*
X0107758Y0125634D01*
X0107700Y0125654D01*
X0107641Y0125670D01*
X0107580Y0125683D01*
X0107519Y0125693D01*
X0107458Y0125698D01*
X0107396Y0125700D01*
X0106374Y0125700D01*
X0106374Y0126100D02*
X0107396Y0126100D01*
X0107458Y0126102D01*
X0107519Y0126107D01*
X0107580Y0126117D01*
X0107641Y0126130D01*
X0107700Y0126146D01*
X0107758Y0126166D01*
X0107815Y0126190D01*
X0107871Y0126217D01*
X0107925Y0126247D01*
X0107977Y0126281D01*
X0108026Y0126317D01*
X0108074Y0126357D01*
X0108119Y0126399D01*
X0108161Y0126444D01*
X0108201Y0126492D01*
X0108237Y0126541D01*
X0108271Y0126593D01*
X0108301Y0126647D01*
X0108328Y0126703D01*
X0108352Y0126760D01*
X0108372Y0126818D01*
X0108388Y0126877D01*
X0108401Y0126938D01*
X0108411Y0126999D01*
X0108416Y0127060D01*
X0108418Y0127122D01*
X0108419Y0127122D02*
X0108419Y0129678D01*
X0108418Y0129678D02*
X0108416Y0129740D01*
X0108411Y0129801D01*
X0108401Y0129862D01*
X0108388Y0129923D01*
X0108372Y0129982D01*
X0108352Y0130040D01*
X0108328Y0130097D01*
X0108301Y0130153D01*
X0108271Y0130207D01*
X0108237Y0130259D01*
X0108201Y0130308D01*
X0108161Y0130356D01*
X0108119Y0130401D01*
X0108074Y0130443D01*
X0108026Y0130483D01*
X0107977Y0130519D01*
X0107925Y0130553D01*
X0107871Y0130583D01*
X0107815Y0130610D01*
X0107758Y0130634D01*
X0107700Y0130654D01*
X0107641Y0130670D01*
X0107580Y0130683D01*
X0107519Y0130693D01*
X0107458Y0130698D01*
X0107396Y0130700D01*
X0106374Y0130700D01*
X0104656Y0130700D02*
X0102100Y0130700D01*
X0104656Y0130700D02*
X0104656Y0130189D01*
X0104656Y0186100D02*
X0103122Y0186100D01*
X0103060Y0186102D01*
X0102999Y0186107D01*
X0102938Y0186117D01*
X0102877Y0186130D01*
X0102818Y0186146D01*
X0102760Y0186166D01*
X0102703Y0186190D01*
X0102647Y0186217D01*
X0102593Y0186247D01*
X0102541Y0186281D01*
X0102492Y0186317D01*
X0102444Y0186357D01*
X0102399Y0186399D01*
X0102357Y0186444D01*
X0102317Y0186492D01*
X0102281Y0186541D01*
X0102247Y0186593D01*
X0102217Y0186647D01*
X0102190Y0186703D01*
X0102166Y0186760D01*
X0102146Y0186818D01*
X0102130Y0186877D01*
X0102117Y0186938D01*
X0102107Y0186999D01*
X0102102Y0187060D01*
X0102100Y0187122D01*
X0102100Y0187633D01*
X0102102Y0187695D01*
X0102107Y0187756D01*
X0102117Y0187817D01*
X0102130Y0187878D01*
X0102146Y0187937D01*
X0102166Y0187995D01*
X0102190Y0188052D01*
X0102217Y0188108D01*
X0102247Y0188162D01*
X0102281Y0188214D01*
X0102317Y0188263D01*
X0102357Y0188311D01*
X0102399Y0188356D01*
X0102444Y0188398D01*
X0102492Y0188438D01*
X0102541Y0188474D01*
X0102593Y0188508D01*
X0102647Y0188538D01*
X0102703Y0188565D01*
X0102760Y0188589D01*
X0102818Y0188609D01*
X0102877Y0188625D01*
X0102938Y0188638D01*
X0102999Y0188648D01*
X0103060Y0188653D01*
X0103122Y0188655D01*
X0103122Y0188656D02*
X0104656Y0188656D01*
X0104656Y0190700D01*
X0102100Y0190700D01*
X0106374Y0190700D02*
X0107396Y0190700D01*
X0107458Y0190698D01*
X0107519Y0190693D01*
X0107580Y0190683D01*
X0107641Y0190670D01*
X0107700Y0190654D01*
X0107758Y0190634D01*
X0107815Y0190610D01*
X0107871Y0190583D01*
X0107925Y0190553D01*
X0107977Y0190519D01*
X0108026Y0190483D01*
X0108074Y0190443D01*
X0108119Y0190401D01*
X0108161Y0190356D01*
X0108201Y0190308D01*
X0108237Y0190259D01*
X0108271Y0190207D01*
X0108301Y0190153D01*
X0108328Y0190097D01*
X0108352Y0190040D01*
X0108372Y0189982D01*
X0108388Y0189923D01*
X0108401Y0189862D01*
X0108411Y0189801D01*
X0108416Y0189740D01*
X0108418Y0189678D01*
X0108419Y0189678D02*
X0108419Y0187122D01*
X0108418Y0187122D02*
X0108416Y0187060D01*
X0108411Y0186999D01*
X0108401Y0186938D01*
X0108388Y0186877D01*
X0108372Y0186818D01*
X0108352Y0186760D01*
X0108328Y0186703D01*
X0108301Y0186647D01*
X0108271Y0186593D01*
X0108237Y0186541D01*
X0108201Y0186492D01*
X0108161Y0186444D01*
X0108119Y0186399D01*
X0108074Y0186357D01*
X0108026Y0186317D01*
X0107977Y0186281D01*
X0107925Y0186247D01*
X0107871Y0186217D01*
X0107815Y0186190D01*
X0107758Y0186166D01*
X0107700Y0186146D01*
X0107641Y0186130D01*
X0107580Y0186117D01*
X0107519Y0186107D01*
X0107458Y0186102D01*
X0107396Y0186100D01*
X0106374Y0186100D01*
X0091200Y0198122D02*
X0091200Y0200678D01*
X0091198Y0200740D01*
X0091193Y0200801D01*
X0091183Y0200862D01*
X0091170Y0200923D01*
X0091154Y0200982D01*
X0091134Y0201040D01*
X0091110Y0201097D01*
X0091083Y0201153D01*
X0091053Y0201207D01*
X0091019Y0201259D01*
X0090983Y0201308D01*
X0090943Y0201356D01*
X0090901Y0201401D01*
X0090856Y0201443D01*
X0090808Y0201483D01*
X0090759Y0201519D01*
X0090707Y0201553D01*
X0090653Y0201583D01*
X0090597Y0201610D01*
X0090540Y0201634D01*
X0090482Y0201654D01*
X0090423Y0201670D01*
X0090362Y0201683D01*
X0090301Y0201693D01*
X0090240Y0201698D01*
X0090178Y0201700D01*
X0089156Y0201700D01*
X0087437Y0199656D02*
X0087437Y0198378D01*
X0087437Y0199656D02*
X0085904Y0199656D01*
X0087436Y0199656D02*
X0087434Y0199745D01*
X0087428Y0199834D01*
X0087419Y0199923D01*
X0087405Y0200011D01*
X0087388Y0200098D01*
X0087366Y0200185D01*
X0087341Y0200271D01*
X0087313Y0200355D01*
X0087280Y0200438D01*
X0087244Y0200520D01*
X0087205Y0200600D01*
X0087162Y0200678D01*
X0087116Y0200754D01*
X0087066Y0200828D01*
X0087014Y0200900D01*
X0086958Y0200970D01*
X0086899Y0201037D01*
X0086837Y0201101D01*
X0086773Y0201163D01*
X0086706Y0201222D01*
X0086636Y0201278D01*
X0086564Y0201330D01*
X0086490Y0201380D01*
X0086414Y0201426D01*
X0086336Y0201469D01*
X0086256Y0201508D01*
X0086174Y0201544D01*
X0086091Y0201577D01*
X0086007Y0201605D01*
X0085921Y0201630D01*
X0085834Y0201652D01*
X0085747Y0201669D01*
X0085659Y0201683D01*
X0085570Y0201692D01*
X0085481Y0201698D01*
X0085392Y0201700D01*
X0084881Y0198633D02*
X0084881Y0198378D01*
X0084882Y0198633D02*
X0084884Y0198695D01*
X0084889Y0198756D01*
X0084899Y0198817D01*
X0084912Y0198878D01*
X0084928Y0198937D01*
X0084948Y0198995D01*
X0084972Y0199052D01*
X0084999Y0199108D01*
X0085029Y0199162D01*
X0085063Y0199214D01*
X0085099Y0199263D01*
X0085139Y0199311D01*
X0085181Y0199356D01*
X0085226Y0199398D01*
X0085274Y0199438D01*
X0085323Y0199474D01*
X0085375Y0199508D01*
X0085429Y0199538D01*
X0085485Y0199565D01*
X0085542Y0199589D01*
X0085600Y0199609D01*
X0085659Y0199625D01*
X0085720Y0199638D01*
X0085781Y0199648D01*
X0085842Y0199653D01*
X0085904Y0199655D01*
X0084881Y0198378D02*
X0084883Y0198308D01*
X0084889Y0198237D01*
X0084898Y0198168D01*
X0084912Y0198099D01*
X0084929Y0198030D01*
X0084950Y0197963D01*
X0084975Y0197897D01*
X0085003Y0197833D01*
X0085035Y0197770D01*
X0085070Y0197709D01*
X0085109Y0197650D01*
X0085150Y0197593D01*
X0085195Y0197539D01*
X0085243Y0197487D01*
X0085293Y0197438D01*
X0085347Y0197391D01*
X0085402Y0197348D01*
X0085460Y0197308D01*
X0085520Y0197271D01*
X0085582Y0197238D01*
X0085646Y0197208D01*
X0085711Y0197181D01*
X0085777Y0197158D01*
X0085845Y0197139D01*
X0085914Y0197124D01*
X0085983Y0197112D01*
X0086053Y0197104D01*
X0086124Y0197100D01*
X0086194Y0197100D01*
X0086265Y0197104D01*
X0086335Y0197112D01*
X0086404Y0197124D01*
X0086473Y0197139D01*
X0086541Y0197158D01*
X0086607Y0197181D01*
X0086672Y0197208D01*
X0086736Y0197238D01*
X0086798Y0197271D01*
X0086858Y0197308D01*
X0086916Y0197348D01*
X0086971Y0197391D01*
X0087025Y0197438D01*
X0087075Y0197487D01*
X0087123Y0197539D01*
X0087168Y0197593D01*
X0087209Y0197650D01*
X0087248Y0197709D01*
X0087283Y0197770D01*
X0087315Y0197833D01*
X0087343Y0197897D01*
X0087368Y0197963D01*
X0087389Y0198030D01*
X0087406Y0198099D01*
X0087420Y0198168D01*
X0087429Y0198237D01*
X0087435Y0198308D01*
X0087437Y0198378D01*
X0089156Y0197100D02*
X0090178Y0197100D01*
X0090240Y0197102D01*
X0090301Y0197107D01*
X0090362Y0197117D01*
X0090423Y0197130D01*
X0090482Y0197146D01*
X0090540Y0197166D01*
X0090597Y0197190D01*
X0090653Y0197217D01*
X0090707Y0197247D01*
X0090759Y0197281D01*
X0090808Y0197317D01*
X0090856Y0197357D01*
X0090901Y0197399D01*
X0090943Y0197444D01*
X0090983Y0197492D01*
X0091019Y0197541D01*
X0091053Y0197593D01*
X0091083Y0197647D01*
X0091110Y0197703D01*
X0091134Y0197760D01*
X0091154Y0197818D01*
X0091170Y0197877D01*
X0091183Y0197938D01*
X0091193Y0197999D01*
X0091198Y0198060D01*
X0091200Y0198122D01*
X0091122Y0220881D02*
X0093678Y0220881D01*
X0093678Y0220882D02*
X0093740Y0220884D01*
X0093801Y0220889D01*
X0093862Y0220899D01*
X0093923Y0220912D01*
X0093982Y0220928D01*
X0094040Y0220948D01*
X0094097Y0220972D01*
X0094153Y0220999D01*
X0094207Y0221029D01*
X0094259Y0221063D01*
X0094308Y0221099D01*
X0094356Y0221139D01*
X0094401Y0221181D01*
X0094443Y0221226D01*
X0094482Y0221274D01*
X0094519Y0221323D01*
X0094553Y0221375D01*
X0094583Y0221429D01*
X0094610Y0221485D01*
X0094634Y0221542D01*
X0094654Y0221600D01*
X0094670Y0221659D01*
X0094683Y0221720D01*
X0094693Y0221781D01*
X0094698Y0221842D01*
X0094700Y0221904D01*
X0094700Y0222926D01*
X0093678Y0224644D02*
X0094700Y0225922D01*
X0090100Y0225922D01*
X0090100Y0224644D02*
X0090100Y0227200D01*
X0088700Y0225922D02*
X0087678Y0224644D01*
X0088700Y0225922D02*
X0084100Y0225922D01*
X0084100Y0224644D02*
X0084100Y0227200D01*
X0084100Y0229144D02*
X0084100Y0231700D01*
X0084100Y0230422D02*
X0088700Y0230422D01*
X0087678Y0229144D01*
X0090100Y0229144D02*
X0090100Y0231700D01*
X0090100Y0229144D02*
X0092656Y0231317D01*
X0094700Y0230550D02*
X0094698Y0230476D01*
X0094693Y0230402D01*
X0094683Y0230328D01*
X0094670Y0230255D01*
X0094654Y0230182D01*
X0094633Y0230111D01*
X0094609Y0230041D01*
X0094582Y0229972D01*
X0094551Y0229904D01*
X0094517Y0229838D01*
X0094480Y0229774D01*
X0094439Y0229712D01*
X0094395Y0229652D01*
X0094349Y0229594D01*
X0094299Y0229538D01*
X0094247Y0229485D01*
X0094192Y0229435D01*
X0094135Y0229388D01*
X0094075Y0229344D01*
X0094013Y0229302D01*
X0093950Y0229264D01*
X0093884Y0229229D01*
X0093817Y0229198D01*
X0093748Y0229170D01*
X0093678Y0229145D01*
X0092656Y0231317D02*
X0092703Y0231364D01*
X0092753Y0231408D01*
X0092805Y0231450D01*
X0092859Y0231489D01*
X0092915Y0231524D01*
X0092973Y0231557D01*
X0093033Y0231587D01*
X0093094Y0231613D01*
X0093157Y0231636D01*
X0093221Y0231655D01*
X0093285Y0231671D01*
X0093351Y0231684D01*
X0093417Y0231693D01*
X0093483Y0231698D01*
X0093550Y0231700D01*
X0093617Y0231698D01*
X0093684Y0231692D01*
X0093750Y0231683D01*
X0093815Y0231669D01*
X0093880Y0231652D01*
X0093943Y0231631D01*
X0094005Y0231606D01*
X0094066Y0231578D01*
X0094125Y0231546D01*
X0094182Y0231511D01*
X0094237Y0231472D01*
X0094289Y0231431D01*
X0094339Y0231386D01*
X0094386Y0231339D01*
X0094431Y0231289D01*
X0094472Y0231237D01*
X0094511Y0231182D01*
X0094546Y0231125D01*
X0094578Y0231066D01*
X0094606Y0231005D01*
X0094631Y0230943D01*
X0094652Y0230880D01*
X0094669Y0230815D01*
X0094683Y0230750D01*
X0094692Y0230684D01*
X0094698Y0230617D01*
X0094700Y0230550D01*
X0090100Y0222926D02*
X0090100Y0221904D01*
X0090102Y0221842D01*
X0090107Y0221781D01*
X0090117Y0221720D01*
X0090130Y0221659D01*
X0090146Y0221600D01*
X0090166Y0221542D01*
X0090190Y0221485D01*
X0090217Y0221429D01*
X0090247Y0221375D01*
X0090281Y0221323D01*
X0090317Y0221274D01*
X0090357Y0221226D01*
X0090399Y0221181D01*
X0090444Y0221139D01*
X0090492Y0221099D01*
X0090541Y0221063D01*
X0090593Y0221029D01*
X0090647Y0220999D01*
X0090703Y0220972D01*
X0090760Y0220948D01*
X0090818Y0220928D01*
X0090877Y0220912D01*
X0090938Y0220899D01*
X0090999Y0220889D01*
X0091060Y0220884D01*
X0091122Y0220882D01*
X0088700Y0221904D02*
X0088700Y0222926D01*
X0088700Y0221904D02*
X0088698Y0221842D01*
X0088693Y0221781D01*
X0088683Y0221720D01*
X0088670Y0221659D01*
X0088654Y0221600D01*
X0088634Y0221542D01*
X0088610Y0221485D01*
X0088583Y0221429D01*
X0088553Y0221375D01*
X0088519Y0221323D01*
X0088482Y0221274D01*
X0088443Y0221226D01*
X0088401Y0221181D01*
X0088356Y0221139D01*
X0088308Y0221099D01*
X0088259Y0221063D01*
X0088207Y0221029D01*
X0088153Y0220999D01*
X0088097Y0220972D01*
X0088040Y0220948D01*
X0087982Y0220928D01*
X0087923Y0220912D01*
X0087862Y0220899D01*
X0087801Y0220889D01*
X0087740Y0220884D01*
X0087678Y0220882D01*
X0087678Y0220881D02*
X0085122Y0220881D01*
X0085122Y0220882D02*
X0085060Y0220884D01*
X0084999Y0220889D01*
X0084938Y0220899D01*
X0084877Y0220912D01*
X0084818Y0220928D01*
X0084760Y0220948D01*
X0084703Y0220972D01*
X0084647Y0220999D01*
X0084593Y0221029D01*
X0084541Y0221063D01*
X0084492Y0221099D01*
X0084444Y0221139D01*
X0084399Y0221181D01*
X0084357Y0221226D01*
X0084317Y0221274D01*
X0084281Y0221323D01*
X0084247Y0221375D01*
X0084217Y0221429D01*
X0084190Y0221485D01*
X0084166Y0221542D01*
X0084146Y0221600D01*
X0084130Y0221659D01*
X0084117Y0221720D01*
X0084107Y0221781D01*
X0084102Y0221842D01*
X0084100Y0221904D01*
X0084100Y0222926D01*
D13*
X0111400Y0183400D02*
X0111400Y0143400D01*
X0116400Y0143400D01*
X0116400Y0138400D01*
X0046400Y0138400D01*
X0046400Y0188400D01*
X0116400Y0188400D01*
X0116400Y0183400D01*
X0111400Y0183400D01*
X0116400Y0183400D02*
X0116400Y0143400D01*
M02*
