G75*
%MOIN*%
%OFA0B0*%
%FSLAX25Y25*%
%IPPOS*%
%LPD*%
%AMOC8*
5,1,8,0,0,1.08239X$1,22.5*
%
%ADD10R,0.03543X0.02756*%
%ADD11R,0.02756X0.03543*%
%ADD12R,0.12205X0.04331*%
%ADD13R,0.02362X0.04331*%
%ADD14R,0.06772X0.04331*%
%ADD15R,0.07638X0.04331*%
%ADD16R,0.02953X0.04331*%
%ADD17R,0.09055X0.04331*%
%ADD18R,0.02756X0.02362*%
D10*
X0091400Y0226841D03*
X0091400Y0231959D03*
X0097400Y0231959D03*
X0097400Y0226841D03*
D11*
X0091459Y0194400D03*
X0086341Y0194400D03*
X0101841Y0193400D03*
X0106959Y0193400D03*
X0106959Y0133400D03*
X0106959Y0128400D03*
X0101841Y0128400D03*
X0101841Y0133400D03*
X0097959Y0133400D03*
X0092841Y0133400D03*
D12*
X0110298Y0138400D03*
X0110298Y0188400D03*
D13*
X0101833Y0188400D03*
X0098290Y0188400D03*
X0094746Y0188400D03*
X0091203Y0188400D03*
X0087660Y0188400D03*
X0063998Y0188400D03*
X0063998Y0138400D03*
X0058664Y0138400D03*
X0084117Y0138400D03*
X0087660Y0138400D03*
X0091203Y0138400D03*
X0094746Y0138400D03*
X0098290Y0138400D03*
X0101833Y0138400D03*
D14*
X0078369Y0138400D03*
X0078369Y0188400D03*
D15*
X0070180Y0188400D03*
X0070180Y0138400D03*
D16*
X0058664Y0188400D03*
D17*
X0050455Y0138400D03*
X0050455Y0188400D03*
D18*
X0042400Y0185869D03*
X0042400Y0181931D03*
X0037900Y0188931D03*
X0037900Y0192869D03*
X0038900Y0172869D03*
X0038900Y0168931D03*
X0033400Y0168931D03*
X0033400Y0172869D03*
M02*
