G75*
%MOIN*%
%OFA0B0*%
%FSLAX25Y25*%
%IPPOS*%
%LPD*%
%AMOC8*
5,1,8,0,0,1.08239X$1,22.5*
%
%ADD10R,0.07000X0.08000*%
%ADD11C,0.05100*%
%ADD12C,0.08850*%
%ADD13C,0.05346*%
%ADD14C,0.07677*%
%ADD15C,0.00800*%
%ADD16C,0.02600*%
%ADD17C,0.01200*%
D10*
X0065900Y0265400D03*
D11*
X0071500Y0050400D03*
X0079400Y0050400D03*
X0087300Y0050400D03*
D12*
X0095550Y0050400D03*
X0063250Y0050400D03*
D13*
X0045160Y0058211D03*
X0027640Y0058211D03*
D14*
X0019963Y0046400D03*
X0052837Y0046400D03*
D15*
X0013306Y0044808D02*
X0013128Y0044866D01*
X0012976Y0044976D01*
X0012866Y0045128D01*
X0012808Y0045306D01*
X0012800Y0045400D01*
X0012800Y0046275D01*
X0012800Y0046276D01*
X0012800Y0268523D01*
X0012800Y0268525D01*
X0012800Y0269400D01*
X0012808Y0269494D01*
X0012866Y0269672D01*
X0012976Y0269824D01*
X0013128Y0269934D01*
X0013306Y0269992D01*
X0013400Y0270000D01*
X0014275Y0270000D01*
X0014277Y0270000D01*
X0061586Y0270000D01*
X0061400Y0269814D01*
X0061400Y0260986D01*
X0061986Y0260400D01*
X0069814Y0260400D01*
X0070400Y0260986D01*
X0070400Y0269814D01*
X0070214Y0270000D01*
X0112523Y0270000D01*
X0112525Y0270000D01*
X0113400Y0270000D01*
X0113494Y0269992D01*
X0113672Y0269934D01*
X0113824Y0269824D01*
X0113934Y0269672D01*
X0113992Y0269494D01*
X0114000Y0269400D01*
X0114000Y0268525D01*
X0114000Y0268523D01*
X0114000Y0046277D01*
X0114000Y0046275D01*
X0114000Y0045400D01*
X0113992Y0045306D01*
X0113934Y0045128D01*
X0113824Y0044976D01*
X0113672Y0044866D01*
X0113494Y0044808D01*
X0113400Y0044800D01*
X0112525Y0044800D01*
X0112523Y0044800D01*
X0102095Y0044800D01*
X0102095Y0046653D01*
X0100748Y0048000D01*
X0100428Y0048000D01*
X0100975Y0049321D01*
X0100975Y0051479D01*
X0100149Y0053473D01*
X0098623Y0054999D01*
X0096629Y0055825D01*
X0094471Y0055825D01*
X0092477Y0054999D01*
X0090951Y0053473D01*
X0090410Y0052168D01*
X0090310Y0052411D01*
X0089311Y0053410D01*
X0088006Y0053950D01*
X0086594Y0053950D01*
X0085289Y0053410D01*
X0084290Y0052411D01*
X0083750Y0051106D01*
X0083750Y0049694D01*
X0084290Y0048389D01*
X0085289Y0047390D01*
X0086594Y0046850D01*
X0088006Y0046850D01*
X0089311Y0047390D01*
X0090310Y0048389D01*
X0090410Y0048632D01*
X0090951Y0047327D01*
X0092477Y0045801D01*
X0094471Y0044975D01*
X0096629Y0044975D01*
X0097495Y0045334D01*
X0097495Y0044800D01*
X0057411Y0044800D01*
X0057676Y0045438D01*
X0057676Y0047362D01*
X0056939Y0049141D01*
X0055578Y0050502D01*
X0053799Y0051239D01*
X0051875Y0051239D01*
X0050096Y0050502D01*
X0048735Y0049141D01*
X0047998Y0047362D01*
X0047998Y0045438D01*
X0048263Y0044800D01*
X0024537Y0044800D01*
X0024802Y0045438D01*
X0024802Y0047362D01*
X0024065Y0049141D01*
X0022704Y0050502D01*
X0020925Y0051239D01*
X0019001Y0051239D01*
X0017222Y0050502D01*
X0015861Y0049141D01*
X0015124Y0047362D01*
X0015124Y0045438D01*
X0015388Y0044800D01*
X0014276Y0044800D01*
X0014275Y0044800D01*
X0013400Y0044800D01*
X0013306Y0044808D01*
X0012845Y0045191D02*
X0015227Y0045191D01*
X0015124Y0045990D02*
X0012800Y0045990D01*
X0012800Y0046788D02*
X0015124Y0046788D01*
X0015217Y0047587D02*
X0012800Y0047587D01*
X0012800Y0048385D02*
X0015548Y0048385D01*
X0015904Y0049184D02*
X0012800Y0049184D01*
X0012800Y0049982D02*
X0016702Y0049982D01*
X0017895Y0050781D02*
X0012800Y0050781D01*
X0012800Y0051579D02*
X0057866Y0051579D01*
X0057825Y0051479D02*
X0057825Y0049321D01*
X0058651Y0047327D01*
X0060177Y0045801D01*
X0062171Y0044975D01*
X0064329Y0044975D01*
X0066323Y0045801D01*
X0067849Y0047327D01*
X0068390Y0048632D01*
X0068490Y0048389D01*
X0069489Y0047390D01*
X0070794Y0046850D01*
X0072206Y0046850D01*
X0073511Y0047390D01*
X0074510Y0048389D01*
X0075050Y0049694D01*
X0075050Y0051106D01*
X0074510Y0052411D01*
X0073511Y0053410D01*
X0072206Y0053950D01*
X0070794Y0053950D01*
X0069489Y0053410D01*
X0068490Y0052411D01*
X0068390Y0052168D01*
X0067849Y0053473D01*
X0066323Y0054999D01*
X0064329Y0055825D01*
X0062171Y0055825D01*
X0060177Y0054999D01*
X0058651Y0053473D01*
X0057825Y0051479D01*
X0057825Y0050781D02*
X0054905Y0050781D01*
X0056098Y0049982D02*
X0057825Y0049982D01*
X0057882Y0049184D02*
X0056896Y0049184D01*
X0057252Y0048385D02*
X0058213Y0048385D01*
X0058543Y0047587D02*
X0057583Y0047587D01*
X0057676Y0046788D02*
X0059190Y0046788D01*
X0059988Y0045990D02*
X0057676Y0045990D01*
X0057573Y0045191D02*
X0061649Y0045191D01*
X0064851Y0045191D02*
X0093949Y0045191D01*
X0092288Y0045990D02*
X0066512Y0045990D01*
X0067310Y0046788D02*
X0091490Y0046788D01*
X0090843Y0047587D02*
X0089507Y0047587D01*
X0090306Y0048385D02*
X0090513Y0048385D01*
X0090497Y0052378D02*
X0090323Y0052378D01*
X0090828Y0053176D02*
X0089544Y0053176D01*
X0091453Y0053975D02*
X0067347Y0053975D01*
X0067972Y0053176D02*
X0069256Y0053176D01*
X0068477Y0052378D02*
X0068303Y0052378D01*
X0066549Y0054773D02*
X0092251Y0054773D01*
X0093859Y0055572D02*
X0064941Y0055572D01*
X0061559Y0055572D02*
X0047715Y0055572D01*
X0047241Y0055097D02*
X0048274Y0056130D01*
X0048833Y0057480D01*
X0048833Y0058942D01*
X0048274Y0060292D01*
X0047241Y0061325D01*
X0045890Y0061884D01*
X0044429Y0061884D01*
X0043079Y0061325D01*
X0042046Y0060292D01*
X0041487Y0058942D01*
X0041487Y0057480D01*
X0042046Y0056130D01*
X0043079Y0055097D01*
X0044429Y0054538D01*
X0045890Y0054538D01*
X0047241Y0055097D01*
X0046459Y0054773D02*
X0059951Y0054773D01*
X0059153Y0053975D02*
X0012800Y0053975D01*
X0012800Y0054773D02*
X0026341Y0054773D01*
X0026909Y0054538D02*
X0025559Y0055097D01*
X0024526Y0056130D01*
X0023967Y0057480D01*
X0023967Y0058942D01*
X0024526Y0060292D01*
X0025559Y0061325D01*
X0026909Y0061884D01*
X0028371Y0061884D01*
X0029721Y0061325D01*
X0030754Y0060292D01*
X0031313Y0058942D01*
X0031313Y0057480D01*
X0030754Y0056130D01*
X0029721Y0055097D01*
X0028371Y0054538D01*
X0026909Y0054538D01*
X0028939Y0054773D02*
X0043861Y0054773D01*
X0042604Y0055572D02*
X0030196Y0055572D01*
X0030854Y0056370D02*
X0041946Y0056370D01*
X0041616Y0057169D02*
X0031184Y0057169D01*
X0031313Y0057967D02*
X0041487Y0057967D01*
X0041487Y0058766D02*
X0031313Y0058766D01*
X0031055Y0059564D02*
X0041745Y0059564D01*
X0042117Y0060363D02*
X0039415Y0060363D01*
X0039153Y0060100D02*
X0040500Y0061447D01*
X0040500Y0063353D01*
X0039153Y0064700D01*
X0037247Y0064700D01*
X0035900Y0063353D01*
X0035900Y0061447D01*
X0037247Y0060100D01*
X0039153Y0060100D01*
X0040214Y0061161D02*
X0042915Y0061161D01*
X0040500Y0061960D02*
X0114000Y0061960D01*
X0114000Y0062758D02*
X0040500Y0062758D01*
X0040296Y0063557D02*
X0114000Y0063557D01*
X0114000Y0064355D02*
X0039497Y0064355D01*
X0036903Y0064355D02*
X0034697Y0064355D01*
X0034700Y0064353D02*
X0033353Y0065700D01*
X0031447Y0065700D01*
X0030100Y0064353D01*
X0030100Y0062447D01*
X0031447Y0061100D01*
X0033353Y0061100D01*
X0034700Y0062447D01*
X0034700Y0064353D01*
X0034700Y0063557D02*
X0036104Y0063557D01*
X0035900Y0062758D02*
X0034700Y0062758D01*
X0034212Y0061960D02*
X0035900Y0061960D01*
X0036186Y0061161D02*
X0033414Y0061161D01*
X0031386Y0061161D02*
X0029885Y0061161D01*
X0030587Y0061960D02*
X0012800Y0061960D01*
X0012800Y0062758D02*
X0030100Y0062758D01*
X0030100Y0063557D02*
X0012800Y0063557D01*
X0012800Y0064355D02*
X0030103Y0064355D01*
X0030901Y0065154D02*
X0012800Y0065154D01*
X0012800Y0065952D02*
X0065595Y0065952D01*
X0065100Y0066447D02*
X0066447Y0065100D01*
X0068353Y0065100D01*
X0069700Y0066447D01*
X0069700Y0068353D01*
X0068653Y0069400D01*
X0069700Y0070447D01*
X0069700Y0072353D01*
X0068353Y0073700D01*
X0066447Y0073700D01*
X0065100Y0072353D01*
X0065100Y0070447D01*
X0066147Y0069400D01*
X0065100Y0068353D01*
X0065100Y0066447D01*
X0065100Y0066751D02*
X0012800Y0066751D01*
X0012800Y0067549D02*
X0065100Y0067549D01*
X0065100Y0068348D02*
X0023601Y0068348D01*
X0023353Y0068100D02*
X0024700Y0069447D01*
X0024700Y0071353D01*
X0023353Y0072700D01*
X0021447Y0072700D01*
X0020100Y0071353D01*
X0020100Y0069447D01*
X0021447Y0068100D01*
X0023353Y0068100D01*
X0024399Y0069146D02*
X0065894Y0069146D01*
X0065602Y0069945D02*
X0024700Y0069945D01*
X0024700Y0070743D02*
X0065100Y0070743D01*
X0065100Y0071542D02*
X0024511Y0071542D01*
X0023712Y0072340D02*
X0065100Y0072340D01*
X0065886Y0073139D02*
X0012800Y0073139D01*
X0012800Y0073937D02*
X0114000Y0073937D01*
X0114000Y0073139D02*
X0068914Y0073139D01*
X0069700Y0072340D02*
X0114000Y0072340D01*
X0114000Y0071542D02*
X0069700Y0071542D01*
X0069700Y0070743D02*
X0114000Y0070743D01*
X0114000Y0069945D02*
X0069198Y0069945D01*
X0068906Y0069146D02*
X0114000Y0069146D01*
X0114000Y0068348D02*
X0069700Y0068348D01*
X0069700Y0067549D02*
X0114000Y0067549D01*
X0114000Y0066751D02*
X0069700Y0066751D01*
X0069205Y0065952D02*
X0114000Y0065952D01*
X0114000Y0065154D02*
X0068407Y0065154D01*
X0066393Y0065154D02*
X0033899Y0065154D01*
X0036985Y0060363D02*
X0030683Y0060363D01*
X0025396Y0061161D02*
X0012800Y0061161D01*
X0012800Y0060363D02*
X0024597Y0060363D01*
X0024225Y0059564D02*
X0012800Y0059564D01*
X0012800Y0058766D02*
X0023967Y0058766D01*
X0023967Y0057967D02*
X0012800Y0057967D01*
X0012800Y0057169D02*
X0024096Y0057169D01*
X0024427Y0056370D02*
X0012800Y0056370D01*
X0012800Y0055572D02*
X0025085Y0055572D01*
X0022031Y0050781D02*
X0050769Y0050781D01*
X0049576Y0049982D02*
X0023224Y0049982D01*
X0024022Y0049184D02*
X0048778Y0049184D01*
X0048422Y0048385D02*
X0024378Y0048385D01*
X0024709Y0047587D02*
X0048091Y0047587D01*
X0047998Y0046788D02*
X0024802Y0046788D01*
X0024802Y0045990D02*
X0047998Y0045990D01*
X0048101Y0045191D02*
X0024699Y0045191D01*
X0012800Y0052378D02*
X0058197Y0052378D01*
X0058528Y0053176D02*
X0012800Y0053176D01*
X0012800Y0068348D02*
X0021199Y0068348D01*
X0020401Y0069146D02*
X0012800Y0069146D01*
X0012800Y0069945D02*
X0020100Y0069945D01*
X0020100Y0070743D02*
X0012800Y0070743D01*
X0012800Y0071542D02*
X0020289Y0071542D01*
X0021088Y0072340D02*
X0012800Y0072340D01*
X0012800Y0074736D02*
X0114000Y0074736D01*
X0114000Y0075534D02*
X0012800Y0075534D01*
X0012800Y0076333D02*
X0114000Y0076333D01*
X0114000Y0077132D02*
X0012800Y0077132D01*
X0012800Y0077930D02*
X0114000Y0077930D01*
X0114000Y0078729D02*
X0012800Y0078729D01*
X0012800Y0079527D02*
X0114000Y0079527D01*
X0114000Y0080326D02*
X0012800Y0080326D01*
X0012800Y0081124D02*
X0114000Y0081124D01*
X0114000Y0081923D02*
X0012800Y0081923D01*
X0012800Y0082721D02*
X0114000Y0082721D01*
X0114000Y0083520D02*
X0012800Y0083520D01*
X0012800Y0084318D02*
X0114000Y0084318D01*
X0114000Y0085117D02*
X0012800Y0085117D01*
X0012800Y0085915D02*
X0114000Y0085915D01*
X0114000Y0086714D02*
X0012800Y0086714D01*
X0012800Y0087512D02*
X0035035Y0087512D01*
X0035447Y0087100D02*
X0034100Y0088447D01*
X0034100Y0090353D01*
X0035447Y0091700D01*
X0037353Y0091700D01*
X0038700Y0090353D01*
X0038700Y0088447D01*
X0037353Y0087100D01*
X0035447Y0087100D01*
X0034237Y0088311D02*
X0012800Y0088311D01*
X0012800Y0089109D02*
X0034100Y0089109D01*
X0034100Y0089908D02*
X0012800Y0089908D01*
X0012800Y0090706D02*
X0034454Y0090706D01*
X0035252Y0091505D02*
X0012800Y0091505D01*
X0012800Y0092303D02*
X0114000Y0092303D01*
X0114000Y0091505D02*
X0037548Y0091505D01*
X0038346Y0090706D02*
X0114000Y0090706D01*
X0114000Y0089908D02*
X0038700Y0089908D01*
X0038700Y0089109D02*
X0114000Y0089109D01*
X0114000Y0088311D02*
X0038563Y0088311D01*
X0037765Y0087512D02*
X0114000Y0087512D01*
X0114000Y0093102D02*
X0012800Y0093102D01*
X0012800Y0093900D02*
X0114000Y0093900D01*
X0114000Y0094699D02*
X0012800Y0094699D01*
X0012800Y0095497D02*
X0114000Y0095497D01*
X0114000Y0096296D02*
X0026548Y0096296D01*
X0026353Y0096100D02*
X0024447Y0096100D01*
X0023100Y0097447D01*
X0023100Y0099353D01*
X0024447Y0100700D01*
X0026353Y0100700D01*
X0027700Y0099353D01*
X0027700Y0097447D01*
X0026353Y0096100D01*
X0027347Y0097094D02*
X0114000Y0097094D01*
X0114000Y0097893D02*
X0027700Y0097893D01*
X0027700Y0098691D02*
X0114000Y0098691D01*
X0114000Y0099490D02*
X0027563Y0099490D01*
X0026764Y0100288D02*
X0114000Y0100288D01*
X0114000Y0101087D02*
X0012800Y0101087D01*
X0012800Y0101885D02*
X0034662Y0101885D01*
X0034100Y0102447D02*
X0035447Y0101100D01*
X0037353Y0101100D01*
X0038700Y0102447D01*
X0038700Y0104353D01*
X0037353Y0105700D01*
X0035447Y0105700D01*
X0034100Y0104353D01*
X0034100Y0102447D01*
X0034100Y0102684D02*
X0012800Y0102684D01*
X0012800Y0103482D02*
X0034100Y0103482D01*
X0034100Y0104281D02*
X0012800Y0104281D01*
X0012800Y0105079D02*
X0034827Y0105079D01*
X0037600Y0105947D02*
X0038947Y0104600D01*
X0040853Y0104600D01*
X0042200Y0105947D01*
X0042200Y0107853D01*
X0041953Y0108100D01*
X0042853Y0108100D01*
X0044200Y0109447D01*
X0044200Y0111353D01*
X0043953Y0111600D01*
X0045853Y0111600D01*
X0047200Y0112947D01*
X0047200Y0114853D01*
X0045853Y0116200D01*
X0043947Y0116200D01*
X0042600Y0114853D01*
X0042600Y0112947D01*
X0042847Y0112700D01*
X0040947Y0112700D01*
X0039600Y0111353D01*
X0039600Y0109447D01*
X0039847Y0109200D01*
X0038947Y0109200D01*
X0037600Y0107853D01*
X0037600Y0105947D01*
X0037669Y0105878D02*
X0012800Y0105878D01*
X0012800Y0106676D02*
X0037600Y0106676D01*
X0037600Y0107475D02*
X0012800Y0107475D01*
X0012800Y0108273D02*
X0038021Y0108273D01*
X0038819Y0109072D02*
X0012800Y0109072D01*
X0012800Y0109870D02*
X0039600Y0109870D01*
X0039600Y0110669D02*
X0012800Y0110669D01*
X0012800Y0111468D02*
X0039715Y0111468D01*
X0040513Y0112266D02*
X0012800Y0112266D01*
X0012800Y0113065D02*
X0042600Y0113065D01*
X0042600Y0113863D02*
X0012800Y0113863D01*
X0012800Y0114662D02*
X0042600Y0114662D01*
X0043207Y0115460D02*
X0012800Y0115460D01*
X0012800Y0116259D02*
X0114000Y0116259D01*
X0114000Y0117057D02*
X0012800Y0117057D01*
X0012800Y0117856D02*
X0114000Y0117856D01*
X0114000Y0118654D02*
X0012800Y0118654D01*
X0012800Y0119453D02*
X0114000Y0119453D01*
X0114000Y0120251D02*
X0012800Y0120251D01*
X0012800Y0121050D02*
X0114000Y0121050D01*
X0114000Y0121848D02*
X0105101Y0121848D01*
X0105700Y0122447D02*
X0104353Y0121100D01*
X0102447Y0121100D01*
X0101100Y0122447D01*
X0101100Y0124353D01*
X0102447Y0125700D01*
X0104353Y0125700D01*
X0105700Y0124353D01*
X0105700Y0122447D01*
X0105700Y0122647D02*
X0114000Y0122647D01*
X0114000Y0123445D02*
X0105700Y0123445D01*
X0105700Y0124244D02*
X0114000Y0124244D01*
X0114000Y0125042D02*
X0105010Y0125042D01*
X0101790Y0125042D02*
X0012800Y0125042D01*
X0012800Y0124244D02*
X0101100Y0124244D01*
X0101100Y0123445D02*
X0012800Y0123445D01*
X0012800Y0122647D02*
X0101100Y0122647D01*
X0101699Y0121848D02*
X0012800Y0121848D01*
X0012800Y0125841D02*
X0114000Y0125841D01*
X0114000Y0126639D02*
X0012800Y0126639D01*
X0012800Y0127438D02*
X0114000Y0127438D01*
X0114000Y0128236D02*
X0012800Y0128236D01*
X0012800Y0129035D02*
X0114000Y0129035D01*
X0114000Y0129833D02*
X0012800Y0129833D01*
X0012800Y0130632D02*
X0114000Y0130632D01*
X0114000Y0131430D02*
X0012800Y0131430D01*
X0012800Y0132229D02*
X0114000Y0132229D01*
X0114000Y0133027D02*
X0012800Y0133027D01*
X0012800Y0133826D02*
X0114000Y0133826D01*
X0114000Y0134624D02*
X0025877Y0134624D01*
X0025353Y0134100D02*
X0026700Y0135447D01*
X0026700Y0137353D01*
X0025353Y0138700D01*
X0023447Y0138700D01*
X0022100Y0137353D01*
X0022100Y0135447D01*
X0023447Y0134100D01*
X0025353Y0134100D01*
X0026676Y0135423D02*
X0114000Y0135423D01*
X0114000Y0136221D02*
X0026700Y0136221D01*
X0026700Y0137020D02*
X0114000Y0137020D01*
X0114000Y0137818D02*
X0026234Y0137818D01*
X0025436Y0138617D02*
X0114000Y0138617D01*
X0114000Y0139415D02*
X0012800Y0139415D01*
X0012800Y0138617D02*
X0023364Y0138617D01*
X0022566Y0137818D02*
X0012800Y0137818D01*
X0012800Y0137020D02*
X0022100Y0137020D01*
X0022100Y0136221D02*
X0012800Y0136221D01*
X0012800Y0135423D02*
X0022124Y0135423D01*
X0022923Y0134624D02*
X0012800Y0134624D01*
X0012800Y0140214D02*
X0114000Y0140214D01*
X0114000Y0141012D02*
X0012800Y0141012D01*
X0012800Y0141811D02*
X0114000Y0141811D01*
X0114000Y0142609D02*
X0012800Y0142609D01*
X0012800Y0143408D02*
X0114000Y0143408D01*
X0114000Y0144206D02*
X0012800Y0144206D01*
X0012800Y0145005D02*
X0114000Y0145005D01*
X0114000Y0145803D02*
X0012800Y0145803D01*
X0012800Y0146602D02*
X0100945Y0146602D01*
X0100947Y0146600D02*
X0102853Y0146600D01*
X0104200Y0147947D01*
X0104200Y0149853D01*
X0102853Y0151200D01*
X0100947Y0151200D01*
X0099600Y0149853D01*
X0099600Y0147947D01*
X0100947Y0146600D01*
X0100147Y0147401D02*
X0012800Y0147401D01*
X0012800Y0148199D02*
X0099600Y0148199D01*
X0099600Y0148998D02*
X0012800Y0148998D01*
X0012800Y0149796D02*
X0099600Y0149796D01*
X0100342Y0150595D02*
X0012800Y0150595D01*
X0012800Y0151393D02*
X0114000Y0151393D01*
X0114000Y0150595D02*
X0103458Y0150595D01*
X0104200Y0149796D02*
X0114000Y0149796D01*
X0114000Y0148998D02*
X0104200Y0148998D01*
X0104200Y0148199D02*
X0114000Y0148199D01*
X0114000Y0147401D02*
X0103653Y0147401D01*
X0102855Y0146602D02*
X0114000Y0146602D01*
X0114000Y0152192D02*
X0012800Y0152192D01*
X0012800Y0152990D02*
X0114000Y0152990D01*
X0114000Y0153789D02*
X0012800Y0153789D01*
X0012800Y0154587D02*
X0114000Y0154587D01*
X0114000Y0155386D02*
X0012800Y0155386D01*
X0012800Y0156184D02*
X0114000Y0156184D01*
X0114000Y0156983D02*
X0012800Y0156983D01*
X0012800Y0157781D02*
X0019766Y0157781D01*
X0019100Y0158447D02*
X0020447Y0157100D01*
X0022353Y0157100D01*
X0023700Y0158447D01*
X0023700Y0160353D01*
X0022353Y0161700D01*
X0020447Y0161700D01*
X0019100Y0160353D01*
X0019100Y0158447D01*
X0019100Y0158580D02*
X0012800Y0158580D01*
X0012800Y0159378D02*
X0019100Y0159378D01*
X0019100Y0160177D02*
X0012800Y0160177D01*
X0012800Y0160975D02*
X0019723Y0160975D01*
X0023077Y0160975D02*
X0114000Y0160975D01*
X0114000Y0160177D02*
X0023700Y0160177D01*
X0023700Y0159378D02*
X0114000Y0159378D01*
X0114000Y0158580D02*
X0023700Y0158580D01*
X0023034Y0157781D02*
X0114000Y0157781D01*
X0114000Y0161774D02*
X0012800Y0161774D01*
X0012800Y0162572D02*
X0114000Y0162572D01*
X0114000Y0163371D02*
X0012800Y0163371D01*
X0012800Y0164169D02*
X0114000Y0164169D01*
X0114000Y0164968D02*
X0012800Y0164968D01*
X0012800Y0165766D02*
X0085281Y0165766D01*
X0085447Y0165600D02*
X0087353Y0165600D01*
X0088700Y0166947D01*
X0088700Y0168853D01*
X0087653Y0169900D01*
X0088700Y0170947D01*
X0088700Y0172853D01*
X0087353Y0174200D01*
X0085447Y0174200D01*
X0084100Y0172853D01*
X0084100Y0170947D01*
X0085147Y0169900D01*
X0084100Y0168853D01*
X0084100Y0166947D01*
X0085447Y0165600D01*
X0084483Y0166565D02*
X0012800Y0166565D01*
X0012800Y0167363D02*
X0084100Y0167363D01*
X0084100Y0168162D02*
X0012800Y0168162D01*
X0012800Y0168960D02*
X0084208Y0168960D01*
X0085006Y0169759D02*
X0012800Y0169759D01*
X0012800Y0170557D02*
X0084490Y0170557D01*
X0084100Y0171356D02*
X0012800Y0171356D01*
X0012800Y0172154D02*
X0084100Y0172154D01*
X0084200Y0172953D02*
X0012800Y0172953D01*
X0012800Y0173751D02*
X0084999Y0173751D01*
X0087801Y0173751D02*
X0114000Y0173751D01*
X0114000Y0172953D02*
X0088600Y0172953D01*
X0088700Y0172154D02*
X0114000Y0172154D01*
X0114000Y0171356D02*
X0088700Y0171356D01*
X0088310Y0170557D02*
X0114000Y0170557D01*
X0114000Y0169759D02*
X0099794Y0169759D01*
X0099353Y0170200D02*
X0097447Y0170200D01*
X0096100Y0168853D01*
X0096100Y0166947D01*
X0097447Y0165600D01*
X0099353Y0165600D01*
X0100700Y0166947D01*
X0100700Y0168853D01*
X0099353Y0170200D01*
X0100592Y0168960D02*
X0114000Y0168960D01*
X0114000Y0168162D02*
X0100700Y0168162D01*
X0100700Y0167363D02*
X0114000Y0167363D01*
X0114000Y0166565D02*
X0100317Y0166565D01*
X0099519Y0165766D02*
X0114000Y0165766D01*
X0114000Y0174550D02*
X0012800Y0174550D01*
X0012800Y0175348D02*
X0114000Y0175348D01*
X0114000Y0176147D02*
X0012800Y0176147D01*
X0012800Y0176945D02*
X0114000Y0176945D01*
X0114000Y0177744D02*
X0037997Y0177744D01*
X0037853Y0177600D02*
X0039200Y0178947D01*
X0039200Y0180853D01*
X0037853Y0182200D01*
X0035947Y0182200D01*
X0034600Y0180853D01*
X0034600Y0178947D01*
X0035947Y0177600D01*
X0037853Y0177600D01*
X0038795Y0178542D02*
X0114000Y0178542D01*
X0114000Y0179341D02*
X0039200Y0179341D01*
X0039200Y0180139D02*
X0114000Y0180139D01*
X0114000Y0180938D02*
X0039115Y0180938D01*
X0038316Y0181737D02*
X0114000Y0181737D01*
X0114000Y0182535D02*
X0035200Y0182535D01*
X0035200Y0182447D02*
X0033853Y0181100D01*
X0031947Y0181100D01*
X0030600Y0182447D01*
X0030600Y0184353D01*
X0031947Y0185700D01*
X0033853Y0185700D01*
X0035200Y0184353D01*
X0035200Y0182447D01*
X0035484Y0181737D02*
X0034489Y0181737D01*
X0034685Y0180938D02*
X0012800Y0180938D01*
X0012800Y0181737D02*
X0031311Y0181737D01*
X0030600Y0182535D02*
X0012800Y0182535D01*
X0012800Y0183334D02*
X0030600Y0183334D01*
X0030600Y0184132D02*
X0012800Y0184132D01*
X0012800Y0184931D02*
X0031178Y0184931D01*
X0034622Y0184931D02*
X0114000Y0184931D01*
X0114000Y0185729D02*
X0012800Y0185729D01*
X0012800Y0186528D02*
X0114000Y0186528D01*
X0114000Y0187326D02*
X0044079Y0187326D01*
X0044700Y0187947D02*
X0043353Y0186600D01*
X0041447Y0186600D01*
X0040100Y0187947D01*
X0040100Y0189853D01*
X0041447Y0191200D01*
X0043353Y0191200D01*
X0044700Y0189853D01*
X0044700Y0187947D01*
X0044700Y0188125D02*
X0114000Y0188125D01*
X0114000Y0188923D02*
X0044700Y0188923D01*
X0044700Y0189722D02*
X0114000Y0189722D01*
X0114000Y0190520D02*
X0044033Y0190520D01*
X0040767Y0190520D02*
X0012800Y0190520D01*
X0012800Y0189722D02*
X0040100Y0189722D01*
X0040100Y0188923D02*
X0012800Y0188923D01*
X0012800Y0188125D02*
X0040100Y0188125D01*
X0040721Y0187326D02*
X0012800Y0187326D01*
X0012800Y0191319D02*
X0030729Y0191319D01*
X0030947Y0191100D02*
X0032853Y0191100D01*
X0034200Y0192447D01*
X0034200Y0194353D01*
X0032853Y0195700D01*
X0030947Y0195700D01*
X0029600Y0194353D01*
X0029600Y0192447D01*
X0030947Y0191100D01*
X0029930Y0192117D02*
X0012800Y0192117D01*
X0012800Y0192916D02*
X0029600Y0192916D01*
X0029600Y0193714D02*
X0012800Y0193714D01*
X0012800Y0194513D02*
X0029760Y0194513D01*
X0030559Y0195311D02*
X0012800Y0195311D01*
X0012800Y0196110D02*
X0114000Y0196110D01*
X0114000Y0196908D02*
X0012800Y0196908D01*
X0012800Y0197707D02*
X0114000Y0197707D01*
X0114000Y0198505D02*
X0012800Y0198505D01*
X0012800Y0199304D02*
X0114000Y0199304D01*
X0114000Y0200102D02*
X0012800Y0200102D01*
X0012800Y0200901D02*
X0114000Y0200901D01*
X0114000Y0201699D02*
X0012800Y0201699D01*
X0012800Y0202498D02*
X0114000Y0202498D01*
X0114000Y0203296D02*
X0012800Y0203296D01*
X0012800Y0204095D02*
X0114000Y0204095D01*
X0114000Y0204893D02*
X0012800Y0204893D01*
X0012800Y0205692D02*
X0114000Y0205692D01*
X0114000Y0206490D02*
X0012800Y0206490D01*
X0012800Y0207289D02*
X0114000Y0207289D01*
X0114000Y0208087D02*
X0012800Y0208087D01*
X0012800Y0208886D02*
X0114000Y0208886D01*
X0114000Y0209684D02*
X0012800Y0209684D01*
X0012800Y0210483D02*
X0114000Y0210483D01*
X0114000Y0211281D02*
X0012800Y0211281D01*
X0012800Y0212080D02*
X0114000Y0212080D01*
X0114000Y0212878D02*
X0012800Y0212878D01*
X0012800Y0213677D02*
X0114000Y0213677D01*
X0114000Y0214475D02*
X0012800Y0214475D01*
X0012800Y0215274D02*
X0114000Y0215274D01*
X0114000Y0216072D02*
X0012800Y0216072D01*
X0012800Y0216871D02*
X0114000Y0216871D01*
X0114000Y0217670D02*
X0012800Y0217670D01*
X0012800Y0218468D02*
X0114000Y0218468D01*
X0114000Y0219267D02*
X0012800Y0219267D01*
X0012800Y0220065D02*
X0114000Y0220065D01*
X0114000Y0220864D02*
X0012800Y0220864D01*
X0012800Y0221662D02*
X0114000Y0221662D01*
X0114000Y0222461D02*
X0012800Y0222461D01*
X0012800Y0223259D02*
X0114000Y0223259D01*
X0114000Y0224058D02*
X0012800Y0224058D01*
X0012800Y0224856D02*
X0114000Y0224856D01*
X0114000Y0225655D02*
X0012800Y0225655D01*
X0012800Y0226453D02*
X0114000Y0226453D01*
X0114000Y0227252D02*
X0012800Y0227252D01*
X0012800Y0228050D02*
X0114000Y0228050D01*
X0114000Y0228849D02*
X0012800Y0228849D01*
X0012800Y0229647D02*
X0103900Y0229647D01*
X0104447Y0229100D02*
X0106353Y0229100D01*
X0107700Y0230447D01*
X0107700Y0232353D01*
X0106353Y0233700D01*
X0104447Y0233700D01*
X0103100Y0232353D01*
X0103100Y0230447D01*
X0104447Y0229100D01*
X0103102Y0230446D02*
X0012800Y0230446D01*
X0012800Y0231244D02*
X0103100Y0231244D01*
X0103100Y0232043D02*
X0012800Y0232043D01*
X0012800Y0232841D02*
X0103589Y0232841D01*
X0104387Y0233640D02*
X0012800Y0233640D01*
X0012800Y0234438D02*
X0114000Y0234438D01*
X0114000Y0233640D02*
X0106413Y0233640D01*
X0107211Y0232841D02*
X0114000Y0232841D01*
X0114000Y0232043D02*
X0107700Y0232043D01*
X0107700Y0231244D02*
X0114000Y0231244D01*
X0114000Y0230446D02*
X0107698Y0230446D01*
X0106900Y0229647D02*
X0114000Y0229647D01*
X0114000Y0235237D02*
X0101489Y0235237D01*
X0101353Y0235100D02*
X0102700Y0236447D01*
X0102700Y0238353D01*
X0101353Y0239700D01*
X0099447Y0239700D01*
X0098100Y0238353D01*
X0098100Y0236447D01*
X0099447Y0235100D01*
X0101353Y0235100D01*
X0102288Y0236035D02*
X0114000Y0236035D01*
X0114000Y0236834D02*
X0102700Y0236834D01*
X0102700Y0237632D02*
X0114000Y0237632D01*
X0114000Y0238431D02*
X0102622Y0238431D01*
X0101823Y0239229D02*
X0114000Y0239229D01*
X0114000Y0240028D02*
X0012800Y0240028D01*
X0012800Y0240826D02*
X0114000Y0240826D01*
X0114000Y0241625D02*
X0012800Y0241625D01*
X0012800Y0242423D02*
X0114000Y0242423D01*
X0114000Y0243222D02*
X0012800Y0243222D01*
X0012800Y0244020D02*
X0114000Y0244020D01*
X0114000Y0244819D02*
X0012800Y0244819D01*
X0012800Y0245617D02*
X0114000Y0245617D01*
X0114000Y0246416D02*
X0012800Y0246416D01*
X0012800Y0247214D02*
X0114000Y0247214D01*
X0114000Y0248013D02*
X0012800Y0248013D01*
X0012800Y0248811D02*
X0114000Y0248811D01*
X0114000Y0249610D02*
X0012800Y0249610D01*
X0012800Y0250408D02*
X0114000Y0250408D01*
X0114000Y0251207D02*
X0012800Y0251207D01*
X0012800Y0252005D02*
X0114000Y0252005D01*
X0114000Y0252804D02*
X0012800Y0252804D01*
X0012800Y0253603D02*
X0114000Y0253603D01*
X0114000Y0254401D02*
X0012800Y0254401D01*
X0012800Y0255200D02*
X0114000Y0255200D01*
X0114000Y0255998D02*
X0012800Y0255998D01*
X0012800Y0256797D02*
X0114000Y0256797D01*
X0114000Y0257595D02*
X0012800Y0257595D01*
X0012800Y0258394D02*
X0114000Y0258394D01*
X0114000Y0259192D02*
X0012800Y0259192D01*
X0012800Y0259991D02*
X0114000Y0259991D01*
X0114000Y0260789D02*
X0070203Y0260789D01*
X0070400Y0261588D02*
X0114000Y0261588D01*
X0114000Y0262386D02*
X0070400Y0262386D01*
X0070400Y0263185D02*
X0114000Y0263185D01*
X0114000Y0263983D02*
X0070400Y0263983D01*
X0070400Y0264782D02*
X0114000Y0264782D01*
X0114000Y0265580D02*
X0070400Y0265580D01*
X0070400Y0266379D02*
X0114000Y0266379D01*
X0114000Y0267177D02*
X0070400Y0267177D01*
X0070400Y0267976D02*
X0114000Y0267976D01*
X0114000Y0268774D02*
X0070400Y0268774D01*
X0070400Y0269573D02*
X0113966Y0269573D01*
X0098977Y0239229D02*
X0092823Y0239229D01*
X0092353Y0239700D02*
X0090447Y0239700D01*
X0089100Y0238353D01*
X0089100Y0236447D01*
X0090447Y0235100D01*
X0092353Y0235100D01*
X0093700Y0236447D01*
X0093700Y0238353D01*
X0092353Y0239700D01*
X0093622Y0238431D02*
X0098178Y0238431D01*
X0098100Y0237632D02*
X0093700Y0237632D01*
X0093700Y0236834D02*
X0098100Y0236834D01*
X0098512Y0236035D02*
X0093288Y0236035D01*
X0092489Y0235237D02*
X0099311Y0235237D01*
X0090311Y0235237D02*
X0012800Y0235237D01*
X0012800Y0236035D02*
X0089512Y0236035D01*
X0089100Y0236834D02*
X0012800Y0236834D01*
X0012800Y0237632D02*
X0089100Y0237632D01*
X0089178Y0238431D02*
X0012800Y0238431D01*
X0012800Y0239229D02*
X0089977Y0239229D01*
X0114000Y0195311D02*
X0033241Y0195311D01*
X0034040Y0194513D02*
X0114000Y0194513D01*
X0114000Y0193714D02*
X0034200Y0193714D01*
X0034200Y0192916D02*
X0114000Y0192916D01*
X0114000Y0192117D02*
X0033870Y0192117D01*
X0033071Y0191319D02*
X0114000Y0191319D01*
X0114000Y0184132D02*
X0035200Y0184132D01*
X0035200Y0183334D02*
X0114000Y0183334D01*
X0097006Y0169759D02*
X0087794Y0169759D01*
X0088592Y0168960D02*
X0096208Y0168960D01*
X0096100Y0168162D02*
X0088700Y0168162D01*
X0088700Y0167363D02*
X0096100Y0167363D01*
X0096483Y0166565D02*
X0088317Y0166565D01*
X0087519Y0165766D02*
X0097281Y0165766D01*
X0114000Y0115460D02*
X0046593Y0115460D01*
X0047200Y0114662D02*
X0055409Y0114662D01*
X0055447Y0114700D02*
X0054100Y0113353D01*
X0054100Y0111447D01*
X0055447Y0110100D01*
X0057353Y0110100D01*
X0058700Y0111447D01*
X0058700Y0113353D01*
X0057353Y0114700D01*
X0055447Y0114700D01*
X0054610Y0113863D02*
X0047200Y0113863D01*
X0047200Y0113065D02*
X0054100Y0113065D01*
X0054100Y0112266D02*
X0046519Y0112266D01*
X0044200Y0109870D02*
X0049618Y0109870D01*
X0049100Y0109353D02*
X0049100Y0107447D01*
X0050447Y0106100D01*
X0052353Y0106100D01*
X0053700Y0107447D01*
X0053700Y0109353D01*
X0052353Y0110700D01*
X0050447Y0110700D01*
X0049100Y0109353D01*
X0049100Y0109072D02*
X0043825Y0109072D01*
X0043026Y0108273D02*
X0049100Y0108273D01*
X0049100Y0107475D02*
X0042200Y0107475D01*
X0042200Y0106676D02*
X0049871Y0106676D01*
X0050416Y0110669D02*
X0044200Y0110669D01*
X0044085Y0111468D02*
X0054100Y0111468D01*
X0054878Y0110669D02*
X0052384Y0110669D01*
X0053182Y0109870D02*
X0066618Y0109870D01*
X0066100Y0109353D02*
X0067447Y0110700D01*
X0069353Y0110700D01*
X0070700Y0109353D01*
X0070700Y0107447D01*
X0069353Y0106100D01*
X0067447Y0106100D01*
X0066100Y0107447D01*
X0066100Y0109353D01*
X0066100Y0109072D02*
X0053700Y0109072D01*
X0053700Y0108273D02*
X0066100Y0108273D01*
X0066100Y0107475D02*
X0053700Y0107475D01*
X0052929Y0106676D02*
X0066871Y0106676D01*
X0067416Y0110669D02*
X0057922Y0110669D01*
X0058700Y0111468D02*
X0070100Y0111468D01*
X0070100Y0111447D02*
X0071447Y0110100D01*
X0073353Y0110100D01*
X0074700Y0111447D01*
X0074700Y0113353D01*
X0073353Y0114700D01*
X0071447Y0114700D01*
X0070100Y0113353D01*
X0070100Y0111447D01*
X0070100Y0112266D02*
X0058700Y0112266D01*
X0058700Y0113065D02*
X0070100Y0113065D01*
X0070610Y0113863D02*
X0058190Y0113863D01*
X0057391Y0114662D02*
X0071409Y0114662D01*
X0073391Y0114662D02*
X0114000Y0114662D01*
X0114000Y0113863D02*
X0074190Y0113863D01*
X0074700Y0113065D02*
X0114000Y0113065D01*
X0114000Y0112266D02*
X0074700Y0112266D01*
X0074700Y0111468D02*
X0114000Y0111468D01*
X0114000Y0110669D02*
X0073922Y0110669D01*
X0070878Y0110669D02*
X0069384Y0110669D01*
X0070182Y0109870D02*
X0114000Y0109870D01*
X0114000Y0109072D02*
X0070700Y0109072D01*
X0070700Y0108273D02*
X0114000Y0108273D01*
X0114000Y0107475D02*
X0070700Y0107475D01*
X0069929Y0106676D02*
X0114000Y0106676D01*
X0114000Y0105878D02*
X0042131Y0105878D01*
X0041332Y0105079D02*
X0114000Y0105079D01*
X0114000Y0104281D02*
X0038700Y0104281D01*
X0038700Y0103482D02*
X0114000Y0103482D01*
X0114000Y0102684D02*
X0038700Y0102684D01*
X0038138Y0101885D02*
X0114000Y0101885D01*
X0114000Y0061161D02*
X0047404Y0061161D01*
X0048203Y0060363D02*
X0114000Y0060363D01*
X0114000Y0059564D02*
X0048575Y0059564D01*
X0048833Y0058766D02*
X0114000Y0058766D01*
X0114000Y0057967D02*
X0112085Y0057967D01*
X0112700Y0057353D02*
X0111353Y0058700D01*
X0109447Y0058700D01*
X0108100Y0057353D01*
X0108100Y0055447D01*
X0109447Y0054100D01*
X0111353Y0054100D01*
X0112700Y0055447D01*
X0112700Y0057353D01*
X0112700Y0057169D02*
X0114000Y0057169D01*
X0114000Y0056370D02*
X0112700Y0056370D01*
X0112700Y0055572D02*
X0114000Y0055572D01*
X0114000Y0054773D02*
X0112026Y0054773D01*
X0114000Y0053975D02*
X0106227Y0053975D01*
X0106700Y0054447D02*
X0105353Y0053100D01*
X0103447Y0053100D01*
X0102100Y0054447D01*
X0102100Y0056353D01*
X0103447Y0057700D01*
X0105353Y0057700D01*
X0106700Y0056353D01*
X0106700Y0054447D01*
X0106700Y0054773D02*
X0108774Y0054773D01*
X0108100Y0055572D02*
X0106700Y0055572D01*
X0106682Y0056370D02*
X0108100Y0056370D01*
X0108100Y0057169D02*
X0105884Y0057169D01*
X0108715Y0057967D02*
X0048833Y0057967D01*
X0048704Y0057169D02*
X0102916Y0057169D01*
X0102118Y0056370D02*
X0048373Y0056370D01*
X0068287Y0048385D02*
X0068494Y0048385D01*
X0067957Y0047587D02*
X0069293Y0047587D01*
X0073707Y0047587D02*
X0077193Y0047587D01*
X0077389Y0047390D02*
X0078694Y0046850D01*
X0080106Y0046850D01*
X0081411Y0047390D01*
X0082410Y0048389D01*
X0082950Y0049694D01*
X0082950Y0051106D01*
X0082410Y0052411D01*
X0081411Y0053410D01*
X0080106Y0053950D01*
X0078694Y0053950D01*
X0077389Y0053410D01*
X0076390Y0052411D01*
X0075850Y0051106D01*
X0075850Y0049694D01*
X0076390Y0048389D01*
X0077389Y0047390D01*
X0076394Y0048385D02*
X0074506Y0048385D01*
X0074839Y0049184D02*
X0076061Y0049184D01*
X0075850Y0049982D02*
X0075050Y0049982D01*
X0075050Y0050781D02*
X0075850Y0050781D01*
X0076046Y0051579D02*
X0074854Y0051579D01*
X0074523Y0052378D02*
X0076377Y0052378D01*
X0077156Y0053176D02*
X0073744Y0053176D01*
X0081644Y0053176D02*
X0085056Y0053176D01*
X0084277Y0052378D02*
X0082423Y0052378D01*
X0082754Y0051579D02*
X0083946Y0051579D01*
X0083750Y0050781D02*
X0082950Y0050781D01*
X0082950Y0049982D02*
X0083750Y0049982D01*
X0083961Y0049184D02*
X0082739Y0049184D01*
X0082406Y0048385D02*
X0084294Y0048385D01*
X0085093Y0047587D02*
X0081607Y0047587D01*
X0097151Y0045191D02*
X0097495Y0045191D01*
X0101161Y0047587D02*
X0114000Y0047587D01*
X0114000Y0048385D02*
X0100587Y0048385D01*
X0100918Y0049184D02*
X0114000Y0049184D01*
X0114000Y0049982D02*
X0100975Y0049982D01*
X0100975Y0050781D02*
X0114000Y0050781D01*
X0114000Y0051579D02*
X0100934Y0051579D01*
X0100603Y0052378D02*
X0114000Y0052378D01*
X0114000Y0053176D02*
X0105429Y0053176D01*
X0103371Y0053176D02*
X0100272Y0053176D01*
X0099647Y0053975D02*
X0102573Y0053975D01*
X0102100Y0054773D02*
X0098849Y0054773D01*
X0097241Y0055572D02*
X0102100Y0055572D01*
X0101959Y0046788D02*
X0114000Y0046788D01*
X0114000Y0045990D02*
X0102095Y0045990D01*
X0102095Y0045191D02*
X0113955Y0045191D01*
X0038468Y0105079D02*
X0037973Y0105079D01*
X0024036Y0100288D02*
X0012800Y0100288D01*
X0012800Y0099490D02*
X0023237Y0099490D01*
X0023100Y0098691D02*
X0012800Y0098691D01*
X0012800Y0097893D02*
X0023100Y0097893D01*
X0023453Y0097094D02*
X0012800Y0097094D01*
X0012800Y0096296D02*
X0024252Y0096296D01*
X0012800Y0177744D02*
X0035803Y0177744D01*
X0035005Y0178542D02*
X0012800Y0178542D01*
X0012800Y0179341D02*
X0034600Y0179341D01*
X0034600Y0180139D02*
X0012800Y0180139D01*
X0012800Y0260789D02*
X0061597Y0260789D01*
X0061400Y0261588D02*
X0012800Y0261588D01*
X0012800Y0262386D02*
X0061400Y0262386D01*
X0061400Y0263185D02*
X0012800Y0263185D01*
X0012800Y0263983D02*
X0061400Y0263983D01*
X0061400Y0264782D02*
X0012800Y0264782D01*
X0012800Y0265580D02*
X0061400Y0265580D01*
X0061400Y0266379D02*
X0012800Y0266379D01*
X0012800Y0267177D02*
X0061400Y0267177D01*
X0061400Y0267976D02*
X0012800Y0267976D01*
X0012800Y0268774D02*
X0061400Y0268774D01*
X0061400Y0269573D02*
X0012834Y0269573D01*
D16*
X0031400Y0241400D03*
X0020700Y0231400D03*
X0020700Y0223400D03*
X0020700Y0214400D03*
X0031900Y0193400D03*
X0036400Y0201400D03*
X0042400Y0188900D03*
X0036900Y0179900D03*
X0032900Y0183400D03*
X0021282Y0176396D03*
X0021400Y0159400D03*
X0021171Y0150384D03*
X0024400Y0136400D03*
X0024400Y0119400D03*
X0036400Y0103400D03*
X0039900Y0106900D03*
X0041900Y0110400D03*
X0044900Y0113900D03*
X0051400Y0108400D03*
X0049400Y0103400D03*
X0056400Y0112400D03*
X0058400Y0097400D03*
X0068400Y0108400D03*
X0072400Y0112400D03*
X0076400Y0097400D03*
X0067400Y0071400D03*
X0067400Y0067400D03*
X0045400Y0071400D03*
X0041400Y0075400D03*
X0045400Y0079400D03*
X0037400Y0079400D03*
X0037400Y0071400D03*
X0032400Y0063400D03*
X0038200Y0062400D03*
X0041400Y0062400D03*
X0041400Y0049400D03*
X0023400Y0063400D03*
X0022400Y0070400D03*
X0029400Y0085400D03*
X0036400Y0089400D03*
X0025400Y0098400D03*
X0036400Y0149400D03*
X0036400Y0156400D03*
X0053400Y0156400D03*
X0053400Y0149400D03*
X0069400Y0149400D03*
X0069400Y0156400D03*
X0069400Y0163400D03*
X0069400Y0177400D03*
X0070400Y0194400D03*
X0086400Y0199400D03*
X0086400Y0219400D03*
X0091400Y0237400D03*
X0100400Y0237400D03*
X0105400Y0231400D03*
X0107400Y0197400D03*
X0098400Y0167900D03*
X0101900Y0148900D03*
X0107400Y0144400D03*
X0103400Y0123400D03*
X0112400Y0115400D03*
X0094400Y0143400D03*
X0086400Y0167900D03*
X0086400Y0171900D03*
X0070400Y0241400D03*
X0061400Y0241400D03*
X0057400Y0253400D03*
X0055400Y0262400D03*
X0055400Y0267400D03*
X0052400Y0241400D03*
X0044400Y0241400D03*
X0076400Y0262400D03*
X0076400Y0267400D03*
X0099400Y0080400D03*
X0104400Y0055400D03*
X0110400Y0056400D03*
X0099795Y0045700D03*
D17*
X0021282Y0176396D02*
X0020585Y0176396D01*
X0020582Y0176399D01*
X0020700Y0214400D02*
X0020400Y0214400D01*
X0020400Y0223400D02*
X0020700Y0223400D01*
X0020700Y0231400D02*
X0020000Y0231400D01*
M02*
