G75*
%MOIN*%
%OFA0B0*%
%FSLAX25Y25*%
%IPPOS*%
%LPD*%
%AMOC8*
5,1,8,0,0,1.08239X$1,22.5*
%
%ADD10R,0.03937X0.04331*%
%ADD11R,0.03543X0.02756*%
%ADD12R,0.02756X0.03543*%
%ADD13R,0.05906X0.05118*%
%ADD14R,0.18110X0.03937*%
%ADD15R,0.13386X0.06299*%
%ADD16R,0.02205X0.01024*%
%ADD17R,0.01024X0.02205*%
%ADD18R,0.01575X0.01575*%
%ADD19R,0.07874X0.03150*%
%ADD20R,0.02362X0.02362*%
%ADD21R,0.04331X0.04331*%
%ADD22R,0.03150X0.05906*%
%ADD23R,0.03543X0.05906*%
%ADD24R,0.05906X0.03150*%
%ADD25R,0.00984X0.05315*%
%ADD26R,0.02165X0.04724*%
%ADD27R,0.02756X0.02362*%
%ADD28R,0.03150X0.03150*%
%ADD29R,0.02756X0.03937*%
%ADD30R,0.02362X0.02756*%
%ADD31R,0.04134X0.08661*%
%ADD32R,0.03937X0.03150*%
D10*
X0100400Y0225054D03*
X0100400Y0231746D03*
D11*
X0065900Y0244341D03*
X0065900Y0249459D03*
X0067400Y0099959D03*
X0067400Y0094841D03*
X0049400Y0094841D03*
X0049400Y0099959D03*
X0027400Y0068959D03*
X0027400Y0063841D03*
D12*
X0055841Y0108400D03*
X0060959Y0108400D03*
X0072841Y0108400D03*
X0077959Y0108400D03*
X0065959Y0253650D03*
X0060841Y0253650D03*
D13*
X0091400Y0232140D03*
X0091400Y0224660D03*
D14*
X0087833Y0080337D03*
X0087833Y0072463D03*
D15*
X0108306Y0063014D03*
X0108306Y0089786D03*
D16*
X0050455Y0081306D03*
X0050455Y0079337D03*
X0050455Y0077369D03*
X0050455Y0075400D03*
X0050455Y0073431D03*
X0050455Y0071463D03*
X0050455Y0069494D03*
X0045337Y0070479D03*
X0045337Y0072447D03*
X0045337Y0074416D03*
X0045337Y0076384D03*
X0045337Y0078353D03*
X0045337Y0080321D03*
X0041400Y0080321D03*
X0041400Y0078353D03*
X0041400Y0076384D03*
X0041400Y0074416D03*
X0041400Y0072447D03*
X0041400Y0070479D03*
X0037463Y0070479D03*
X0037463Y0072447D03*
X0037463Y0074416D03*
X0037463Y0076384D03*
X0037463Y0078353D03*
X0037463Y0080321D03*
X0032345Y0079337D03*
X0032345Y0077369D03*
X0032345Y0075400D03*
X0032345Y0073431D03*
X0032345Y0071463D03*
X0032345Y0069494D03*
X0032345Y0081306D03*
D17*
X0035494Y0084455D03*
X0037463Y0084455D03*
X0039431Y0084455D03*
X0041400Y0084455D03*
X0043369Y0084455D03*
X0045337Y0084455D03*
X0047306Y0084455D03*
X0047306Y0066345D03*
X0045337Y0066345D03*
X0043369Y0066345D03*
X0041400Y0066345D03*
X0039431Y0066345D03*
X0037463Y0066345D03*
X0035494Y0066345D03*
D18*
X0033132Y0083668D03*
D19*
X0023900Y0093632D03*
X0023900Y0110168D03*
X0023900Y0115132D03*
X0023900Y0131668D03*
D20*
X0025337Y0236857D03*
D21*
X0032227Y0229573D03*
X0032227Y0222487D03*
X0032227Y0215400D03*
X0040494Y0222487D03*
X0040494Y0229573D03*
X0048762Y0229573D03*
X0048762Y0222487D03*
X0057030Y0222487D03*
X0057030Y0229573D03*
X0065298Y0229573D03*
X0065298Y0222487D03*
X0073565Y0222487D03*
X0073565Y0215400D03*
X0073565Y0201227D03*
X0073565Y0177211D03*
X0073565Y0163038D03*
X0073565Y0155951D03*
X0073565Y0148865D03*
X0065298Y0148865D03*
X0065298Y0155951D03*
X0057030Y0155951D03*
X0057030Y0148865D03*
X0048762Y0148865D03*
X0048762Y0155951D03*
X0040494Y0155951D03*
X0040494Y0148865D03*
X0032227Y0148865D03*
X0032227Y0155951D03*
X0032227Y0163038D03*
X0032227Y0177211D03*
X0032227Y0201227D03*
X0073565Y0229573D03*
D22*
X0074550Y0236266D03*
X0065888Y0236266D03*
X0057227Y0236266D03*
X0052896Y0236266D03*
X0048565Y0236266D03*
X0044235Y0236266D03*
X0039904Y0236266D03*
X0035573Y0236266D03*
X0031243Y0236266D03*
X0031243Y0142172D03*
X0035573Y0142172D03*
X0039904Y0142172D03*
X0044235Y0142172D03*
X0048565Y0142172D03*
X0052896Y0142172D03*
X0057227Y0142172D03*
X0065888Y0142172D03*
X0074550Y0142172D03*
D23*
X0070219Y0142172D03*
X0061557Y0142172D03*
X0061557Y0236266D03*
X0070219Y0236266D03*
D24*
X0080258Y0232526D03*
X0080258Y0228195D03*
X0080258Y0223865D03*
X0080258Y0219534D03*
X0080258Y0215203D03*
X0080258Y0210872D03*
X0080258Y0206542D03*
X0080258Y0202211D03*
X0080258Y0197880D03*
X0080258Y0193550D03*
X0080258Y0189219D03*
X0080258Y0184888D03*
X0080258Y0180557D03*
X0080258Y0176227D03*
X0080258Y0171896D03*
X0080258Y0167565D03*
X0080258Y0163235D03*
X0080258Y0158904D03*
X0080258Y0154573D03*
X0080258Y0150243D03*
X0080258Y0145912D03*
X0025534Y0145912D03*
X0025534Y0150243D03*
X0025534Y0154573D03*
X0025534Y0158904D03*
X0025534Y0163235D03*
X0025534Y0167565D03*
X0025534Y0171896D03*
X0025534Y0176227D03*
X0025534Y0180557D03*
X0025534Y0184888D03*
X0025534Y0189219D03*
X0025534Y0193550D03*
X0025534Y0197880D03*
X0025534Y0202211D03*
X0025534Y0206542D03*
X0025534Y0210872D03*
X0025534Y0215203D03*
X0025534Y0219534D03*
X0025534Y0223865D03*
X0025534Y0228195D03*
X0025534Y0232526D03*
D25*
X0031282Y0056833D03*
X0033841Y0056833D03*
X0036400Y0056833D03*
X0038959Y0056833D03*
X0041518Y0056833D03*
D26*
X0054660Y0092282D03*
X0058400Y0092282D03*
X0062140Y0092282D03*
X0062140Y0102518D03*
X0054660Y0102518D03*
X0072660Y0102518D03*
X0080140Y0102518D03*
X0080140Y0092282D03*
X0076400Y0092282D03*
X0072660Y0092282D03*
D27*
X0032900Y0092931D03*
X0032900Y0096869D03*
D28*
X0104400Y0051353D03*
X0104400Y0045447D03*
X0110400Y0045447D03*
X0110400Y0051353D03*
X0107447Y0126400D03*
X0113353Y0126400D03*
D29*
X0109400Y0120124D03*
X0105660Y0110676D03*
X0113140Y0110676D03*
D30*
X0111369Y0105400D03*
X0107431Y0105400D03*
X0109431Y0131400D03*
X0113369Y0131400D03*
X0062369Y0074400D03*
X0062369Y0069400D03*
X0058431Y0069400D03*
X0058431Y0074400D03*
D31*
X0060487Y0265150D03*
X0071313Y0265150D03*
D32*
X0065900Y0259146D03*
M02*
