G75*
%MOIN*%
%OFA0B0*%
%FSLAX25Y25*%
%IPPOS*%
%LPD*%
%AMOC8*
5,1,8,0,0,1.08239X$1,22.5*
%
%ADD10R,0.03937X0.04331*%
%ADD11R,0.03543X0.02756*%
%ADD12R,0.02756X0.03543*%
%ADD13R,0.05906X0.05118*%
%ADD14R,0.18110X0.03937*%
%ADD15R,0.13386X0.06299*%
%ADD16R,0.02362X0.01181*%
%ADD17R,0.01181X0.02362*%
%ADD18R,0.12992X0.12992*%
%ADD19R,0.01713X0.01713*%
%ADD20R,0.07874X0.03150*%
%ADD21R,0.02362X0.02362*%
%ADD22R,0.04331X0.04331*%
%ADD23R,0.03150X0.05906*%
%ADD24R,0.03543X0.05906*%
%ADD25R,0.05906X0.03150*%
%ADD26C,0.05500*%
%ADD27C,0.08850*%
%ADD28R,0.00984X0.05315*%
%ADD29C,0.05346*%
%ADD30C,0.07677*%
%ADD31R,0.02165X0.04724*%
%ADD32R,0.02756X0.02362*%
%ADD33R,0.03150X0.03150*%
%ADD34R,0.02756X0.03937*%
%ADD35R,0.02362X0.02756*%
%ADD36R,0.04134X0.08661*%
%ADD37R,0.03937X0.03150*%
%ADD38C,0.00800*%
%ADD39C,0.02600*%
%ADD40C,0.02400*%
%ADD41C,0.01200*%
%ADD42C,0.01600*%
%ADD43C,0.00600*%
D10*
X0100400Y0225054D03*
X0100400Y0231746D03*
D11*
X0065900Y0244341D03*
X0065900Y0249459D03*
X0067400Y0099959D03*
X0067400Y0094841D03*
X0049400Y0094841D03*
X0049400Y0099959D03*
X0027400Y0068959D03*
X0027400Y0063841D03*
D12*
X0055841Y0108400D03*
X0060959Y0108400D03*
X0072841Y0108400D03*
X0077959Y0108400D03*
X0065959Y0253650D03*
X0060841Y0253650D03*
D13*
X0091400Y0232140D03*
X0091400Y0224660D03*
D14*
X0087833Y0080337D03*
X0087833Y0072463D03*
D15*
X0108306Y0063014D03*
X0108306Y0089786D03*
D16*
X0050455Y0081306D03*
X0050455Y0079337D03*
X0050455Y0077369D03*
X0050455Y0075400D03*
X0050455Y0073431D03*
X0050455Y0071463D03*
X0050455Y0069494D03*
X0032345Y0069494D03*
X0032345Y0071463D03*
X0032345Y0073431D03*
X0032345Y0075400D03*
X0032345Y0077369D03*
X0032345Y0079337D03*
X0032345Y0081306D03*
D17*
X0035494Y0084455D03*
X0037463Y0084455D03*
X0039431Y0084455D03*
X0041400Y0084455D03*
X0043369Y0084455D03*
X0045337Y0084455D03*
X0047306Y0084455D03*
X0047306Y0066345D03*
X0045337Y0066345D03*
X0043369Y0066345D03*
X0041400Y0066345D03*
X0039431Y0066345D03*
X0037463Y0066345D03*
X0035494Y0066345D03*
D18*
X0041400Y0075400D03*
D19*
X0033122Y0083678D03*
D20*
X0023900Y0093632D03*
X0023900Y0110168D03*
X0023900Y0115132D03*
X0023900Y0131668D03*
D21*
X0025337Y0236857D03*
D22*
X0032227Y0229573D03*
X0032227Y0222487D03*
X0032227Y0215400D03*
X0040494Y0222487D03*
X0040494Y0229573D03*
X0048762Y0229573D03*
X0048762Y0222487D03*
X0057030Y0222487D03*
X0057030Y0229573D03*
X0065298Y0229573D03*
X0065298Y0222487D03*
X0073565Y0222487D03*
X0073565Y0215400D03*
X0073565Y0201227D03*
X0073565Y0177211D03*
X0073565Y0163038D03*
X0073565Y0155951D03*
X0073565Y0148865D03*
X0065298Y0148865D03*
X0065298Y0155951D03*
X0057030Y0155951D03*
X0057030Y0148865D03*
X0048762Y0148865D03*
X0048762Y0155951D03*
X0040494Y0155951D03*
X0040494Y0148865D03*
X0032227Y0148865D03*
X0032227Y0155951D03*
X0032227Y0163038D03*
X0032227Y0177211D03*
X0032227Y0201227D03*
X0073565Y0229573D03*
D23*
X0074550Y0236266D03*
X0065888Y0236266D03*
X0057227Y0236266D03*
X0052896Y0236266D03*
X0048565Y0236266D03*
X0044235Y0236266D03*
X0039904Y0236266D03*
X0035573Y0236266D03*
X0031243Y0236266D03*
X0031243Y0142172D03*
X0035573Y0142172D03*
X0039904Y0142172D03*
X0044235Y0142172D03*
X0048565Y0142172D03*
X0052896Y0142172D03*
X0057227Y0142172D03*
X0065888Y0142172D03*
X0074550Y0142172D03*
D24*
X0070219Y0142172D03*
X0061557Y0142172D03*
X0061557Y0236266D03*
X0070219Y0236266D03*
D25*
X0080258Y0232526D03*
X0080258Y0228195D03*
X0080258Y0223865D03*
X0080258Y0219534D03*
X0080258Y0215203D03*
X0080258Y0210872D03*
X0080258Y0206542D03*
X0080258Y0202211D03*
X0080258Y0197880D03*
X0080258Y0193550D03*
X0080258Y0189219D03*
X0080258Y0184888D03*
X0080258Y0180557D03*
X0080258Y0176227D03*
X0080258Y0171896D03*
X0080258Y0167565D03*
X0080258Y0163235D03*
X0080258Y0158904D03*
X0080258Y0154573D03*
X0080258Y0150243D03*
X0080258Y0145912D03*
X0025534Y0145912D03*
X0025534Y0150243D03*
X0025534Y0154573D03*
X0025534Y0158904D03*
X0025534Y0163235D03*
X0025534Y0167565D03*
X0025534Y0171896D03*
X0025534Y0176227D03*
X0025534Y0180557D03*
X0025534Y0184888D03*
X0025534Y0189219D03*
X0025534Y0193550D03*
X0025534Y0197880D03*
X0025534Y0202211D03*
X0025534Y0206542D03*
X0025534Y0210872D03*
X0025534Y0215203D03*
X0025534Y0219534D03*
X0025534Y0223865D03*
X0025534Y0228195D03*
X0025534Y0232526D03*
D26*
X0071500Y0050400D03*
X0079400Y0050400D03*
X0087300Y0050400D03*
D27*
X0095550Y0050400D03*
X0063250Y0050400D03*
D28*
X0041518Y0056833D03*
X0038959Y0056833D03*
X0036400Y0056833D03*
X0033841Y0056833D03*
X0031282Y0056833D03*
D29*
X0027640Y0058211D03*
X0045160Y0058211D03*
D30*
X0019963Y0046400D03*
X0052837Y0046400D03*
D31*
X0054660Y0092282D03*
X0058400Y0092282D03*
X0062140Y0092282D03*
X0062140Y0102518D03*
X0054660Y0102518D03*
X0072660Y0102518D03*
X0080140Y0102518D03*
X0080140Y0092282D03*
X0076400Y0092282D03*
X0072660Y0092282D03*
D32*
X0032900Y0092931D03*
X0032900Y0096869D03*
D33*
X0104400Y0051353D03*
X0104400Y0045447D03*
X0110400Y0045447D03*
X0110400Y0051353D03*
X0107447Y0126400D03*
X0113353Y0126400D03*
D34*
X0109400Y0120124D03*
X0105660Y0110676D03*
X0113140Y0110676D03*
D35*
X0111369Y0105400D03*
X0107431Y0105400D03*
X0109431Y0131400D03*
X0113369Y0131400D03*
X0062369Y0074400D03*
X0062369Y0069400D03*
X0058431Y0069400D03*
X0058431Y0074400D03*
D36*
X0060487Y0265150D03*
X0071313Y0265150D03*
D37*
X0065900Y0259146D03*
D38*
X0104400Y0131400D02*
X0103400Y0130400D01*
X0103400Y0123400D01*
X0104400Y0131400D02*
X0109431Y0131400D01*
X0107447Y0126400D02*
X0107447Y0122077D01*
X0109400Y0120124D01*
X0112400Y0115400D02*
X0113140Y0114660D01*
X0113140Y0110676D01*
X0113140Y0107172D01*
X0111369Y0105400D01*
X0113353Y0126400D02*
X0113353Y0131384D01*
X0113369Y0131400D01*
X0080140Y0106219D02*
X0080140Y0102518D01*
X0080140Y0101140D01*
X0076400Y0097400D01*
X0069959Y0097400D01*
X0067400Y0099959D01*
X0067400Y0094841D02*
X0069959Y0092282D01*
X0072660Y0092282D01*
X0076400Y0092282D02*
X0076400Y0097400D01*
X0080140Y0106219D02*
X0077959Y0108400D01*
X0062140Y0107219D02*
X0062140Y0102518D01*
X0062140Y0101140D01*
X0058400Y0097400D01*
X0058400Y0092282D01*
X0054660Y0091400D02*
X0052841Y0091400D01*
X0049400Y0094841D01*
X0049400Y0099959D02*
X0049400Y0103400D01*
X0060959Y0108400D02*
X0062140Y0107219D01*
X0062369Y0074400D02*
X0065369Y0071400D01*
X0067400Y0071400D01*
X0065400Y0069400D02*
X0067400Y0067400D01*
X0065400Y0069400D02*
X0062369Y0069400D01*
X0041400Y0075400D02*
X0039431Y0077369D01*
X0032345Y0077369D01*
X0032345Y0071463D02*
X0023463Y0071463D01*
X0022400Y0070400D01*
X0023841Y0063841D02*
X0023400Y0063400D01*
X0023841Y0063841D02*
X0027400Y0063841D01*
X0030172Y0065628D02*
X0030172Y0065633D01*
X0028400Y0067405D01*
X0028400Y0068959D01*
X0028959Y0068959D01*
X0029494Y0069494D01*
X0032345Y0069494D01*
X0035494Y0066345D02*
X0032550Y0063400D01*
X0032400Y0063400D01*
X0030172Y0065628D01*
X0028400Y0068959D02*
X0027400Y0068959D01*
X0037463Y0066345D02*
X0037463Y0063137D01*
X0038200Y0062400D01*
X0041400Y0062400D02*
X0041400Y0056951D01*
X0041518Y0056833D01*
X0041518Y0051518D01*
X0041400Y0049400D01*
X0033122Y0083678D02*
X0031122Y0083678D01*
X0029400Y0085400D01*
X0036400Y0089400D02*
X0032900Y0092900D01*
X0032900Y0092931D01*
X0032199Y0093632D01*
X0023900Y0093632D01*
X0025400Y0098400D02*
X0031369Y0098400D01*
X0032900Y0096869D01*
X0099795Y0045700D02*
X0100048Y0045447D01*
X0104400Y0045447D01*
X0110400Y0045447D01*
X0110400Y0051353D02*
X0110400Y0056400D01*
X0104400Y0055400D02*
X0104400Y0051353D01*
D39*
X0104400Y0055400D03*
X0110400Y0056400D03*
X0099795Y0045700D03*
X0099400Y0080400D03*
X0112400Y0115400D03*
X0103400Y0123400D03*
X0094400Y0143400D03*
X0101900Y0148900D03*
X0107400Y0144400D03*
X0098400Y0167900D03*
X0086400Y0167900D03*
X0086400Y0171900D03*
X0086400Y0199400D03*
X0086400Y0219400D03*
X0091400Y0237400D03*
X0100400Y0237400D03*
X0105400Y0231400D03*
X0107400Y0197400D03*
X0070400Y0194400D03*
X0069400Y0177400D03*
X0069400Y0163400D03*
X0069400Y0156400D03*
X0069400Y0149400D03*
X0053400Y0149400D03*
X0053400Y0156400D03*
X0036400Y0156400D03*
X0036400Y0149400D03*
X0024400Y0136400D03*
X0021171Y0150384D03*
X0021400Y0159400D03*
X0021282Y0176396D03*
X0031900Y0193400D03*
X0036400Y0201400D03*
X0042400Y0188900D03*
X0036900Y0179900D03*
X0032900Y0183400D03*
X0020700Y0214400D03*
X0020700Y0223400D03*
X0020700Y0231400D03*
X0031400Y0241400D03*
X0044400Y0241400D03*
X0052400Y0241400D03*
X0057400Y0253400D03*
X0055400Y0262400D03*
X0055400Y0267400D03*
X0061400Y0241400D03*
X0070400Y0241400D03*
X0076400Y0262400D03*
X0076400Y0267400D03*
X0024400Y0119400D03*
X0036400Y0103400D03*
X0039900Y0106900D03*
X0041900Y0110400D03*
X0044900Y0113900D03*
X0051400Y0108400D03*
X0049400Y0103400D03*
X0056400Y0112400D03*
X0058400Y0097400D03*
X0068400Y0108400D03*
X0072400Y0112400D03*
X0076400Y0097400D03*
X0067400Y0071400D03*
X0067400Y0067400D03*
X0045400Y0071400D03*
X0041400Y0075400D03*
X0045400Y0079400D03*
X0037400Y0079400D03*
X0037400Y0071400D03*
X0032400Y0063400D03*
X0038200Y0062400D03*
X0041400Y0062400D03*
X0041400Y0049400D03*
X0023400Y0063400D03*
X0022400Y0070400D03*
X0029400Y0085400D03*
X0036400Y0089400D03*
X0025400Y0098400D03*
D40*
X0051400Y0108400D02*
X0055841Y0108400D01*
X0056400Y0108959D01*
X0056400Y0112400D01*
X0055841Y0108400D02*
X0055841Y0103699D01*
X0054660Y0102518D01*
X0054660Y0092282D02*
X0054660Y0091400D01*
X0054660Y0086140D01*
X0057400Y0083400D01*
X0061400Y0083400D01*
X0062140Y0084140D01*
X0062140Y0092282D01*
X0061400Y0083400D02*
X0067400Y0083400D01*
X0069400Y0081400D01*
X0072660Y0084660D01*
X0072920Y0084400D01*
X0078400Y0084400D01*
X0080140Y0086140D01*
X0080140Y0092282D01*
X0072660Y0092282D02*
X0072660Y0084660D01*
X0069400Y0081400D02*
X0072400Y0078400D01*
X0072400Y0060400D01*
X0079400Y0053400D01*
X0079400Y0050400D01*
X0087300Y0050400D02*
X0087833Y0050933D01*
X0087833Y0072463D01*
X0087833Y0080337D02*
X0099337Y0080337D01*
X0099400Y0080400D01*
X0072660Y0102518D02*
X0072660Y0108219D01*
X0072841Y0108400D01*
X0068400Y0108400D01*
X0072841Y0108400D02*
X0072841Y0111959D01*
X0072400Y0112400D01*
X0080258Y0223865D02*
X0084865Y0223865D01*
X0086400Y0225400D01*
X0086400Y0229400D01*
X0086400Y0232526D01*
X0091014Y0232526D01*
X0091400Y0232140D01*
X0091400Y0237400D01*
X0091400Y0232140D02*
X0100006Y0232140D01*
X0100400Y0231746D01*
X0100400Y0237400D01*
X0100400Y0231746D02*
X0105054Y0231746D01*
X0105400Y0231400D01*
X0086400Y0232526D02*
X0080258Y0232526D01*
X0080258Y0228195D02*
X0085195Y0228195D01*
X0086400Y0229400D01*
D41*
X0091400Y0224660D02*
X0091400Y0220400D01*
X0090400Y0219400D01*
X0098400Y0219400D01*
X0100400Y0221400D01*
X0100400Y0225054D01*
X0090400Y0219400D02*
X0086400Y0219400D01*
X0080392Y0219400D01*
X0080258Y0219534D01*
X0073565Y0222487D02*
X0073565Y0215400D01*
X0073565Y0222487D02*
X0073565Y0229573D01*
X0073565Y0235282D01*
X0074550Y0236266D01*
X0074400Y0236416D01*
X0074400Y0239400D01*
X0072400Y0241400D01*
X0070400Y0241400D01*
X0070400Y0236447D01*
X0070219Y0236266D01*
X0065298Y0229573D02*
X0061557Y0233313D01*
X0061557Y0236266D01*
X0061557Y0241243D01*
X0061400Y0241400D01*
X0057400Y0239400D02*
X0057400Y0236439D01*
X0057227Y0236266D01*
X0057227Y0229770D01*
X0057030Y0229573D01*
X0057030Y0222487D01*
X0048762Y0222487D02*
X0048762Y0228400D01*
X0048565Y0228597D01*
X0048565Y0236266D01*
X0048400Y0236431D01*
X0048400Y0239400D01*
X0046565Y0241235D01*
X0044235Y0241235D01*
X0044400Y0241400D01*
X0044235Y0241235D02*
X0044235Y0236266D01*
X0040494Y0229573D02*
X0032227Y0229573D01*
X0031243Y0230557D01*
X0031243Y0236266D01*
X0031400Y0236424D01*
X0031400Y0241400D01*
X0034400Y0241400D01*
X0035400Y0240400D01*
X0035400Y0236439D01*
X0035573Y0236266D01*
X0040494Y0229573D02*
X0040494Y0222487D01*
X0032227Y0222487D02*
X0030849Y0223865D01*
X0025534Y0223865D01*
X0021165Y0223865D01*
X0020700Y0223400D01*
X0020700Y0231400D02*
X0021826Y0232526D01*
X0025534Y0232526D01*
X0025731Y0215400D02*
X0025534Y0215203D01*
X0021503Y0215203D01*
X0020700Y0214400D01*
X0025731Y0215400D02*
X0032227Y0215400D01*
X0032400Y0201400D02*
X0036400Y0201400D01*
X0032400Y0201400D02*
X0032227Y0201227D01*
X0032227Y0177211D02*
X0026518Y0177211D01*
X0025534Y0176227D01*
X0025364Y0176396D01*
X0021282Y0176396D01*
X0021400Y0159400D02*
X0021896Y0158904D01*
X0025534Y0158904D01*
X0025393Y0150384D02*
X0021171Y0150384D01*
X0021171Y0147629D01*
X0022400Y0146400D01*
X0025046Y0146400D01*
X0025534Y0145912D01*
X0025534Y0150243D02*
X0025393Y0150384D01*
X0032227Y0143156D02*
X0031243Y0142172D01*
X0032227Y0143156D02*
X0032227Y0148865D01*
X0035865Y0148865D01*
X0036400Y0149400D01*
X0039959Y0149400D01*
X0040494Y0148865D01*
X0040494Y0155951D02*
X0040046Y0156400D01*
X0036400Y0156400D01*
X0036400Y0161400D01*
X0034762Y0163038D01*
X0032227Y0163038D01*
X0032227Y0155951D02*
X0035951Y0155951D01*
X0036400Y0156400D01*
X0048762Y0155951D02*
X0049211Y0156400D01*
X0053400Y0156400D01*
X0053849Y0155951D01*
X0057030Y0155951D01*
X0056494Y0149400D02*
X0053400Y0149400D01*
X0052865Y0148865D01*
X0048762Y0148865D01*
X0056494Y0149400D02*
X0057030Y0148865D01*
X0065298Y0148865D02*
X0065888Y0148274D01*
X0065888Y0142172D01*
X0065298Y0148865D02*
X0068865Y0148865D01*
X0069400Y0149400D01*
X0069935Y0148865D01*
X0073565Y0148865D01*
X0074550Y0147880D01*
X0074550Y0142172D01*
X0073565Y0155951D02*
X0069849Y0155951D01*
X0065298Y0155951D01*
X0069400Y0156400D02*
X0069849Y0155951D01*
X0069400Y0163400D02*
X0073203Y0163400D01*
X0073565Y0163038D01*
X0073565Y0177211D02*
X0069589Y0177211D01*
X0069400Y0177400D01*
X0080258Y0189219D02*
X0085219Y0189219D01*
X0086400Y0190400D01*
X0086400Y0199400D01*
X0073565Y0201227D02*
X0070400Y0198061D01*
X0070400Y0194400D01*
X0065298Y0222487D02*
X0065298Y0229573D01*
X0057400Y0239400D02*
X0055400Y0241400D01*
X0053392Y0241400D01*
X0052896Y0240904D01*
X0052400Y0241400D01*
X0052896Y0240904D02*
X0052896Y0236266D01*
X0048762Y0229573D02*
X0048762Y0228400D01*
X0024400Y0136400D02*
X0024400Y0132168D01*
X0023900Y0131668D01*
X0024400Y0119400D02*
X0023900Y0118900D01*
X0023900Y0115132D01*
X0023900Y0110168D01*
X0032400Y0063400D02*
X0031282Y0062282D01*
X0031282Y0056833D01*
D42*
X0065888Y0236266D02*
X0065888Y0246329D01*
X0065900Y0244341D01*
X0065900Y0249459D02*
X0065900Y0256591D01*
X0065959Y0253650D01*
X0065959Y0259087D01*
X0065900Y0259146D01*
X0060841Y0253650D02*
X0057650Y0253650D01*
X0057400Y0253400D01*
X0057737Y0262400D02*
X0055400Y0262400D01*
X0055400Y0267400D02*
X0058237Y0267400D01*
X0060487Y0265150D01*
X0057737Y0262400D01*
X0071313Y0265150D02*
X0074063Y0262400D01*
X0076400Y0262400D01*
X0076400Y0267400D02*
X0073563Y0267400D01*
X0071313Y0265150D01*
D43*
X0031750Y0193550D02*
X0031900Y0193400D01*
X0031750Y0193550D02*
X0025534Y0193550D01*
X0025534Y0189219D02*
X0042081Y0189219D01*
X0042400Y0188900D01*
X0036243Y0180557D02*
X0036900Y0179900D01*
X0036243Y0180557D02*
X0025534Y0180557D01*
X0025534Y0184888D02*
X0031412Y0184888D01*
X0032900Y0183400D01*
X0039904Y0142172D02*
X0039904Y0131396D01*
X0048400Y0122900D01*
X0084900Y0122900D01*
X0097900Y0109900D01*
X0105660Y0109900D01*
X0105660Y0107172D01*
X0107431Y0105400D01*
X0105660Y0109900D02*
X0105660Y0110676D01*
X0101900Y0148900D02*
X0101900Y0170900D01*
X0092243Y0180557D01*
X0080258Y0180557D01*
X0080258Y0176227D02*
X0087227Y0176227D01*
X0087400Y0176400D01*
X0089900Y0176400D01*
X0098400Y0167900D01*
X0086400Y0167900D02*
X0086065Y0167565D01*
X0080258Y0167565D01*
X0080258Y0171896D02*
X0086396Y0171896D01*
X0086400Y0171900D01*
X0044900Y0113900D02*
X0044900Y0112400D01*
X0045400Y0111900D01*
X0045400Y0084518D01*
X0045337Y0084455D01*
X0043369Y0084455D02*
X0043369Y0108931D01*
X0041900Y0110400D01*
X0039900Y0106900D02*
X0041400Y0105400D01*
X0041400Y0084455D01*
X0039431Y0084455D02*
X0039431Y0100369D01*
X0036400Y0103400D01*
X0032345Y0075400D02*
X0031945Y0075000D01*
X0022151Y0075000D01*
X0018300Y0071149D01*
X0018300Y0056651D01*
X0025651Y0049300D01*
X0032899Y0049300D01*
X0035750Y0052151D01*
X0035750Y0056183D01*
X0036400Y0056833D01*
X0034550Y0056124D02*
X0034550Y0052649D01*
X0032401Y0050500D01*
X0026149Y0050500D01*
X0019500Y0057149D01*
X0019500Y0070651D01*
X0022649Y0073800D01*
X0031976Y0073800D01*
X0032345Y0073431D01*
X0033841Y0056833D02*
X0034550Y0056124D01*
X0050933Y0074922D02*
X0052009Y0074922D01*
X0054400Y0072531D01*
X0054400Y0071400D01*
X0056400Y0069400D01*
X0058431Y0069400D01*
X0058431Y0074400D02*
X0054900Y0074400D01*
X0051931Y0077369D01*
X0050455Y0077369D01*
X0050455Y0075400D02*
X0050933Y0074922D01*
M02*
