G75*
%MOIN*%
%OFA0B0*%
%FSLAX25Y25*%
%IPPOS*%
%LPD*%
%AMOC8*
5,1,8,0,0,1.08239X$1,22.5*
%
%ADD10R,0.07000X0.08000*%
%ADD11R,0.03543X0.02756*%
%ADD12R,0.02756X0.03543*%
%ADD13R,0.12205X0.04331*%
%ADD14R,0.02362X0.04331*%
%ADD15R,0.06772X0.04331*%
%ADD16R,0.07638X0.04331*%
%ADD17R,0.02953X0.04331*%
%ADD18R,0.09055X0.04331*%
%ADD19C,0.05500*%
%ADD20C,0.08850*%
%ADD21C,0.05346*%
%ADD22C,0.07677*%
%ADD23R,0.02756X0.02362*%
%ADD24C,0.02600*%
%ADD25C,0.01200*%
%ADD26C,0.00800*%
%ADD27C,0.01600*%
%ADD28C,0.00600*%
%ADD29C,0.02400*%
D10*
X0065900Y0265400D03*
D11*
X0091400Y0231959D03*
X0091400Y0226841D03*
X0097400Y0226841D03*
X0097400Y0231959D03*
D12*
X0091459Y0194400D03*
X0086341Y0194400D03*
X0101841Y0193400D03*
X0106959Y0193400D03*
X0106959Y0133400D03*
X0106959Y0128400D03*
X0101841Y0128400D03*
X0101841Y0133400D03*
X0097959Y0133400D03*
X0092841Y0133400D03*
D13*
X0110298Y0138400D03*
X0110298Y0188400D03*
D14*
X0101833Y0188400D03*
X0098290Y0188400D03*
X0094746Y0188400D03*
X0091203Y0188400D03*
X0087660Y0188400D03*
X0063998Y0188400D03*
X0063998Y0138400D03*
X0058664Y0138400D03*
X0084117Y0138400D03*
X0087660Y0138400D03*
X0091203Y0138400D03*
X0094746Y0138400D03*
X0098290Y0138400D03*
X0101833Y0138400D03*
D15*
X0078369Y0138400D03*
X0078369Y0188400D03*
D16*
X0070180Y0188400D03*
X0070180Y0138400D03*
D17*
X0058664Y0188400D03*
D18*
X0050455Y0188400D03*
X0050455Y0138400D03*
D19*
X0071500Y0050400D03*
X0079400Y0050400D03*
X0087300Y0050400D03*
D20*
X0095550Y0050400D03*
X0063250Y0050400D03*
D21*
X0045160Y0058211D03*
X0027640Y0058211D03*
D22*
X0019963Y0046400D03*
X0052837Y0046400D03*
D23*
X0038900Y0168931D03*
X0038900Y0172869D03*
X0033400Y0172869D03*
X0033400Y0168931D03*
X0042400Y0181931D03*
X0042400Y0185869D03*
X0037900Y0188931D03*
X0037900Y0192869D03*
D24*
X0042400Y0188900D03*
X0036900Y0179900D03*
X0032900Y0183400D03*
X0031900Y0193400D03*
X0036400Y0201400D03*
X0020700Y0214400D03*
X0020700Y0223400D03*
X0020700Y0231400D03*
X0031400Y0241400D03*
X0044400Y0241400D03*
X0052400Y0241400D03*
X0057400Y0253400D03*
X0055400Y0262400D03*
X0055400Y0267400D03*
X0061400Y0241400D03*
X0070400Y0241400D03*
X0076400Y0262400D03*
X0076400Y0267400D03*
X0091400Y0237400D03*
X0100400Y0237400D03*
X0105400Y0231400D03*
X0086400Y0219400D03*
X0086400Y0199400D03*
X0070400Y0194400D03*
X0069400Y0177400D03*
X0069400Y0163400D03*
X0069400Y0156400D03*
X0069400Y0149400D03*
X0053400Y0149400D03*
X0053400Y0156400D03*
X0036400Y0156400D03*
X0036400Y0149400D03*
X0024400Y0136400D03*
X0021171Y0150384D03*
X0021400Y0159400D03*
X0021282Y0176396D03*
X0024400Y0119400D03*
X0036400Y0103400D03*
X0039900Y0106900D03*
X0041900Y0110400D03*
X0044900Y0113900D03*
X0051400Y0108400D03*
X0049400Y0103400D03*
X0056400Y0112400D03*
X0058400Y0097400D03*
X0068400Y0108400D03*
X0072400Y0112400D03*
X0076400Y0097400D03*
X0067400Y0071400D03*
X0067400Y0067400D03*
X0045400Y0071400D03*
X0041400Y0075400D03*
X0045400Y0079400D03*
X0037400Y0079400D03*
X0037400Y0071400D03*
X0032400Y0063400D03*
X0038200Y0062400D03*
X0041400Y0062400D03*
X0041400Y0049400D03*
X0023400Y0063400D03*
X0022400Y0070400D03*
X0029400Y0085400D03*
X0036400Y0089400D03*
X0025400Y0098400D03*
X0086400Y0167900D03*
X0086400Y0171900D03*
X0098400Y0167900D03*
X0101900Y0148900D03*
X0107400Y0144400D03*
X0103400Y0123400D03*
X0112400Y0115400D03*
X0094400Y0143400D03*
X0107400Y0197400D03*
X0099400Y0080400D03*
X0104400Y0055400D03*
X0110400Y0056400D03*
X0099795Y0045700D03*
D25*
X0078369Y0138400D02*
X0070180Y0138400D01*
X0070180Y0148620D01*
X0069400Y0149400D01*
X0053400Y0149400D02*
X0053400Y0141345D01*
X0050455Y0138400D01*
X0024400Y0136400D02*
X0023671Y0137129D01*
X0023671Y0151419D01*
X0021400Y0153690D01*
X0021400Y0159400D01*
X0036400Y0201400D02*
X0046400Y0201400D01*
X0050455Y0197345D01*
X0050455Y0188400D01*
X0070180Y0188400D02*
X0078369Y0188400D01*
X0070400Y0188620D02*
X0070400Y0194400D01*
X0070400Y0188620D02*
X0070180Y0188400D01*
X0086341Y0194400D02*
X0086400Y0194459D01*
X0086400Y0199400D01*
X0092400Y0199400D01*
X0094746Y0197054D01*
X0094746Y0188400D01*
X0106959Y0191739D02*
X0106959Y0193400D01*
X0106959Y0196959D01*
X0107400Y0197400D01*
X0106959Y0191739D02*
X0110298Y0188400D01*
X0097400Y0231959D02*
X0091400Y0231959D01*
D26*
X0091400Y0226841D02*
X0091400Y0220400D01*
X0090400Y0219400D01*
X0086400Y0219400D01*
X0107400Y0144400D02*
X0110298Y0141502D01*
X0110298Y0138400D01*
X0110298Y0136739D01*
X0106959Y0133400D01*
X0106959Y0128400D01*
X0094746Y0135306D02*
X0094746Y0138400D01*
X0094400Y0138746D01*
X0094400Y0143400D01*
X0094746Y0135306D02*
X0092841Y0133400D01*
X0067400Y0071400D02*
X0077400Y0061400D01*
X0105400Y0061400D01*
X0110400Y0056400D01*
X0104400Y0055400D02*
X0101400Y0058400D01*
X0076400Y0058400D01*
X0067400Y0067400D01*
X0038200Y0062400D02*
X0034400Y0066200D01*
X0034400Y0081400D01*
X0038200Y0085200D01*
X0038200Y0087600D01*
X0036400Y0089400D01*
X0025400Y0098400D02*
X0022400Y0095400D01*
X0022400Y0070400D01*
D27*
X0091400Y0226841D02*
X0097400Y0226841D01*
D28*
X0091459Y0194400D02*
X0091203Y0193644D01*
X0091203Y0188900D01*
X0091203Y0188400D01*
X0091203Y0176703D01*
X0086400Y0171900D01*
X0086400Y0167900D02*
X0094400Y0175900D01*
X0094400Y0180400D01*
X0097400Y0183400D01*
X0100900Y0183400D01*
X0101833Y0184333D01*
X0101833Y0188400D01*
X0101833Y0193392D01*
X0101841Y0193400D01*
X0098400Y0167900D02*
X0098400Y0138510D01*
X0098290Y0138400D01*
X0098290Y0133731D01*
X0097959Y0133400D01*
X0101833Y0133408D02*
X0101833Y0138400D01*
X0101833Y0148833D01*
X0101900Y0148900D01*
X0101833Y0133408D02*
X0101841Y0133400D01*
X0101841Y0128400D01*
X0044900Y0113900D02*
X0044900Y0171900D01*
X0043100Y0173700D01*
X0043100Y0173897D01*
X0042400Y0174597D01*
X0042400Y0181931D01*
X0041178Y0178733D02*
X0037900Y0182011D01*
X0037900Y0188931D01*
X0037900Y0192869D02*
X0032431Y0192869D01*
X0031900Y0193400D01*
X0032900Y0183400D02*
X0033400Y0182900D01*
X0033400Y0172869D01*
X0033400Y0168931D02*
X0033400Y0106400D01*
X0036400Y0103400D01*
X0039900Y0106900D02*
X0038900Y0107900D01*
X0038900Y0168931D01*
X0038900Y0172869D02*
X0038900Y0177900D01*
X0036900Y0179900D01*
X0041178Y0178733D02*
X0041178Y0174122D01*
X0041900Y0173400D01*
X0041900Y0110400D01*
X0042400Y0185869D02*
X0042400Y0188900D01*
D29*
X0097400Y0231959D02*
X0097959Y0231400D01*
X0105400Y0231400D01*
M02*
