G75*
%MOIN*%
%OFA0B0*%
%FSLAX25Y25*%
%IPPOS*%
%LPD*%
%AMOC8*
5,1,8,0,0,1.08239X$1,22.5*
%
%ADD10R,0.03556X0.04343*%
%ADD11R,0.04737X0.05131*%
%ADD12R,0.04343X0.03556*%
%ADD13C,0.08200*%
%ADD14R,0.03556X0.03162*%
%ADD15R,0.03162X0.03556*%
%ADD16R,0.13005X0.05131*%
%ADD17R,0.03162X0.05131*%
%ADD18R,0.07572X0.05131*%
%ADD19R,0.08438X0.05131*%
%ADD20R,0.03753X0.05131*%
%ADD21R,0.09855X0.05131*%
%ADD22C,0.06146*%
%ADD23C,0.07099*%
%ADD24R,0.01784X0.06115*%
%ADD25R,0.03556X0.04737*%
%ADD26R,0.02965X0.05524*%
%ADD27R,0.05524X0.02965*%
%ADD28R,0.02400X0.08600*%
%ADD29C,0.03778*%
D10*
X0114741Y0026300D03*
X0119859Y0026300D03*
X0122359Y0051300D03*
X0117241Y0051300D03*
X0205241Y0128800D03*
X0210359Y0128800D03*
X0217741Y0128800D03*
X0222859Y0128800D03*
X0214859Y0062800D03*
X0209741Y0062800D03*
X0224241Y0062300D03*
X0224241Y0057800D03*
X0229359Y0057800D03*
X0229359Y0062300D03*
X0064859Y0154300D03*
X0059741Y0154300D03*
D11*
X0156800Y0053146D03*
X0156800Y0046454D03*
X0179800Y0044454D03*
X0179800Y0051146D03*
D12*
X0066300Y0142241D03*
X0066300Y0147359D03*
D13*
X0098800Y0122800D03*
X0098800Y0112800D03*
X0098800Y0102800D03*
X0098800Y0092800D03*
X0098800Y0082800D03*
X0142300Y0061800D03*
X0152300Y0061800D03*
D14*
X0065800Y0129831D03*
X0065800Y0133769D03*
X0105800Y0193331D03*
X0105800Y0197269D03*
X0072300Y0197331D03*
X0072300Y0201269D03*
D15*
X0075331Y0207300D03*
X0079269Y0207300D03*
X0084831Y0205300D03*
X0088769Y0205300D03*
X0054269Y0204300D03*
X0050331Y0204300D03*
X0041769Y0219800D03*
X0037831Y0219800D03*
X0039269Y0120800D03*
X0035331Y0120800D03*
X0041831Y0115800D03*
X0045769Y0115800D03*
X0061331Y0115800D03*
X0065269Y0115800D03*
X0166331Y0040800D03*
X0170269Y0040800D03*
D16*
X0226698Y0068800D03*
X0226698Y0118800D03*
D17*
X0218233Y0118800D03*
X0214690Y0118800D03*
X0211146Y0118800D03*
X0207603Y0118800D03*
X0204060Y0118800D03*
X0180398Y0118800D03*
X0180398Y0068800D03*
X0175064Y0068800D03*
X0200517Y0068800D03*
X0204060Y0068800D03*
X0207603Y0068800D03*
X0211146Y0068800D03*
X0214690Y0068800D03*
X0218233Y0068800D03*
D18*
X0194769Y0068800D03*
X0194769Y0118800D03*
D19*
X0186580Y0118800D03*
X0186580Y0068800D03*
D20*
X0175064Y0118800D03*
D21*
X0166855Y0118800D03*
X0166855Y0068800D03*
D22*
X0185840Y0033611D03*
X0203760Y0033611D03*
X0083760Y0033611D03*
X0065840Y0033611D03*
X0044111Y0153840D03*
X0044111Y0171760D03*
D23*
X0032300Y0179237D03*
X0032300Y0146363D03*
X0058363Y0021800D03*
X0091237Y0021800D03*
X0178363Y0021800D03*
X0211237Y0021800D03*
D24*
X0199918Y0032233D03*
X0197359Y0032233D03*
X0194800Y0032233D03*
X0192241Y0032233D03*
X0189682Y0032233D03*
D25*
X0102040Y0202576D03*
X0094560Y0202576D03*
X0090540Y0209576D03*
X0083060Y0209576D03*
X0086800Y0219024D03*
X0098300Y0212024D03*
X0075540Y0219024D03*
X0068060Y0219024D03*
X0063800Y0211524D03*
X0056040Y0209076D03*
X0048560Y0209076D03*
X0043540Y0215024D03*
X0036060Y0215024D03*
X0039800Y0205576D03*
X0052300Y0218524D03*
X0060060Y0202076D03*
X0067540Y0202076D03*
X0071800Y0209576D03*
D26*
X0116060Y0043918D03*
X0123540Y0043918D03*
X0123540Y0033682D03*
X0119800Y0033682D03*
X0116060Y0033682D03*
D27*
X0163182Y0046060D03*
X0163182Y0049800D03*
X0163182Y0053540D03*
X0173418Y0053540D03*
X0173418Y0046060D03*
D28*
X0061257Y0123500D03*
X0058698Y0123500D03*
X0056139Y0123500D03*
X0053580Y0123500D03*
X0051020Y0123500D03*
X0048461Y0123500D03*
X0045902Y0123500D03*
X0043343Y0123500D03*
X0043343Y0146100D03*
X0045902Y0146100D03*
X0048461Y0146100D03*
X0051020Y0146100D03*
X0053580Y0146100D03*
X0056139Y0146100D03*
X0058698Y0146100D03*
X0061257Y0146100D03*
D29*
X0034300Y0039300D03*
X0051800Y0051800D03*
X0059800Y0044300D03*
X0061800Y0061800D03*
X0061800Y0069300D03*
X0069800Y0078300D03*
X0075300Y0078300D03*
X0076800Y0069300D03*
X0094300Y0061800D03*
X0099300Y0061800D03*
X0109300Y0051800D03*
X0121300Y0059300D03*
X0122300Y0055722D03*
X0129300Y0064300D03*
X0134300Y0064300D03*
X0150800Y0071800D03*
X0153240Y0074740D03*
X0156520Y0076520D03*
X0159800Y0078300D03*
X0154774Y0090346D03*
X0154800Y0094800D03*
X0167040Y0096182D03*
X0194800Y0087800D03*
X0195800Y0063300D03*
X0192300Y0059300D03*
X0188800Y0055800D03*
X0191511Y0044300D03*
X0195089Y0044300D03*
X0201300Y0040300D03*
X0209300Y0049300D03*
X0215800Y0038300D03*
X0215800Y0034300D03*
X0215800Y0030300D03*
X0199800Y0026800D03*
X0162300Y0037300D03*
X0151800Y0039300D03*
X0151800Y0044300D03*
X0151800Y0049300D03*
X0134300Y0039800D03*
X0114741Y0026300D03*
X0102300Y0029300D03*
X0106800Y0036800D03*
X0079300Y0039300D03*
X0079300Y0026800D03*
X0043800Y0066800D03*
X0037800Y0076800D03*
X0046550Y0080550D03*
X0061752Y0090252D03*
X0068225Y0095300D03*
X0071300Y0093300D03*
X0061300Y0098724D03*
X0052300Y0102661D03*
X0051800Y0109800D03*
X0047800Y0108300D03*
X0056800Y0109800D03*
X0061300Y0110300D03*
X0064722Y0111938D03*
X0073300Y0116800D03*
X0076300Y0118800D03*
X0076378Y0114800D03*
X0084300Y0105300D03*
X0081832Y0100300D03*
X0089300Y0099300D03*
X0089300Y0094300D03*
X0107300Y0077800D03*
X0108300Y0073364D03*
X0116800Y0072300D03*
X0109800Y0105300D03*
X0109300Y0115611D03*
X0110050Y0126050D03*
X0104560Y0129560D03*
X0117800Y0133800D03*
X0126800Y0136800D03*
X0136800Y0136800D03*
X0144300Y0136800D03*
X0166800Y0153800D03*
X0166800Y0161800D03*
X0154300Y0204300D03*
X0149300Y0204300D03*
X0143800Y0204800D03*
X0139300Y0204300D03*
X0116800Y0209300D03*
X0113800Y0204800D03*
X0101800Y0209300D03*
X0094800Y0211800D03*
X0098800Y0216800D03*
X0080300Y0203800D03*
X0075300Y0205800D03*
X0070300Y0211300D03*
X0077800Y0213347D03*
X0078973Y0198166D03*
X0064300Y0197800D03*
X0055300Y0201300D03*
X0048830Y0194770D03*
X0051401Y0192281D03*
X0053300Y0188769D03*
X0057676Y0181676D03*
X0060800Y0183611D03*
X0053300Y0180300D03*
X0049304Y0180304D03*
X0045300Y0180789D03*
X0041300Y0180300D03*
X0031800Y0189300D03*
X0031800Y0196800D03*
X0031800Y0204300D03*
X0039800Y0209800D03*
X0031800Y0214300D03*
X0045300Y0202300D03*
X0045800Y0197300D03*
X0059800Y0209800D03*
X0049300Y0213347D03*
X0095800Y0188800D03*
X0102800Y0185800D03*
X0107300Y0185800D03*
X0102300Y0178800D03*
X0104878Y0175800D03*
X0101300Y0171300D03*
X0101300Y0166800D03*
X0107311Y0165300D03*
X0109800Y0158800D03*
X0116800Y0165300D03*
X0088849Y0158311D03*
X0085800Y0156300D03*
X0091800Y0136800D03*
X0079300Y0136800D03*
X0069722Y0129438D03*
X0077800Y0124800D03*
X0082310Y0125790D03*
X0120300Y0121300D03*
X0120790Y0117290D03*
X0043300Y0096800D03*
X0036300Y0102800D03*
X0031800Y0121800D03*
X0031800Y0129300D03*
X0031800Y0136800D03*
X0100627Y0198166D03*
M02*
