G75*
%MOIN*%
%OFA0B0*%
%FSLAX25Y25*%
%IPPOS*%
%LPD*%
%AMOC8*
5,1,8,0,0,1.08239X$1,22.5*
%
%ADD10R,0.02756X0.03543*%
%ADD11R,0.03937X0.04331*%
%ADD12R,0.03543X0.02756*%
%ADD13C,0.07400*%
%ADD14R,0.02756X0.02362*%
%ADD15R,0.02362X0.02756*%
%ADD16R,0.12205X0.04331*%
%ADD17R,0.02362X0.04331*%
%ADD18R,0.06772X0.04331*%
%ADD19R,0.07638X0.04331*%
%ADD20R,0.02953X0.04331*%
%ADD21R,0.09055X0.04331*%
%ADD22C,0.05346*%
%ADD23C,0.06299*%
%ADD24R,0.00984X0.05315*%
%ADD25R,0.02756X0.03937*%
%ADD26R,0.02165X0.04724*%
%ADD27R,0.04724X0.02165*%
%ADD28R,0.01600X0.07800*%
%ADD29C,0.02978*%
%ADD30C,0.00800*%
%ADD31C,0.00600*%
%ADD32C,0.01600*%
%ADD33C,0.02400*%
%ADD34C,0.01000*%
D10*
X0114741Y0026300D03*
X0119859Y0026300D03*
X0122359Y0051300D03*
X0117241Y0051300D03*
X0205241Y0128800D03*
X0210359Y0128800D03*
X0217741Y0128800D03*
X0222859Y0128800D03*
X0214859Y0062800D03*
X0209741Y0062800D03*
X0224241Y0062300D03*
X0224241Y0057800D03*
X0229359Y0057800D03*
X0229359Y0062300D03*
X0064859Y0154300D03*
X0059741Y0154300D03*
D11*
X0156800Y0053146D03*
X0156800Y0046454D03*
X0179800Y0044454D03*
X0179800Y0051146D03*
D12*
X0066300Y0142241D03*
X0066300Y0147359D03*
D13*
X0098800Y0122800D03*
X0098800Y0112800D03*
X0098800Y0102800D03*
X0098800Y0092800D03*
X0098800Y0082800D03*
X0142300Y0061800D03*
X0152300Y0061800D03*
D14*
X0065800Y0129831D03*
X0065800Y0133769D03*
X0105800Y0193331D03*
X0105800Y0197269D03*
X0072300Y0197331D03*
X0072300Y0201269D03*
D15*
X0075331Y0207300D03*
X0079269Y0207300D03*
X0084831Y0205300D03*
X0088769Y0205300D03*
X0054269Y0204300D03*
X0050331Y0204300D03*
X0041769Y0219800D03*
X0037831Y0219800D03*
X0039269Y0120800D03*
X0035331Y0120800D03*
X0041831Y0115800D03*
X0045769Y0115800D03*
X0061331Y0115800D03*
X0065269Y0115800D03*
X0166331Y0040800D03*
X0170269Y0040800D03*
D16*
X0226698Y0068800D03*
X0226698Y0118800D03*
D17*
X0218233Y0118800D03*
X0214690Y0118800D03*
X0211146Y0118800D03*
X0207603Y0118800D03*
X0204060Y0118800D03*
X0180398Y0118800D03*
X0180398Y0068800D03*
X0175064Y0068800D03*
X0200517Y0068800D03*
X0204060Y0068800D03*
X0207603Y0068800D03*
X0211146Y0068800D03*
X0214690Y0068800D03*
X0218233Y0068800D03*
D18*
X0194769Y0068800D03*
X0194769Y0118800D03*
D19*
X0186580Y0118800D03*
X0186580Y0068800D03*
D20*
X0175064Y0118800D03*
D21*
X0166855Y0118800D03*
X0166855Y0068800D03*
D22*
X0185840Y0033611D03*
X0203760Y0033611D03*
X0083760Y0033611D03*
X0065840Y0033611D03*
X0044111Y0153840D03*
X0044111Y0171760D03*
D23*
X0032300Y0179237D03*
X0032300Y0146363D03*
X0058363Y0021800D03*
X0091237Y0021800D03*
X0178363Y0021800D03*
X0211237Y0021800D03*
D24*
X0199918Y0032233D03*
X0197359Y0032233D03*
X0194800Y0032233D03*
X0192241Y0032233D03*
X0189682Y0032233D03*
D25*
X0102040Y0202576D03*
X0094560Y0202576D03*
X0090540Y0209576D03*
X0083060Y0209576D03*
X0086800Y0219024D03*
X0098300Y0212024D03*
X0075540Y0219024D03*
X0068060Y0219024D03*
X0063800Y0211524D03*
X0056040Y0209076D03*
X0048560Y0209076D03*
X0043540Y0215024D03*
X0036060Y0215024D03*
X0039800Y0205576D03*
X0052300Y0218524D03*
X0060060Y0202076D03*
X0067540Y0202076D03*
X0071800Y0209576D03*
D26*
X0116060Y0043918D03*
X0123540Y0043918D03*
X0123540Y0033682D03*
X0119800Y0033682D03*
X0116060Y0033682D03*
D27*
X0163182Y0046060D03*
X0163182Y0049800D03*
X0163182Y0053540D03*
X0173418Y0053540D03*
X0173418Y0046060D03*
D28*
X0061257Y0123500D03*
X0058698Y0123500D03*
X0056139Y0123500D03*
X0053580Y0123500D03*
X0051020Y0123500D03*
X0048461Y0123500D03*
X0045902Y0123500D03*
X0043343Y0123500D03*
X0043343Y0146100D03*
X0045902Y0146100D03*
X0048461Y0146100D03*
X0051020Y0146100D03*
X0053580Y0146100D03*
X0056139Y0146100D03*
X0058698Y0146100D03*
X0061257Y0146100D03*
D29*
X0069722Y0129438D03*
X0077800Y0124800D03*
X0082310Y0125790D03*
X0076300Y0118800D03*
X0073300Y0116800D03*
X0076378Y0114800D03*
X0084300Y0105300D03*
X0081832Y0100300D03*
X0089300Y0099300D03*
X0089300Y0094300D03*
X0071300Y0093300D03*
X0068225Y0095300D03*
X0061300Y0098724D03*
X0061752Y0090252D03*
X0069800Y0078300D03*
X0075300Y0078300D03*
X0076800Y0069300D03*
X0061800Y0069300D03*
X0061800Y0061800D03*
X0051800Y0051800D03*
X0059800Y0044300D03*
X0079300Y0039300D03*
X0079300Y0026800D03*
X0102300Y0029300D03*
X0106800Y0036800D03*
X0114741Y0026300D03*
X0134300Y0039800D03*
X0151800Y0039300D03*
X0151800Y0044300D03*
X0151800Y0049300D03*
X0162300Y0037300D03*
X0188800Y0055800D03*
X0192300Y0059300D03*
X0195800Y0063300D03*
X0209300Y0049300D03*
X0201300Y0040300D03*
X0195089Y0044300D03*
X0191511Y0044300D03*
X0199800Y0026800D03*
X0215800Y0030300D03*
X0215800Y0034300D03*
X0215800Y0038300D03*
X0194800Y0087800D03*
X0167040Y0096182D03*
X0154800Y0094800D03*
X0154774Y0090346D03*
X0159800Y0078300D03*
X0156520Y0076520D03*
X0153240Y0074740D03*
X0150800Y0071800D03*
X0134300Y0064300D03*
X0129300Y0064300D03*
X0121300Y0059300D03*
X0122300Y0055722D03*
X0109300Y0051800D03*
X0099300Y0061800D03*
X0094300Y0061800D03*
X0108300Y0073364D03*
X0107300Y0077800D03*
X0116800Y0072300D03*
X0109800Y0105300D03*
X0109300Y0115611D03*
X0110050Y0126050D03*
X0104560Y0129560D03*
X0117800Y0133800D03*
X0126800Y0136800D03*
X0136800Y0136800D03*
X0144300Y0136800D03*
X0166800Y0153800D03*
X0166800Y0161800D03*
X0154300Y0204300D03*
X0149300Y0204300D03*
X0143800Y0204800D03*
X0139300Y0204300D03*
X0116800Y0209300D03*
X0113800Y0204800D03*
X0101800Y0209300D03*
X0094800Y0211800D03*
X0098800Y0216800D03*
X0080300Y0203800D03*
X0075300Y0205800D03*
X0070300Y0211300D03*
X0077800Y0213347D03*
X0078973Y0198166D03*
X0064300Y0197800D03*
X0055300Y0201300D03*
X0048830Y0194770D03*
X0051401Y0192281D03*
X0053300Y0188769D03*
X0057676Y0181676D03*
X0060800Y0183611D03*
X0053300Y0180300D03*
X0049304Y0180304D03*
X0045300Y0180789D03*
X0041300Y0180300D03*
X0031800Y0189300D03*
X0031800Y0196800D03*
X0031800Y0204300D03*
X0039800Y0209800D03*
X0031800Y0214300D03*
X0045300Y0202300D03*
X0045800Y0197300D03*
X0059800Y0209800D03*
X0049300Y0213347D03*
X0095800Y0188800D03*
X0102800Y0185800D03*
X0107300Y0185800D03*
X0102300Y0178800D03*
X0104878Y0175800D03*
X0101300Y0171300D03*
X0101300Y0166800D03*
X0107311Y0165300D03*
X0109800Y0158800D03*
X0116800Y0165300D03*
X0088849Y0158311D03*
X0085800Y0156300D03*
X0091800Y0136800D03*
X0079300Y0136800D03*
X0064722Y0111938D03*
X0061300Y0110300D03*
X0056800Y0109800D03*
X0051800Y0109800D03*
X0047800Y0108300D03*
X0052300Y0102661D03*
X0043300Y0096800D03*
X0036300Y0102800D03*
X0031800Y0121800D03*
X0031800Y0129300D03*
X0031800Y0136800D03*
X0046550Y0080550D03*
X0037800Y0076800D03*
X0043800Y0066800D03*
X0034300Y0039300D03*
X0120790Y0117290D03*
X0120300Y0121300D03*
X0100627Y0198166D03*
D30*
X0096217Y0202576D01*
X0094560Y0202576D01*
X0094572Y0205544D02*
X0103832Y0205544D01*
X0112400Y0196976D01*
X0112400Y0183298D01*
X0112867Y0182831D01*
X0112867Y0180769D01*
X0109800Y0177702D01*
X0109800Y0158800D01*
X0112050Y0160070D02*
X0112289Y0159831D01*
X0112289Y0139311D01*
X0117800Y0133800D01*
X0110050Y0126050D02*
X0112300Y0123800D01*
X0206300Y0123800D01*
X0205241Y0124859D01*
X0205241Y0128800D01*
X0206300Y0123800D02*
X0207603Y0122497D01*
X0207603Y0118800D01*
X0217741Y0119292D02*
X0217741Y0128800D01*
X0217741Y0131241D01*
X0217800Y0131300D01*
X0215800Y0133300D01*
X0200800Y0133300D01*
X0197060Y0129560D01*
X0104560Y0129560D01*
X0096653Y0118300D02*
X0076800Y0118300D01*
X0076300Y0118800D01*
X0073300Y0116800D02*
X0073269Y0116800D01*
X0073269Y0124800D01*
X0073300Y0124831D01*
X0073300Y0136800D01*
X0067300Y0136800D01*
X0065800Y0135300D01*
X0065800Y0133769D01*
X0065800Y0129831D02*
X0065800Y0128043D01*
X0061257Y0123500D01*
X0058698Y0123500D02*
X0058698Y0118434D01*
X0061331Y0115800D01*
X0064722Y0111938D02*
X0064800Y0111860D01*
X0064800Y0111800D01*
X0062840Y0110300D02*
X0063691Y0109449D01*
X0067131Y0109449D01*
X0067269Y0109311D01*
X0069331Y0109311D01*
X0070320Y0110300D01*
X0071878Y0110300D01*
X0076378Y0114800D01*
X0084300Y0105300D02*
X0054939Y0105300D01*
X0052300Y0102661D01*
X0056172Y0100172D02*
X0046928Y0100172D01*
X0041831Y0105269D01*
X0041831Y0115800D01*
X0045769Y0115800D02*
X0045902Y0115934D01*
X0045902Y0123500D01*
X0043343Y0123500D02*
X0040643Y0120800D01*
X0039269Y0120800D01*
X0048461Y0123500D02*
X0048461Y0108961D01*
X0047800Y0108300D01*
X0048789Y0107311D01*
X0057831Y0107311D01*
X0058320Y0107800D01*
X0090300Y0107800D01*
X0090800Y0107800D01*
X0120180Y0107800D01*
X0153240Y0074740D01*
X0154480Y0078100D02*
X0116969Y0115611D01*
X0109300Y0115611D01*
X0116460Y0118100D02*
X0155060Y0079500D01*
X0158600Y0079500D01*
X0159800Y0078300D01*
X0158720Y0080900D02*
X0122330Y0117290D01*
X0120790Y0117290D01*
X0120300Y0121300D02*
X0159300Y0082300D01*
X0209800Y0082300D01*
X0218300Y0073800D01*
X0218300Y0068867D01*
X0218233Y0068800D01*
X0218300Y0068733D01*
X0218300Y0064800D01*
X0220800Y0062300D01*
X0224241Y0062300D01*
X0224241Y0057800D01*
X0214859Y0062800D02*
X0214690Y0062969D01*
X0214690Y0068800D01*
X0214690Y0073190D01*
X0214800Y0073300D01*
X0207200Y0080900D01*
X0158720Y0080900D01*
X0154940Y0078100D02*
X0156520Y0076520D01*
X0154940Y0078100D02*
X0154480Y0078100D01*
X0149800Y0076200D02*
X0149800Y0072800D01*
X0150800Y0071800D01*
X0149800Y0076200D02*
X0120700Y0105300D01*
X0109800Y0105300D01*
X0098800Y0102800D02*
X0123800Y0077800D01*
X0123800Y0057222D01*
X0122300Y0055722D01*
X0121300Y0059300D02*
X0121300Y0075800D01*
X0104300Y0092800D01*
X0098800Y0092800D01*
X0081832Y0100300D02*
X0074832Y0093300D01*
X0071300Y0093300D01*
X0065300Y0087300D01*
X0052800Y0087300D01*
X0043300Y0096800D01*
X0036300Y0102800D02*
X0036300Y0078300D01*
X0037800Y0076800D01*
X0056172Y0100172D02*
X0058300Y0102300D01*
X0063800Y0102300D01*
X0068225Y0097875D01*
X0068225Y0095300D01*
X0061752Y0098272D02*
X0061752Y0090252D01*
X0061752Y0098272D02*
X0061300Y0098724D01*
X0056800Y0109800D02*
X0056800Y0111800D01*
X0053580Y0115020D01*
X0053580Y0123500D01*
X0056139Y0123500D02*
X0056139Y0115461D01*
X0061300Y0110300D01*
X0062840Y0110300D01*
X0051800Y0109800D02*
X0051020Y0110580D01*
X0051020Y0123500D01*
X0073300Y0136800D02*
X0073300Y0144300D01*
X0070241Y0147359D01*
X0066300Y0147359D01*
X0065041Y0146100D01*
X0061257Y0146100D01*
X0058698Y0146100D02*
X0058698Y0153257D01*
X0059741Y0154300D01*
X0059741Y0158741D01*
X0061800Y0160800D01*
X0102811Y0160800D01*
X0107311Y0165300D01*
X0112050Y0169550D02*
X0112050Y0160070D01*
X0116800Y0165300D02*
X0127800Y0165300D01*
X0143800Y0181300D01*
X0143800Y0204800D01*
X0113800Y0204800D02*
X0113800Y0183878D01*
X0114267Y0183411D01*
X0114267Y0171767D01*
X0112050Y0169550D01*
X0104878Y0175800D02*
X0104867Y0175811D01*
X0101378Y0175811D01*
X0097809Y0175811D01*
X0087520Y0186100D01*
X0060060Y0186100D01*
X0057392Y0188769D01*
X0053300Y0188769D01*
X0053849Y0184700D02*
X0043311Y0195238D01*
X0043311Y0198331D01*
X0044769Y0199789D01*
X0046831Y0199789D01*
X0047920Y0198700D01*
X0055380Y0198700D01*
X0062280Y0191800D01*
X0073800Y0191800D01*
X0073800Y0194858D01*
X0074678Y0195736D01*
X0074678Y0198927D01*
X0074092Y0199513D01*
X0074056Y0199513D01*
X0072300Y0201269D01*
X0068347Y0201269D01*
X0067540Y0202076D01*
X0070800Y0205800D02*
X0067300Y0209300D01*
X0067300Y0218265D01*
X0068060Y0219024D01*
X0075540Y0219024D02*
X0075540Y0214607D01*
X0075311Y0214378D01*
X0075311Y0212316D01*
X0077513Y0210115D01*
X0077513Y0209056D01*
X0079269Y0207300D01*
X0081544Y0209576D01*
X0083060Y0209576D01*
X0083060Y0207072D01*
X0084831Y0205300D01*
X0088769Y0205300D02*
X0088769Y0207804D01*
X0090540Y0209576D01*
X0094572Y0205544D01*
X0094800Y0211800D02*
X0095024Y0212024D01*
X0098300Y0212024D01*
X0098800Y0216800D02*
X0093422Y0222178D01*
X0040173Y0222178D01*
X0039587Y0221592D01*
X0039587Y0221556D01*
X0037831Y0219800D01*
X0036060Y0218028D01*
X0036060Y0215024D01*
X0039800Y0209800D02*
X0039800Y0205576D01*
X0045300Y0202300D02*
X0045300Y0202300D01*
X0041911Y0198911D01*
X0041911Y0194658D01*
X0053269Y0183300D01*
X0056051Y0183300D01*
X0057676Y0181676D01*
X0059711Y0184700D02*
X0060800Y0183611D01*
X0059711Y0184700D02*
X0053849Y0184700D01*
X0053300Y0180300D02*
X0056139Y0177461D01*
X0056139Y0146100D01*
X0053580Y0146100D02*
X0053580Y0176029D01*
X0049304Y0180304D01*
X0045800Y0178300D02*
X0043300Y0178300D01*
X0041300Y0180300D01*
X0045300Y0180789D02*
X0051020Y0175069D01*
X0051020Y0146100D01*
X0048461Y0146100D02*
X0048461Y0175639D01*
X0045800Y0178300D01*
X0055859Y0192281D02*
X0060640Y0187500D01*
X0066800Y0187500D01*
X0088100Y0187500D01*
X0096800Y0178800D01*
X0102300Y0178800D01*
X0103831Y0183311D02*
X0094789Y0183311D01*
X0089200Y0188900D01*
X0061220Y0188900D01*
X0055350Y0194770D01*
X0048830Y0194770D01*
X0051401Y0192281D02*
X0055859Y0192281D01*
X0054800Y0197300D02*
X0061800Y0190300D01*
X0089800Y0190300D01*
X0094300Y0185800D01*
X0102800Y0185800D01*
X0103831Y0183311D02*
X0106320Y0185800D01*
X0107300Y0185800D01*
X0099550Y0191550D02*
X0105534Y0197534D01*
X0102040Y0201028D01*
X0102040Y0202576D01*
X0105534Y0197534D02*
X0105800Y0197269D01*
X0099550Y0191550D02*
X0094550Y0191550D01*
X0094800Y0191300D01*
X0094550Y0191550D02*
X0087934Y0198166D01*
X0078973Y0198166D01*
X0076484Y0197135D02*
X0077942Y0195677D01*
X0088423Y0195677D01*
X0095300Y0188800D01*
X0095800Y0188800D01*
X0080300Y0203013D02*
X0076484Y0199197D01*
X0076484Y0197135D01*
X0080300Y0203013D02*
X0080300Y0203800D01*
X0075331Y0205831D02*
X0075331Y0207300D01*
X0075331Y0205831D02*
X0075300Y0205800D01*
X0070800Y0205800D01*
X0071800Y0209576D02*
X0070300Y0211076D01*
X0070300Y0211300D01*
X0063800Y0211524D02*
X0061524Y0211524D01*
X0059800Y0209800D01*
X0056040Y0209076D02*
X0056040Y0206072D01*
X0054269Y0204300D01*
X0054269Y0202331D01*
X0055300Y0201300D01*
X0054800Y0197300D02*
X0045800Y0197300D01*
X0050331Y0204300D02*
X0050331Y0207304D01*
X0048560Y0209076D01*
X0048560Y0210005D01*
X0043540Y0215024D01*
X0043540Y0218028D01*
X0041769Y0219800D01*
X0049300Y0213347D02*
X0052300Y0216347D01*
X0052300Y0218524D01*
X0077800Y0213347D02*
X0081123Y0213347D01*
X0086800Y0219024D01*
X0088849Y0158311D02*
X0088849Y0132329D01*
X0082310Y0125790D01*
X0077800Y0124800D02*
X0085800Y0132800D01*
X0085800Y0156300D01*
X0096653Y0118300D02*
X0096853Y0118100D01*
X0116460Y0118100D01*
X0154774Y0090346D02*
X0157320Y0087800D01*
X0194800Y0087800D01*
X0218233Y0118800D02*
X0217741Y0119292D01*
X0163182Y0046060D02*
X0162300Y0045178D01*
X0162300Y0037300D01*
X0199918Y0032800D02*
X0199918Y0026918D01*
X0199800Y0026800D01*
X0114741Y0026300D02*
X0111741Y0029300D01*
X0102300Y0029300D01*
X0109300Y0051800D02*
X0109300Y0072364D01*
X0108300Y0073364D01*
D31*
X0029724Y0023662D02*
X0030794Y0021808D01*
X0032308Y0020294D01*
X0034162Y0019224D01*
X0036230Y0018670D01*
X0037300Y0018600D01*
X0055836Y0018600D01*
X0054930Y0019506D01*
X0054313Y0020994D01*
X0054313Y0022606D01*
X0054930Y0024094D01*
X0056069Y0025233D01*
X0057557Y0025850D01*
X0059169Y0025850D01*
X0060657Y0025233D01*
X0061796Y0024094D01*
X0062413Y0022606D01*
X0062413Y0020994D01*
X0061796Y0019506D01*
X0060890Y0018600D01*
X0088710Y0018600D01*
X0087804Y0019506D01*
X0087187Y0020994D01*
X0087187Y0022606D01*
X0087804Y0024094D01*
X0088943Y0025233D01*
X0090431Y0025850D01*
X0092043Y0025850D01*
X0093531Y0025233D01*
X0094670Y0024094D01*
X0095287Y0022606D01*
X0095287Y0020994D01*
X0094670Y0019506D01*
X0093764Y0018600D01*
X0175836Y0018600D01*
X0174930Y0019506D01*
X0174313Y0020994D01*
X0174313Y0022606D01*
X0174930Y0024094D01*
X0176069Y0025233D01*
X0177557Y0025850D01*
X0179169Y0025850D01*
X0180657Y0025233D01*
X0181796Y0024094D01*
X0182413Y0022606D01*
X0182413Y0020994D01*
X0181796Y0019506D01*
X0180890Y0018600D01*
X0208710Y0018600D01*
X0207804Y0019506D01*
X0207187Y0020994D01*
X0207187Y0022606D01*
X0207804Y0024094D01*
X0208943Y0025233D01*
X0210431Y0025850D01*
X0212043Y0025850D01*
X0213531Y0025233D01*
X0214670Y0024094D01*
X0215287Y0022606D01*
X0215287Y0020994D01*
X0214670Y0019506D01*
X0213764Y0018600D01*
X0224800Y0018600D01*
X0225870Y0018670D01*
X0227938Y0019224D01*
X0229792Y0020294D01*
X0231305Y0021808D01*
X0232376Y0023662D01*
X0232930Y0025730D01*
X0233000Y0026800D01*
X0233000Y0065342D01*
X0232971Y0065335D01*
X0231046Y0065335D01*
X0231239Y0065283D01*
X0231535Y0065112D01*
X0231777Y0064870D01*
X0231948Y0064573D01*
X0232037Y0064243D01*
X0232037Y0062600D01*
X0229659Y0062600D01*
X0229659Y0062000D01*
X0229659Y0058100D01*
X0229059Y0058100D01*
X0229059Y0057500D01*
X0226681Y0057500D01*
X0226681Y0055857D01*
X0226770Y0055527D01*
X0226941Y0055230D01*
X0227183Y0054988D01*
X0227479Y0054817D01*
X0227810Y0054728D01*
X0229059Y0054728D01*
X0229059Y0057500D01*
X0229659Y0057500D01*
X0229659Y0054728D01*
X0230908Y0054728D01*
X0231239Y0054817D01*
X0231535Y0054988D01*
X0231777Y0055230D01*
X0231948Y0055527D01*
X0232037Y0055857D01*
X0232037Y0057500D01*
X0229659Y0057500D01*
X0229659Y0058100D01*
X0232037Y0058100D01*
X0232037Y0059743D01*
X0231955Y0060050D01*
X0232037Y0060357D01*
X0232037Y0062000D01*
X0229659Y0062000D01*
X0229059Y0062000D01*
X0226681Y0062000D01*
X0226681Y0060357D01*
X0226763Y0060050D01*
X0226681Y0059743D01*
X0226681Y0058100D01*
X0229059Y0058100D01*
X0229059Y0060872D01*
X0229059Y0062000D01*
X0229059Y0062600D01*
X0226681Y0062600D01*
X0226681Y0064243D01*
X0226770Y0064573D01*
X0226941Y0064870D01*
X0227183Y0065112D01*
X0227479Y0065283D01*
X0227672Y0065335D01*
X0226998Y0065335D01*
X0226998Y0068500D01*
X0226398Y0068500D01*
X0226398Y0065335D01*
X0220424Y0065335D01*
X0220093Y0065423D01*
X0219797Y0065594D01*
X0219657Y0065735D01*
X0219600Y0065735D01*
X0219600Y0065338D01*
X0221338Y0063600D01*
X0221963Y0063600D01*
X0221963Y0064444D01*
X0222490Y0064972D01*
X0225992Y0064972D01*
X0226519Y0064444D01*
X0226519Y0060156D01*
X0226413Y0060050D01*
X0226519Y0059944D01*
X0226519Y0055656D01*
X0225992Y0055128D01*
X0222490Y0055128D01*
X0221963Y0055656D01*
X0221963Y0059944D01*
X0222069Y0060050D01*
X0221963Y0060156D01*
X0221963Y0061000D01*
X0220262Y0061000D01*
X0217137Y0064125D01*
X0217137Y0060656D01*
X0216610Y0060128D01*
X0213108Y0060128D01*
X0212581Y0060656D01*
X0212581Y0064944D01*
X0213108Y0065472D01*
X0213390Y0065472D01*
X0213390Y0065735D01*
X0213266Y0065735D01*
X0213126Y0065594D01*
X0212829Y0065423D01*
X0212499Y0065335D01*
X0212179Y0065335D01*
X0212330Y0065073D01*
X0212419Y0064743D01*
X0212419Y0063100D01*
X0210041Y0063100D01*
X0210041Y0062500D01*
X0212419Y0062500D01*
X0212419Y0060857D01*
X0212330Y0060527D01*
X0212159Y0060230D01*
X0211917Y0059988D01*
X0211621Y0059817D01*
X0211290Y0059728D01*
X0210041Y0059728D01*
X0210041Y0062500D01*
X0209441Y0062500D01*
X0209441Y0059728D01*
X0208192Y0059728D01*
X0207861Y0059817D01*
X0207565Y0059988D01*
X0207323Y0060230D01*
X0207152Y0060527D01*
X0207063Y0060857D01*
X0207063Y0062500D01*
X0209441Y0062500D01*
X0209441Y0063100D01*
X0207063Y0063100D01*
X0207063Y0064743D01*
X0207152Y0065073D01*
X0207323Y0065370D01*
X0207565Y0065612D01*
X0207777Y0065735D01*
X0206049Y0065735D01*
X0205831Y0065952D01*
X0205614Y0065735D01*
X0202506Y0065735D01*
X0202288Y0065952D01*
X0202070Y0065735D01*
X0199093Y0065735D01*
X0198953Y0065594D01*
X0198656Y0065423D01*
X0198325Y0065335D01*
X0195068Y0065335D01*
X0195068Y0068500D01*
X0194469Y0068500D01*
X0194469Y0065335D01*
X0191212Y0065335D01*
X0190891Y0065421D01*
X0190570Y0065335D01*
X0186879Y0065335D01*
X0186879Y0068500D01*
X0186280Y0068500D01*
X0186280Y0065335D01*
X0182589Y0065335D01*
X0182259Y0065423D01*
X0181962Y0065594D01*
X0181822Y0065735D01*
X0178845Y0065735D01*
X0178317Y0066262D01*
X0178317Y0071338D01*
X0178845Y0071865D01*
X0181822Y0071865D01*
X0181962Y0072006D01*
X0182259Y0072177D01*
X0182589Y0072265D01*
X0186280Y0072265D01*
X0186280Y0069100D01*
X0186879Y0069100D01*
X0186879Y0072265D01*
X0190570Y0072265D01*
X0190891Y0072179D01*
X0191212Y0072265D01*
X0194469Y0072265D01*
X0194469Y0069100D01*
X0195068Y0069100D01*
X0195068Y0072265D01*
X0198325Y0072265D01*
X0198656Y0072177D01*
X0198953Y0072006D01*
X0199093Y0071865D01*
X0202070Y0071865D01*
X0202288Y0071648D01*
X0202506Y0071865D01*
X0205614Y0071865D01*
X0205831Y0071648D01*
X0206049Y0071865D01*
X0209027Y0071865D01*
X0209167Y0072006D01*
X0209464Y0072177D01*
X0209794Y0072265D01*
X0210856Y0072265D01*
X0210856Y0069091D01*
X0211437Y0069091D01*
X0211437Y0072265D01*
X0212499Y0072265D01*
X0212829Y0072177D01*
X0213126Y0072006D01*
X0213266Y0071865D01*
X0213390Y0071865D01*
X0213390Y0072872D01*
X0206662Y0079600D01*
X0161878Y0079600D01*
X0162189Y0079290D01*
X0162189Y0077310D01*
X0160790Y0075911D01*
X0158909Y0075911D01*
X0158909Y0075530D01*
X0157510Y0074131D01*
X0155629Y0074131D01*
X0155629Y0073750D01*
X0154230Y0072351D01*
X0153189Y0072351D01*
X0153189Y0070810D01*
X0151790Y0069411D01*
X0149810Y0069411D01*
X0148411Y0070810D01*
X0148411Y0072790D01*
X0148500Y0072879D01*
X0148500Y0075662D01*
X0120162Y0104000D01*
X0111879Y0104000D01*
X0110790Y0102911D01*
X0108810Y0102911D01*
X0107411Y0104310D01*
X0107411Y0106290D01*
X0107621Y0106500D01*
X0101605Y0106500D01*
X0102700Y0105406D01*
X0103400Y0103715D01*
X0103400Y0101885D01*
X0102859Y0100579D01*
X0124338Y0079100D01*
X0125100Y0078338D01*
X0125100Y0056684D01*
X0124689Y0056273D01*
X0124689Y0054732D01*
X0123928Y0053972D01*
X0124110Y0053972D01*
X0124637Y0053444D01*
X0124637Y0051426D01*
X0125240Y0050823D01*
X0125240Y0046936D01*
X0125523Y0046653D01*
X0125523Y0041183D01*
X0124996Y0040656D01*
X0122085Y0040656D01*
X0121557Y0041183D01*
X0121557Y0046653D01*
X0121840Y0046936D01*
X0121840Y0048628D01*
X0120608Y0048628D01*
X0120081Y0049156D01*
X0120081Y0051174D01*
X0119655Y0051600D01*
X0117541Y0051600D01*
X0117541Y0051000D01*
X0119919Y0051000D01*
X0119919Y0049357D01*
X0119830Y0049027D01*
X0119659Y0048730D01*
X0119417Y0048488D01*
X0119121Y0048317D01*
X0118790Y0048228D01*
X0117541Y0048228D01*
X0117541Y0051000D01*
X0116941Y0051000D01*
X0116941Y0048228D01*
X0115692Y0048228D01*
X0115361Y0048317D01*
X0115065Y0048488D01*
X0114823Y0048730D01*
X0114652Y0049027D01*
X0114563Y0049357D01*
X0114563Y0051000D01*
X0116941Y0051000D01*
X0116941Y0051600D01*
X0114563Y0051600D01*
X0114563Y0053243D01*
X0114652Y0053573D01*
X0114823Y0053870D01*
X0115065Y0054112D01*
X0115361Y0054283D01*
X0115692Y0054372D01*
X0116883Y0054372D01*
X0115100Y0056155D01*
X0115100Y0070621D01*
X0114411Y0071310D01*
X0114411Y0073290D01*
X0114659Y0073537D01*
X0109689Y0078507D01*
X0109689Y0076810D01*
X0108631Y0075753D01*
X0109290Y0075753D01*
X0110689Y0074353D01*
X0110689Y0072374D01*
X0110600Y0072285D01*
X0110600Y0053879D01*
X0111689Y0052790D01*
X0111689Y0050810D01*
X0110290Y0049411D01*
X0108310Y0049411D01*
X0106911Y0050810D01*
X0106911Y0052790D01*
X0108000Y0053879D01*
X0108000Y0070975D01*
X0107310Y0070975D01*
X0105911Y0072374D01*
X0105911Y0074353D01*
X0106969Y0075411D01*
X0106310Y0075411D01*
X0104911Y0076810D01*
X0104911Y0077100D01*
X0101302Y0077100D01*
X0101202Y0077000D01*
X0096398Y0077000D01*
X0096298Y0077100D01*
X0077479Y0077100D01*
X0076290Y0075911D01*
X0074310Y0075911D01*
X0072911Y0077310D01*
X0072911Y0079007D01*
X0072189Y0078285D01*
X0072189Y0077310D01*
X0071500Y0076621D01*
X0071500Y0053596D01*
X0070504Y0052600D01*
X0062189Y0044285D01*
X0062189Y0043310D01*
X0060790Y0041911D01*
X0058810Y0041911D01*
X0057411Y0043310D01*
X0057411Y0045290D01*
X0058810Y0046689D01*
X0059785Y0046689D01*
X0068100Y0055004D01*
X0068100Y0076621D01*
X0067411Y0077310D01*
X0067411Y0079290D01*
X0068810Y0080689D01*
X0069785Y0080689D01*
X0073596Y0084500D01*
X0094525Y0084500D01*
X0094900Y0085406D01*
X0096194Y0086700D01*
X0097885Y0087400D01*
X0099715Y0087400D01*
X0101406Y0086700D01*
X0102700Y0085406D01*
X0103075Y0084500D01*
X0108504Y0084500D01*
X0109500Y0083504D01*
X0118500Y0074504D01*
X0118500Y0073979D01*
X0119189Y0073290D01*
X0119189Y0071310D01*
X0118500Y0070621D01*
X0118500Y0057563D01*
X0119892Y0056172D01*
X0119903Y0056172D01*
X0119911Y0056164D01*
X0119911Y0056712D01*
X0120210Y0057011D01*
X0118911Y0058310D01*
X0118911Y0060290D01*
X0120000Y0061379D01*
X0120000Y0075262D01*
X0103762Y0091500D01*
X0103241Y0091500D01*
X0102700Y0090194D01*
X0101406Y0088900D01*
X0099715Y0088200D01*
X0097885Y0088200D01*
X0096194Y0088900D01*
X0094900Y0090194D01*
X0094200Y0091885D01*
X0094200Y0093715D01*
X0094900Y0095406D01*
X0096194Y0096700D01*
X0097885Y0097400D01*
X0099715Y0097400D01*
X0101406Y0096700D01*
X0102700Y0095406D01*
X0103241Y0094100D01*
X0104838Y0094100D01*
X0121838Y0077100D01*
X0121838Y0077100D01*
X0122500Y0076438D01*
X0122500Y0077262D01*
X0101021Y0098741D01*
X0099715Y0098200D01*
X0097885Y0098200D01*
X0096194Y0098900D01*
X0094900Y0100194D01*
X0094200Y0101885D01*
X0094200Y0103715D01*
X0094900Y0105406D01*
X0095995Y0106500D01*
X0086478Y0106500D01*
X0086689Y0106290D01*
X0086689Y0104310D01*
X0085290Y0102911D01*
X0083310Y0102911D01*
X0082221Y0104000D01*
X0055477Y0104000D01*
X0054689Y0103212D01*
X0054689Y0101671D01*
X0054490Y0101472D01*
X0055634Y0101472D01*
X0057000Y0102838D01*
X0057762Y0103600D01*
X0064338Y0103600D01*
X0069525Y0098413D01*
X0069525Y0097379D01*
X0070614Y0096290D01*
X0070614Y0095689D01*
X0072290Y0095689D01*
X0073379Y0094600D01*
X0074294Y0094600D01*
X0079443Y0099749D01*
X0079443Y0101290D01*
X0080843Y0102689D01*
X0082822Y0102689D01*
X0084221Y0101290D01*
X0084221Y0099310D01*
X0082822Y0097911D01*
X0081282Y0097911D01*
X0075371Y0092000D01*
X0073379Y0092000D01*
X0072290Y0090911D01*
X0070749Y0090911D01*
X0066600Y0086762D01*
X0065838Y0086000D01*
X0052262Y0086000D01*
X0051500Y0086762D01*
X0043850Y0094411D01*
X0042310Y0094411D01*
X0040911Y0095810D01*
X0040911Y0097790D01*
X0042310Y0099189D01*
X0044290Y0099189D01*
X0045689Y0097790D01*
X0045689Y0096249D01*
X0053338Y0088600D01*
X0060026Y0088600D01*
X0059363Y0089262D01*
X0059363Y0091242D01*
X0060452Y0092331D01*
X0060452Y0096335D01*
X0060310Y0096335D01*
X0058911Y0097734D01*
X0058911Y0099714D01*
X0060197Y0101000D01*
X0058838Y0101000D01*
X0056711Y0098872D01*
X0046389Y0098872D01*
X0040531Y0104730D01*
X0040531Y0113522D01*
X0040278Y0113522D01*
X0039750Y0114049D01*
X0039750Y0117551D01*
X0040278Y0118078D01*
X0043385Y0118078D01*
X0043800Y0117663D01*
X0044215Y0118078D01*
X0044602Y0118078D01*
X0044602Y0118786D01*
X0044516Y0118700D01*
X0042171Y0118700D01*
X0041643Y0119227D01*
X0041643Y0119962D01*
X0041350Y0119668D01*
X0041350Y0119049D01*
X0040822Y0118522D01*
X0037715Y0118522D01*
X0037575Y0118662D01*
X0037553Y0118624D01*
X0037311Y0118382D01*
X0037014Y0118211D01*
X0036684Y0118122D01*
X0035622Y0118122D01*
X0035622Y0120509D01*
X0035041Y0120509D01*
X0035041Y0118122D01*
X0033979Y0118122D01*
X0033649Y0118211D01*
X0033352Y0118382D01*
X0033110Y0118624D01*
X0032939Y0118920D01*
X0032850Y0119251D01*
X0032850Y0120509D01*
X0035041Y0120509D01*
X0035041Y0121091D01*
X0035041Y0123478D01*
X0033979Y0123478D01*
X0033649Y0123389D01*
X0033352Y0123218D01*
X0033110Y0122976D01*
X0032939Y0122680D01*
X0032850Y0122349D01*
X0032850Y0121091D01*
X0035041Y0121091D01*
X0035622Y0121091D01*
X0035622Y0123478D01*
X0036684Y0123478D01*
X0037014Y0123389D01*
X0037311Y0123218D01*
X0037553Y0122976D01*
X0037575Y0122938D01*
X0037715Y0123078D01*
X0040822Y0123078D01*
X0040953Y0122948D01*
X0041643Y0123638D01*
X0041643Y0127773D01*
X0042171Y0128300D01*
X0044516Y0128300D01*
X0044623Y0128193D01*
X0044730Y0128300D01*
X0047075Y0128300D01*
X0047182Y0128193D01*
X0047289Y0128300D01*
X0049634Y0128300D01*
X0049741Y0128193D01*
X0049848Y0128300D01*
X0052193Y0128300D01*
X0052300Y0128193D01*
X0052407Y0128300D01*
X0054752Y0128300D01*
X0054859Y0128193D01*
X0054966Y0128300D01*
X0057311Y0128300D01*
X0057418Y0128193D01*
X0057525Y0128300D01*
X0059870Y0128300D01*
X0059977Y0128193D01*
X0060084Y0128300D01*
X0062429Y0128300D01*
X0062957Y0127773D01*
X0062957Y0127038D01*
X0063859Y0127941D01*
X0063522Y0128278D01*
X0063522Y0131385D01*
X0063937Y0131800D01*
X0063522Y0132215D01*
X0063522Y0135322D01*
X0064049Y0135850D01*
X0064511Y0135850D01*
X0066000Y0137338D01*
X0066762Y0138100D01*
X0072000Y0138100D01*
X0072000Y0143762D01*
X0069702Y0146059D01*
X0068972Y0146059D01*
X0068972Y0145608D01*
X0068444Y0145081D01*
X0065861Y0145081D01*
X0065698Y0144919D01*
X0066000Y0144919D01*
X0066000Y0142541D01*
X0066600Y0142541D01*
X0066600Y0144919D01*
X0068243Y0144919D01*
X0068573Y0144830D01*
X0068870Y0144659D01*
X0069112Y0144417D01*
X0069283Y0144121D01*
X0069372Y0143790D01*
X0069372Y0142541D01*
X0066600Y0142541D01*
X0066600Y0141941D01*
X0069372Y0141941D01*
X0069372Y0140692D01*
X0069283Y0140361D01*
X0069112Y0140065D01*
X0068870Y0139823D01*
X0068573Y0139652D01*
X0068243Y0139563D01*
X0066600Y0139563D01*
X0066600Y0141941D01*
X0066000Y0141941D01*
X0063228Y0141941D01*
X0063228Y0140692D01*
X0063317Y0140361D01*
X0063488Y0140065D01*
X0063730Y0139823D01*
X0064027Y0139652D01*
X0064357Y0139563D01*
X0066000Y0139563D01*
X0066000Y0141941D01*
X0066000Y0142541D01*
X0063228Y0142541D01*
X0063228Y0143790D01*
X0063317Y0144121D01*
X0063488Y0144417D01*
X0063730Y0144659D01*
X0063974Y0144800D01*
X0062957Y0144800D01*
X0062957Y0141827D01*
X0062429Y0141300D01*
X0060084Y0141300D01*
X0059977Y0141407D01*
X0059870Y0141300D01*
X0057525Y0141300D01*
X0057418Y0141407D01*
X0057311Y0141300D01*
X0054966Y0141300D01*
X0054859Y0141407D01*
X0054752Y0141300D01*
X0052407Y0141300D01*
X0052300Y0141407D01*
X0052193Y0141300D01*
X0049848Y0141300D01*
X0049741Y0141407D01*
X0049634Y0141300D01*
X0047641Y0141300D01*
X0047501Y0141160D01*
X0047204Y0140989D01*
X0046874Y0140900D01*
X0046002Y0140900D01*
X0046002Y0146000D01*
X0045802Y0146000D01*
X0043802Y0146000D01*
X0043443Y0146000D01*
X0043443Y0140900D01*
X0044314Y0140900D01*
X0044623Y0140983D01*
X0044931Y0140900D01*
X0045802Y0140900D01*
X0045802Y0146000D01*
X0045802Y0146200D01*
X0043443Y0146200D01*
X0043443Y0146000D01*
X0043243Y0146000D01*
X0041243Y0146000D01*
X0041243Y0142029D01*
X0041332Y0141698D01*
X0041503Y0141402D01*
X0041745Y0141160D01*
X0042042Y0140989D01*
X0042372Y0140900D01*
X0043243Y0140900D01*
X0043243Y0146000D01*
X0043243Y0146200D01*
X0041243Y0146200D01*
X0041243Y0150171D01*
X0041332Y0150502D01*
X0041503Y0150798D01*
X0041745Y0151040D01*
X0041816Y0151081D01*
X0041082Y0151816D01*
X0040538Y0153129D01*
X0040538Y0154551D01*
X0041082Y0155864D01*
X0042087Y0156869D01*
X0043400Y0157413D01*
X0044822Y0157413D01*
X0046135Y0156869D01*
X0047140Y0155864D01*
X0047161Y0155813D01*
X0047161Y0169787D01*
X0047140Y0169736D01*
X0046135Y0168731D01*
X0044822Y0168187D01*
X0043400Y0168187D01*
X0042087Y0168731D01*
X0041082Y0169736D01*
X0040538Y0171049D01*
X0040538Y0172471D01*
X0041082Y0173784D01*
X0042087Y0174789D01*
X0043400Y0175333D01*
X0044822Y0175333D01*
X0046135Y0174789D01*
X0047140Y0173784D01*
X0047161Y0173733D01*
X0047161Y0175100D01*
X0045262Y0177000D01*
X0042762Y0177000D01*
X0041850Y0177911D01*
X0040310Y0177911D01*
X0038911Y0179310D01*
X0038911Y0181290D01*
X0040310Y0182689D01*
X0042290Y0182689D01*
X0043056Y0181923D01*
X0044310Y0183178D01*
X0046290Y0183178D01*
X0047544Y0181923D01*
X0048315Y0182693D01*
X0050294Y0182693D01*
X0051304Y0181683D01*
X0052176Y0182554D01*
X0041373Y0193358D01*
X0040611Y0194119D01*
X0040611Y0199449D01*
X0042911Y0201749D01*
X0042911Y0203290D01*
X0044310Y0204689D01*
X0046290Y0204689D01*
X0047689Y0203290D01*
X0047689Y0201310D01*
X0047418Y0201040D01*
X0048458Y0200000D01*
X0053221Y0200000D01*
X0052911Y0200310D01*
X0052911Y0202022D01*
X0052715Y0202022D01*
X0052575Y0202162D01*
X0052553Y0202124D01*
X0052311Y0201882D01*
X0052014Y0201711D01*
X0051684Y0201622D01*
X0050622Y0201622D01*
X0050622Y0204009D01*
X0050041Y0204009D01*
X0050041Y0201622D01*
X0048979Y0201622D01*
X0048649Y0201711D01*
X0048352Y0201882D01*
X0048110Y0202124D01*
X0047939Y0202420D01*
X0047850Y0202751D01*
X0047850Y0204009D01*
X0050041Y0204009D01*
X0050041Y0204591D01*
X0047850Y0204591D01*
X0047850Y0205807D01*
X0047011Y0205807D01*
X0046680Y0205896D01*
X0046384Y0206067D01*
X0046142Y0206309D01*
X0045970Y0206605D01*
X0045882Y0206936D01*
X0045882Y0208776D01*
X0048260Y0208776D01*
X0048260Y0209376D01*
X0048260Y0211009D01*
X0048310Y0210958D01*
X0048860Y0210958D01*
X0048860Y0209376D01*
X0048260Y0209376D01*
X0045882Y0209376D01*
X0045882Y0211215D01*
X0045970Y0211546D01*
X0046142Y0211842D01*
X0046384Y0212084D01*
X0046680Y0212255D01*
X0046943Y0212326D01*
X0046911Y0212358D01*
X0046911Y0214337D01*
X0048310Y0215736D01*
X0049851Y0215736D01*
X0050160Y0216045D01*
X0050022Y0216183D01*
X0050022Y0220866D01*
X0050034Y0220878D01*
X0044250Y0220878D01*
X0044250Y0220091D01*
X0042059Y0220091D01*
X0042059Y0219509D01*
X0044250Y0219509D01*
X0044250Y0218293D01*
X0045089Y0218293D01*
X0045420Y0218204D01*
X0045716Y0218033D01*
X0045958Y0217791D01*
X0046130Y0217495D01*
X0046218Y0217164D01*
X0046218Y0215324D01*
X0043840Y0215324D01*
X0043840Y0214724D01*
X0043840Y0211756D01*
X0045089Y0211756D01*
X0045420Y0211845D01*
X0045716Y0212016D01*
X0045958Y0212258D01*
X0046130Y0212554D01*
X0046218Y0212885D01*
X0046218Y0214724D01*
X0043840Y0214724D01*
X0043240Y0214724D01*
X0043240Y0211756D01*
X0041991Y0211756D01*
X0041660Y0211845D01*
X0041364Y0212016D01*
X0041122Y0212258D01*
X0040951Y0212554D01*
X0040862Y0212885D01*
X0040862Y0214724D01*
X0043240Y0214724D01*
X0043240Y0215324D01*
X0040862Y0215324D01*
X0040862Y0217122D01*
X0040416Y0217122D01*
X0040086Y0217211D01*
X0039789Y0217382D01*
X0039547Y0217624D01*
X0039525Y0217662D01*
X0039385Y0217522D01*
X0038181Y0217522D01*
X0038338Y0217366D01*
X0038338Y0212683D01*
X0037811Y0212156D01*
X0034309Y0212156D01*
X0033782Y0212683D01*
X0033782Y0217366D01*
X0034309Y0217893D01*
X0034760Y0217893D01*
X0034760Y0218567D01*
X0035521Y0219328D01*
X0035750Y0219557D01*
X0035750Y0221551D01*
X0036278Y0222078D01*
X0038271Y0222078D01*
X0038287Y0222094D01*
X0038287Y0222131D01*
X0038657Y0222500D01*
X0037300Y0222500D01*
X0036230Y0222430D01*
X0034162Y0221876D01*
X0032308Y0220805D01*
X0030794Y0219292D01*
X0029724Y0217438D01*
X0029724Y0217438D01*
X0029170Y0215370D01*
X0029100Y0214300D01*
X0029100Y0181764D01*
X0030006Y0182670D01*
X0031494Y0183287D01*
X0033106Y0183287D01*
X0034594Y0182670D01*
X0035733Y0181531D01*
X0036350Y0180043D01*
X0036350Y0178431D01*
X0035733Y0176943D01*
X0034594Y0175804D01*
X0033106Y0175187D01*
X0031494Y0175187D01*
X0030006Y0175804D01*
X0029100Y0176710D01*
X0029100Y0148890D01*
X0030006Y0149796D01*
X0031494Y0150413D01*
X0033106Y0150413D01*
X0034594Y0149796D01*
X0035733Y0148657D01*
X0036350Y0147169D01*
X0036350Y0145557D01*
X0035733Y0144069D01*
X0034594Y0142930D01*
X0033106Y0142313D01*
X0031494Y0142313D01*
X0030006Y0142930D01*
X0029100Y0143836D01*
X0029100Y0026800D01*
X0029170Y0025730D01*
X0029724Y0023662D01*
X0029667Y0023876D02*
X0054840Y0023876D01*
X0054592Y0023278D02*
X0029946Y0023278D01*
X0030292Y0022679D02*
X0054344Y0022679D01*
X0054313Y0022081D02*
X0030637Y0022081D01*
X0031120Y0021482D02*
X0054313Y0021482D01*
X0054359Y0020884D02*
X0031719Y0020884D01*
X0032324Y0020285D02*
X0054607Y0020285D01*
X0054855Y0019687D02*
X0033361Y0019687D01*
X0034670Y0019088D02*
X0055348Y0019088D01*
X0055311Y0024475D02*
X0029506Y0024475D01*
X0029346Y0025073D02*
X0055909Y0025073D01*
X0057128Y0025672D02*
X0029186Y0025672D01*
X0029135Y0026270D02*
X0112352Y0026270D01*
X0112352Y0026851D02*
X0112352Y0025310D01*
X0112463Y0025199D01*
X0112463Y0024156D01*
X0112990Y0023628D01*
X0116492Y0023628D01*
X0117019Y0024156D01*
X0117019Y0025199D01*
X0117130Y0025310D01*
X0117130Y0027290D01*
X0117019Y0027401D01*
X0117019Y0028444D01*
X0116492Y0028972D01*
X0116441Y0028972D01*
X0116441Y0030420D01*
X0117515Y0030420D01*
X0117655Y0030559D01*
X0117677Y0030521D01*
X0117919Y0030279D01*
X0118216Y0030108D01*
X0118546Y0030020D01*
X0119559Y0030020D01*
X0119559Y0033440D01*
X0120041Y0033440D01*
X0120041Y0030020D01*
X0121054Y0030020D01*
X0121384Y0030108D01*
X0121681Y0030279D01*
X0121923Y0030521D01*
X0121945Y0030559D01*
X0122085Y0030420D01*
X0124996Y0030420D01*
X0125523Y0030947D01*
X0125523Y0033260D01*
X0125929Y0033667D01*
X0130362Y0038100D01*
X0132621Y0038100D01*
X0133310Y0037411D01*
X0135290Y0037411D01*
X0136689Y0038810D01*
X0136689Y0040790D01*
X0135290Y0042189D01*
X0133310Y0042189D01*
X0132621Y0041500D01*
X0128954Y0041500D01*
X0125229Y0037775D01*
X0123004Y0040000D01*
X0117596Y0040000D01*
X0116600Y0039004D01*
X0114360Y0036764D01*
X0114360Y0036700D01*
X0114077Y0036417D01*
X0114077Y0034103D01*
X0113041Y0033067D01*
X0113041Y0029838D01*
X0113041Y0029838D01*
X0113041Y0029838D01*
X0112279Y0030600D01*
X0104379Y0030600D01*
X0103290Y0031689D01*
X0101310Y0031689D01*
X0099911Y0030290D01*
X0099911Y0028310D01*
X0101310Y0026911D01*
X0103290Y0026911D01*
X0104379Y0028000D01*
X0111202Y0028000D01*
X0112352Y0026851D01*
X0112334Y0026869D02*
X0029100Y0026869D01*
X0029100Y0027467D02*
X0100754Y0027467D01*
X0100156Y0028066D02*
X0029100Y0028066D01*
X0029100Y0028664D02*
X0099911Y0028664D01*
X0099911Y0029263D02*
X0029100Y0029263D01*
X0029100Y0029861D02*
X0099911Y0029861D01*
X0100081Y0030460D02*
X0085489Y0030460D01*
X0085784Y0030582D02*
X0086789Y0031587D01*
X0087333Y0032900D01*
X0087333Y0034322D01*
X0086789Y0035635D01*
X0085784Y0036640D01*
X0084471Y0037184D01*
X0083049Y0037184D01*
X0081736Y0036640D01*
X0080731Y0035635D01*
X0080187Y0034322D01*
X0080187Y0032900D01*
X0080731Y0031587D01*
X0081736Y0030582D01*
X0083049Y0030038D01*
X0084471Y0030038D01*
X0085784Y0030582D01*
X0086260Y0031058D02*
X0100680Y0031058D01*
X0101278Y0031657D02*
X0086818Y0031657D01*
X0087066Y0032255D02*
X0113041Y0032255D01*
X0113041Y0031657D02*
X0103322Y0031657D01*
X0103920Y0031058D02*
X0113041Y0031058D01*
X0113041Y0030460D02*
X0112420Y0030460D01*
X0113018Y0029861D02*
X0113041Y0029861D01*
X0111735Y0027467D02*
X0103846Y0027467D01*
X0112463Y0024475D02*
X0094289Y0024475D01*
X0094760Y0023876D02*
X0112742Y0023876D01*
X0112463Y0025073D02*
X0093691Y0025073D01*
X0092472Y0025672D02*
X0112352Y0025672D01*
X0116740Y0023876D02*
X0117357Y0023876D01*
X0117441Y0023730D02*
X0117683Y0023488D01*
X0117979Y0023317D01*
X0118310Y0023228D01*
X0119559Y0023228D01*
X0119559Y0026000D01*
X0117181Y0026000D01*
X0117181Y0024357D01*
X0117270Y0024027D01*
X0117441Y0023730D01*
X0117181Y0024475D02*
X0117019Y0024475D01*
X0117019Y0025073D02*
X0117181Y0025073D01*
X0117181Y0025672D02*
X0117130Y0025672D01*
X0117130Y0026270D02*
X0119559Y0026270D01*
X0119559Y0026000D02*
X0119559Y0026600D01*
X0117181Y0026600D01*
X0117181Y0028243D01*
X0117270Y0028573D01*
X0117441Y0028870D01*
X0117683Y0029112D01*
X0117979Y0029283D01*
X0118310Y0029372D01*
X0119559Y0029372D01*
X0119559Y0026600D01*
X0120159Y0026600D01*
X0120159Y0029372D01*
X0121408Y0029372D01*
X0121739Y0029283D01*
X0122035Y0029112D01*
X0122277Y0028870D01*
X0122448Y0028573D01*
X0122537Y0028243D01*
X0122537Y0026600D01*
X0120159Y0026600D01*
X0120159Y0026000D01*
X0120159Y0023228D01*
X0121408Y0023228D01*
X0121739Y0023317D01*
X0122035Y0023488D01*
X0122277Y0023730D01*
X0122448Y0024027D01*
X0122537Y0024357D01*
X0122537Y0026000D01*
X0120159Y0026000D01*
X0119559Y0026000D01*
X0119559Y0025672D02*
X0120159Y0025672D01*
X0120159Y0026270D02*
X0197411Y0026270D01*
X0197411Y0025810D02*
X0198810Y0024411D01*
X0200790Y0024411D01*
X0202189Y0025810D01*
X0202189Y0027790D01*
X0201218Y0028760D01*
X0201218Y0029111D01*
X0201310Y0029203D01*
X0201310Y0031007D01*
X0201736Y0030582D01*
X0203049Y0030038D01*
X0204471Y0030038D01*
X0205784Y0030582D01*
X0206789Y0031587D01*
X0207333Y0032900D01*
X0207333Y0034322D01*
X0206789Y0035635D01*
X0205784Y0036640D01*
X0204471Y0037184D01*
X0203049Y0037184D01*
X0201854Y0036689D01*
X0202818Y0037653D01*
X0202818Y0038112D01*
X0203518Y0038812D01*
X0203518Y0039140D01*
X0203689Y0039310D01*
X0203689Y0041290D01*
X0203400Y0041579D01*
X0203400Y0045170D01*
X0202170Y0046400D01*
X0197400Y0051170D01*
X0196170Y0052400D01*
X0182668Y0052400D01*
X0182668Y0053685D01*
X0182141Y0054212D01*
X0177459Y0054212D01*
X0176931Y0053685D01*
X0176931Y0053246D01*
X0176682Y0053246D01*
X0176680Y0053248D01*
X0176680Y0054996D01*
X0176153Y0055523D01*
X0174405Y0055523D01*
X0174288Y0055640D01*
X0172548Y0055640D01*
X0172431Y0055523D01*
X0170683Y0055523D01*
X0170156Y0054996D01*
X0170156Y0052085D01*
X0170683Y0051557D01*
X0172431Y0051557D01*
X0173712Y0050277D01*
X0174942Y0049046D01*
X0176931Y0049046D01*
X0176931Y0048608D01*
X0177459Y0048081D01*
X0182141Y0048081D01*
X0182260Y0048200D01*
X0194430Y0048200D01*
X0195941Y0046689D01*
X0194099Y0046689D01*
X0193300Y0045890D01*
X0192501Y0046689D01*
X0190521Y0046689D01*
X0189122Y0045290D01*
X0189122Y0043310D01*
X0190521Y0041911D01*
X0191500Y0041911D01*
X0191500Y0041054D01*
X0192203Y0040351D01*
X0194000Y0038554D01*
X0194000Y0035791D01*
X0193935Y0035791D01*
X0193520Y0035376D01*
X0193106Y0035791D01*
X0191376Y0035791D01*
X0191236Y0035651D01*
X0191214Y0035689D01*
X0190972Y0035931D01*
X0190676Y0036102D01*
X0190345Y0036191D01*
X0189682Y0036191D01*
X0189682Y0032233D01*
X0189682Y0028276D01*
X0190345Y0028276D01*
X0190676Y0028364D01*
X0190972Y0028535D01*
X0191214Y0028777D01*
X0191236Y0028815D01*
X0191376Y0028676D01*
X0193106Y0028676D01*
X0193520Y0029090D01*
X0193935Y0028676D01*
X0195665Y0028676D01*
X0196080Y0029090D01*
X0196494Y0028676D01*
X0198224Y0028676D01*
X0198618Y0029070D01*
X0198618Y0028997D01*
X0197411Y0027790D01*
X0197411Y0025810D01*
X0197550Y0025672D02*
X0179598Y0025672D01*
X0180817Y0025073D02*
X0198148Y0025073D01*
X0198747Y0024475D02*
X0181415Y0024475D01*
X0181886Y0023876D02*
X0207714Y0023876D01*
X0207466Y0023278D02*
X0182134Y0023278D01*
X0182382Y0022679D02*
X0207218Y0022679D01*
X0207187Y0022081D02*
X0182413Y0022081D01*
X0182413Y0021482D02*
X0207187Y0021482D01*
X0207233Y0020884D02*
X0182367Y0020884D01*
X0182119Y0020285D02*
X0207481Y0020285D01*
X0207729Y0019687D02*
X0181871Y0019687D01*
X0181378Y0019088D02*
X0208222Y0019088D01*
X0208185Y0024475D02*
X0200853Y0024475D01*
X0201452Y0025073D02*
X0208783Y0025073D01*
X0210002Y0025672D02*
X0202050Y0025672D01*
X0202189Y0026270D02*
X0232965Y0026270D01*
X0233000Y0026869D02*
X0202189Y0026869D01*
X0202189Y0027467D02*
X0233000Y0027467D01*
X0233000Y0028066D02*
X0201913Y0028066D01*
X0201314Y0028664D02*
X0233000Y0028664D01*
X0233000Y0029263D02*
X0201310Y0029263D01*
X0201310Y0029861D02*
X0233000Y0029861D01*
X0233000Y0030460D02*
X0205489Y0030460D01*
X0206260Y0031058D02*
X0233000Y0031058D01*
X0233000Y0031657D02*
X0206818Y0031657D01*
X0207066Y0032255D02*
X0233000Y0032255D01*
X0233000Y0032854D02*
X0207314Y0032854D01*
X0207333Y0033452D02*
X0233000Y0033452D01*
X0233000Y0034051D02*
X0207333Y0034051D01*
X0207197Y0034649D02*
X0233000Y0034649D01*
X0233000Y0035248D02*
X0206949Y0035248D01*
X0206578Y0035846D02*
X0233000Y0035846D01*
X0233000Y0036445D02*
X0205979Y0036445D01*
X0204811Y0037043D02*
X0233000Y0037043D01*
X0233000Y0037642D02*
X0202807Y0037642D01*
X0202709Y0037043D02*
X0202208Y0037043D01*
X0202947Y0038240D02*
X0233000Y0038240D01*
X0233000Y0038839D02*
X0203518Y0038839D01*
X0203689Y0039437D02*
X0233000Y0039437D01*
X0233000Y0040036D02*
X0203689Y0040036D01*
X0203689Y0040634D02*
X0233000Y0040634D01*
X0233000Y0041233D02*
X0203689Y0041233D01*
X0203400Y0041832D02*
X0233000Y0041832D01*
X0233000Y0042430D02*
X0203400Y0042430D01*
X0203400Y0043029D02*
X0233000Y0043029D01*
X0233000Y0043627D02*
X0203400Y0043627D01*
X0203400Y0044226D02*
X0233000Y0044226D01*
X0233000Y0044824D02*
X0203400Y0044824D01*
X0203147Y0045423D02*
X0233000Y0045423D01*
X0233000Y0046021D02*
X0202549Y0046021D01*
X0201950Y0046620D02*
X0233000Y0046620D01*
X0233000Y0047218D02*
X0201352Y0047218D01*
X0200753Y0047817D02*
X0233000Y0047817D01*
X0233000Y0048415D02*
X0200155Y0048415D01*
X0199556Y0049014D02*
X0233000Y0049014D01*
X0233000Y0049612D02*
X0198958Y0049612D01*
X0198359Y0050211D02*
X0233000Y0050211D01*
X0233000Y0050809D02*
X0197761Y0050809D01*
X0197162Y0051408D02*
X0233000Y0051408D01*
X0233000Y0052006D02*
X0196564Y0052006D01*
X0194814Y0047817D02*
X0182294Y0047817D01*
X0182270Y0047830D02*
X0181940Y0047919D01*
X0180100Y0047919D01*
X0180100Y0044754D01*
X0179500Y0044754D01*
X0179500Y0047919D01*
X0177660Y0047919D01*
X0177330Y0047830D01*
X0177033Y0047659D01*
X0176791Y0047417D01*
X0176680Y0047225D01*
X0176680Y0047515D01*
X0176153Y0048043D01*
X0170683Y0048043D01*
X0170156Y0047515D01*
X0170156Y0044604D01*
X0170683Y0044077D01*
X0171849Y0044077D01*
X0170849Y0043078D01*
X0168715Y0043078D01*
X0168575Y0042938D01*
X0168553Y0042976D01*
X0168311Y0043218D01*
X0168014Y0043389D01*
X0167684Y0043478D01*
X0166622Y0043478D01*
X0166622Y0041091D01*
X0166041Y0041091D01*
X0166041Y0043478D01*
X0164979Y0043478D01*
X0164649Y0043389D01*
X0164352Y0043218D01*
X0164110Y0042976D01*
X0163939Y0042680D01*
X0163850Y0042349D01*
X0163850Y0041091D01*
X0166041Y0041091D01*
X0166041Y0040509D01*
X0166622Y0040509D01*
X0166622Y0038122D01*
X0167684Y0038122D01*
X0168014Y0038211D01*
X0168311Y0038382D01*
X0168553Y0038624D01*
X0168575Y0038662D01*
X0168715Y0038522D01*
X0171822Y0038522D01*
X0172350Y0039049D01*
X0172350Y0041184D01*
X0174618Y0043453D01*
X0174618Y0044077D01*
X0176153Y0044077D01*
X0176680Y0044604D01*
X0176680Y0044754D01*
X0179500Y0044754D01*
X0179500Y0044154D01*
X0176531Y0044154D01*
X0176531Y0042117D01*
X0176620Y0041786D01*
X0176791Y0041490D01*
X0177033Y0041248D01*
X0177330Y0041077D01*
X0177660Y0040988D01*
X0179500Y0040988D01*
X0179500Y0044153D01*
X0180100Y0044153D01*
X0180100Y0040988D01*
X0181940Y0040988D01*
X0182270Y0041077D01*
X0182567Y0041248D01*
X0182809Y0041490D01*
X0182980Y0041786D01*
X0183068Y0042117D01*
X0183068Y0044154D01*
X0180100Y0044154D01*
X0180100Y0044754D01*
X0183068Y0044754D01*
X0183068Y0046790D01*
X0182980Y0047121D01*
X0182809Y0047417D01*
X0182567Y0047659D01*
X0182270Y0047830D01*
X0182924Y0047218D02*
X0195412Y0047218D01*
X0194030Y0046620D02*
X0192570Y0046620D01*
X0193168Y0046021D02*
X0193432Y0046021D01*
X0193900Y0044300D02*
X0195089Y0044300D01*
X0193900Y0044300D02*
X0193900Y0042049D01*
X0196400Y0039549D01*
X0196400Y0033192D01*
X0197359Y0032233D01*
X0195200Y0032633D02*
X0195200Y0039051D01*
X0192700Y0041551D01*
X0192700Y0044300D01*
X0191511Y0044300D01*
X0189854Y0046021D02*
X0183068Y0046021D01*
X0183068Y0045423D02*
X0189255Y0045423D01*
X0189122Y0044824D02*
X0183068Y0044824D01*
X0183068Y0043627D02*
X0189122Y0043627D01*
X0189122Y0044226D02*
X0180100Y0044226D01*
X0180100Y0044824D02*
X0179500Y0044824D01*
X0179500Y0044226D02*
X0176302Y0044226D01*
X0176531Y0043627D02*
X0174618Y0043627D01*
X0174194Y0043029D02*
X0176531Y0043029D01*
X0176531Y0042430D02*
X0173596Y0042430D01*
X0172997Y0041832D02*
X0176608Y0041832D01*
X0177059Y0041233D02*
X0172399Y0041233D01*
X0172350Y0040634D02*
X0191920Y0040634D01*
X0191500Y0041233D02*
X0182541Y0041233D01*
X0182992Y0041832D02*
X0191500Y0041832D01*
X0190002Y0042430D02*
X0183068Y0042430D01*
X0183068Y0043029D02*
X0189404Y0043029D01*
X0192518Y0040036D02*
X0172350Y0040036D01*
X0172350Y0039437D02*
X0193117Y0039437D01*
X0193715Y0038839D02*
X0172139Y0038839D01*
X0170269Y0040800D02*
X0173418Y0043950D01*
X0173418Y0046060D01*
X0171399Y0043627D02*
X0163600Y0043627D01*
X0163600Y0044077D02*
X0165917Y0044077D01*
X0166444Y0044604D01*
X0166444Y0047515D01*
X0166304Y0047655D01*
X0166342Y0047677D01*
X0166584Y0047919D01*
X0166755Y0048216D01*
X0166844Y0048546D01*
X0166844Y0049559D01*
X0163423Y0049559D01*
X0163423Y0050041D01*
X0166844Y0050041D01*
X0166844Y0051054D01*
X0166755Y0051384D01*
X0166584Y0051681D01*
X0166342Y0051923D01*
X0166304Y0051945D01*
X0166444Y0052085D01*
X0166444Y0054996D01*
X0165917Y0055523D01*
X0164169Y0055523D01*
X0164052Y0055640D01*
X0159668Y0055640D01*
X0159668Y0055685D01*
X0159141Y0056212D01*
X0154459Y0056212D01*
X0153931Y0055685D01*
X0153931Y0055246D01*
X0146823Y0055246D01*
X0144400Y0057670D01*
X0144400Y0057691D01*
X0144906Y0057900D01*
X0146200Y0059194D01*
X0146900Y0060885D01*
X0146900Y0062715D01*
X0146200Y0064406D01*
X0144906Y0065700D01*
X0143215Y0066400D01*
X0141385Y0066400D01*
X0139694Y0065700D01*
X0138400Y0064406D01*
X0137700Y0062715D01*
X0137700Y0060885D01*
X0138400Y0059194D01*
X0139694Y0057900D01*
X0140200Y0057691D01*
X0140200Y0055930D01*
X0141430Y0054700D01*
X0145084Y0051046D01*
X0153931Y0051046D01*
X0153931Y0050608D01*
X0154459Y0050081D01*
X0159141Y0050081D01*
X0159520Y0050460D01*
X0159520Y0050041D01*
X0162940Y0050041D01*
X0162940Y0049559D01*
X0159667Y0049559D01*
X0159567Y0049659D01*
X0159270Y0049830D01*
X0158940Y0049919D01*
X0157100Y0049919D01*
X0157100Y0046754D01*
X0156500Y0046754D01*
X0156500Y0049919D01*
X0154660Y0049919D01*
X0154330Y0049830D01*
X0154033Y0049659D01*
X0153791Y0049417D01*
X0153620Y0049121D01*
X0153531Y0048790D01*
X0153531Y0046754D01*
X0156500Y0046754D01*
X0156500Y0046154D01*
X0153531Y0046154D01*
X0153531Y0044117D01*
X0153620Y0043786D01*
X0153791Y0043490D01*
X0154033Y0043248D01*
X0154330Y0043077D01*
X0154660Y0042988D01*
X0156500Y0042988D01*
X0156500Y0046153D01*
X0157100Y0046153D01*
X0157100Y0042988D01*
X0158940Y0042988D01*
X0159270Y0043077D01*
X0159567Y0043248D01*
X0159809Y0043490D01*
X0159980Y0043786D01*
X0160068Y0044117D01*
X0160068Y0044456D01*
X0160447Y0044077D01*
X0161000Y0044077D01*
X0161000Y0039379D01*
X0159911Y0038290D01*
X0159911Y0036310D01*
X0161310Y0034911D01*
X0163290Y0034911D01*
X0164689Y0036310D01*
X0164689Y0038200D01*
X0164979Y0038122D01*
X0166041Y0038122D01*
X0166041Y0040509D01*
X0163850Y0040509D01*
X0163850Y0039251D01*
X0163895Y0039083D01*
X0163600Y0039379D01*
X0163600Y0044077D01*
X0163600Y0043029D02*
X0164163Y0043029D01*
X0163872Y0042430D02*
X0163600Y0042430D01*
X0163600Y0041832D02*
X0163850Y0041832D01*
X0163850Y0041233D02*
X0163600Y0041233D01*
X0163600Y0040634D02*
X0166041Y0040634D01*
X0166041Y0040036D02*
X0166622Y0040036D01*
X0166622Y0039437D02*
X0166041Y0039437D01*
X0166041Y0038839D02*
X0166622Y0038839D01*
X0166622Y0038240D02*
X0166041Y0038240D01*
X0164689Y0037642D02*
X0194000Y0037642D01*
X0194000Y0038240D02*
X0168066Y0038240D01*
X0166622Y0041233D02*
X0166041Y0041233D01*
X0166041Y0041832D02*
X0166622Y0041832D01*
X0166622Y0042430D02*
X0166041Y0042430D01*
X0166041Y0043029D02*
X0166622Y0043029D01*
X0166065Y0044226D02*
X0170535Y0044226D01*
X0170156Y0044824D02*
X0166444Y0044824D01*
X0166444Y0045423D02*
X0170156Y0045423D01*
X0170156Y0046021D02*
X0166444Y0046021D01*
X0166444Y0046620D02*
X0170156Y0046620D01*
X0170156Y0047218D02*
X0166444Y0047218D01*
X0166482Y0047817D02*
X0170457Y0047817D01*
X0173778Y0050211D02*
X0166844Y0050211D01*
X0166844Y0050809D02*
X0173179Y0050809D01*
X0172581Y0051408D02*
X0166742Y0051408D01*
X0166366Y0052006D02*
X0170234Y0052006D01*
X0170156Y0052605D02*
X0166444Y0052605D01*
X0166444Y0053203D02*
X0170156Y0053203D01*
X0170156Y0053802D02*
X0166444Y0053802D01*
X0166444Y0054400D02*
X0170156Y0054400D01*
X0170159Y0054999D02*
X0166441Y0054999D01*
X0164095Y0055597D02*
X0172505Y0055597D01*
X0174331Y0055597D02*
X0222021Y0055597D01*
X0221963Y0056196D02*
X0159157Y0056196D01*
X0156114Y0058543D02*
X0156576Y0059179D01*
X0156934Y0059881D01*
X0157177Y0060629D01*
X0157300Y0061406D01*
X0157300Y0061500D01*
X0152600Y0061500D01*
X0152600Y0062100D01*
X0152000Y0062100D01*
X0152000Y0066800D01*
X0151906Y0066800D01*
X0151129Y0066677D01*
X0150381Y0066434D01*
X0149679Y0066076D01*
X0149043Y0065614D01*
X0148486Y0065057D01*
X0148024Y0064421D01*
X0147666Y0063719D01*
X0147423Y0062971D01*
X0147300Y0062194D01*
X0147300Y0062100D01*
X0152000Y0062100D01*
X0152000Y0061500D01*
X0147300Y0061500D01*
X0147300Y0061406D01*
X0147423Y0060629D01*
X0147666Y0059881D01*
X0148024Y0059179D01*
X0148486Y0058543D01*
X0149043Y0057986D01*
X0149679Y0057524D01*
X0150381Y0057166D01*
X0151129Y0056923D01*
X0151906Y0056800D01*
X0152000Y0056800D01*
X0152000Y0061500D01*
X0152600Y0061500D01*
X0152600Y0056800D01*
X0152694Y0056800D01*
X0153471Y0056923D01*
X0154219Y0057166D01*
X0154921Y0057524D01*
X0155557Y0057986D01*
X0156114Y0058543D01*
X0156148Y0058590D02*
X0221963Y0058590D01*
X0221963Y0059188D02*
X0156581Y0059188D01*
X0156886Y0059787D02*
X0207973Y0059787D01*
X0207233Y0060385D02*
X0157098Y0060385D01*
X0157233Y0060984D02*
X0207063Y0060984D01*
X0207063Y0061582D02*
X0152600Y0061582D01*
X0152600Y0062100D02*
X0157300Y0062100D01*
X0157300Y0062194D01*
X0157177Y0062971D01*
X0156934Y0063719D01*
X0156576Y0064421D01*
X0156114Y0065057D01*
X0155557Y0065614D01*
X0154921Y0066076D01*
X0154219Y0066434D01*
X0153471Y0066677D01*
X0152694Y0066800D01*
X0152600Y0066800D01*
X0152600Y0062100D01*
X0152600Y0062181D02*
X0152000Y0062181D01*
X0152000Y0062779D02*
X0152600Y0062779D01*
X0152600Y0063378D02*
X0152000Y0063378D01*
X0152000Y0063976D02*
X0152600Y0063976D01*
X0152600Y0064575D02*
X0152000Y0064575D01*
X0152000Y0065173D02*
X0152600Y0065173D01*
X0152600Y0065772D02*
X0152000Y0065772D01*
X0152000Y0066370D02*
X0152600Y0066370D01*
X0154343Y0066370D02*
X0161052Y0066370D01*
X0161028Y0066463D02*
X0161116Y0066133D01*
X0161287Y0065836D01*
X0161529Y0065594D01*
X0161826Y0065423D01*
X0162156Y0065335D01*
X0166555Y0065335D01*
X0166555Y0068500D01*
X0161028Y0068500D01*
X0161028Y0066463D01*
X0161028Y0066969D02*
X0125100Y0066969D01*
X0125100Y0066370D02*
X0141314Y0066370D01*
X0139869Y0065772D02*
X0125100Y0065772D01*
X0125100Y0065173D02*
X0139168Y0065173D01*
X0138570Y0064575D02*
X0125100Y0064575D01*
X0125100Y0063976D02*
X0138223Y0063976D01*
X0137975Y0063378D02*
X0125100Y0063378D01*
X0125100Y0062779D02*
X0137727Y0062779D01*
X0137700Y0062181D02*
X0125100Y0062181D01*
X0125100Y0061582D02*
X0137700Y0061582D01*
X0137700Y0060984D02*
X0125100Y0060984D01*
X0125100Y0060385D02*
X0137907Y0060385D01*
X0138155Y0059787D02*
X0125100Y0059787D01*
X0125100Y0059188D02*
X0138406Y0059188D01*
X0139005Y0058590D02*
X0125100Y0058590D01*
X0125100Y0057991D02*
X0139603Y0057991D01*
X0140200Y0057393D02*
X0125100Y0057393D01*
X0125100Y0056794D02*
X0140200Y0056794D01*
X0140200Y0056196D02*
X0124689Y0056196D01*
X0124689Y0055597D02*
X0140533Y0055597D01*
X0141131Y0054999D02*
X0124689Y0054999D01*
X0124357Y0054400D02*
X0141730Y0054400D01*
X0142328Y0053802D02*
X0124280Y0053802D01*
X0124637Y0053203D02*
X0142927Y0053203D01*
X0143525Y0052605D02*
X0124637Y0052605D01*
X0124637Y0052006D02*
X0144124Y0052006D01*
X0144722Y0051408D02*
X0124655Y0051408D01*
X0125240Y0050809D02*
X0153931Y0050809D01*
X0154329Y0050211D02*
X0125240Y0050211D01*
X0125240Y0049612D02*
X0153986Y0049612D01*
X0153591Y0049014D02*
X0125240Y0049014D01*
X0125240Y0048415D02*
X0153531Y0048415D01*
X0153531Y0047817D02*
X0125240Y0047817D01*
X0125240Y0047218D02*
X0153531Y0047218D01*
X0153531Y0046021D02*
X0125523Y0046021D01*
X0125523Y0045423D02*
X0153531Y0045423D01*
X0153531Y0044824D02*
X0125523Y0044824D01*
X0125523Y0044226D02*
X0153531Y0044226D01*
X0153712Y0043627D02*
X0125523Y0043627D01*
X0125523Y0043029D02*
X0154510Y0043029D01*
X0156500Y0043029D02*
X0157100Y0043029D01*
X0157100Y0043627D02*
X0156500Y0043627D01*
X0156500Y0044226D02*
X0157100Y0044226D01*
X0157100Y0044824D02*
X0156500Y0044824D01*
X0156500Y0045423D02*
X0157100Y0045423D01*
X0157100Y0046021D02*
X0156500Y0046021D01*
X0156500Y0046620D02*
X0125523Y0046620D01*
X0121840Y0047218D02*
X0118043Y0047218D01*
X0117941Y0047321D02*
X0117644Y0047492D01*
X0117314Y0047580D01*
X0116301Y0047580D01*
X0116301Y0044160D01*
X0115818Y0044160D01*
X0115818Y0047580D01*
X0114806Y0047580D01*
X0114475Y0047492D01*
X0114179Y0047321D01*
X0113937Y0047079D01*
X0113766Y0046782D01*
X0113677Y0046451D01*
X0113677Y0044159D01*
X0115818Y0044159D01*
X0115818Y0043677D01*
X0113677Y0043677D01*
X0113677Y0041385D01*
X0113766Y0041054D01*
X0113937Y0040758D01*
X0114179Y0040516D01*
X0114475Y0040345D01*
X0114806Y0040256D01*
X0115818Y0040256D01*
X0115818Y0043677D01*
X0116301Y0043677D01*
X0116301Y0044159D01*
X0118443Y0044159D01*
X0118443Y0046451D01*
X0118354Y0046782D01*
X0118183Y0047079D01*
X0117941Y0047321D01*
X0118397Y0046620D02*
X0121557Y0046620D01*
X0121557Y0046021D02*
X0118443Y0046021D01*
X0118443Y0045423D02*
X0121557Y0045423D01*
X0121557Y0044824D02*
X0118443Y0044824D01*
X0118443Y0044226D02*
X0121557Y0044226D01*
X0121557Y0043627D02*
X0118443Y0043627D01*
X0118443Y0043677D02*
X0116301Y0043677D01*
X0116301Y0040256D01*
X0117314Y0040256D01*
X0117644Y0040345D01*
X0117941Y0040516D01*
X0118183Y0040758D01*
X0118354Y0041054D01*
X0118443Y0041385D01*
X0118443Y0043677D01*
X0118443Y0043029D02*
X0121557Y0043029D01*
X0121557Y0042430D02*
X0118443Y0042430D01*
X0118443Y0041832D02*
X0121557Y0041832D01*
X0121557Y0041233D02*
X0118402Y0041233D01*
X0118060Y0040634D02*
X0128089Y0040634D01*
X0127490Y0040036D02*
X0029100Y0040036D01*
X0029100Y0040634D02*
X0114060Y0040634D01*
X0113718Y0041233D02*
X0029100Y0041233D01*
X0029100Y0041832D02*
X0113677Y0041832D01*
X0113677Y0042430D02*
X0061309Y0042430D01*
X0061907Y0043029D02*
X0113677Y0043029D01*
X0113677Y0043627D02*
X0062189Y0043627D01*
X0062189Y0044226D02*
X0113677Y0044226D01*
X0113677Y0044824D02*
X0062728Y0044824D01*
X0063327Y0045423D02*
X0113677Y0045423D01*
X0113677Y0046021D02*
X0063925Y0046021D01*
X0064524Y0046620D02*
X0113722Y0046620D01*
X0114077Y0047218D02*
X0065122Y0047218D01*
X0065721Y0047817D02*
X0121840Y0047817D01*
X0121840Y0048415D02*
X0119291Y0048415D01*
X0119823Y0049014D02*
X0120223Y0049014D01*
X0120081Y0049612D02*
X0119919Y0049612D01*
X0119919Y0050211D02*
X0120081Y0050211D01*
X0120081Y0050809D02*
X0119919Y0050809D01*
X0119847Y0051408D02*
X0117541Y0051408D01*
X0117541Y0050809D02*
X0116941Y0050809D01*
X0116941Y0050211D02*
X0117541Y0050211D01*
X0117541Y0049612D02*
X0116941Y0049612D01*
X0116941Y0049014D02*
X0117541Y0049014D01*
X0117541Y0048415D02*
X0116941Y0048415D01*
X0116301Y0047218D02*
X0115818Y0047218D01*
X0115818Y0046620D02*
X0116301Y0046620D01*
X0116301Y0046021D02*
X0115818Y0046021D01*
X0115818Y0045423D02*
X0116301Y0045423D01*
X0116301Y0044824D02*
X0115818Y0044824D01*
X0115818Y0044226D02*
X0116301Y0044226D01*
X0116301Y0043627D02*
X0115818Y0043627D01*
X0115818Y0043029D02*
X0116301Y0043029D01*
X0116301Y0042430D02*
X0115818Y0042430D01*
X0115818Y0041832D02*
X0116301Y0041832D01*
X0116301Y0041233D02*
X0115818Y0041233D01*
X0115818Y0040634D02*
X0116301Y0040634D01*
X0117033Y0039437D02*
X0029100Y0039437D01*
X0029100Y0038839D02*
X0116435Y0038839D01*
X0115836Y0038240D02*
X0029100Y0038240D01*
X0029100Y0037642D02*
X0115238Y0037642D01*
X0114639Y0037043D02*
X0084811Y0037043D01*
X0085979Y0036445D02*
X0114105Y0036445D01*
X0114077Y0035846D02*
X0086578Y0035846D01*
X0086949Y0035248D02*
X0114077Y0035248D01*
X0114077Y0034649D02*
X0087197Y0034649D01*
X0087333Y0034051D02*
X0114025Y0034051D01*
X0113426Y0033452D02*
X0087333Y0033452D01*
X0087314Y0032854D02*
X0113041Y0032854D01*
X0116441Y0029861D02*
X0187890Y0029861D01*
X0187890Y0029404D02*
X0187978Y0029074D01*
X0188150Y0028777D01*
X0188392Y0028535D01*
X0188688Y0028364D01*
X0189019Y0028276D01*
X0189682Y0028276D01*
X0189682Y0032233D01*
X0189682Y0032233D01*
X0189682Y0032233D01*
X0189682Y0036191D01*
X0189019Y0036191D01*
X0188688Y0036102D01*
X0188507Y0035997D01*
X0187864Y0036640D01*
X0186551Y0037184D01*
X0185129Y0037184D01*
X0183816Y0036640D01*
X0182811Y0035635D01*
X0182267Y0034322D01*
X0182267Y0032900D01*
X0182811Y0031587D01*
X0183816Y0030582D01*
X0185129Y0030038D01*
X0186551Y0030038D01*
X0187864Y0030582D01*
X0187890Y0030607D01*
X0187890Y0029404D01*
X0187928Y0029263D02*
X0121774Y0029263D01*
X0122396Y0028664D02*
X0188263Y0028664D01*
X0189682Y0028664D02*
X0189682Y0028664D01*
X0189682Y0029263D02*
X0189682Y0029263D01*
X0189682Y0029861D02*
X0189682Y0029861D01*
X0189682Y0030460D02*
X0189682Y0030460D01*
X0189682Y0031058D02*
X0189682Y0031058D01*
X0189682Y0031657D02*
X0189682Y0031657D01*
X0189682Y0032255D02*
X0189682Y0032255D01*
X0189682Y0032854D02*
X0189682Y0032854D01*
X0189682Y0033452D02*
X0189682Y0033452D01*
X0189682Y0034051D02*
X0189682Y0034051D01*
X0189682Y0034649D02*
X0189682Y0034649D01*
X0189682Y0035248D02*
X0189682Y0035248D01*
X0189682Y0035846D02*
X0189682Y0035846D01*
X0191057Y0035846D02*
X0194000Y0035846D01*
X0194000Y0036445D02*
X0188060Y0036445D01*
X0186891Y0037043D02*
X0194000Y0037043D01*
X0195200Y0032633D02*
X0194800Y0032233D01*
X0198286Y0028664D02*
X0191101Y0028664D01*
X0187890Y0030460D02*
X0187570Y0030460D01*
X0184111Y0030460D02*
X0125036Y0030460D01*
X0125523Y0031058D02*
X0183340Y0031058D01*
X0182782Y0031657D02*
X0125523Y0031657D01*
X0125523Y0032255D02*
X0182534Y0032255D01*
X0182286Y0032854D02*
X0125523Y0032854D01*
X0125715Y0033452D02*
X0182267Y0033452D01*
X0182267Y0034051D02*
X0126313Y0034051D01*
X0126912Y0034649D02*
X0182403Y0034649D01*
X0182651Y0035248D02*
X0163626Y0035248D01*
X0164225Y0035846D02*
X0183022Y0035846D01*
X0183621Y0036445D02*
X0164689Y0036445D01*
X0164689Y0037043D02*
X0184789Y0037043D01*
X0180100Y0041233D02*
X0179500Y0041233D01*
X0179500Y0041832D02*
X0180100Y0041832D01*
X0180100Y0042430D02*
X0179500Y0042430D01*
X0179500Y0043029D02*
X0180100Y0043029D01*
X0180100Y0043627D02*
X0179500Y0043627D01*
X0179500Y0045423D02*
X0180100Y0045423D01*
X0180100Y0046021D02*
X0179500Y0046021D01*
X0179500Y0046620D02*
X0180100Y0046620D01*
X0180100Y0047218D02*
X0179500Y0047218D01*
X0179500Y0047817D02*
X0180100Y0047817D01*
X0177306Y0047817D02*
X0176379Y0047817D01*
X0177125Y0048415D02*
X0166809Y0048415D01*
X0166844Y0049014D02*
X0176931Y0049014D01*
X0174376Y0049612D02*
X0163423Y0049612D01*
X0162940Y0049612D02*
X0159614Y0049612D01*
X0159520Y0050211D02*
X0159271Y0050211D01*
X0157100Y0049612D02*
X0156500Y0049612D01*
X0156500Y0049014D02*
X0157100Y0049014D01*
X0157100Y0048415D02*
X0156500Y0048415D01*
X0156500Y0047817D02*
X0157100Y0047817D01*
X0157100Y0047218D02*
X0156500Y0047218D01*
X0160068Y0044226D02*
X0160298Y0044226D01*
X0159888Y0043627D02*
X0161000Y0043627D01*
X0161000Y0043029D02*
X0159090Y0043029D01*
X0161000Y0042430D02*
X0125523Y0042430D01*
X0125523Y0041832D02*
X0132953Y0041832D01*
X0135647Y0041832D02*
X0161000Y0041832D01*
X0161000Y0041233D02*
X0136245Y0041233D01*
X0136689Y0040634D02*
X0161000Y0040634D01*
X0161000Y0040036D02*
X0136689Y0040036D01*
X0136689Y0039437D02*
X0161000Y0039437D01*
X0160460Y0038839D02*
X0136689Y0038839D01*
X0136119Y0038240D02*
X0159911Y0038240D01*
X0159911Y0037642D02*
X0135520Y0037642D01*
X0133080Y0037642D02*
X0129904Y0037642D01*
X0129306Y0037043D02*
X0159911Y0037043D01*
X0159911Y0036445D02*
X0128707Y0036445D01*
X0128109Y0035846D02*
X0160375Y0035846D01*
X0160974Y0035248D02*
X0127510Y0035248D01*
X0125695Y0038240D02*
X0124764Y0038240D01*
X0124165Y0038839D02*
X0126293Y0038839D01*
X0126892Y0039437D02*
X0123567Y0039437D01*
X0125523Y0041233D02*
X0128687Y0041233D01*
X0120041Y0032854D02*
X0119559Y0032854D01*
X0119559Y0032255D02*
X0120041Y0032255D01*
X0120041Y0031657D02*
X0119559Y0031657D01*
X0119559Y0031058D02*
X0120041Y0031058D01*
X0120041Y0030460D02*
X0119559Y0030460D01*
X0119559Y0029263D02*
X0120159Y0029263D01*
X0120159Y0028664D02*
X0119559Y0028664D01*
X0119559Y0028066D02*
X0120159Y0028066D01*
X0120159Y0027467D02*
X0119559Y0027467D01*
X0119559Y0026869D02*
X0120159Y0026869D01*
X0120159Y0025073D02*
X0119559Y0025073D01*
X0119559Y0024475D02*
X0120159Y0024475D01*
X0120159Y0023876D02*
X0119559Y0023876D01*
X0119559Y0023278D02*
X0120159Y0023278D01*
X0121592Y0023278D02*
X0174592Y0023278D01*
X0174840Y0023876D02*
X0122362Y0023876D01*
X0122537Y0024475D02*
X0175311Y0024475D01*
X0175909Y0025073D02*
X0122537Y0025073D01*
X0122537Y0025672D02*
X0177128Y0025672D01*
X0174344Y0022679D02*
X0095256Y0022679D01*
X0095287Y0022081D02*
X0174313Y0022081D01*
X0174313Y0021482D02*
X0095287Y0021482D01*
X0095241Y0020884D02*
X0174359Y0020884D01*
X0174607Y0020285D02*
X0094993Y0020285D01*
X0094745Y0019687D02*
X0174855Y0019687D01*
X0175348Y0019088D02*
X0094252Y0019088D01*
X0095008Y0023278D02*
X0118126Y0023278D01*
X0117181Y0026869D02*
X0117130Y0026869D01*
X0117181Y0027467D02*
X0117019Y0027467D01*
X0117019Y0028066D02*
X0117181Y0028066D01*
X0117322Y0028664D02*
X0116799Y0028664D01*
X0116441Y0029263D02*
X0117944Y0029263D01*
X0117739Y0030460D02*
X0117555Y0030460D01*
X0121861Y0030460D02*
X0122045Y0030460D01*
X0122537Y0028066D02*
X0197687Y0028066D01*
X0197411Y0027467D02*
X0122537Y0027467D01*
X0122537Y0026869D02*
X0197411Y0026869D01*
X0201310Y0030460D02*
X0202030Y0030460D01*
X0212472Y0025672D02*
X0232914Y0025672D01*
X0232754Y0025073D02*
X0213691Y0025073D01*
X0214289Y0024475D02*
X0232594Y0024475D01*
X0232433Y0023876D02*
X0214760Y0023876D01*
X0215008Y0023278D02*
X0232154Y0023278D01*
X0231808Y0022679D02*
X0215256Y0022679D01*
X0215287Y0022081D02*
X0231463Y0022081D01*
X0230979Y0021482D02*
X0215287Y0021482D01*
X0215241Y0020884D02*
X0230381Y0020884D01*
X0229776Y0020285D02*
X0214993Y0020285D01*
X0214745Y0019687D02*
X0228739Y0019687D01*
X0227430Y0019088D02*
X0214252Y0019088D01*
X0190452Y0046620D02*
X0183068Y0046620D01*
X0182668Y0052605D02*
X0233000Y0052605D01*
X0233000Y0053203D02*
X0182668Y0053203D01*
X0182551Y0053802D02*
X0233000Y0053802D01*
X0233000Y0054400D02*
X0176680Y0054400D01*
X0176680Y0053802D02*
X0177049Y0053802D01*
X0176677Y0054999D02*
X0227172Y0054999D01*
X0226751Y0055597D02*
X0226461Y0055597D01*
X0226519Y0056196D02*
X0226681Y0056196D01*
X0226681Y0056794D02*
X0226519Y0056794D01*
X0226519Y0057393D02*
X0226681Y0057393D01*
X0226519Y0057991D02*
X0229059Y0057991D01*
X0229059Y0057393D02*
X0229659Y0057393D01*
X0229659Y0057991D02*
X0233000Y0057991D01*
X0233000Y0057393D02*
X0232037Y0057393D01*
X0232037Y0056794D02*
X0233000Y0056794D01*
X0233000Y0056196D02*
X0232037Y0056196D01*
X0231967Y0055597D02*
X0233000Y0055597D01*
X0233000Y0054999D02*
X0231546Y0054999D01*
X0229659Y0054999D02*
X0229059Y0054999D01*
X0229059Y0055597D02*
X0229659Y0055597D01*
X0229659Y0056196D02*
X0229059Y0056196D01*
X0229059Y0056794D02*
X0229659Y0056794D01*
X0229659Y0058590D02*
X0229059Y0058590D01*
X0229059Y0059188D02*
X0229659Y0059188D01*
X0229659Y0059787D02*
X0229059Y0059787D01*
X0229059Y0060385D02*
X0229659Y0060385D01*
X0229659Y0060984D02*
X0229059Y0060984D01*
X0229059Y0061582D02*
X0229659Y0061582D01*
X0229659Y0062181D02*
X0233000Y0062181D01*
X0233000Y0062779D02*
X0232037Y0062779D01*
X0232037Y0063378D02*
X0233000Y0063378D01*
X0233000Y0063976D02*
X0232037Y0063976D01*
X0231948Y0064575D02*
X0233000Y0064575D01*
X0233000Y0065173D02*
X0231429Y0065173D01*
X0232037Y0061582D02*
X0233000Y0061582D01*
X0233000Y0060984D02*
X0232037Y0060984D01*
X0232037Y0060385D02*
X0233000Y0060385D01*
X0233000Y0059787D02*
X0232025Y0059787D01*
X0232037Y0059188D02*
X0233000Y0059188D01*
X0233000Y0058590D02*
X0232037Y0058590D01*
X0229059Y0062181D02*
X0226519Y0062181D01*
X0226519Y0062779D02*
X0226681Y0062779D01*
X0226681Y0063378D02*
X0226519Y0063378D01*
X0226519Y0063976D02*
X0226681Y0063976D01*
X0226771Y0064575D02*
X0226388Y0064575D01*
X0227290Y0065173D02*
X0219765Y0065173D01*
X0220364Y0064575D02*
X0222094Y0064575D01*
X0221963Y0063976D02*
X0220962Y0063976D01*
X0219081Y0062181D02*
X0217137Y0062181D01*
X0217137Y0062779D02*
X0218482Y0062779D01*
X0217884Y0063378D02*
X0217137Y0063378D01*
X0217137Y0063976D02*
X0217285Y0063976D01*
X0217137Y0061582D02*
X0219679Y0061582D01*
X0221963Y0060984D02*
X0217137Y0060984D01*
X0216867Y0060385D02*
X0221963Y0060385D01*
X0221963Y0059787D02*
X0211508Y0059787D01*
X0212249Y0060385D02*
X0212851Y0060385D01*
X0212581Y0060984D02*
X0212419Y0060984D01*
X0212419Y0061582D02*
X0212581Y0061582D01*
X0212581Y0062181D02*
X0212419Y0062181D01*
X0212581Y0062779D02*
X0210041Y0062779D01*
X0210041Y0062181D02*
X0209441Y0062181D01*
X0209441Y0062779D02*
X0157207Y0062779D01*
X0157300Y0062181D02*
X0207063Y0062181D01*
X0207063Y0063378D02*
X0157045Y0063378D01*
X0156803Y0063976D02*
X0207063Y0063976D01*
X0207063Y0064575D02*
X0156464Y0064575D01*
X0155998Y0065173D02*
X0207209Y0065173D01*
X0206012Y0065772D02*
X0205651Y0065772D01*
X0202469Y0065772D02*
X0202108Y0065772D01*
X0202179Y0071757D02*
X0202398Y0071757D01*
X0205722Y0071757D02*
X0205941Y0071757D01*
X0210856Y0071757D02*
X0211437Y0071757D01*
X0211437Y0071159D02*
X0210856Y0071159D01*
X0210856Y0070560D02*
X0211437Y0070560D01*
X0211437Y0069962D02*
X0210856Y0069962D01*
X0210856Y0069363D02*
X0211437Y0069363D01*
X0212273Y0065173D02*
X0212810Y0065173D01*
X0212581Y0064575D02*
X0212419Y0064575D01*
X0212419Y0063976D02*
X0212581Y0063976D01*
X0212581Y0063378D02*
X0212419Y0063378D01*
X0210041Y0061582D02*
X0209441Y0061582D01*
X0209441Y0060984D02*
X0210041Y0060984D01*
X0210041Y0060385D02*
X0209441Y0060385D01*
X0209441Y0059787D02*
X0210041Y0059787D01*
X0221963Y0057991D02*
X0155562Y0057991D01*
X0154664Y0057393D02*
X0221963Y0057393D01*
X0221963Y0056794D02*
X0145276Y0056794D01*
X0145874Y0056196D02*
X0154443Y0056196D01*
X0153931Y0055597D02*
X0146473Y0055597D01*
X0144677Y0057393D02*
X0149936Y0057393D01*
X0149038Y0057991D02*
X0144997Y0057991D01*
X0145595Y0058590D02*
X0148452Y0058590D01*
X0148019Y0059188D02*
X0146194Y0059188D01*
X0146445Y0059787D02*
X0147714Y0059787D01*
X0147502Y0060385D02*
X0146693Y0060385D01*
X0146900Y0060984D02*
X0147367Y0060984D01*
X0146900Y0061582D02*
X0152000Y0061582D01*
X0152000Y0060984D02*
X0152600Y0060984D01*
X0152600Y0060385D02*
X0152000Y0060385D01*
X0152000Y0059787D02*
X0152600Y0059787D01*
X0152600Y0059188D02*
X0152000Y0059188D01*
X0152000Y0058590D02*
X0152600Y0058590D01*
X0152600Y0057991D02*
X0152000Y0057991D01*
X0152000Y0057393D02*
X0152600Y0057393D01*
X0147300Y0062181D02*
X0146900Y0062181D01*
X0146873Y0062779D02*
X0147393Y0062779D01*
X0147555Y0063378D02*
X0146625Y0063378D01*
X0146377Y0063976D02*
X0147797Y0063976D01*
X0148136Y0064575D02*
X0146030Y0064575D01*
X0145432Y0065173D02*
X0148602Y0065173D01*
X0149260Y0065772D02*
X0144731Y0065772D01*
X0143286Y0066370D02*
X0150257Y0066370D01*
X0149260Y0069962D02*
X0125100Y0069962D01*
X0125100Y0070560D02*
X0148661Y0070560D01*
X0148411Y0071159D02*
X0125100Y0071159D01*
X0125100Y0071757D02*
X0148411Y0071757D01*
X0148411Y0072356D02*
X0125100Y0072356D01*
X0125100Y0072954D02*
X0148500Y0072954D01*
X0148500Y0073553D02*
X0125100Y0073553D01*
X0125100Y0074151D02*
X0148500Y0074151D01*
X0148500Y0074750D02*
X0125100Y0074750D01*
X0125100Y0075348D02*
X0148500Y0075348D01*
X0148215Y0075947D02*
X0125100Y0075947D01*
X0125100Y0076545D02*
X0147616Y0076545D01*
X0147018Y0077144D02*
X0125100Y0077144D01*
X0125100Y0077742D02*
X0146419Y0077742D01*
X0145821Y0078341D02*
X0125098Y0078341D01*
X0124499Y0078939D02*
X0145222Y0078939D01*
X0144624Y0079538D02*
X0123901Y0079538D01*
X0123302Y0080136D02*
X0144025Y0080136D01*
X0143427Y0080735D02*
X0122704Y0080735D01*
X0122105Y0081333D02*
X0142828Y0081333D01*
X0142230Y0081932D02*
X0121507Y0081932D01*
X0120908Y0082530D02*
X0141631Y0082530D01*
X0141033Y0083129D02*
X0120310Y0083129D01*
X0119711Y0083727D02*
X0140434Y0083727D01*
X0139836Y0084326D02*
X0119113Y0084326D01*
X0118514Y0084924D02*
X0139237Y0084924D01*
X0138639Y0085523D02*
X0117916Y0085523D01*
X0117317Y0086121D02*
X0138040Y0086121D01*
X0137442Y0086720D02*
X0116719Y0086720D01*
X0116120Y0087318D02*
X0136843Y0087318D01*
X0136245Y0087917D02*
X0115522Y0087917D01*
X0114923Y0088515D02*
X0135646Y0088515D01*
X0135048Y0089114D02*
X0114325Y0089114D01*
X0113726Y0089712D02*
X0134449Y0089712D01*
X0133851Y0090311D02*
X0113128Y0090311D01*
X0112529Y0090909D02*
X0133252Y0090909D01*
X0132654Y0091508D02*
X0111930Y0091508D01*
X0111332Y0092106D02*
X0132055Y0092106D01*
X0131457Y0092705D02*
X0110733Y0092705D01*
X0110135Y0093303D02*
X0130858Y0093303D01*
X0130260Y0093902D02*
X0109536Y0093902D01*
X0108938Y0094501D02*
X0129661Y0094501D01*
X0129063Y0095099D02*
X0108339Y0095099D01*
X0107741Y0095698D02*
X0128464Y0095698D01*
X0127866Y0096296D02*
X0107142Y0096296D01*
X0106544Y0096895D02*
X0127267Y0096895D01*
X0126669Y0097493D02*
X0105945Y0097493D01*
X0105347Y0098092D02*
X0126070Y0098092D01*
X0125472Y0098690D02*
X0104748Y0098690D01*
X0104150Y0099289D02*
X0124873Y0099289D01*
X0124274Y0099887D02*
X0103551Y0099887D01*
X0102953Y0100486D02*
X0123676Y0100486D01*
X0123077Y0101084D02*
X0103068Y0101084D01*
X0103316Y0101683D02*
X0122479Y0101683D01*
X0121880Y0102281D02*
X0103400Y0102281D01*
X0103400Y0102880D02*
X0121282Y0102880D01*
X0120683Y0103478D02*
X0111357Y0103478D01*
X0108243Y0103478D02*
X0103400Y0103478D01*
X0103250Y0104077D02*
X0107645Y0104077D01*
X0107411Y0104675D02*
X0103002Y0104675D01*
X0102754Y0105274D02*
X0107411Y0105274D01*
X0107411Y0105872D02*
X0102233Y0105872D01*
X0101635Y0106471D02*
X0107592Y0106471D01*
X0101071Y0098690D02*
X0100898Y0098690D01*
X0101670Y0098092D02*
X0083002Y0098092D01*
X0083601Y0098690D02*
X0096702Y0098690D01*
X0095806Y0099289D02*
X0084199Y0099289D01*
X0084221Y0099887D02*
X0095207Y0099887D01*
X0094780Y0100486D02*
X0084221Y0100486D01*
X0084221Y0101084D02*
X0094532Y0101084D01*
X0094284Y0101683D02*
X0083828Y0101683D01*
X0083230Y0102281D02*
X0094200Y0102281D01*
X0094200Y0102880D02*
X0065059Y0102880D01*
X0064460Y0103478D02*
X0082743Y0103478D01*
X0080435Y0102281D02*
X0065657Y0102281D01*
X0066256Y0101683D02*
X0079836Y0101683D01*
X0079443Y0101084D02*
X0066854Y0101084D01*
X0067453Y0100486D02*
X0079443Y0100486D01*
X0079443Y0099887D02*
X0068051Y0099887D01*
X0068650Y0099289D02*
X0078982Y0099289D01*
X0078384Y0098690D02*
X0069248Y0098690D01*
X0069525Y0098092D02*
X0077785Y0098092D01*
X0077187Y0097493D02*
X0069525Y0097493D01*
X0070009Y0096895D02*
X0076588Y0096895D01*
X0075990Y0096296D02*
X0070608Y0096296D01*
X0070614Y0095698D02*
X0075391Y0095698D01*
X0074793Y0095099D02*
X0072879Y0095099D01*
X0072886Y0091508D02*
X0094356Y0091508D01*
X0094200Y0092106D02*
X0075477Y0092106D01*
X0076076Y0092705D02*
X0094200Y0092705D01*
X0094200Y0093303D02*
X0076674Y0093303D01*
X0077273Y0093902D02*
X0094277Y0093902D01*
X0094525Y0094501D02*
X0077871Y0094501D01*
X0078470Y0095099D02*
X0094773Y0095099D01*
X0095192Y0095698D02*
X0079068Y0095698D01*
X0079667Y0096296D02*
X0095791Y0096296D01*
X0096665Y0096895D02*
X0080265Y0096895D01*
X0080864Y0097493D02*
X0102268Y0097493D01*
X0102867Y0096895D02*
X0100935Y0096895D01*
X0101809Y0096296D02*
X0103465Y0096296D01*
X0104064Y0095698D02*
X0102408Y0095698D01*
X0102827Y0095099D02*
X0104662Y0095099D01*
X0105261Y0094501D02*
X0103075Y0094501D01*
X0105036Y0093902D02*
X0105860Y0093902D01*
X0105635Y0093303D02*
X0106458Y0093303D01*
X0106233Y0092705D02*
X0107057Y0092705D01*
X0106832Y0092106D02*
X0107655Y0092106D01*
X0107430Y0091508D02*
X0108254Y0091508D01*
X0108029Y0090909D02*
X0108852Y0090909D01*
X0108628Y0090311D02*
X0109451Y0090311D01*
X0109226Y0089712D02*
X0110049Y0089712D01*
X0109825Y0089114D02*
X0110648Y0089114D01*
X0110423Y0088515D02*
X0111246Y0088515D01*
X0111022Y0087917D02*
X0111845Y0087917D01*
X0111620Y0087318D02*
X0112443Y0087318D01*
X0112219Y0086720D02*
X0113042Y0086720D01*
X0112817Y0086121D02*
X0113640Y0086121D01*
X0113416Y0085523D02*
X0114239Y0085523D01*
X0114014Y0084924D02*
X0114837Y0084924D01*
X0114613Y0084326D02*
X0115436Y0084326D01*
X0115211Y0083727D02*
X0116034Y0083727D01*
X0115810Y0083129D02*
X0116633Y0083129D01*
X0116408Y0082530D02*
X0117231Y0082530D01*
X0117007Y0081932D02*
X0117830Y0081932D01*
X0117605Y0081333D02*
X0118428Y0081333D01*
X0118204Y0080735D02*
X0119027Y0080735D01*
X0118802Y0080136D02*
X0119625Y0080136D01*
X0119401Y0079538D02*
X0120224Y0079538D01*
X0119999Y0078939D02*
X0120822Y0078939D01*
X0120598Y0078341D02*
X0121421Y0078341D01*
X0121196Y0077742D02*
X0122019Y0077742D01*
X0121795Y0077144D02*
X0122500Y0077144D01*
X0122500Y0076545D02*
X0122393Y0076545D01*
X0119913Y0075348D02*
X0117656Y0075348D01*
X0118255Y0074750D02*
X0120000Y0074750D01*
X0120000Y0074151D02*
X0118500Y0074151D01*
X0118926Y0073553D02*
X0120000Y0073553D01*
X0120000Y0072954D02*
X0119189Y0072954D01*
X0119189Y0072356D02*
X0120000Y0072356D01*
X0120000Y0071757D02*
X0119189Y0071757D01*
X0119037Y0071159D02*
X0120000Y0071159D01*
X0120000Y0070560D02*
X0118500Y0070560D01*
X0118500Y0069962D02*
X0120000Y0069962D01*
X0120000Y0069363D02*
X0118500Y0069363D01*
X0118500Y0068765D02*
X0120000Y0068765D01*
X0120000Y0068166D02*
X0118500Y0068166D01*
X0118500Y0067568D02*
X0120000Y0067568D01*
X0120000Y0066969D02*
X0118500Y0066969D01*
X0118500Y0066370D02*
X0120000Y0066370D01*
X0120000Y0065772D02*
X0118500Y0065772D01*
X0118500Y0065173D02*
X0120000Y0065173D01*
X0120000Y0064575D02*
X0118500Y0064575D01*
X0118500Y0063976D02*
X0120000Y0063976D01*
X0120000Y0063378D02*
X0118500Y0063378D01*
X0118500Y0062779D02*
X0120000Y0062779D01*
X0120000Y0062181D02*
X0118500Y0062181D01*
X0118500Y0061582D02*
X0120000Y0061582D01*
X0119605Y0060984D02*
X0118500Y0060984D01*
X0118500Y0060385D02*
X0119007Y0060385D01*
X0118911Y0059787D02*
X0118500Y0059787D01*
X0118500Y0059188D02*
X0118911Y0059188D01*
X0118911Y0058590D02*
X0118500Y0058590D01*
X0118500Y0057991D02*
X0119230Y0057991D01*
X0118670Y0057393D02*
X0119829Y0057393D01*
X0119994Y0056794D02*
X0119269Y0056794D01*
X0119867Y0056196D02*
X0119911Y0056196D01*
X0116855Y0054400D02*
X0110600Y0054400D01*
X0110600Y0054999D02*
X0116256Y0054999D01*
X0115658Y0055597D02*
X0110600Y0055597D01*
X0110600Y0056196D02*
X0115100Y0056196D01*
X0115100Y0056794D02*
X0110600Y0056794D01*
X0110600Y0057393D02*
X0115100Y0057393D01*
X0115100Y0057991D02*
X0110600Y0057991D01*
X0110600Y0058590D02*
X0115100Y0058590D01*
X0115100Y0059188D02*
X0110600Y0059188D01*
X0110600Y0059787D02*
X0115100Y0059787D01*
X0115100Y0060385D02*
X0110600Y0060385D01*
X0110600Y0060984D02*
X0115100Y0060984D01*
X0115100Y0061582D02*
X0110600Y0061582D01*
X0110600Y0062181D02*
X0115100Y0062181D01*
X0115100Y0062779D02*
X0110600Y0062779D01*
X0110600Y0063378D02*
X0115100Y0063378D01*
X0115100Y0063976D02*
X0110600Y0063976D01*
X0110600Y0064575D02*
X0115100Y0064575D01*
X0115100Y0065173D02*
X0110600Y0065173D01*
X0110600Y0065772D02*
X0115100Y0065772D01*
X0115100Y0066370D02*
X0110600Y0066370D01*
X0110600Y0066969D02*
X0115100Y0066969D01*
X0115100Y0067568D02*
X0110600Y0067568D01*
X0110600Y0068166D02*
X0115100Y0068166D01*
X0115100Y0068765D02*
X0110600Y0068765D01*
X0110600Y0069363D02*
X0115100Y0069363D01*
X0115100Y0069962D02*
X0110600Y0069962D01*
X0110600Y0070560D02*
X0115100Y0070560D01*
X0114563Y0071159D02*
X0110600Y0071159D01*
X0110600Y0071757D02*
X0114411Y0071757D01*
X0114411Y0072356D02*
X0110670Y0072356D01*
X0110689Y0072954D02*
X0114411Y0072954D01*
X0114643Y0073553D02*
X0110689Y0073553D01*
X0110689Y0074151D02*
X0114045Y0074151D01*
X0113446Y0074750D02*
X0110293Y0074750D01*
X0109694Y0075348D02*
X0112848Y0075348D01*
X0112249Y0075947D02*
X0108825Y0075947D01*
X0109424Y0076545D02*
X0111651Y0076545D01*
X0111052Y0077144D02*
X0109689Y0077144D01*
X0109689Y0077742D02*
X0110454Y0077742D01*
X0109855Y0078341D02*
X0109689Y0078341D01*
X0107300Y0077800D02*
X0106800Y0078300D01*
X0100805Y0078300D01*
X0100705Y0078200D01*
X0096895Y0078200D01*
X0096795Y0078300D01*
X0075300Y0078300D01*
X0072911Y0078341D02*
X0072245Y0078341D01*
X0072189Y0077742D02*
X0072911Y0077742D01*
X0073078Y0077144D02*
X0072022Y0077144D01*
X0071500Y0076545D02*
X0073676Y0076545D01*
X0074275Y0075947D02*
X0071500Y0075947D01*
X0071500Y0075348D02*
X0106906Y0075348D01*
X0106307Y0074750D02*
X0071500Y0074750D01*
X0071500Y0074151D02*
X0105911Y0074151D01*
X0105911Y0073553D02*
X0071500Y0073553D01*
X0071500Y0072954D02*
X0105911Y0072954D01*
X0105930Y0072356D02*
X0071500Y0072356D01*
X0071500Y0071757D02*
X0106528Y0071757D01*
X0107127Y0071159D02*
X0071500Y0071159D01*
X0071500Y0070560D02*
X0108000Y0070560D01*
X0108000Y0069962D02*
X0071500Y0069962D01*
X0071500Y0069363D02*
X0108000Y0069363D01*
X0108000Y0068765D02*
X0071500Y0068765D01*
X0071500Y0068166D02*
X0108000Y0068166D01*
X0108000Y0067568D02*
X0071500Y0067568D01*
X0071500Y0066969D02*
X0108000Y0066969D01*
X0108000Y0066370D02*
X0071500Y0066370D01*
X0071500Y0065772D02*
X0108000Y0065772D01*
X0108000Y0065173D02*
X0071500Y0065173D01*
X0071500Y0064575D02*
X0108000Y0064575D01*
X0108000Y0063976D02*
X0071500Y0063976D01*
X0071500Y0063378D02*
X0108000Y0063378D01*
X0108000Y0062779D02*
X0071500Y0062779D01*
X0071500Y0062181D02*
X0108000Y0062181D01*
X0108000Y0061582D02*
X0071500Y0061582D01*
X0071500Y0060984D02*
X0108000Y0060984D01*
X0108000Y0060385D02*
X0071500Y0060385D01*
X0071500Y0059787D02*
X0108000Y0059787D01*
X0108000Y0059188D02*
X0071500Y0059188D01*
X0071500Y0058590D02*
X0108000Y0058590D01*
X0108000Y0057991D02*
X0071500Y0057991D01*
X0071500Y0057393D02*
X0108000Y0057393D01*
X0108000Y0056794D02*
X0071500Y0056794D01*
X0071500Y0056196D02*
X0108000Y0056196D01*
X0108000Y0055597D02*
X0071500Y0055597D01*
X0071500Y0054999D02*
X0108000Y0054999D01*
X0108000Y0054400D02*
X0071500Y0054400D01*
X0071500Y0053802D02*
X0107923Y0053802D01*
X0107325Y0053203D02*
X0071107Y0053203D01*
X0070509Y0052605D02*
X0106911Y0052605D01*
X0106911Y0052006D02*
X0069910Y0052006D01*
X0069312Y0051408D02*
X0106911Y0051408D01*
X0106912Y0050809D02*
X0068713Y0050809D01*
X0068115Y0050211D02*
X0107511Y0050211D01*
X0108109Y0049612D02*
X0067516Y0049612D01*
X0066918Y0049014D02*
X0114659Y0049014D01*
X0114563Y0049612D02*
X0110491Y0049612D01*
X0111089Y0050211D02*
X0114563Y0050211D01*
X0114563Y0050809D02*
X0111688Y0050809D01*
X0111689Y0051408D02*
X0116941Y0051408D01*
X0114563Y0052006D02*
X0111689Y0052006D01*
X0111689Y0052605D02*
X0114563Y0052605D01*
X0114563Y0053203D02*
X0111275Y0053203D01*
X0110677Y0053802D02*
X0114783Y0053802D01*
X0115191Y0048415D02*
X0066319Y0048415D01*
X0063905Y0050809D02*
X0029100Y0050809D01*
X0029100Y0050211D02*
X0063307Y0050211D01*
X0062708Y0049612D02*
X0029100Y0049612D01*
X0029100Y0049014D02*
X0062109Y0049014D01*
X0061511Y0048415D02*
X0029100Y0048415D01*
X0029100Y0047817D02*
X0060912Y0047817D01*
X0060314Y0047218D02*
X0029100Y0047218D01*
X0029100Y0046620D02*
X0058741Y0046620D01*
X0058143Y0046021D02*
X0029100Y0046021D01*
X0029100Y0045423D02*
X0057544Y0045423D01*
X0057411Y0044824D02*
X0029100Y0044824D01*
X0029100Y0044226D02*
X0057411Y0044226D01*
X0057411Y0043627D02*
X0029100Y0043627D01*
X0029100Y0043029D02*
X0057693Y0043029D01*
X0058291Y0042430D02*
X0029100Y0042430D01*
X0029100Y0037043D02*
X0064789Y0037043D01*
X0065129Y0037184D02*
X0063816Y0036640D01*
X0062811Y0035635D01*
X0062267Y0034322D01*
X0062267Y0032900D01*
X0062811Y0031587D01*
X0063816Y0030582D01*
X0065129Y0030038D01*
X0066551Y0030038D01*
X0067864Y0030582D01*
X0068869Y0031587D01*
X0069413Y0032900D01*
X0069413Y0034322D01*
X0068869Y0035635D01*
X0067864Y0036640D01*
X0066551Y0037184D01*
X0065129Y0037184D01*
X0063621Y0036445D02*
X0029100Y0036445D01*
X0029100Y0035846D02*
X0063022Y0035846D01*
X0062651Y0035248D02*
X0029100Y0035248D01*
X0029100Y0034649D02*
X0062403Y0034649D01*
X0062267Y0034051D02*
X0029100Y0034051D01*
X0029100Y0033452D02*
X0062267Y0033452D01*
X0062286Y0032854D02*
X0029100Y0032854D01*
X0029100Y0032255D02*
X0062534Y0032255D01*
X0062782Y0031657D02*
X0029100Y0031657D01*
X0029100Y0031058D02*
X0063340Y0031058D01*
X0064111Y0030460D02*
X0029100Y0030460D01*
X0029100Y0051408D02*
X0064504Y0051408D01*
X0065102Y0052006D02*
X0029100Y0052006D01*
X0029100Y0052605D02*
X0065701Y0052605D01*
X0066299Y0053203D02*
X0029100Y0053203D01*
X0029100Y0053802D02*
X0066898Y0053802D01*
X0067496Y0054400D02*
X0029100Y0054400D01*
X0029100Y0054999D02*
X0068095Y0054999D01*
X0068100Y0055597D02*
X0029100Y0055597D01*
X0029100Y0056196D02*
X0068100Y0056196D01*
X0068100Y0056794D02*
X0029100Y0056794D01*
X0029100Y0057393D02*
X0068100Y0057393D01*
X0068100Y0057991D02*
X0029100Y0057991D01*
X0029100Y0058590D02*
X0068100Y0058590D01*
X0068100Y0059188D02*
X0029100Y0059188D01*
X0029100Y0059787D02*
X0068100Y0059787D01*
X0068100Y0060385D02*
X0029100Y0060385D01*
X0029100Y0060984D02*
X0068100Y0060984D01*
X0068100Y0061582D02*
X0029100Y0061582D01*
X0029100Y0062181D02*
X0068100Y0062181D01*
X0068100Y0062779D02*
X0029100Y0062779D01*
X0029100Y0063378D02*
X0068100Y0063378D01*
X0068100Y0063976D02*
X0029100Y0063976D01*
X0029100Y0064575D02*
X0042647Y0064575D01*
X0042810Y0064411D02*
X0044790Y0064411D01*
X0046189Y0065810D01*
X0046189Y0067790D01*
X0045000Y0068979D01*
X0045000Y0077303D01*
X0045858Y0078161D01*
X0047540Y0078161D01*
X0048939Y0079560D01*
X0048939Y0081540D01*
X0047540Y0082939D01*
X0045560Y0082939D01*
X0044161Y0081540D01*
X0044161Y0079858D01*
X0042600Y0078297D01*
X0042600Y0068979D01*
X0041411Y0067790D01*
X0041411Y0065810D01*
X0042810Y0064411D01*
X0042048Y0065173D02*
X0029100Y0065173D01*
X0029100Y0065772D02*
X0041449Y0065772D01*
X0041411Y0066370D02*
X0029100Y0066370D01*
X0029100Y0066969D02*
X0041411Y0066969D01*
X0041411Y0067568D02*
X0029100Y0067568D01*
X0029100Y0068166D02*
X0041788Y0068166D01*
X0042386Y0068765D02*
X0029100Y0068765D01*
X0029100Y0069363D02*
X0042600Y0069363D01*
X0042600Y0069962D02*
X0029100Y0069962D01*
X0029100Y0070560D02*
X0042600Y0070560D01*
X0042600Y0071159D02*
X0029100Y0071159D01*
X0029100Y0071757D02*
X0042600Y0071757D01*
X0042600Y0072356D02*
X0029100Y0072356D01*
X0029100Y0072954D02*
X0042600Y0072954D01*
X0042600Y0073553D02*
X0029100Y0073553D01*
X0029100Y0074151D02*
X0042600Y0074151D01*
X0042600Y0074750D02*
X0039128Y0074750D01*
X0038790Y0074411D02*
X0040189Y0075810D01*
X0040189Y0077790D01*
X0038790Y0079189D01*
X0037600Y0079189D01*
X0037600Y0100721D01*
X0038689Y0101810D01*
X0038689Y0103790D01*
X0037290Y0105189D01*
X0035310Y0105189D01*
X0033911Y0103790D01*
X0033911Y0101810D01*
X0035000Y0100721D01*
X0035000Y0077762D01*
X0035411Y0077350D01*
X0035411Y0075810D01*
X0036810Y0074411D01*
X0038790Y0074411D01*
X0039727Y0075348D02*
X0042600Y0075348D01*
X0042600Y0075947D02*
X0040189Y0075947D01*
X0040189Y0076545D02*
X0042600Y0076545D01*
X0042600Y0077144D02*
X0040189Y0077144D01*
X0040189Y0077742D02*
X0042600Y0077742D01*
X0042644Y0078341D02*
X0039638Y0078341D01*
X0039039Y0078939D02*
X0043242Y0078939D01*
X0043841Y0079538D02*
X0037600Y0079538D01*
X0037600Y0080136D02*
X0044161Y0080136D01*
X0044161Y0080735D02*
X0037600Y0080735D01*
X0037600Y0081333D02*
X0044161Y0081333D01*
X0044553Y0081932D02*
X0037600Y0081932D01*
X0037600Y0082530D02*
X0045152Y0082530D01*
X0046550Y0080550D02*
X0043800Y0077800D01*
X0043800Y0066800D01*
X0045552Y0065173D02*
X0068100Y0065173D01*
X0068100Y0064575D02*
X0044953Y0064575D01*
X0046150Y0065772D02*
X0068100Y0065772D01*
X0068100Y0066370D02*
X0046189Y0066370D01*
X0046189Y0066969D02*
X0068100Y0066969D01*
X0068100Y0067568D02*
X0046189Y0067568D01*
X0045812Y0068166D02*
X0068100Y0068166D01*
X0068100Y0068765D02*
X0045214Y0068765D01*
X0045000Y0069363D02*
X0068100Y0069363D01*
X0068100Y0069962D02*
X0045000Y0069962D01*
X0045000Y0070560D02*
X0068100Y0070560D01*
X0068100Y0071159D02*
X0045000Y0071159D01*
X0045000Y0071757D02*
X0068100Y0071757D01*
X0068100Y0072356D02*
X0045000Y0072356D01*
X0045000Y0072954D02*
X0068100Y0072954D01*
X0068100Y0073553D02*
X0045000Y0073553D01*
X0045000Y0074151D02*
X0068100Y0074151D01*
X0068100Y0074750D02*
X0045000Y0074750D01*
X0045000Y0075348D02*
X0068100Y0075348D01*
X0068100Y0075947D02*
X0045000Y0075947D01*
X0045000Y0076545D02*
X0068100Y0076545D01*
X0067578Y0077144D02*
X0045000Y0077144D01*
X0045439Y0077742D02*
X0067411Y0077742D01*
X0067411Y0078341D02*
X0047719Y0078341D01*
X0048318Y0078939D02*
X0067411Y0078939D01*
X0067659Y0079538D02*
X0048916Y0079538D01*
X0048939Y0080136D02*
X0068258Y0080136D01*
X0069831Y0080735D02*
X0048939Y0080735D01*
X0048939Y0081333D02*
X0070429Y0081333D01*
X0071028Y0081932D02*
X0048547Y0081932D01*
X0047948Y0082530D02*
X0071626Y0082530D01*
X0072225Y0083129D02*
X0037600Y0083129D01*
X0037600Y0083727D02*
X0072823Y0083727D01*
X0073422Y0084326D02*
X0037600Y0084326D01*
X0037600Y0084924D02*
X0094701Y0084924D01*
X0095017Y0085523D02*
X0037600Y0085523D01*
X0037600Y0086121D02*
X0052140Y0086121D01*
X0051542Y0086720D02*
X0037600Y0086720D01*
X0037600Y0087318D02*
X0050943Y0087318D01*
X0050345Y0087917D02*
X0037600Y0087917D01*
X0037600Y0088515D02*
X0049746Y0088515D01*
X0049148Y0089114D02*
X0037600Y0089114D01*
X0037600Y0089712D02*
X0048549Y0089712D01*
X0047951Y0090311D02*
X0037600Y0090311D01*
X0037600Y0090909D02*
X0047352Y0090909D01*
X0046754Y0091508D02*
X0037600Y0091508D01*
X0037600Y0092106D02*
X0046155Y0092106D01*
X0045557Y0092705D02*
X0037600Y0092705D01*
X0037600Y0093303D02*
X0044958Y0093303D01*
X0044360Y0093902D02*
X0037600Y0093902D01*
X0037600Y0094501D02*
X0042221Y0094501D01*
X0041622Y0095099D02*
X0037600Y0095099D01*
X0037600Y0095698D02*
X0041024Y0095698D01*
X0040911Y0096296D02*
X0037600Y0096296D01*
X0037600Y0096895D02*
X0040911Y0096895D01*
X0040911Y0097493D02*
X0037600Y0097493D01*
X0037600Y0098092D02*
X0041213Y0098092D01*
X0041812Y0098690D02*
X0037600Y0098690D01*
X0037600Y0099289D02*
X0045973Y0099289D01*
X0045374Y0099887D02*
X0037600Y0099887D01*
X0037600Y0100486D02*
X0044776Y0100486D01*
X0044177Y0101084D02*
X0037963Y0101084D01*
X0038561Y0101683D02*
X0043579Y0101683D01*
X0042980Y0102281D02*
X0038689Y0102281D01*
X0038689Y0102880D02*
X0042382Y0102880D01*
X0041783Y0103478D02*
X0038689Y0103478D01*
X0038402Y0104077D02*
X0041185Y0104077D01*
X0040586Y0104675D02*
X0037803Y0104675D01*
X0040531Y0105274D02*
X0029100Y0105274D01*
X0029100Y0105872D02*
X0040531Y0105872D01*
X0040531Y0106471D02*
X0029100Y0106471D01*
X0029100Y0107069D02*
X0040531Y0107069D01*
X0040531Y0107668D02*
X0029100Y0107668D01*
X0029100Y0108266D02*
X0040531Y0108266D01*
X0040531Y0108865D02*
X0029100Y0108865D01*
X0029100Y0109463D02*
X0040531Y0109463D01*
X0040531Y0110062D02*
X0029100Y0110062D01*
X0029100Y0110660D02*
X0040531Y0110660D01*
X0040531Y0111259D02*
X0029100Y0111259D01*
X0029100Y0111857D02*
X0040531Y0111857D01*
X0040531Y0112456D02*
X0029100Y0112456D01*
X0029100Y0113054D02*
X0040531Y0113054D01*
X0040147Y0113653D02*
X0029100Y0113653D01*
X0029100Y0114251D02*
X0039750Y0114251D01*
X0039750Y0114850D02*
X0029100Y0114850D01*
X0029100Y0115448D02*
X0039750Y0115448D01*
X0039750Y0116047D02*
X0029100Y0116047D01*
X0029100Y0116645D02*
X0039750Y0116645D01*
X0039750Y0117244D02*
X0029100Y0117244D01*
X0029100Y0117842D02*
X0040042Y0117842D01*
X0041340Y0119039D02*
X0041831Y0119039D01*
X0041643Y0119638D02*
X0041350Y0119638D01*
X0043621Y0117842D02*
X0043979Y0117842D01*
X0044602Y0118441D02*
X0037370Y0118441D01*
X0035622Y0118441D02*
X0035041Y0118441D01*
X0035041Y0119039D02*
X0035622Y0119039D01*
X0035622Y0119638D02*
X0035041Y0119638D01*
X0035041Y0120237D02*
X0035622Y0120237D01*
X0035041Y0120835D02*
X0029100Y0120835D01*
X0029100Y0120237D02*
X0032850Y0120237D01*
X0032850Y0119638D02*
X0029100Y0119638D01*
X0029100Y0119039D02*
X0032907Y0119039D01*
X0033293Y0118441D02*
X0029100Y0118441D01*
X0029100Y0121434D02*
X0032850Y0121434D01*
X0032850Y0122032D02*
X0029100Y0122032D01*
X0029100Y0122631D02*
X0032926Y0122631D01*
X0033371Y0123229D02*
X0029100Y0123229D01*
X0029100Y0123828D02*
X0041643Y0123828D01*
X0041643Y0124426D02*
X0029100Y0124426D01*
X0029100Y0125025D02*
X0041643Y0125025D01*
X0041643Y0125623D02*
X0029100Y0125623D01*
X0029100Y0126222D02*
X0041643Y0126222D01*
X0041643Y0126820D02*
X0029100Y0126820D01*
X0029100Y0127419D02*
X0041643Y0127419D01*
X0041888Y0128017D02*
X0029100Y0128017D01*
X0029100Y0128616D02*
X0063522Y0128616D01*
X0063522Y0129214D02*
X0029100Y0129214D01*
X0029100Y0129813D02*
X0063522Y0129813D01*
X0063522Y0130411D02*
X0029100Y0130411D01*
X0029100Y0131010D02*
X0063522Y0131010D01*
X0063745Y0131608D02*
X0029100Y0131608D01*
X0029100Y0132207D02*
X0063530Y0132207D01*
X0063522Y0132805D02*
X0029100Y0132805D01*
X0029100Y0133404D02*
X0063522Y0133404D01*
X0063522Y0134002D02*
X0029100Y0134002D01*
X0029100Y0134601D02*
X0063522Y0134601D01*
X0063522Y0135199D02*
X0029100Y0135199D01*
X0029100Y0135798D02*
X0063997Y0135798D01*
X0065058Y0136396D02*
X0029100Y0136396D01*
X0029100Y0136995D02*
X0065656Y0136995D01*
X0066255Y0137593D02*
X0029100Y0137593D01*
X0029100Y0138192D02*
X0072000Y0138192D01*
X0072000Y0138790D02*
X0029100Y0138790D01*
X0029100Y0139389D02*
X0072000Y0139389D01*
X0072000Y0139987D02*
X0069035Y0139987D01*
X0069343Y0140586D02*
X0072000Y0140586D01*
X0072000Y0141184D02*
X0069372Y0141184D01*
X0069372Y0141783D02*
X0072000Y0141783D01*
X0072000Y0142381D02*
X0066600Y0142381D01*
X0066600Y0141783D02*
X0066000Y0141783D01*
X0066000Y0142381D02*
X0062957Y0142381D01*
X0062957Y0142980D02*
X0063228Y0142980D01*
X0063228Y0143578D02*
X0062957Y0143578D01*
X0062957Y0144177D02*
X0063349Y0144177D01*
X0062957Y0144775D02*
X0063932Y0144775D01*
X0066000Y0144775D02*
X0066600Y0144775D01*
X0066600Y0144177D02*
X0066000Y0144177D01*
X0066000Y0143578D02*
X0066600Y0143578D01*
X0066600Y0142980D02*
X0066000Y0142980D01*
X0066000Y0141184D02*
X0066600Y0141184D01*
X0066600Y0140586D02*
X0066000Y0140586D01*
X0066000Y0139987D02*
X0066600Y0139987D01*
X0063565Y0139987D02*
X0029100Y0139987D01*
X0029100Y0140586D02*
X0063257Y0140586D01*
X0063228Y0141184D02*
X0047525Y0141184D01*
X0046002Y0141184D02*
X0045802Y0141184D01*
X0045802Y0141783D02*
X0046002Y0141783D01*
X0046002Y0142381D02*
X0045802Y0142381D01*
X0045802Y0142980D02*
X0046002Y0142980D01*
X0046002Y0143578D02*
X0045802Y0143578D01*
X0045802Y0144177D02*
X0046002Y0144177D01*
X0046002Y0144775D02*
X0045802Y0144775D01*
X0045802Y0145374D02*
X0046002Y0145374D01*
X0046002Y0145972D02*
X0045802Y0145972D01*
X0043443Y0145972D02*
X0043243Y0145972D01*
X0043243Y0145374D02*
X0043443Y0145374D01*
X0043443Y0144775D02*
X0043243Y0144775D01*
X0043243Y0144177D02*
X0043443Y0144177D01*
X0043443Y0143578D02*
X0043243Y0143578D01*
X0043243Y0142980D02*
X0043443Y0142980D01*
X0043443Y0142381D02*
X0043243Y0142381D01*
X0043243Y0141783D02*
X0043443Y0141783D01*
X0043443Y0141184D02*
X0043243Y0141184D01*
X0041720Y0141184D02*
X0029100Y0141184D01*
X0029100Y0141783D02*
X0041309Y0141783D01*
X0041243Y0142381D02*
X0033270Y0142381D01*
X0034644Y0142980D02*
X0041243Y0142980D01*
X0041243Y0143578D02*
X0035242Y0143578D01*
X0035778Y0144177D02*
X0041243Y0144177D01*
X0041243Y0144775D02*
X0036026Y0144775D01*
X0036274Y0145374D02*
X0041243Y0145374D01*
X0041243Y0145972D02*
X0036350Y0145972D01*
X0036350Y0146571D02*
X0041243Y0146571D01*
X0041243Y0147170D02*
X0036349Y0147170D01*
X0036101Y0147768D02*
X0041243Y0147768D01*
X0041243Y0148367D02*
X0035853Y0148367D01*
X0035425Y0148965D02*
X0041243Y0148965D01*
X0041243Y0149564D02*
X0034826Y0149564D01*
X0033710Y0150162D02*
X0041243Y0150162D01*
X0041481Y0150761D02*
X0029100Y0150761D01*
X0029100Y0151359D02*
X0041539Y0151359D01*
X0041023Y0151958D02*
X0029100Y0151958D01*
X0029100Y0152556D02*
X0040775Y0152556D01*
X0040538Y0153155D02*
X0029100Y0153155D01*
X0029100Y0153753D02*
X0040538Y0153753D01*
X0040538Y0154352D02*
X0029100Y0154352D01*
X0029100Y0154950D02*
X0040703Y0154950D01*
X0040951Y0155549D02*
X0029100Y0155549D01*
X0029100Y0156147D02*
X0041365Y0156147D01*
X0041963Y0156746D02*
X0029100Y0156746D01*
X0029100Y0157344D02*
X0043233Y0157344D01*
X0044989Y0157344D02*
X0047161Y0157344D01*
X0047161Y0156746D02*
X0046259Y0156746D01*
X0046857Y0156147D02*
X0047161Y0156147D01*
X0047161Y0157943D02*
X0029100Y0157943D01*
X0029100Y0158541D02*
X0047161Y0158541D01*
X0047161Y0159140D02*
X0029100Y0159140D01*
X0029100Y0159738D02*
X0047161Y0159738D01*
X0047161Y0160337D02*
X0029100Y0160337D01*
X0029100Y0160935D02*
X0047161Y0160935D01*
X0047161Y0161534D02*
X0029100Y0161534D01*
X0029100Y0162132D02*
X0047161Y0162132D01*
X0047161Y0162731D02*
X0029100Y0162731D01*
X0029100Y0163329D02*
X0047161Y0163329D01*
X0047161Y0163928D02*
X0029100Y0163928D01*
X0029100Y0164526D02*
X0047161Y0164526D01*
X0047161Y0165125D02*
X0029100Y0165125D01*
X0029100Y0165723D02*
X0047161Y0165723D01*
X0047161Y0166322D02*
X0029100Y0166322D01*
X0029100Y0166920D02*
X0047161Y0166920D01*
X0047161Y0167519D02*
X0029100Y0167519D01*
X0029100Y0168117D02*
X0047161Y0168117D01*
X0047161Y0168716D02*
X0046100Y0168716D01*
X0046719Y0169314D02*
X0047161Y0169314D01*
X0047161Y0174103D02*
X0046822Y0174103D01*
X0047161Y0174701D02*
X0046223Y0174701D01*
X0046962Y0175300D02*
X0044903Y0175300D01*
X0045765Y0176497D02*
X0035287Y0176497D01*
X0035796Y0177095D02*
X0042666Y0177095D01*
X0042068Y0177694D02*
X0036044Y0177694D01*
X0036292Y0178292D02*
X0039929Y0178292D01*
X0039331Y0178891D02*
X0036350Y0178891D01*
X0036350Y0179489D02*
X0038911Y0179489D01*
X0038911Y0180088D02*
X0036331Y0180088D01*
X0036083Y0180686D02*
X0038911Y0180686D01*
X0038911Y0181285D02*
X0035835Y0181285D01*
X0035381Y0181883D02*
X0039505Y0181883D01*
X0040103Y0182482D02*
X0034782Y0182482D01*
X0033604Y0183080D02*
X0044213Y0183080D01*
X0043614Y0182482D02*
X0042497Y0182482D01*
X0046387Y0183080D02*
X0051650Y0183080D01*
X0052103Y0182482D02*
X0050506Y0182482D01*
X0051104Y0181883D02*
X0051505Y0181883D01*
X0051051Y0183679D02*
X0029100Y0183679D01*
X0029100Y0184277D02*
X0050453Y0184277D01*
X0049854Y0184876D02*
X0029100Y0184876D01*
X0029100Y0185474D02*
X0049256Y0185474D01*
X0048657Y0186073D02*
X0029100Y0186073D01*
X0029100Y0186671D02*
X0048059Y0186671D01*
X0047460Y0187270D02*
X0029100Y0187270D01*
X0029100Y0187868D02*
X0046862Y0187868D01*
X0046263Y0188467D02*
X0029100Y0188467D01*
X0029100Y0189065D02*
X0045665Y0189065D01*
X0045066Y0189664D02*
X0029100Y0189664D01*
X0029100Y0190262D02*
X0044468Y0190262D01*
X0043869Y0190861D02*
X0029100Y0190861D01*
X0029100Y0191459D02*
X0043271Y0191459D01*
X0042672Y0192058D02*
X0029100Y0192058D01*
X0029100Y0192656D02*
X0042074Y0192656D01*
X0041475Y0193255D02*
X0029100Y0193255D01*
X0029100Y0193853D02*
X0040877Y0193853D01*
X0040611Y0194452D02*
X0029100Y0194452D01*
X0029100Y0195050D02*
X0040611Y0195050D01*
X0040611Y0195649D02*
X0029100Y0195649D01*
X0029100Y0196247D02*
X0040611Y0196247D01*
X0040611Y0196846D02*
X0029100Y0196846D01*
X0029100Y0197444D02*
X0040611Y0197444D01*
X0040611Y0198043D02*
X0029100Y0198043D01*
X0029100Y0198641D02*
X0040611Y0198641D01*
X0040611Y0199240D02*
X0029100Y0199240D01*
X0029100Y0199839D02*
X0041000Y0199839D01*
X0041599Y0200437D02*
X0029100Y0200437D01*
X0029100Y0201036D02*
X0042197Y0201036D01*
X0042796Y0201634D02*
X0029100Y0201634D01*
X0029100Y0202233D02*
X0042911Y0202233D01*
X0042911Y0202831D02*
X0041675Y0202831D01*
X0041551Y0202707D02*
X0042078Y0203234D01*
X0042078Y0207917D01*
X0041687Y0208308D01*
X0042189Y0208810D01*
X0042189Y0210790D01*
X0040790Y0212189D01*
X0038810Y0212189D01*
X0037411Y0210790D01*
X0037411Y0208810D01*
X0037913Y0208308D01*
X0037522Y0207917D01*
X0037522Y0203234D01*
X0038049Y0202707D01*
X0041551Y0202707D01*
X0042078Y0203430D02*
X0043051Y0203430D01*
X0043650Y0204028D02*
X0042078Y0204028D01*
X0042078Y0204627D02*
X0044248Y0204627D01*
X0046352Y0204627D02*
X0047850Y0204627D01*
X0047850Y0205225D02*
X0042078Y0205225D01*
X0042078Y0205824D02*
X0046949Y0205824D01*
X0046076Y0206422D02*
X0042078Y0206422D01*
X0042078Y0207021D02*
X0045882Y0207021D01*
X0045882Y0207619D02*
X0042078Y0207619D01*
X0041777Y0208218D02*
X0045882Y0208218D01*
X0045882Y0209415D02*
X0042189Y0209415D01*
X0042189Y0210013D02*
X0045882Y0210013D01*
X0045882Y0210612D02*
X0042189Y0210612D01*
X0041768Y0211210D02*
X0045882Y0211210D01*
X0046122Y0211809D02*
X0045286Y0211809D01*
X0046045Y0212407D02*
X0046911Y0212407D01*
X0046911Y0213006D02*
X0046218Y0213006D01*
X0046218Y0213604D02*
X0046911Y0213604D01*
X0046911Y0214203D02*
X0046218Y0214203D01*
X0046218Y0215400D02*
X0047974Y0215400D01*
X0047376Y0214801D02*
X0043840Y0214801D01*
X0043840Y0214203D02*
X0043240Y0214203D01*
X0043240Y0214801D02*
X0038338Y0214801D01*
X0038338Y0214203D02*
X0040862Y0214203D01*
X0040862Y0213604D02*
X0038338Y0213604D01*
X0038338Y0213006D02*
X0040862Y0213006D01*
X0041036Y0212407D02*
X0038062Y0212407D01*
X0038430Y0211809D02*
X0029100Y0211809D01*
X0029100Y0212407D02*
X0034058Y0212407D01*
X0033782Y0213006D02*
X0029100Y0213006D01*
X0029100Y0213604D02*
X0033782Y0213604D01*
X0033782Y0214203D02*
X0029100Y0214203D01*
X0029133Y0214801D02*
X0033782Y0214801D01*
X0033782Y0215400D02*
X0029178Y0215400D01*
X0029338Y0215998D02*
X0033782Y0215998D01*
X0033782Y0216597D02*
X0029499Y0216597D01*
X0029659Y0217195D02*
X0033782Y0217195D01*
X0034210Y0217794D02*
X0029930Y0217794D01*
X0030275Y0218392D02*
X0034760Y0218392D01*
X0035184Y0218991D02*
X0030621Y0218991D01*
X0031092Y0219589D02*
X0035750Y0219589D01*
X0035750Y0220188D02*
X0031691Y0220188D01*
X0032289Y0220786D02*
X0035750Y0220786D01*
X0035750Y0221385D02*
X0033312Y0221385D01*
X0034564Y0221983D02*
X0036183Y0221983D01*
X0038338Y0217195D02*
X0040143Y0217195D01*
X0040862Y0216597D02*
X0038338Y0216597D01*
X0038338Y0215998D02*
X0040862Y0215998D01*
X0040862Y0215400D02*
X0038338Y0215400D01*
X0037832Y0211210D02*
X0029100Y0211210D01*
X0029100Y0210612D02*
X0037411Y0210612D01*
X0037411Y0210013D02*
X0029100Y0210013D01*
X0029100Y0209415D02*
X0037411Y0209415D01*
X0037411Y0208816D02*
X0029100Y0208816D01*
X0029100Y0208218D02*
X0037823Y0208218D01*
X0037522Y0207619D02*
X0029100Y0207619D01*
X0029100Y0207021D02*
X0037522Y0207021D01*
X0037522Y0206422D02*
X0029100Y0206422D01*
X0029100Y0205824D02*
X0037522Y0205824D01*
X0037522Y0205225D02*
X0029100Y0205225D01*
X0029100Y0204627D02*
X0037522Y0204627D01*
X0037522Y0204028D02*
X0029100Y0204028D01*
X0029100Y0203430D02*
X0037522Y0203430D01*
X0037925Y0202831D02*
X0029100Y0202831D01*
X0042189Y0208816D02*
X0048260Y0208816D01*
X0048260Y0209415D02*
X0048860Y0209415D01*
X0048860Y0209376D02*
X0051238Y0209376D01*
X0051238Y0211215D01*
X0051149Y0211546D01*
X0051050Y0211718D01*
X0051689Y0212358D01*
X0051689Y0213898D01*
X0052838Y0215047D01*
X0053447Y0215656D01*
X0054051Y0215656D01*
X0054578Y0216183D01*
X0054578Y0220866D01*
X0054566Y0220878D01*
X0065782Y0220878D01*
X0065782Y0216683D01*
X0066000Y0216465D01*
X0066000Y0213944D01*
X0065551Y0214393D01*
X0062049Y0214393D01*
X0061522Y0213866D01*
X0061522Y0212824D01*
X0060986Y0212824D01*
X0060350Y0212189D01*
X0058810Y0212189D01*
X0058178Y0211557D01*
X0057791Y0211944D01*
X0054289Y0211944D01*
X0053762Y0211417D01*
X0053762Y0206734D01*
X0053919Y0206578D01*
X0052715Y0206578D01*
X0052575Y0206438D01*
X0052553Y0206476D01*
X0052311Y0206718D01*
X0052014Y0206889D01*
X0051684Y0206978D01*
X0051238Y0206978D01*
X0051238Y0208776D01*
X0048860Y0208776D01*
X0048860Y0209376D01*
X0048860Y0208816D02*
X0053762Y0208816D01*
X0053762Y0208218D02*
X0051238Y0208218D01*
X0051238Y0207619D02*
X0053762Y0207619D01*
X0053762Y0207021D02*
X0051238Y0207021D01*
X0051238Y0209415D02*
X0053762Y0209415D01*
X0053762Y0210013D02*
X0051238Y0210013D01*
X0051238Y0210612D02*
X0053762Y0210612D01*
X0053762Y0211210D02*
X0051238Y0211210D01*
X0051140Y0211809D02*
X0054154Y0211809D01*
X0051689Y0212407D02*
X0060569Y0212407D01*
X0061522Y0213006D02*
X0051689Y0213006D01*
X0051689Y0213604D02*
X0061522Y0213604D01*
X0061859Y0214203D02*
X0051994Y0214203D01*
X0052593Y0214801D02*
X0066000Y0214801D01*
X0066000Y0214203D02*
X0065741Y0214203D01*
X0066000Y0215400D02*
X0053191Y0215400D01*
X0052838Y0215047D02*
X0052838Y0215047D01*
X0054393Y0215998D02*
X0066000Y0215998D01*
X0065868Y0216597D02*
X0054578Y0216597D01*
X0054578Y0217195D02*
X0065782Y0217195D01*
X0065782Y0217794D02*
X0054578Y0217794D01*
X0054578Y0218392D02*
X0065782Y0218392D01*
X0065782Y0218991D02*
X0054578Y0218991D01*
X0054578Y0219589D02*
X0065782Y0219589D01*
X0065782Y0220188D02*
X0054578Y0220188D01*
X0054578Y0220786D02*
X0065782Y0220786D01*
X0070338Y0220786D02*
X0072862Y0220786D01*
X0072862Y0220878D02*
X0072862Y0219324D01*
X0075240Y0219324D01*
X0075240Y0218724D01*
X0075840Y0218724D01*
X0075840Y0215756D01*
X0077089Y0215756D01*
X0077420Y0215845D01*
X0077716Y0216016D01*
X0077958Y0216258D01*
X0078130Y0216554D01*
X0078218Y0216885D01*
X0078218Y0218724D01*
X0075840Y0218724D01*
X0075840Y0219324D01*
X0078218Y0219324D01*
X0078218Y0220878D01*
X0084522Y0220878D01*
X0084522Y0218585D01*
X0080584Y0214647D01*
X0079879Y0214647D01*
X0078790Y0215736D01*
X0076810Y0215736D01*
X0075411Y0214337D01*
X0075411Y0212358D01*
X0076810Y0210958D01*
X0078790Y0210958D01*
X0079879Y0212047D01*
X0080471Y0212047D01*
X0080470Y0212046D01*
X0080382Y0211715D01*
X0080382Y0209978D01*
X0079559Y0209978D01*
X0079559Y0207591D01*
X0078978Y0207591D01*
X0078978Y0209978D01*
X0077916Y0209978D01*
X0077586Y0209889D01*
X0077289Y0209718D01*
X0077047Y0209476D01*
X0077025Y0209438D01*
X0076885Y0209578D01*
X0074078Y0209578D01*
X0074078Y0211917D01*
X0073551Y0212444D01*
X0072534Y0212444D01*
X0071290Y0213689D01*
X0069310Y0213689D01*
X0068600Y0212978D01*
X0068600Y0216156D01*
X0069811Y0216156D01*
X0070338Y0216683D01*
X0070338Y0220878D01*
X0072862Y0220878D01*
X0072862Y0220188D02*
X0070338Y0220188D01*
X0070338Y0219589D02*
X0072862Y0219589D01*
X0072862Y0218724D02*
X0072862Y0216885D01*
X0072951Y0216554D01*
X0073122Y0216258D01*
X0073364Y0216016D01*
X0073660Y0215845D01*
X0073991Y0215756D01*
X0075240Y0215756D01*
X0075240Y0218724D01*
X0072862Y0218724D01*
X0072862Y0218392D02*
X0070338Y0218392D01*
X0070338Y0217794D02*
X0072862Y0217794D01*
X0072862Y0217195D02*
X0070338Y0217195D01*
X0070252Y0216597D02*
X0072939Y0216597D01*
X0073394Y0215998D02*
X0068600Y0215998D01*
X0068600Y0215400D02*
X0076474Y0215400D01*
X0075876Y0214801D02*
X0068600Y0214801D01*
X0068600Y0214203D02*
X0075411Y0214203D01*
X0075411Y0213604D02*
X0071374Y0213604D01*
X0071973Y0213006D02*
X0075411Y0213006D01*
X0075411Y0212407D02*
X0073588Y0212407D01*
X0074078Y0211809D02*
X0075960Y0211809D01*
X0076558Y0211210D02*
X0074078Y0211210D01*
X0074078Y0210612D02*
X0080382Y0210612D01*
X0080382Y0211210D02*
X0079041Y0211210D01*
X0079640Y0211809D02*
X0080407Y0211809D01*
X0080382Y0210013D02*
X0074078Y0210013D01*
X0078978Y0209415D02*
X0079559Y0209415D01*
X0079559Y0208816D02*
X0078978Y0208816D01*
X0078978Y0208218D02*
X0079559Y0208218D01*
X0079559Y0207619D02*
X0078978Y0207619D01*
X0080975Y0209876D02*
X0082760Y0209876D01*
X0082760Y0212844D01*
X0082458Y0212844D01*
X0085770Y0216156D01*
X0088551Y0216156D01*
X0089078Y0216683D01*
X0089078Y0220878D01*
X0092884Y0220878D01*
X0096411Y0217350D01*
X0096411Y0215810D01*
X0097329Y0214893D01*
X0096549Y0214893D01*
X0096022Y0214366D01*
X0096022Y0213956D01*
X0095790Y0214189D01*
X0093810Y0214189D01*
X0092411Y0212790D01*
X0092411Y0212324D01*
X0092291Y0212444D01*
X0088789Y0212444D01*
X0088262Y0211917D01*
X0088262Y0209136D01*
X0087469Y0208342D01*
X0087469Y0207578D01*
X0087215Y0207578D01*
X0087075Y0207438D01*
X0087053Y0207476D01*
X0086811Y0207718D01*
X0086514Y0207889D01*
X0086184Y0207978D01*
X0085738Y0207978D01*
X0085738Y0209276D01*
X0083360Y0209276D01*
X0083360Y0209876D01*
X0082760Y0209876D01*
X0082760Y0209276D01*
X0081606Y0209276D01*
X0081490Y0209476D01*
X0081248Y0209718D01*
X0080975Y0209876D01*
X0081525Y0209415D02*
X0082760Y0209415D01*
X0082760Y0210013D02*
X0083360Y0210013D01*
X0083360Y0209876D02*
X0083360Y0212844D01*
X0084609Y0212844D01*
X0084940Y0212755D01*
X0085236Y0212584D01*
X0085478Y0212342D01*
X0085649Y0212046D01*
X0085738Y0211715D01*
X0085738Y0209876D01*
X0083360Y0209876D01*
X0083360Y0209415D02*
X0088262Y0209415D01*
X0088262Y0210013D02*
X0085738Y0210013D01*
X0085738Y0210612D02*
X0088262Y0210612D01*
X0088262Y0211210D02*
X0085738Y0211210D01*
X0085713Y0211809D02*
X0088262Y0211809D01*
X0088753Y0212407D02*
X0085413Y0212407D01*
X0083360Y0212407D02*
X0082760Y0212407D01*
X0082760Y0211809D02*
X0083360Y0211809D01*
X0083360Y0211210D02*
X0082760Y0211210D01*
X0082760Y0210612D02*
X0083360Y0210612D01*
X0082620Y0213006D02*
X0092627Y0213006D01*
X0092411Y0212407D02*
X0092328Y0212407D01*
X0093226Y0213604D02*
X0083218Y0213604D01*
X0083817Y0214203D02*
X0096022Y0214203D01*
X0096458Y0214801D02*
X0084415Y0214801D01*
X0085014Y0215400D02*
X0096822Y0215400D01*
X0096411Y0215998D02*
X0085612Y0215998D01*
X0083731Y0217794D02*
X0078218Y0217794D01*
X0078218Y0218392D02*
X0084329Y0218392D01*
X0084522Y0218991D02*
X0075840Y0218991D01*
X0075840Y0218392D02*
X0075240Y0218392D01*
X0075240Y0217794D02*
X0075840Y0217794D01*
X0075840Y0217195D02*
X0075240Y0217195D01*
X0075240Y0216597D02*
X0075840Y0216597D01*
X0075840Y0215998D02*
X0075240Y0215998D01*
X0077686Y0215998D02*
X0081935Y0215998D01*
X0081337Y0215400D02*
X0079126Y0215400D01*
X0079724Y0214801D02*
X0080738Y0214801D01*
X0082534Y0216597D02*
X0078141Y0216597D01*
X0078218Y0217195D02*
X0083132Y0217195D01*
X0084522Y0219589D02*
X0078218Y0219589D01*
X0078218Y0220188D02*
X0084522Y0220188D01*
X0084522Y0220786D02*
X0078218Y0220786D01*
X0075240Y0218991D02*
X0070338Y0218991D01*
X0069226Y0213604D02*
X0068600Y0213604D01*
X0068600Y0213006D02*
X0068627Y0213006D01*
X0066000Y0209105D02*
X0066000Y0208762D01*
X0066762Y0208000D01*
X0070262Y0204500D01*
X0073221Y0204500D01*
X0074310Y0203411D01*
X0076290Y0203411D01*
X0077588Y0204710D01*
X0077911Y0204623D01*
X0077911Y0202810D01*
X0078085Y0202636D01*
X0075446Y0199997D01*
X0075392Y0200051D01*
X0074631Y0200813D01*
X0074594Y0200813D01*
X0074578Y0200829D01*
X0074578Y0202822D01*
X0074051Y0203350D01*
X0070549Y0203350D01*
X0070022Y0202822D01*
X0070022Y0202568D01*
X0069818Y0202568D01*
X0069818Y0204417D01*
X0069291Y0204944D01*
X0065789Y0204944D01*
X0065262Y0204417D01*
X0065262Y0199734D01*
X0065789Y0199207D01*
X0069291Y0199207D01*
X0069818Y0199734D01*
X0069818Y0199969D01*
X0070022Y0199969D01*
X0070022Y0199715D01*
X0070162Y0199575D01*
X0070124Y0199553D01*
X0069882Y0199311D01*
X0069711Y0199014D01*
X0069622Y0198684D01*
X0069622Y0197622D01*
X0072009Y0197622D01*
X0072009Y0197041D01*
X0069622Y0197041D01*
X0069622Y0195979D01*
X0069711Y0195649D01*
X0060269Y0195649D01*
X0059671Y0196247D02*
X0069622Y0196247D01*
X0069622Y0196846D02*
X0059072Y0196846D01*
X0058474Y0197444D02*
X0072009Y0197444D01*
X0072009Y0197041D02*
X0072591Y0197041D01*
X0072591Y0195487D01*
X0072500Y0195397D01*
X0072500Y0193100D01*
X0062818Y0193100D01*
X0056648Y0199270D01*
X0057382Y0200003D01*
X0057382Y0199936D01*
X0057470Y0199605D01*
X0057642Y0199309D01*
X0057884Y0199067D01*
X0058180Y0198896D01*
X0058511Y0198807D01*
X0059760Y0198807D01*
X0059760Y0201776D01*
X0060360Y0201776D01*
X0060360Y0202376D01*
X0059760Y0202376D01*
X0059760Y0205344D01*
X0058511Y0205344D01*
X0058180Y0205255D01*
X0057884Y0205084D01*
X0057642Y0204842D01*
X0057470Y0204546D01*
X0057382Y0204215D01*
X0057382Y0202597D01*
X0056350Y0203629D01*
X0056350Y0204543D01*
X0056579Y0204772D01*
X0057340Y0205533D01*
X0057340Y0206207D01*
X0057791Y0206207D01*
X0058318Y0206734D01*
X0058318Y0207903D01*
X0058810Y0207411D01*
X0060790Y0207411D01*
X0062042Y0208663D01*
X0062049Y0208656D01*
X0065551Y0208656D01*
X0066000Y0209105D01*
X0066000Y0208816D02*
X0065711Y0208816D01*
X0066544Y0208218D02*
X0061596Y0208218D01*
X0060998Y0207619D02*
X0067142Y0207619D01*
X0067741Y0207021D02*
X0058318Y0207021D01*
X0058318Y0207619D02*
X0058602Y0207619D01*
X0058006Y0206422D02*
X0068339Y0206422D01*
X0068938Y0205824D02*
X0057340Y0205824D01*
X0057032Y0205225D02*
X0058127Y0205225D01*
X0057517Y0204627D02*
X0056434Y0204627D01*
X0056350Y0204028D02*
X0057382Y0204028D01*
X0057382Y0203430D02*
X0056549Y0203430D01*
X0057147Y0202831D02*
X0057382Y0202831D01*
X0059760Y0202831D02*
X0060360Y0202831D01*
X0060360Y0202376D02*
X0060360Y0205344D01*
X0061609Y0205344D01*
X0061940Y0205255D01*
X0062236Y0205084D01*
X0062478Y0204842D01*
X0062649Y0204546D01*
X0062738Y0204215D01*
X0062738Y0202376D01*
X0060360Y0202376D01*
X0060360Y0202233D02*
X0065262Y0202233D01*
X0065262Y0202831D02*
X0062738Y0202831D01*
X0062738Y0203430D02*
X0065262Y0203430D01*
X0065262Y0204028D02*
X0062738Y0204028D01*
X0062603Y0204627D02*
X0065472Y0204627D01*
X0065262Y0201634D02*
X0062738Y0201634D01*
X0062738Y0201776D02*
X0060360Y0201776D01*
X0060360Y0198807D01*
X0061609Y0198807D01*
X0061940Y0198896D01*
X0062236Y0199067D01*
X0062478Y0199309D01*
X0062649Y0199605D01*
X0062738Y0199936D01*
X0062738Y0201776D01*
X0062738Y0201036D02*
X0065262Y0201036D01*
X0065262Y0200437D02*
X0062738Y0200437D01*
X0062712Y0199839D02*
X0065262Y0199839D01*
X0065756Y0199240D02*
X0062409Y0199240D01*
X0060360Y0199240D02*
X0059760Y0199240D01*
X0059760Y0199839D02*
X0060360Y0199839D01*
X0060360Y0200437D02*
X0059760Y0200437D01*
X0059760Y0201036D02*
X0060360Y0201036D01*
X0060360Y0201634D02*
X0059760Y0201634D01*
X0059760Y0203430D02*
X0060360Y0203430D01*
X0060360Y0204028D02*
X0059760Y0204028D01*
X0059760Y0204627D02*
X0060360Y0204627D01*
X0060360Y0205225D02*
X0059760Y0205225D01*
X0061992Y0205225D02*
X0069536Y0205225D01*
X0069608Y0204627D02*
X0070135Y0204627D01*
X0069818Y0204028D02*
X0073693Y0204028D01*
X0074292Y0203430D02*
X0069818Y0203430D01*
X0069818Y0202831D02*
X0070031Y0202831D01*
X0070022Y0199839D02*
X0069818Y0199839D01*
X0069841Y0199240D02*
X0069324Y0199240D01*
X0069622Y0198641D02*
X0057277Y0198641D01*
X0057710Y0199240D02*
X0056678Y0199240D01*
X0057217Y0199839D02*
X0057408Y0199839D01*
X0057875Y0198043D02*
X0069622Y0198043D01*
X0069711Y0195649D02*
X0069882Y0195352D01*
X0070124Y0195110D01*
X0070420Y0194939D01*
X0070751Y0194850D01*
X0072009Y0194850D01*
X0072009Y0197041D01*
X0072009Y0196846D02*
X0072591Y0196846D01*
X0072591Y0196247D02*
X0072009Y0196247D01*
X0072009Y0195649D02*
X0072591Y0195649D01*
X0072500Y0195050D02*
X0072009Y0195050D01*
X0072500Y0194452D02*
X0061466Y0194452D01*
X0060868Y0195050D02*
X0070227Y0195050D01*
X0072500Y0193853D02*
X0062065Y0193853D01*
X0062663Y0193255D02*
X0072500Y0193255D01*
X0075006Y0200437D02*
X0075886Y0200437D01*
X0076484Y0201036D02*
X0074578Y0201036D01*
X0074578Y0201634D02*
X0077083Y0201634D01*
X0077681Y0202233D02*
X0074578Y0202233D01*
X0074569Y0202831D02*
X0077911Y0202831D01*
X0077911Y0203430D02*
X0076308Y0203430D01*
X0076907Y0204028D02*
X0077911Y0204028D01*
X0077899Y0204627D02*
X0077505Y0204627D01*
X0080537Y0201411D02*
X0081290Y0201411D01*
X0082689Y0202810D01*
X0082689Y0203045D01*
X0082852Y0202882D01*
X0083149Y0202711D01*
X0083479Y0202622D01*
X0084541Y0202622D01*
X0084541Y0205009D01*
X0085122Y0205009D01*
X0085122Y0202622D01*
X0086184Y0202622D01*
X0086514Y0202711D01*
X0086811Y0202882D01*
X0087053Y0203124D01*
X0087075Y0203162D01*
X0087215Y0203022D01*
X0090322Y0203022D01*
X0090850Y0203549D01*
X0090850Y0206707D01*
X0091570Y0206707D01*
X0092580Y0205698D01*
X0092384Y0205584D01*
X0092142Y0205342D01*
X0091970Y0205046D01*
X0091882Y0204715D01*
X0091882Y0202876D01*
X0094260Y0202876D01*
X0094260Y0202276D01*
X0091882Y0202276D01*
X0091882Y0200436D01*
X0091970Y0200105D01*
X0092142Y0199809D01*
X0092384Y0199567D01*
X0092680Y0199396D01*
X0093011Y0199307D01*
X0094260Y0199307D01*
X0094260Y0202276D01*
X0094860Y0202276D01*
X0094860Y0202876D01*
X0097238Y0202876D01*
X0097238Y0204244D01*
X0099762Y0204244D01*
X0099762Y0200234D01*
X0100289Y0199707D01*
X0101523Y0199707D01*
X0103522Y0197708D01*
X0103522Y0197361D01*
X0099012Y0192850D01*
X0095088Y0192850D01*
X0088472Y0199466D01*
X0081052Y0199466D01*
X0079963Y0200555D01*
X0079681Y0200555D01*
X0080537Y0201411D01*
X0080161Y0201036D02*
X0091882Y0201036D01*
X0091882Y0201634D02*
X0081513Y0201634D01*
X0082111Y0202233D02*
X0091882Y0202233D01*
X0091882Y0203430D02*
X0090730Y0203430D01*
X0090850Y0204028D02*
X0091882Y0204028D01*
X0091882Y0204627D02*
X0090850Y0204627D01*
X0090850Y0205225D02*
X0092074Y0205225D01*
X0092454Y0205824D02*
X0090850Y0205824D01*
X0090850Y0206422D02*
X0091855Y0206422D01*
X0093737Y0208218D02*
X0233000Y0208218D01*
X0233000Y0208816D02*
X0093138Y0208816D01*
X0092818Y0209136D02*
X0092818Y0210403D01*
X0093810Y0209411D01*
X0095790Y0209411D01*
X0096042Y0209663D01*
X0096549Y0209156D01*
X0100051Y0209156D01*
X0100578Y0209683D01*
X0100578Y0214366D01*
X0100161Y0214783D01*
X0101189Y0215810D01*
X0101189Y0217790D01*
X0099790Y0219189D01*
X0098249Y0219189D01*
X0094938Y0222500D01*
X0224800Y0222500D01*
X0225870Y0222430D01*
X0227938Y0221876D01*
X0229792Y0220805D01*
X0231305Y0219292D01*
X0232376Y0217438D01*
X0232930Y0215370D01*
X0233000Y0214300D01*
X0233000Y0122258D01*
X0232971Y0122265D01*
X0226998Y0122265D01*
X0226998Y0119100D01*
X0226398Y0119100D01*
X0226398Y0122265D01*
X0220424Y0122265D01*
X0220093Y0122177D01*
X0219797Y0122006D01*
X0219657Y0121865D01*
X0219041Y0121865D01*
X0219041Y0126128D01*
X0219492Y0126128D01*
X0220019Y0126656D01*
X0220019Y0130944D01*
X0219492Y0131472D01*
X0219100Y0131472D01*
X0219100Y0131838D01*
X0218338Y0132600D01*
X0216338Y0134600D01*
X0200262Y0134600D01*
X0199500Y0133838D01*
X0196522Y0130860D01*
X0106639Y0130860D01*
X0105550Y0131949D01*
X0103571Y0131949D01*
X0102171Y0130550D01*
X0102171Y0128571D01*
X0103571Y0127171D01*
X0105550Y0127171D01*
X0106639Y0128260D01*
X0108882Y0128260D01*
X0107661Y0127040D01*
X0107661Y0125061D01*
X0109061Y0123661D01*
X0110601Y0123661D01*
X0111000Y0123262D01*
X0111762Y0122500D01*
X0118121Y0122500D01*
X0117911Y0122290D01*
X0117911Y0120310D01*
X0119171Y0119050D01*
X0118401Y0118280D01*
X0118401Y0117997D01*
X0116999Y0119400D01*
X0102471Y0119400D01*
X0102614Y0119543D01*
X0103076Y0120179D01*
X0103434Y0120881D01*
X0103677Y0121629D01*
X0103800Y0122406D01*
X0103800Y0122500D01*
X0099100Y0122500D01*
X0099100Y0123100D01*
X0098500Y0123100D01*
X0098500Y0127800D01*
X0098406Y0127800D01*
X0097629Y0127677D01*
X0096881Y0127434D01*
X0096179Y0127076D01*
X0095543Y0126614D01*
X0094986Y0126057D01*
X0094524Y0125421D01*
X0094166Y0124719D01*
X0093923Y0123971D01*
X0093800Y0123194D01*
X0093800Y0123100D01*
X0098500Y0123100D01*
X0098500Y0122500D01*
X0093800Y0122500D01*
X0093800Y0122406D01*
X0093923Y0121629D01*
X0094166Y0120881D01*
X0094524Y0120179D01*
X0094945Y0119600D01*
X0078689Y0119600D01*
X0078689Y0119790D01*
X0077290Y0121189D01*
X0075310Y0121189D01*
X0074568Y0120447D01*
X0074568Y0124262D01*
X0074600Y0124293D01*
X0074600Y0144838D01*
X0073838Y0145600D01*
X0070779Y0148659D01*
X0068972Y0148659D01*
X0068972Y0149110D01*
X0068444Y0149637D01*
X0064156Y0149637D01*
X0063628Y0149110D01*
X0063628Y0147400D01*
X0062957Y0147400D01*
X0062957Y0150373D01*
X0062429Y0150900D01*
X0060084Y0150900D01*
X0059998Y0150814D01*
X0059998Y0151628D01*
X0061492Y0151628D01*
X0062019Y0152156D01*
X0062019Y0156444D01*
X0061492Y0156972D01*
X0061041Y0156972D01*
X0061041Y0158202D01*
X0062338Y0159500D01*
X0086659Y0159500D01*
X0086460Y0159301D01*
X0086460Y0158689D01*
X0084810Y0158689D01*
X0083411Y0157290D01*
X0083411Y0155310D01*
X0084500Y0154221D01*
X0084500Y0133338D01*
X0078350Y0127189D01*
X0076810Y0127189D01*
X0075411Y0125790D01*
X0075411Y0123810D01*
X0076810Y0122411D01*
X0078790Y0122411D01*
X0080189Y0123810D01*
X0080189Y0124533D01*
X0081320Y0123401D01*
X0083300Y0123401D01*
X0084699Y0124800D01*
X0084699Y0126341D01*
X0090149Y0131791D01*
X0090149Y0156232D01*
X0091238Y0157321D01*
X0091238Y0159301D01*
X0091038Y0159500D01*
X0103349Y0159500D01*
X0106761Y0162911D01*
X0108301Y0162911D01*
X0108500Y0163110D01*
X0108500Y0160879D01*
X0107411Y0159790D01*
X0107411Y0157810D01*
X0108810Y0156411D01*
X0110790Y0156411D01*
X0110989Y0156610D01*
X0110989Y0138773D01*
X0111750Y0138011D01*
X0115411Y0134350D01*
X0115411Y0132810D01*
X0116810Y0131411D01*
X0118790Y0131411D01*
X0120189Y0132810D01*
X0120189Y0134790D01*
X0118790Y0136189D01*
X0117249Y0136189D01*
X0113589Y0139849D01*
X0113589Y0160369D01*
X0113350Y0160608D01*
X0113350Y0169012D01*
X0115567Y0171228D01*
X0115567Y0183949D01*
X0115100Y0184416D01*
X0115100Y0202721D01*
X0116189Y0203810D01*
X0116189Y0205790D01*
X0114790Y0207189D01*
X0112810Y0207189D01*
X0111411Y0205790D01*
X0111411Y0203810D01*
X0112500Y0202721D01*
X0112500Y0198715D01*
X0104371Y0206844D01*
X0103294Y0206844D01*
X0095110Y0206844D01*
X0092818Y0209136D01*
X0092818Y0209415D02*
X0093807Y0209415D01*
X0093208Y0210013D02*
X0092818Y0210013D01*
X0094335Y0207619D02*
X0233000Y0207619D01*
X0233000Y0207021D02*
X0144958Y0207021D01*
X0144790Y0207189D02*
X0146189Y0205790D01*
X0146189Y0203810D01*
X0145100Y0202721D01*
X0145100Y0180762D01*
X0144338Y0180000D01*
X0128338Y0164000D01*
X0118879Y0164000D01*
X0117790Y0162911D01*
X0115810Y0162911D01*
X0114411Y0164310D01*
X0114411Y0166290D01*
X0115810Y0167689D01*
X0117790Y0167689D01*
X0118879Y0166600D01*
X0127262Y0166600D01*
X0142500Y0181838D01*
X0142500Y0202721D01*
X0141411Y0203810D01*
X0141411Y0205790D01*
X0142810Y0207189D01*
X0144790Y0207189D01*
X0145556Y0206422D02*
X0233000Y0206422D01*
X0233000Y0205824D02*
X0146155Y0205824D01*
X0146189Y0205225D02*
X0233000Y0205225D01*
X0233000Y0204627D02*
X0146189Y0204627D01*
X0146189Y0204028D02*
X0233000Y0204028D01*
X0233000Y0203430D02*
X0145808Y0203430D01*
X0145210Y0202831D02*
X0233000Y0202831D01*
X0233000Y0202233D02*
X0145100Y0202233D01*
X0145100Y0201634D02*
X0233000Y0201634D01*
X0233000Y0201036D02*
X0145100Y0201036D01*
X0145100Y0200437D02*
X0233000Y0200437D01*
X0233000Y0199839D02*
X0145100Y0199839D01*
X0145100Y0199240D02*
X0233000Y0199240D01*
X0233000Y0198641D02*
X0145100Y0198641D01*
X0145100Y0198043D02*
X0233000Y0198043D01*
X0233000Y0197444D02*
X0145100Y0197444D01*
X0145100Y0196846D02*
X0233000Y0196846D01*
X0233000Y0196247D02*
X0145100Y0196247D01*
X0145100Y0195649D02*
X0233000Y0195649D01*
X0233000Y0195050D02*
X0145100Y0195050D01*
X0145100Y0194452D02*
X0233000Y0194452D01*
X0233000Y0193853D02*
X0145100Y0193853D01*
X0145100Y0193255D02*
X0233000Y0193255D01*
X0233000Y0192656D02*
X0145100Y0192656D01*
X0145100Y0192058D02*
X0233000Y0192058D01*
X0233000Y0191459D02*
X0145100Y0191459D01*
X0145100Y0190861D02*
X0233000Y0190861D01*
X0233000Y0190262D02*
X0145100Y0190262D01*
X0145100Y0189664D02*
X0233000Y0189664D01*
X0233000Y0189065D02*
X0145100Y0189065D01*
X0145100Y0188467D02*
X0233000Y0188467D01*
X0233000Y0187868D02*
X0145100Y0187868D01*
X0145100Y0187270D02*
X0233000Y0187270D01*
X0233000Y0186671D02*
X0145100Y0186671D01*
X0145100Y0186073D02*
X0233000Y0186073D01*
X0233000Y0185474D02*
X0145100Y0185474D01*
X0145100Y0184876D02*
X0233000Y0184876D01*
X0233000Y0184277D02*
X0145100Y0184277D01*
X0145100Y0183679D02*
X0233000Y0183679D01*
X0233000Y0183080D02*
X0145100Y0183080D01*
X0145100Y0182482D02*
X0233000Y0182482D01*
X0233000Y0181883D02*
X0145100Y0181883D01*
X0145100Y0181285D02*
X0233000Y0181285D01*
X0233000Y0180686D02*
X0145025Y0180686D01*
X0144426Y0180088D02*
X0233000Y0180088D01*
X0233000Y0179489D02*
X0143828Y0179489D01*
X0143229Y0178891D02*
X0233000Y0178891D01*
X0233000Y0178292D02*
X0142631Y0178292D01*
X0142032Y0177694D02*
X0233000Y0177694D01*
X0233000Y0177095D02*
X0141434Y0177095D01*
X0140835Y0176497D02*
X0233000Y0176497D01*
X0233000Y0175898D02*
X0140237Y0175898D01*
X0139638Y0175300D02*
X0233000Y0175300D01*
X0233000Y0174701D02*
X0139040Y0174701D01*
X0138441Y0174103D02*
X0233000Y0174103D01*
X0233000Y0173504D02*
X0137842Y0173504D01*
X0137244Y0172905D02*
X0233000Y0172905D01*
X0233000Y0172307D02*
X0136645Y0172307D01*
X0136047Y0171708D02*
X0233000Y0171708D01*
X0233000Y0171110D02*
X0135448Y0171110D01*
X0134850Y0170511D02*
X0233000Y0170511D01*
X0233000Y0169913D02*
X0134251Y0169913D01*
X0133653Y0169314D02*
X0233000Y0169314D01*
X0233000Y0168716D02*
X0133054Y0168716D01*
X0132456Y0168117D02*
X0233000Y0168117D01*
X0233000Y0167519D02*
X0131857Y0167519D01*
X0131259Y0166920D02*
X0233000Y0166920D01*
X0233000Y0166322D02*
X0130660Y0166322D01*
X0130062Y0165723D02*
X0233000Y0165723D01*
X0233000Y0165125D02*
X0129463Y0165125D01*
X0128865Y0164526D02*
X0233000Y0164526D01*
X0233000Y0163928D02*
X0118806Y0163928D01*
X0118208Y0163329D02*
X0233000Y0163329D01*
X0233000Y0162731D02*
X0113350Y0162731D01*
X0113350Y0163329D02*
X0115392Y0163329D01*
X0114794Y0163928D02*
X0113350Y0163928D01*
X0113350Y0164526D02*
X0114411Y0164526D01*
X0114411Y0165125D02*
X0113350Y0165125D01*
X0113350Y0165723D02*
X0114411Y0165723D01*
X0114443Y0166322D02*
X0113350Y0166322D01*
X0113350Y0166920D02*
X0115042Y0166920D01*
X0115640Y0167519D02*
X0113350Y0167519D01*
X0113350Y0168117D02*
X0128779Y0168117D01*
X0128180Y0167519D02*
X0117960Y0167519D01*
X0118558Y0166920D02*
X0127582Y0166920D01*
X0129377Y0168716D02*
X0113350Y0168716D01*
X0113653Y0169314D02*
X0129976Y0169314D01*
X0130574Y0169913D02*
X0114251Y0169913D01*
X0114850Y0170511D02*
X0131173Y0170511D01*
X0131771Y0171110D02*
X0115448Y0171110D01*
X0115567Y0171708D02*
X0132370Y0171708D01*
X0132969Y0172307D02*
X0115567Y0172307D01*
X0115567Y0172905D02*
X0133567Y0172905D01*
X0134166Y0173504D02*
X0115567Y0173504D01*
X0115567Y0174103D02*
X0134764Y0174103D01*
X0135363Y0174701D02*
X0115567Y0174701D01*
X0115567Y0175300D02*
X0135961Y0175300D01*
X0136560Y0175898D02*
X0115567Y0175898D01*
X0115567Y0176497D02*
X0137158Y0176497D01*
X0137757Y0177095D02*
X0115567Y0177095D01*
X0115567Y0177694D02*
X0138355Y0177694D01*
X0138954Y0178292D02*
X0115567Y0178292D01*
X0115567Y0178891D02*
X0139552Y0178891D01*
X0140151Y0179489D02*
X0115567Y0179489D01*
X0115567Y0180088D02*
X0140749Y0180088D01*
X0141348Y0180686D02*
X0115567Y0180686D01*
X0115567Y0181285D02*
X0141946Y0181285D01*
X0142500Y0181883D02*
X0115567Y0181883D01*
X0115567Y0182482D02*
X0142500Y0182482D01*
X0142500Y0183080D02*
X0115567Y0183080D01*
X0115567Y0183679D02*
X0142500Y0183679D01*
X0142500Y0184277D02*
X0115239Y0184277D01*
X0115100Y0184876D02*
X0142500Y0184876D01*
X0142500Y0185474D02*
X0115100Y0185474D01*
X0115100Y0186073D02*
X0142500Y0186073D01*
X0142500Y0186671D02*
X0115100Y0186671D01*
X0115100Y0187270D02*
X0142500Y0187270D01*
X0142500Y0187868D02*
X0115100Y0187868D01*
X0115100Y0188467D02*
X0142500Y0188467D01*
X0142500Y0189065D02*
X0115100Y0189065D01*
X0115100Y0189664D02*
X0142500Y0189664D01*
X0142500Y0190262D02*
X0115100Y0190262D01*
X0115100Y0190861D02*
X0142500Y0190861D01*
X0142500Y0191459D02*
X0115100Y0191459D01*
X0115100Y0192058D02*
X0142500Y0192058D01*
X0142500Y0192656D02*
X0115100Y0192656D01*
X0115100Y0193255D02*
X0142500Y0193255D01*
X0142500Y0193853D02*
X0115100Y0193853D01*
X0115100Y0194452D02*
X0142500Y0194452D01*
X0142500Y0195050D02*
X0115100Y0195050D01*
X0115100Y0195649D02*
X0142500Y0195649D01*
X0142500Y0196247D02*
X0115100Y0196247D01*
X0115100Y0196846D02*
X0142500Y0196846D01*
X0142500Y0197444D02*
X0115100Y0197444D01*
X0115100Y0198043D02*
X0142500Y0198043D01*
X0142500Y0198641D02*
X0115100Y0198641D01*
X0115100Y0199240D02*
X0142500Y0199240D01*
X0142500Y0199839D02*
X0115100Y0199839D01*
X0115100Y0200437D02*
X0142500Y0200437D01*
X0142500Y0201036D02*
X0115100Y0201036D01*
X0115100Y0201634D02*
X0142500Y0201634D01*
X0142500Y0202233D02*
X0115100Y0202233D01*
X0115210Y0202831D02*
X0142390Y0202831D01*
X0141792Y0203430D02*
X0115808Y0203430D01*
X0116189Y0204028D02*
X0141411Y0204028D01*
X0141411Y0204627D02*
X0116189Y0204627D01*
X0116189Y0205225D02*
X0141411Y0205225D01*
X0141445Y0205824D02*
X0116155Y0205824D01*
X0115556Y0206422D02*
X0142044Y0206422D01*
X0142642Y0207021D02*
X0114958Y0207021D01*
X0112642Y0207021D02*
X0094934Y0207021D01*
X0095793Y0209415D02*
X0096290Y0209415D01*
X0100310Y0209415D02*
X0233000Y0209415D01*
X0233000Y0210013D02*
X0100578Y0210013D01*
X0100578Y0210612D02*
X0233000Y0210612D01*
X0233000Y0211210D02*
X0100578Y0211210D01*
X0100578Y0211809D02*
X0233000Y0211809D01*
X0233000Y0212407D02*
X0100578Y0212407D01*
X0100578Y0213006D02*
X0233000Y0213006D01*
X0233000Y0213604D02*
X0100578Y0213604D01*
X0100578Y0214203D02*
X0233000Y0214203D01*
X0232967Y0214801D02*
X0100180Y0214801D01*
X0100778Y0215400D02*
X0232922Y0215400D01*
X0232762Y0215998D02*
X0101189Y0215998D01*
X0101189Y0216597D02*
X0232601Y0216597D01*
X0232441Y0217195D02*
X0101189Y0217195D01*
X0101185Y0217794D02*
X0232170Y0217794D01*
X0231825Y0218392D02*
X0100586Y0218392D01*
X0099988Y0218991D02*
X0231479Y0218991D01*
X0231008Y0219589D02*
X0097849Y0219589D01*
X0097251Y0220188D02*
X0230409Y0220188D01*
X0229811Y0220786D02*
X0096652Y0220786D01*
X0096054Y0221385D02*
X0228788Y0221385D01*
X0227536Y0221983D02*
X0095455Y0221983D01*
X0093574Y0220188D02*
X0089078Y0220188D01*
X0089078Y0220786D02*
X0092975Y0220786D01*
X0094172Y0219589D02*
X0089078Y0219589D01*
X0089078Y0218991D02*
X0094771Y0218991D01*
X0095369Y0218392D02*
X0089078Y0218392D01*
X0089078Y0217794D02*
X0095968Y0217794D01*
X0096411Y0217195D02*
X0089078Y0217195D01*
X0088992Y0216597D02*
X0096411Y0216597D01*
X0087942Y0208816D02*
X0085738Y0208816D01*
X0085738Y0208218D02*
X0087469Y0208218D01*
X0087469Y0207619D02*
X0086910Y0207619D01*
X0084541Y0205591D02*
X0084541Y0205009D01*
X0082469Y0205009D01*
X0081745Y0205734D01*
X0081750Y0205751D01*
X0081750Y0206307D01*
X0082350Y0206307D01*
X0082350Y0205591D01*
X0084541Y0205591D01*
X0084541Y0205225D02*
X0082253Y0205225D01*
X0082350Y0205824D02*
X0081750Y0205824D01*
X0084541Y0204627D02*
X0085122Y0204627D01*
X0085122Y0204028D02*
X0084541Y0204028D01*
X0084541Y0203430D02*
X0085122Y0203430D01*
X0085122Y0202831D02*
X0084541Y0202831D01*
X0082940Y0202831D02*
X0082689Y0202831D01*
X0080081Y0200437D02*
X0091882Y0200437D01*
X0092125Y0199839D02*
X0080679Y0199839D01*
X0086723Y0202831D02*
X0094260Y0202831D01*
X0094260Y0202233D02*
X0094860Y0202233D01*
X0094860Y0202276D02*
X0094860Y0199307D01*
X0096109Y0199307D01*
X0096440Y0199396D01*
X0096736Y0199567D01*
X0096978Y0199809D01*
X0097149Y0200105D01*
X0097238Y0200436D01*
X0097238Y0202276D01*
X0094860Y0202276D01*
X0094860Y0202831D02*
X0099762Y0202831D01*
X0099762Y0202233D02*
X0097238Y0202233D01*
X0097238Y0201634D02*
X0099762Y0201634D01*
X0099762Y0201036D02*
X0097238Y0201036D01*
X0097238Y0200437D02*
X0099762Y0200437D01*
X0100158Y0199839D02*
X0096995Y0199839D01*
X0094860Y0199839D02*
X0094260Y0199839D01*
X0094260Y0200437D02*
X0094860Y0200437D01*
X0094860Y0201036D02*
X0094260Y0201036D01*
X0094260Y0201634D02*
X0094860Y0201634D01*
X0097238Y0203430D02*
X0099762Y0203430D01*
X0099762Y0204028D02*
X0097238Y0204028D01*
X0101990Y0199240D02*
X0088698Y0199240D01*
X0089297Y0198641D02*
X0102589Y0198641D01*
X0103187Y0198043D02*
X0089895Y0198043D01*
X0090494Y0197444D02*
X0103522Y0197444D01*
X0103007Y0196846D02*
X0091093Y0196846D01*
X0091691Y0196247D02*
X0102409Y0196247D01*
X0101810Y0195649D02*
X0092290Y0195649D01*
X0092888Y0195050D02*
X0101212Y0195050D01*
X0100613Y0194452D02*
X0093487Y0194452D01*
X0094085Y0193853D02*
X0100015Y0193853D01*
X0099416Y0193255D02*
X0094684Y0193255D01*
X0097728Y0190250D02*
X0100088Y0190250D01*
X0103461Y0193622D01*
X0105509Y0193622D01*
X0105509Y0193041D01*
X0103122Y0193041D01*
X0103122Y0191979D01*
X0103211Y0191649D01*
X0103382Y0191352D01*
X0103624Y0191110D01*
X0103920Y0190939D01*
X0104251Y0190850D01*
X0105509Y0190850D01*
X0105509Y0193041D01*
X0106091Y0193041D01*
X0106091Y0193622D01*
X0108478Y0193622D01*
X0108478Y0194684D01*
X0108389Y0195014D01*
X0108218Y0195311D01*
X0107976Y0195553D01*
X0107938Y0195575D01*
X0108078Y0195715D01*
X0108078Y0198822D01*
X0107551Y0199350D01*
X0105557Y0199350D01*
X0104318Y0200589D01*
X0104318Y0203220D01*
X0111100Y0196438D01*
X0111100Y0182759D01*
X0111567Y0182292D01*
X0111567Y0181307D01*
X0108500Y0178241D01*
X0108500Y0167490D01*
X0108301Y0167689D01*
X0106321Y0167689D01*
X0104922Y0166290D01*
X0104922Y0164749D01*
X0102273Y0162100D01*
X0061262Y0162100D01*
X0060500Y0161338D01*
X0058441Y0159279D01*
X0058441Y0156972D01*
X0057990Y0156972D01*
X0057463Y0156444D01*
X0057463Y0153861D01*
X0057439Y0153836D01*
X0057439Y0178000D01*
X0055689Y0179749D01*
X0055689Y0180284D01*
X0056686Y0179287D01*
X0058665Y0179287D01*
X0060064Y0180686D01*
X0060064Y0181222D01*
X0061790Y0181222D01*
X0063189Y0182621D01*
X0063189Y0184601D01*
X0062990Y0184800D01*
X0086982Y0184800D01*
X0096509Y0175273D01*
X0096509Y0175273D01*
X0097271Y0174511D01*
X0102788Y0174511D01*
X0103888Y0173411D01*
X0105867Y0173411D01*
X0107267Y0174810D01*
X0107267Y0176790D01*
X0105867Y0178189D01*
X0104689Y0178189D01*
X0104689Y0179790D01*
X0103290Y0181189D01*
X0101310Y0181189D01*
X0100221Y0180100D01*
X0097338Y0180100D01*
X0095427Y0182011D01*
X0104369Y0182011D01*
X0105131Y0182773D01*
X0106040Y0183682D01*
X0106310Y0183411D01*
X0108290Y0183411D01*
X0109689Y0184810D01*
X0109689Y0186790D01*
X0108290Y0188189D01*
X0106310Y0188189D01*
X0105050Y0186929D01*
X0103790Y0188189D01*
X0101810Y0188189D01*
X0100721Y0187100D01*
X0097478Y0187100D01*
X0098189Y0187810D01*
X0098189Y0189790D01*
X0097728Y0190250D01*
X0098189Y0189664D02*
X0111100Y0189664D01*
X0111100Y0190262D02*
X0100101Y0190262D01*
X0100699Y0190861D02*
X0104212Y0190861D01*
X0103320Y0191459D02*
X0101298Y0191459D01*
X0101896Y0192058D02*
X0103122Y0192058D01*
X0103122Y0192656D02*
X0102495Y0192656D01*
X0103093Y0193255D02*
X0105509Y0193255D01*
X0106091Y0193255D02*
X0111100Y0193255D01*
X0111100Y0193853D02*
X0108478Y0193853D01*
X0108478Y0194452D02*
X0111100Y0194452D01*
X0111100Y0195050D02*
X0108369Y0195050D01*
X0108012Y0195649D02*
X0111100Y0195649D01*
X0111100Y0196247D02*
X0108078Y0196247D01*
X0108078Y0196846D02*
X0110692Y0196846D01*
X0110093Y0197444D02*
X0108078Y0197444D01*
X0108078Y0198043D02*
X0109495Y0198043D01*
X0108896Y0198641D02*
X0108078Y0198641D01*
X0108298Y0199240D02*
X0107660Y0199240D01*
X0107699Y0199839D02*
X0105068Y0199839D01*
X0104470Y0200437D02*
X0107101Y0200437D01*
X0106502Y0201036D02*
X0104318Y0201036D01*
X0104318Y0201634D02*
X0105904Y0201634D01*
X0105305Y0202233D02*
X0104318Y0202233D01*
X0104318Y0202831D02*
X0104707Y0202831D01*
X0106588Y0204627D02*
X0111411Y0204627D01*
X0111411Y0205225D02*
X0105990Y0205225D01*
X0105391Y0205824D02*
X0111445Y0205824D01*
X0112044Y0206422D02*
X0104793Y0206422D01*
X0107187Y0204028D02*
X0111411Y0204028D01*
X0111792Y0203430D02*
X0107785Y0203430D01*
X0108384Y0202831D02*
X0112390Y0202831D01*
X0112500Y0202233D02*
X0108982Y0202233D01*
X0109581Y0201634D02*
X0112500Y0201634D01*
X0112500Y0201036D02*
X0110179Y0201036D01*
X0110778Y0200437D02*
X0112500Y0200437D01*
X0112500Y0199839D02*
X0111376Y0199839D01*
X0111975Y0199240D02*
X0112500Y0199240D01*
X0111100Y0192656D02*
X0108478Y0192656D01*
X0108478Y0193041D02*
X0106091Y0193041D01*
X0106091Y0190850D01*
X0107349Y0190850D01*
X0107680Y0190939D01*
X0107976Y0191110D01*
X0108218Y0191352D01*
X0108389Y0191649D01*
X0108478Y0191979D01*
X0108478Y0193041D01*
X0108478Y0192058D02*
X0111100Y0192058D01*
X0111100Y0191459D02*
X0108280Y0191459D01*
X0107388Y0190861D02*
X0111100Y0190861D01*
X0111100Y0189065D02*
X0098189Y0189065D01*
X0098189Y0188467D02*
X0111100Y0188467D01*
X0111100Y0187868D02*
X0108610Y0187868D01*
X0109209Y0187270D02*
X0111100Y0187270D01*
X0111100Y0186671D02*
X0109689Y0186671D01*
X0109689Y0186073D02*
X0111100Y0186073D01*
X0111100Y0185474D02*
X0109689Y0185474D01*
X0109689Y0184876D02*
X0111100Y0184876D01*
X0111100Y0184277D02*
X0109156Y0184277D01*
X0108557Y0183679D02*
X0111100Y0183679D01*
X0111100Y0183080D02*
X0105439Y0183080D01*
X0106037Y0183679D02*
X0106043Y0183679D01*
X0104840Y0182482D02*
X0111378Y0182482D01*
X0111567Y0181883D02*
X0095555Y0181883D01*
X0096154Y0181285D02*
X0111544Y0181285D01*
X0110946Y0180686D02*
X0103792Y0180686D01*
X0104391Y0180088D02*
X0110347Y0180088D01*
X0109749Y0179489D02*
X0104689Y0179489D01*
X0104689Y0178891D02*
X0109150Y0178891D01*
X0108552Y0178292D02*
X0104689Y0178292D01*
X0106363Y0177694D02*
X0108500Y0177694D01*
X0108500Y0177095D02*
X0106961Y0177095D01*
X0107267Y0176497D02*
X0108500Y0176497D01*
X0108500Y0175898D02*
X0107267Y0175898D01*
X0107267Y0175300D02*
X0108500Y0175300D01*
X0108500Y0174701D02*
X0107158Y0174701D01*
X0106559Y0174103D02*
X0108500Y0174103D01*
X0108500Y0173504D02*
X0105960Y0173504D01*
X0103795Y0173504D02*
X0057439Y0173504D01*
X0057439Y0172905D02*
X0108500Y0172905D01*
X0108500Y0172307D02*
X0057439Y0172307D01*
X0057439Y0171708D02*
X0108500Y0171708D01*
X0108500Y0171110D02*
X0057439Y0171110D01*
X0057439Y0170511D02*
X0108500Y0170511D01*
X0108500Y0169913D02*
X0057439Y0169913D01*
X0057439Y0169314D02*
X0108500Y0169314D01*
X0108500Y0168716D02*
X0057439Y0168716D01*
X0057439Y0168117D02*
X0108500Y0168117D01*
X0108471Y0167519D02*
X0108500Y0167519D01*
X0106151Y0167519D02*
X0057439Y0167519D01*
X0057439Y0166920D02*
X0105553Y0166920D01*
X0104954Y0166322D02*
X0057439Y0166322D01*
X0057439Y0165723D02*
X0104922Y0165723D01*
X0104922Y0165125D02*
X0057439Y0165125D01*
X0057439Y0164526D02*
X0104699Y0164526D01*
X0104100Y0163928D02*
X0057439Y0163928D01*
X0057439Y0163329D02*
X0103502Y0163329D01*
X0102903Y0162731D02*
X0057439Y0162731D01*
X0057439Y0162132D02*
X0102305Y0162132D01*
X0104186Y0160337D02*
X0107958Y0160337D01*
X0108500Y0160935D02*
X0104785Y0160935D01*
X0105383Y0161534D02*
X0108500Y0161534D01*
X0108500Y0162132D02*
X0105982Y0162132D01*
X0106580Y0162731D02*
X0108500Y0162731D01*
X0107411Y0159738D02*
X0103588Y0159738D01*
X0107411Y0159140D02*
X0091238Y0159140D01*
X0091238Y0158541D02*
X0107411Y0158541D01*
X0107411Y0157943D02*
X0091238Y0157943D01*
X0091238Y0157344D02*
X0107877Y0157344D01*
X0108476Y0156746D02*
X0090662Y0156746D01*
X0090149Y0156147D02*
X0110989Y0156147D01*
X0110989Y0155549D02*
X0090149Y0155549D01*
X0090149Y0154950D02*
X0110989Y0154950D01*
X0110989Y0154352D02*
X0090149Y0154352D01*
X0090149Y0153753D02*
X0110989Y0153753D01*
X0110989Y0153155D02*
X0090149Y0153155D01*
X0090149Y0152556D02*
X0110989Y0152556D01*
X0110989Y0151958D02*
X0090149Y0151958D01*
X0090149Y0151359D02*
X0110989Y0151359D01*
X0110989Y0150761D02*
X0090149Y0150761D01*
X0090149Y0150162D02*
X0110989Y0150162D01*
X0110989Y0149564D02*
X0090149Y0149564D01*
X0090149Y0148965D02*
X0110989Y0148965D01*
X0110989Y0148367D02*
X0090149Y0148367D01*
X0090149Y0147768D02*
X0110989Y0147768D01*
X0110989Y0147170D02*
X0090149Y0147170D01*
X0090149Y0146571D02*
X0110989Y0146571D01*
X0110989Y0145972D02*
X0090149Y0145972D01*
X0090149Y0145374D02*
X0110989Y0145374D01*
X0110989Y0144775D02*
X0090149Y0144775D01*
X0090149Y0144177D02*
X0110989Y0144177D01*
X0110989Y0143578D02*
X0090149Y0143578D01*
X0090149Y0142980D02*
X0110989Y0142980D01*
X0110989Y0142381D02*
X0090149Y0142381D01*
X0090149Y0141783D02*
X0110989Y0141783D01*
X0110989Y0141184D02*
X0090149Y0141184D01*
X0090149Y0140586D02*
X0110989Y0140586D01*
X0110989Y0139987D02*
X0090149Y0139987D01*
X0090149Y0139389D02*
X0110989Y0139389D01*
X0110989Y0138790D02*
X0090149Y0138790D01*
X0090149Y0138192D02*
X0111570Y0138192D01*
X0112168Y0137593D02*
X0090149Y0137593D01*
X0090149Y0136995D02*
X0112767Y0136995D01*
X0113365Y0136396D02*
X0090149Y0136396D01*
X0090149Y0135798D02*
X0113964Y0135798D01*
X0114562Y0135199D02*
X0090149Y0135199D01*
X0090149Y0134601D02*
X0115161Y0134601D01*
X0115411Y0134002D02*
X0090149Y0134002D01*
X0090149Y0133404D02*
X0115411Y0133404D01*
X0115416Y0132805D02*
X0090149Y0132805D01*
X0090149Y0132207D02*
X0116015Y0132207D01*
X0116613Y0131608D02*
X0105890Y0131608D01*
X0106489Y0131010D02*
X0196671Y0131010D01*
X0197270Y0131608D02*
X0118987Y0131608D01*
X0119585Y0132207D02*
X0197868Y0132207D01*
X0198467Y0132805D02*
X0120184Y0132805D01*
X0120189Y0133404D02*
X0199065Y0133404D01*
X0199664Y0134002D02*
X0120189Y0134002D01*
X0120189Y0134601D02*
X0233000Y0134601D01*
X0233000Y0135199D02*
X0119779Y0135199D01*
X0119181Y0135798D02*
X0233000Y0135798D01*
X0233000Y0136396D02*
X0117042Y0136396D01*
X0116444Y0136995D02*
X0233000Y0136995D01*
X0233000Y0137593D02*
X0115845Y0137593D01*
X0115247Y0138192D02*
X0233000Y0138192D01*
X0233000Y0138790D02*
X0114648Y0138790D01*
X0114050Y0139389D02*
X0233000Y0139389D01*
X0233000Y0139987D02*
X0113589Y0139987D01*
X0113589Y0140586D02*
X0233000Y0140586D01*
X0233000Y0141184D02*
X0113589Y0141184D01*
X0113589Y0141783D02*
X0233000Y0141783D01*
X0233000Y0142381D02*
X0113589Y0142381D01*
X0113589Y0142980D02*
X0233000Y0142980D01*
X0233000Y0143578D02*
X0113589Y0143578D01*
X0113589Y0144177D02*
X0233000Y0144177D01*
X0233000Y0144775D02*
X0113589Y0144775D01*
X0113589Y0145374D02*
X0233000Y0145374D01*
X0233000Y0145972D02*
X0113589Y0145972D01*
X0113589Y0146571D02*
X0233000Y0146571D01*
X0233000Y0147170D02*
X0113589Y0147170D01*
X0113589Y0147768D02*
X0233000Y0147768D01*
X0233000Y0148367D02*
X0113589Y0148367D01*
X0113589Y0148965D02*
X0233000Y0148965D01*
X0233000Y0149564D02*
X0113589Y0149564D01*
X0113589Y0150162D02*
X0233000Y0150162D01*
X0233000Y0150761D02*
X0113589Y0150761D01*
X0113589Y0151359D02*
X0233000Y0151359D01*
X0233000Y0151958D02*
X0113589Y0151958D01*
X0113589Y0152556D02*
X0233000Y0152556D01*
X0233000Y0153155D02*
X0113589Y0153155D01*
X0113589Y0153753D02*
X0233000Y0153753D01*
X0233000Y0154352D02*
X0113589Y0154352D01*
X0113589Y0154950D02*
X0233000Y0154950D01*
X0233000Y0155549D02*
X0113589Y0155549D01*
X0113589Y0156147D02*
X0233000Y0156147D01*
X0233000Y0156746D02*
X0113589Y0156746D01*
X0113589Y0157344D02*
X0233000Y0157344D01*
X0233000Y0157943D02*
X0113589Y0157943D01*
X0113589Y0158541D02*
X0233000Y0158541D01*
X0233000Y0159140D02*
X0113589Y0159140D01*
X0113589Y0159738D02*
X0233000Y0159738D01*
X0233000Y0160337D02*
X0113589Y0160337D01*
X0113350Y0160935D02*
X0233000Y0160935D01*
X0233000Y0161534D02*
X0113350Y0161534D01*
X0113350Y0162132D02*
X0233000Y0162132D01*
X0233000Y0134002D02*
X0216936Y0134002D01*
X0217535Y0133404D02*
X0233000Y0133404D01*
X0233000Y0132805D02*
X0218133Y0132805D01*
X0218732Y0132207D02*
X0233000Y0132207D01*
X0233000Y0131608D02*
X0225039Y0131608D01*
X0225035Y0131612D02*
X0224739Y0131783D01*
X0224408Y0131872D01*
X0223159Y0131872D01*
X0223159Y0129100D01*
X0222559Y0129100D01*
X0222559Y0128500D01*
X0220181Y0128500D01*
X0220181Y0126857D01*
X0220270Y0126527D01*
X0220441Y0126230D01*
X0220683Y0125988D01*
X0220979Y0125817D01*
X0221310Y0125728D01*
X0222559Y0125728D01*
X0222559Y0128500D01*
X0223159Y0128500D01*
X0223159Y0125728D01*
X0224408Y0125728D01*
X0224739Y0125817D01*
X0225035Y0125988D01*
X0225277Y0126230D01*
X0225448Y0126527D01*
X0225537Y0126857D01*
X0225537Y0128500D01*
X0223159Y0128500D01*
X0223159Y0129100D01*
X0225537Y0129100D01*
X0225537Y0130743D01*
X0225448Y0131073D01*
X0225277Y0131370D01*
X0225035Y0131612D01*
X0225465Y0131010D02*
X0233000Y0131010D01*
X0233000Y0130411D02*
X0225537Y0130411D01*
X0225537Y0129813D02*
X0233000Y0129813D01*
X0233000Y0129214D02*
X0225537Y0129214D01*
X0225537Y0128017D02*
X0233000Y0128017D01*
X0233000Y0127419D02*
X0225537Y0127419D01*
X0225527Y0126820D02*
X0233000Y0126820D01*
X0233000Y0126222D02*
X0225269Y0126222D01*
X0223159Y0126222D02*
X0222559Y0126222D01*
X0222559Y0126820D02*
X0223159Y0126820D01*
X0223159Y0127419D02*
X0222559Y0127419D01*
X0222559Y0128017D02*
X0223159Y0128017D01*
X0223159Y0128616D02*
X0233000Y0128616D01*
X0233000Y0125623D02*
X0219041Y0125623D01*
X0219041Y0125025D02*
X0233000Y0125025D01*
X0233000Y0124426D02*
X0219041Y0124426D01*
X0219041Y0123828D02*
X0233000Y0123828D01*
X0233000Y0123229D02*
X0219041Y0123229D01*
X0219041Y0122631D02*
X0233000Y0122631D01*
X0226998Y0122032D02*
X0226398Y0122032D01*
X0226398Y0121434D02*
X0226998Y0121434D01*
X0226998Y0120835D02*
X0226398Y0120835D01*
X0226398Y0120237D02*
X0226998Y0120237D01*
X0226998Y0119638D02*
X0226398Y0119638D01*
X0226698Y0118800D02*
X0222859Y0122639D01*
X0222859Y0128800D01*
X0222559Y0128616D02*
X0220019Y0128616D01*
X0220181Y0129100D02*
X0222559Y0129100D01*
X0222559Y0131872D01*
X0221310Y0131872D01*
X0220979Y0131783D01*
X0220683Y0131612D01*
X0220441Y0131370D01*
X0220270Y0131073D01*
X0220181Y0130743D01*
X0220181Y0129100D01*
X0220181Y0129214D02*
X0220019Y0129214D01*
X0220019Y0129813D02*
X0220181Y0129813D01*
X0220181Y0130411D02*
X0220019Y0130411D01*
X0219954Y0131010D02*
X0220253Y0131010D01*
X0220679Y0131608D02*
X0219100Y0131608D01*
X0222559Y0131608D02*
X0223159Y0131608D01*
X0223159Y0131010D02*
X0222559Y0131010D01*
X0222559Y0130411D02*
X0223159Y0130411D01*
X0223159Y0129813D02*
X0222559Y0129813D01*
X0222559Y0129214D02*
X0223159Y0129214D01*
X0220181Y0128017D02*
X0220019Y0128017D01*
X0220019Y0127419D02*
X0220181Y0127419D01*
X0220191Y0126820D02*
X0220019Y0126820D01*
X0220449Y0126222D02*
X0219585Y0126222D01*
X0216441Y0126128D02*
X0216441Y0121668D01*
X0216244Y0121865D01*
X0213266Y0121865D01*
X0213126Y0122006D01*
X0212829Y0122177D01*
X0212499Y0122265D01*
X0211437Y0122265D01*
X0211437Y0119091D01*
X0210856Y0119091D01*
X0210856Y0122265D01*
X0209794Y0122265D01*
X0209464Y0122177D01*
X0209167Y0122006D01*
X0209027Y0121865D01*
X0208903Y0121865D01*
X0208903Y0123035D01*
X0207600Y0124338D01*
X0206541Y0125398D01*
X0206541Y0126128D01*
X0206992Y0126128D01*
X0207519Y0126656D01*
X0207519Y0130944D01*
X0206992Y0131472D01*
X0203490Y0131472D01*
X0202963Y0130944D01*
X0202963Y0126656D01*
X0203490Y0126128D01*
X0203941Y0126128D01*
X0203941Y0125100D01*
X0112839Y0125100D01*
X0112439Y0125500D01*
X0112439Y0127040D01*
X0111219Y0128260D01*
X0197599Y0128260D01*
X0201338Y0132000D01*
X0215262Y0132000D01*
X0215890Y0131371D01*
X0215463Y0130944D01*
X0215463Y0126656D01*
X0215990Y0126128D01*
X0216441Y0126128D01*
X0216441Y0125623D02*
X0206541Y0125623D01*
X0206914Y0125025D02*
X0216441Y0125025D01*
X0216441Y0124426D02*
X0207512Y0124426D01*
X0208111Y0123828D02*
X0216441Y0123828D01*
X0216441Y0123229D02*
X0208709Y0123229D01*
X0208903Y0122631D02*
X0216441Y0122631D01*
X0216441Y0122032D02*
X0213080Y0122032D01*
X0211437Y0122032D02*
X0210856Y0122032D01*
X0210856Y0121434D02*
X0211437Y0121434D01*
X0211437Y0120835D02*
X0210856Y0120835D01*
X0210856Y0120237D02*
X0211437Y0120237D01*
X0211437Y0119638D02*
X0210856Y0119638D01*
X0210359Y0119587D02*
X0210359Y0128800D01*
X0210059Y0128616D02*
X0207519Y0128616D01*
X0207681Y0128500D02*
X0207681Y0126857D01*
X0207770Y0126527D01*
X0207941Y0126230D01*
X0208183Y0125988D01*
X0208479Y0125817D01*
X0208810Y0125728D01*
X0210059Y0125728D01*
X0210059Y0128500D01*
X0207681Y0128500D01*
X0207681Y0128017D02*
X0207519Y0128017D01*
X0207519Y0127419D02*
X0207681Y0127419D01*
X0207691Y0126820D02*
X0207519Y0126820D01*
X0207949Y0126222D02*
X0207085Y0126222D01*
X0207681Y0129100D02*
X0210059Y0129100D01*
X0210059Y0128500D01*
X0210659Y0128500D01*
X0210659Y0125728D01*
X0211908Y0125728D01*
X0212239Y0125817D01*
X0212535Y0125988D01*
X0212777Y0126230D01*
X0212948Y0126527D01*
X0213037Y0126857D01*
X0213037Y0128500D01*
X0210659Y0128500D01*
X0210659Y0129100D01*
X0210059Y0129100D01*
X0210059Y0131872D01*
X0208810Y0131872D01*
X0208479Y0131783D01*
X0208183Y0131612D01*
X0207941Y0131370D01*
X0207770Y0131073D01*
X0207681Y0130743D01*
X0207681Y0129100D01*
X0207681Y0129214D02*
X0207519Y0129214D01*
X0207519Y0129813D02*
X0207681Y0129813D01*
X0207681Y0130411D02*
X0207519Y0130411D01*
X0207454Y0131010D02*
X0207753Y0131010D01*
X0208179Y0131608D02*
X0200947Y0131608D01*
X0200348Y0131010D02*
X0203028Y0131010D01*
X0202963Y0130411D02*
X0199750Y0130411D01*
X0199151Y0129813D02*
X0202963Y0129813D01*
X0202963Y0129214D02*
X0198553Y0129214D01*
X0197954Y0128616D02*
X0202963Y0128616D01*
X0202963Y0128017D02*
X0111461Y0128017D01*
X0112060Y0127419D02*
X0202963Y0127419D01*
X0202963Y0126820D02*
X0112439Y0126820D01*
X0112439Y0126222D02*
X0203397Y0126222D01*
X0203941Y0125623D02*
X0112439Y0125623D01*
X0111033Y0123229D02*
X0103794Y0123229D01*
X0103800Y0123194D02*
X0103677Y0123971D01*
X0103434Y0124719D01*
X0103076Y0125421D01*
X0102614Y0126057D01*
X0102057Y0126614D01*
X0101421Y0127076D01*
X0100719Y0127434D01*
X0099971Y0127677D01*
X0099194Y0127800D01*
X0099100Y0127800D01*
X0099100Y0123100D01*
X0103800Y0123100D01*
X0103800Y0123194D01*
X0103700Y0123828D02*
X0108894Y0123828D01*
X0108296Y0124426D02*
X0103529Y0124426D01*
X0103278Y0125025D02*
X0107697Y0125025D01*
X0107661Y0125623D02*
X0102929Y0125623D01*
X0102449Y0126222D02*
X0107661Y0126222D01*
X0107661Y0126820D02*
X0101773Y0126820D01*
X0100749Y0127419D02*
X0103323Y0127419D01*
X0102725Y0128017D02*
X0086376Y0128017D01*
X0086974Y0128616D02*
X0102171Y0128616D01*
X0102171Y0129214D02*
X0087573Y0129214D01*
X0088171Y0129813D02*
X0102171Y0129813D01*
X0102171Y0130411D02*
X0088770Y0130411D01*
X0089368Y0131010D02*
X0102631Y0131010D01*
X0103230Y0131608D02*
X0089967Y0131608D01*
X0084500Y0133404D02*
X0074600Y0133404D01*
X0074600Y0134002D02*
X0084500Y0134002D01*
X0084500Y0134601D02*
X0074600Y0134601D01*
X0074600Y0135199D02*
X0084500Y0135199D01*
X0084500Y0135798D02*
X0074600Y0135798D01*
X0074600Y0136396D02*
X0084500Y0136396D01*
X0084500Y0136995D02*
X0074600Y0136995D01*
X0074600Y0137593D02*
X0084500Y0137593D01*
X0084500Y0138192D02*
X0074600Y0138192D01*
X0074600Y0138790D02*
X0084500Y0138790D01*
X0084500Y0139389D02*
X0074600Y0139389D01*
X0074600Y0139987D02*
X0084500Y0139987D01*
X0084500Y0140586D02*
X0074600Y0140586D01*
X0074600Y0141184D02*
X0084500Y0141184D01*
X0084500Y0141783D02*
X0074600Y0141783D01*
X0074600Y0142381D02*
X0084500Y0142381D01*
X0084500Y0142980D02*
X0074600Y0142980D01*
X0074600Y0143578D02*
X0084500Y0143578D01*
X0084500Y0144177D02*
X0074600Y0144177D01*
X0074600Y0144775D02*
X0084500Y0144775D01*
X0084500Y0145374D02*
X0074064Y0145374D01*
X0073466Y0145972D02*
X0084500Y0145972D01*
X0084500Y0146571D02*
X0072867Y0146571D01*
X0072269Y0147170D02*
X0084500Y0147170D01*
X0084500Y0147768D02*
X0071670Y0147768D01*
X0071072Y0148367D02*
X0084500Y0148367D01*
X0084500Y0148965D02*
X0068972Y0148965D01*
X0068518Y0149564D02*
X0084500Y0149564D01*
X0084500Y0150162D02*
X0062957Y0150162D01*
X0062957Y0149564D02*
X0064082Y0149564D01*
X0063628Y0148965D02*
X0062957Y0148965D01*
X0062957Y0148367D02*
X0063628Y0148367D01*
X0063628Y0147768D02*
X0062957Y0147768D01*
X0062569Y0150761D02*
X0084500Y0150761D01*
X0084500Y0151359D02*
X0066812Y0151359D01*
X0066739Y0151317D02*
X0067035Y0151488D01*
X0067277Y0151730D01*
X0067448Y0152027D01*
X0067537Y0152357D01*
X0067537Y0154000D01*
X0065159Y0154000D01*
X0065159Y0151228D01*
X0066408Y0151228D01*
X0066739Y0151317D01*
X0067409Y0151958D02*
X0084500Y0151958D01*
X0084500Y0152556D02*
X0067537Y0152556D01*
X0067537Y0153155D02*
X0084500Y0153155D01*
X0084500Y0153753D02*
X0067537Y0153753D01*
X0067537Y0154600D02*
X0067537Y0156243D01*
X0067448Y0156573D01*
X0067277Y0156870D01*
X0067035Y0157112D01*
X0066739Y0157283D01*
X0066408Y0157372D01*
X0065159Y0157372D01*
X0065159Y0154600D01*
X0064559Y0154600D01*
X0064559Y0154000D01*
X0062181Y0154000D01*
X0062181Y0152357D01*
X0062270Y0152027D01*
X0062441Y0151730D01*
X0062683Y0151488D01*
X0062979Y0151317D01*
X0063310Y0151228D01*
X0064559Y0151228D01*
X0064559Y0154000D01*
X0065159Y0154000D01*
X0065159Y0154600D01*
X0067537Y0154600D01*
X0067537Y0154950D02*
X0083771Y0154950D01*
X0083411Y0155549D02*
X0067537Y0155549D01*
X0067537Y0156147D02*
X0083411Y0156147D01*
X0083411Y0156746D02*
X0067349Y0156746D01*
X0066511Y0157344D02*
X0083466Y0157344D01*
X0084064Y0157943D02*
X0061041Y0157943D01*
X0061041Y0157344D02*
X0063208Y0157344D01*
X0063310Y0157372D02*
X0062979Y0157283D01*
X0062683Y0157112D01*
X0062441Y0156870D01*
X0062270Y0156573D01*
X0062181Y0156243D01*
X0062181Y0154600D01*
X0064559Y0154600D01*
X0064559Y0157372D01*
X0063310Y0157372D01*
X0062369Y0156746D02*
X0061718Y0156746D01*
X0062019Y0156147D02*
X0062181Y0156147D01*
X0062181Y0155549D02*
X0062019Y0155549D01*
X0062019Y0154950D02*
X0062181Y0154950D01*
X0062019Y0154352D02*
X0064559Y0154352D01*
X0064559Y0154950D02*
X0065159Y0154950D01*
X0065159Y0154352D02*
X0084370Y0154352D01*
X0084663Y0158541D02*
X0061380Y0158541D01*
X0061978Y0159140D02*
X0086460Y0159140D01*
X0097081Y0174701D02*
X0057439Y0174701D01*
X0057439Y0174103D02*
X0103197Y0174103D01*
X0096482Y0175300D02*
X0057439Y0175300D01*
X0057439Y0175898D02*
X0095884Y0175898D01*
X0095285Y0176497D02*
X0057439Y0176497D01*
X0057439Y0177095D02*
X0094687Y0177095D01*
X0094088Y0177694D02*
X0057439Y0177694D01*
X0057146Y0178292D02*
X0093490Y0178292D01*
X0092891Y0178891D02*
X0056548Y0178891D01*
X0056483Y0179489D02*
X0055949Y0179489D01*
X0055885Y0180088D02*
X0055689Y0180088D01*
X0058868Y0179489D02*
X0092292Y0179489D01*
X0091694Y0180088D02*
X0059466Y0180088D01*
X0060064Y0180686D02*
X0091095Y0180686D01*
X0090497Y0181285D02*
X0061852Y0181285D01*
X0062451Y0181883D02*
X0089898Y0181883D01*
X0089300Y0182482D02*
X0063049Y0182482D01*
X0063189Y0183080D02*
X0088701Y0183080D01*
X0088103Y0183679D02*
X0063189Y0183679D01*
X0063189Y0184277D02*
X0087504Y0184277D01*
X0096752Y0180686D02*
X0100808Y0180686D01*
X0100891Y0187270D02*
X0097648Y0187270D01*
X0098189Y0187868D02*
X0101490Y0187868D01*
X0104110Y0187868D02*
X0105990Y0187868D01*
X0105391Y0187270D02*
X0104709Y0187270D01*
X0105509Y0190861D02*
X0106091Y0190861D01*
X0106091Y0191459D02*
X0105509Y0191459D01*
X0105509Y0192058D02*
X0106091Y0192058D01*
X0106091Y0192656D02*
X0105509Y0192656D01*
X0065159Y0157344D02*
X0064559Y0157344D01*
X0064559Y0156746D02*
X0065159Y0156746D01*
X0065159Y0156147D02*
X0064559Y0156147D01*
X0064559Y0155549D02*
X0065159Y0155549D01*
X0065159Y0153753D02*
X0064559Y0153753D01*
X0064559Y0153155D02*
X0065159Y0153155D01*
X0065159Y0152556D02*
X0064559Y0152556D01*
X0064559Y0151958D02*
X0065159Y0151958D01*
X0065159Y0151359D02*
X0064559Y0151359D01*
X0062906Y0151359D02*
X0059998Y0151359D01*
X0061821Y0151958D02*
X0062309Y0151958D01*
X0062181Y0152556D02*
X0062019Y0152556D01*
X0062019Y0153155D02*
X0062181Y0153155D01*
X0062181Y0153753D02*
X0062019Y0153753D01*
X0057463Y0154352D02*
X0057439Y0154352D01*
X0057439Y0154950D02*
X0057463Y0154950D01*
X0057439Y0155549D02*
X0057463Y0155549D01*
X0057439Y0156147D02*
X0057463Y0156147D01*
X0057439Y0156746D02*
X0057764Y0156746D01*
X0057439Y0157344D02*
X0058441Y0157344D01*
X0058441Y0157943D02*
X0057439Y0157943D01*
X0057439Y0158541D02*
X0058441Y0158541D01*
X0058441Y0159140D02*
X0057439Y0159140D01*
X0057439Y0159738D02*
X0058900Y0159738D01*
X0059498Y0160337D02*
X0057439Y0160337D01*
X0057439Y0160935D02*
X0060097Y0160935D01*
X0060695Y0161534D02*
X0057439Y0161534D01*
X0042122Y0168716D02*
X0029100Y0168716D01*
X0029100Y0169314D02*
X0041503Y0169314D01*
X0041008Y0169913D02*
X0029100Y0169913D01*
X0029100Y0170511D02*
X0040760Y0170511D01*
X0040538Y0171110D02*
X0029100Y0171110D01*
X0029100Y0171708D02*
X0040538Y0171708D01*
X0040538Y0172307D02*
X0029100Y0172307D01*
X0029100Y0172905D02*
X0040718Y0172905D01*
X0040966Y0173504D02*
X0029100Y0173504D01*
X0029100Y0174103D02*
X0041400Y0174103D01*
X0041999Y0174701D02*
X0029100Y0174701D01*
X0029100Y0175300D02*
X0031224Y0175300D01*
X0029912Y0175898D02*
X0029100Y0175898D01*
X0029100Y0176497D02*
X0029313Y0176497D01*
X0033376Y0175300D02*
X0043319Y0175300D01*
X0046363Y0175898D02*
X0034688Y0175898D01*
X0029219Y0181883D02*
X0029100Y0181883D01*
X0029100Y0182482D02*
X0029818Y0182482D01*
X0029100Y0183080D02*
X0030996Y0183080D01*
X0046986Y0182482D02*
X0048103Y0182482D01*
X0048021Y0200437D02*
X0052911Y0200437D01*
X0052911Y0201036D02*
X0047423Y0201036D01*
X0047689Y0201634D02*
X0048934Y0201634D01*
X0048047Y0202233D02*
X0047689Y0202233D01*
X0047689Y0202831D02*
X0047850Y0202831D01*
X0047850Y0203430D02*
X0047549Y0203430D01*
X0046950Y0204028D02*
X0050041Y0204028D01*
X0050041Y0203430D02*
X0050622Y0203430D01*
X0050622Y0202831D02*
X0050041Y0202831D01*
X0050041Y0202233D02*
X0050622Y0202233D01*
X0050622Y0201634D02*
X0050041Y0201634D01*
X0051729Y0201634D02*
X0052911Y0201634D01*
X0048860Y0210013D02*
X0048260Y0210013D01*
X0048260Y0210612D02*
X0048860Y0210612D01*
X0043840Y0211809D02*
X0043240Y0211809D01*
X0043240Y0212407D02*
X0043840Y0212407D01*
X0043840Y0213006D02*
X0043240Y0213006D01*
X0043240Y0213604D02*
X0043840Y0213604D01*
X0041794Y0211809D02*
X0041170Y0211809D01*
X0046218Y0215998D02*
X0050113Y0215998D01*
X0050022Y0216597D02*
X0046218Y0216597D01*
X0046210Y0217195D02*
X0050022Y0217195D01*
X0050022Y0217794D02*
X0045956Y0217794D01*
X0044250Y0218392D02*
X0050022Y0218392D01*
X0050022Y0218991D02*
X0044250Y0218991D01*
X0044250Y0220188D02*
X0050022Y0220188D01*
X0050022Y0220786D02*
X0044250Y0220786D01*
X0042059Y0219589D02*
X0050022Y0219589D01*
X0057926Y0211809D02*
X0058430Y0211809D01*
X0030890Y0150162D02*
X0029100Y0150162D01*
X0029100Y0149564D02*
X0029774Y0149564D01*
X0029175Y0148965D02*
X0029100Y0148965D01*
X0029100Y0143578D02*
X0029358Y0143578D01*
X0029100Y0142980D02*
X0029956Y0142980D01*
X0029100Y0142381D02*
X0031330Y0142381D01*
X0035041Y0123229D02*
X0035622Y0123229D01*
X0035622Y0122631D02*
X0035041Y0122631D01*
X0035041Y0122032D02*
X0035622Y0122032D01*
X0035622Y0121434D02*
X0035041Y0121434D01*
X0037292Y0123229D02*
X0041234Y0123229D01*
X0060270Y0118700D02*
X0062429Y0118700D01*
X0062957Y0119227D01*
X0062957Y0123362D01*
X0066338Y0126743D01*
X0067100Y0127505D01*
X0067100Y0127750D01*
X0067551Y0127750D01*
X0068078Y0128278D01*
X0068078Y0131385D01*
X0067663Y0131800D01*
X0068078Y0132215D01*
X0068078Y0135322D01*
X0067900Y0135500D01*
X0072000Y0135500D01*
X0072000Y0125370D01*
X0071969Y0125338D01*
X0071969Y0118847D01*
X0070911Y0117790D01*
X0070911Y0115810D01*
X0072310Y0114411D01*
X0073989Y0114411D01*
X0073989Y0114249D01*
X0071339Y0111600D01*
X0069781Y0111600D01*
X0068792Y0110611D01*
X0067807Y0110611D01*
X0067670Y0110749D01*
X0064230Y0110749D01*
X0064140Y0110838D01*
X0063689Y0111290D01*
X0062290Y0112689D01*
X0060749Y0112689D01*
X0059916Y0113522D01*
X0062885Y0113522D01*
X0063025Y0113662D01*
X0063047Y0113624D01*
X0063289Y0113382D01*
X0063586Y0113211D01*
X0063916Y0113122D01*
X0064978Y0113122D01*
X0064978Y0115509D01*
X0065559Y0115509D01*
X0065559Y0113122D01*
X0066621Y0113122D01*
X0066951Y0113211D01*
X0067248Y0113382D01*
X0067490Y0113624D01*
X0067661Y0113920D01*
X0067750Y0114251D01*
X0067750Y0115509D01*
X0065559Y0115509D01*
X0065559Y0116091D01*
X0064978Y0116091D01*
X0064978Y0118478D01*
X0063916Y0118478D01*
X0063586Y0118389D01*
X0063289Y0118218D01*
X0063047Y0117976D01*
X0063025Y0117938D01*
X0062885Y0118078D01*
X0060892Y0118078D01*
X0060270Y0118700D01*
X0060529Y0118441D02*
X0063778Y0118441D01*
X0062769Y0119039D02*
X0071969Y0119039D01*
X0071969Y0119638D02*
X0062957Y0119638D01*
X0062957Y0120237D02*
X0071969Y0120237D01*
X0071969Y0120835D02*
X0062957Y0120835D01*
X0062957Y0121434D02*
X0071969Y0121434D01*
X0071969Y0122032D02*
X0062957Y0122032D01*
X0062957Y0122631D02*
X0071969Y0122631D01*
X0071969Y0123229D02*
X0062957Y0123229D01*
X0063423Y0123828D02*
X0071969Y0123828D01*
X0071969Y0124426D02*
X0064021Y0124426D01*
X0064620Y0125025D02*
X0071969Y0125025D01*
X0072000Y0125623D02*
X0065218Y0125623D01*
X0065817Y0126222D02*
X0072000Y0126222D01*
X0072000Y0126820D02*
X0066415Y0126820D01*
X0067014Y0127419D02*
X0072000Y0127419D01*
X0072000Y0128017D02*
X0067817Y0128017D01*
X0068078Y0128616D02*
X0072000Y0128616D01*
X0072000Y0129214D02*
X0068078Y0129214D01*
X0068078Y0129813D02*
X0072000Y0129813D01*
X0072000Y0130411D02*
X0068078Y0130411D01*
X0068078Y0131010D02*
X0072000Y0131010D01*
X0072000Y0131608D02*
X0067855Y0131608D01*
X0068070Y0132207D02*
X0072000Y0132207D01*
X0072000Y0132805D02*
X0068078Y0132805D01*
X0068078Y0133404D02*
X0072000Y0133404D01*
X0072000Y0134002D02*
X0068078Y0134002D01*
X0068078Y0134601D02*
X0072000Y0134601D01*
X0072000Y0135199D02*
X0068078Y0135199D01*
X0074600Y0132805D02*
X0083967Y0132805D01*
X0083368Y0132207D02*
X0074600Y0132207D01*
X0074600Y0131608D02*
X0082770Y0131608D01*
X0082171Y0131010D02*
X0074600Y0131010D01*
X0074600Y0130411D02*
X0081573Y0130411D01*
X0080974Y0129813D02*
X0074600Y0129813D01*
X0074600Y0129214D02*
X0080376Y0129214D01*
X0079777Y0128616D02*
X0074600Y0128616D01*
X0074600Y0128017D02*
X0079179Y0128017D01*
X0078580Y0127419D02*
X0074600Y0127419D01*
X0074600Y0126820D02*
X0076442Y0126820D01*
X0075843Y0126222D02*
X0074600Y0126222D01*
X0074600Y0125623D02*
X0075411Y0125623D01*
X0075411Y0125025D02*
X0074600Y0125025D01*
X0074600Y0124426D02*
X0075411Y0124426D01*
X0075411Y0123828D02*
X0074568Y0123828D01*
X0074568Y0123229D02*
X0075992Y0123229D01*
X0076591Y0122631D02*
X0074568Y0122631D01*
X0074568Y0122032D02*
X0093859Y0122032D01*
X0093987Y0121434D02*
X0074568Y0121434D01*
X0074568Y0120835D02*
X0074957Y0120835D01*
X0077643Y0120835D02*
X0094190Y0120835D01*
X0094495Y0120237D02*
X0078242Y0120237D01*
X0078689Y0119638D02*
X0094917Y0119638D01*
X0093806Y0123229D02*
X0079608Y0123229D01*
X0080189Y0123828D02*
X0080894Y0123828D01*
X0080295Y0124426D02*
X0080189Y0124426D01*
X0079009Y0122631D02*
X0098500Y0122631D01*
X0098500Y0123229D02*
X0099100Y0123229D01*
X0099100Y0122631D02*
X0111631Y0122631D01*
X0108040Y0127419D02*
X0105797Y0127419D01*
X0106396Y0128017D02*
X0108639Y0128017D01*
X0103741Y0122032D02*
X0117911Y0122032D01*
X0117911Y0121434D02*
X0103613Y0121434D01*
X0103410Y0120835D02*
X0117911Y0120835D01*
X0117985Y0120237D02*
X0103105Y0120237D01*
X0102683Y0119638D02*
X0118583Y0119638D01*
X0119161Y0119039D02*
X0117359Y0119039D01*
X0117958Y0118441D02*
X0118562Y0118441D01*
X0122689Y0120749D02*
X0122689Y0122290D01*
X0122478Y0122500D01*
X0205762Y0122500D01*
X0206303Y0121958D01*
X0206303Y0121865D01*
X0206049Y0121865D01*
X0205831Y0121648D01*
X0205614Y0121865D01*
X0202506Y0121865D01*
X0201979Y0121338D01*
X0201979Y0116262D01*
X0202506Y0115735D01*
X0205614Y0115735D01*
X0205831Y0115952D01*
X0206049Y0115735D01*
X0209027Y0115735D01*
X0209167Y0115594D01*
X0209464Y0115423D01*
X0209794Y0115335D01*
X0210856Y0115335D01*
X0210856Y0118509D01*
X0211437Y0118509D01*
X0211437Y0115335D01*
X0212499Y0115335D01*
X0212829Y0115423D01*
X0213126Y0115594D01*
X0213266Y0115735D01*
X0216244Y0115735D01*
X0216461Y0115952D01*
X0216679Y0115735D01*
X0219657Y0115735D01*
X0219797Y0115594D01*
X0220093Y0115423D01*
X0220424Y0115335D01*
X0226398Y0115335D01*
X0226398Y0118500D01*
X0226998Y0118500D01*
X0226998Y0115335D01*
X0232971Y0115335D01*
X0233000Y0115342D01*
X0233000Y0072258D01*
X0232971Y0072265D01*
X0226998Y0072265D01*
X0226998Y0069100D01*
X0226398Y0069100D01*
X0226398Y0072265D01*
X0220424Y0072265D01*
X0220093Y0072177D01*
X0219797Y0072006D01*
X0219657Y0071865D01*
X0219600Y0071865D01*
X0219600Y0074338D01*
X0218838Y0075100D01*
X0211100Y0082838D01*
X0210338Y0083600D01*
X0159838Y0083600D01*
X0156938Y0086500D01*
X0192721Y0086500D01*
X0193810Y0085411D01*
X0195790Y0085411D01*
X0197189Y0086810D01*
X0197189Y0088790D01*
X0195790Y0090189D01*
X0193810Y0090189D01*
X0192721Y0089100D01*
X0157858Y0089100D01*
X0157163Y0089795D01*
X0157163Y0091335D01*
X0155938Y0092560D01*
X0156979Y0093600D01*
X0166155Y0093600D01*
X0166348Y0093793D01*
X0168030Y0093793D01*
X0169429Y0095192D01*
X0169429Y0097171D01*
X0168030Y0098571D01*
X0166051Y0098571D01*
X0164651Y0097171D01*
X0164651Y0096000D01*
X0156979Y0096000D01*
X0155790Y0097189D01*
X0153810Y0097189D01*
X0152411Y0095790D01*
X0152411Y0093810D01*
X0153636Y0092586D01*
X0152385Y0091335D01*
X0152385Y0091053D01*
X0122689Y0120749D01*
X0122689Y0120835D02*
X0161028Y0120835D01*
X0161028Y0121137D02*
X0161028Y0119100D01*
X0166555Y0119100D01*
X0166555Y0118500D01*
X0161028Y0118500D01*
X0161028Y0116463D01*
X0161116Y0116133D01*
X0161287Y0115836D01*
X0161529Y0115594D01*
X0161826Y0115423D01*
X0162156Y0115335D01*
X0166555Y0115335D01*
X0166555Y0118500D01*
X0167155Y0118500D01*
X0167155Y0115335D01*
X0171554Y0115335D01*
X0171884Y0115423D01*
X0172181Y0115594D01*
X0172423Y0115836D01*
X0172594Y0116133D01*
X0172683Y0116463D01*
X0172683Y0118500D01*
X0167155Y0118500D01*
X0167155Y0119100D01*
X0166555Y0119100D01*
X0166555Y0122265D01*
X0162156Y0122265D01*
X0161826Y0122177D01*
X0161529Y0122006D01*
X0161287Y0121764D01*
X0161116Y0121467D01*
X0161028Y0121137D01*
X0161107Y0121434D02*
X0122689Y0121434D01*
X0122689Y0122032D02*
X0161575Y0122032D01*
X0161028Y0120237D02*
X0123202Y0120237D01*
X0123800Y0119638D02*
X0161028Y0119638D01*
X0161028Y0118441D02*
X0124997Y0118441D01*
X0124399Y0119039D02*
X0166555Y0119039D01*
X0166555Y0118441D02*
X0167155Y0118441D01*
X0167155Y0119039D02*
X0172687Y0119039D01*
X0172683Y0119100D02*
X0172683Y0121137D01*
X0172594Y0121467D01*
X0172423Y0121764D01*
X0172181Y0122006D01*
X0171884Y0122177D01*
X0171554Y0122265D01*
X0167155Y0122265D01*
X0167155Y0119100D01*
X0172683Y0119100D01*
X0172683Y0119638D02*
X0172687Y0119638D01*
X0172683Y0120237D02*
X0172687Y0120237D01*
X0172683Y0120835D02*
X0172687Y0120835D01*
X0172687Y0121338D02*
X0173215Y0121865D01*
X0176913Y0121865D01*
X0177440Y0121338D01*
X0177440Y0116262D01*
X0176913Y0115735D01*
X0173215Y0115735D01*
X0172687Y0116262D01*
X0172687Y0121338D01*
X0172603Y0121434D02*
X0172783Y0121434D01*
X0172135Y0122032D02*
X0182008Y0122032D01*
X0181962Y0122006D02*
X0181822Y0121865D01*
X0178845Y0121865D01*
X0178317Y0121338D01*
X0178317Y0116262D01*
X0178845Y0115735D01*
X0181822Y0115735D01*
X0181962Y0115594D01*
X0182259Y0115423D01*
X0182589Y0115335D01*
X0186280Y0115335D01*
X0186280Y0118500D01*
X0186879Y0118500D01*
X0186879Y0115335D01*
X0190570Y0115335D01*
X0190891Y0115421D01*
X0191212Y0115335D01*
X0194469Y0115335D01*
X0194469Y0118500D01*
X0195068Y0118500D01*
X0195068Y0115335D01*
X0198325Y0115335D01*
X0198656Y0115423D01*
X0198953Y0115594D01*
X0199195Y0115836D01*
X0199366Y0116133D01*
X0199454Y0116463D01*
X0199454Y0118500D01*
X0195069Y0118500D01*
X0195069Y0119100D01*
X0199454Y0119100D01*
X0199454Y0121137D01*
X0199366Y0121467D01*
X0199195Y0121764D01*
X0198953Y0122006D01*
X0198656Y0122177D01*
X0198325Y0122265D01*
X0195068Y0122265D01*
X0195068Y0119100D01*
X0194469Y0119100D01*
X0194469Y0122265D01*
X0191212Y0122265D01*
X0190891Y0122179D01*
X0190570Y0122265D01*
X0186879Y0122265D01*
X0186879Y0119100D01*
X0186280Y0119100D01*
X0186280Y0122265D01*
X0182589Y0122265D01*
X0182259Y0122177D01*
X0181962Y0122006D01*
X0178413Y0121434D02*
X0177345Y0121434D01*
X0177440Y0120835D02*
X0178317Y0120835D01*
X0178317Y0120237D02*
X0177440Y0120237D01*
X0177440Y0119638D02*
X0178317Y0119638D01*
X0178317Y0119039D02*
X0177440Y0119039D01*
X0177440Y0118441D02*
X0178317Y0118441D01*
X0178317Y0117842D02*
X0177440Y0117842D01*
X0177440Y0117244D02*
X0178317Y0117244D01*
X0178317Y0116645D02*
X0177440Y0116645D01*
X0177225Y0116047D02*
X0178532Y0116047D01*
X0182215Y0115448D02*
X0171928Y0115448D01*
X0172544Y0116047D02*
X0172902Y0116047D01*
X0172687Y0116645D02*
X0172683Y0116645D01*
X0172683Y0117244D02*
X0172687Y0117244D01*
X0172683Y0117842D02*
X0172687Y0117842D01*
X0172683Y0118441D02*
X0172687Y0118441D01*
X0167155Y0117842D02*
X0166555Y0117842D01*
X0166555Y0117244D02*
X0167155Y0117244D01*
X0167155Y0116645D02*
X0166555Y0116645D01*
X0166555Y0116047D02*
X0167155Y0116047D01*
X0167155Y0115448D02*
X0166555Y0115448D01*
X0166555Y0119638D02*
X0167155Y0119638D01*
X0167155Y0120237D02*
X0166555Y0120237D01*
X0166555Y0120835D02*
X0167155Y0120835D01*
X0167155Y0121434D02*
X0166555Y0121434D01*
X0166555Y0122032D02*
X0167155Y0122032D01*
X0161028Y0117842D02*
X0125596Y0117842D01*
X0126195Y0117244D02*
X0161028Y0117244D01*
X0161028Y0116645D02*
X0126793Y0116645D01*
X0127392Y0116047D02*
X0161166Y0116047D01*
X0161782Y0115448D02*
X0127990Y0115448D01*
X0128589Y0114850D02*
X0233000Y0114850D01*
X0233000Y0114251D02*
X0129187Y0114251D01*
X0129786Y0113653D02*
X0233000Y0113653D01*
X0233000Y0113054D02*
X0130384Y0113054D01*
X0130983Y0112456D02*
X0233000Y0112456D01*
X0233000Y0111857D02*
X0131581Y0111857D01*
X0132180Y0111259D02*
X0233000Y0111259D01*
X0233000Y0110660D02*
X0132778Y0110660D01*
X0133377Y0110062D02*
X0233000Y0110062D01*
X0233000Y0109463D02*
X0133975Y0109463D01*
X0134574Y0108865D02*
X0233000Y0108865D01*
X0233000Y0108266D02*
X0135172Y0108266D01*
X0135771Y0107668D02*
X0233000Y0107668D01*
X0233000Y0107069D02*
X0136369Y0107069D01*
X0136968Y0106471D02*
X0233000Y0106471D01*
X0233000Y0105872D02*
X0137566Y0105872D01*
X0138165Y0105274D02*
X0233000Y0105274D01*
X0233000Y0104675D02*
X0138763Y0104675D01*
X0139362Y0104077D02*
X0233000Y0104077D01*
X0233000Y0103478D02*
X0139960Y0103478D01*
X0140559Y0102880D02*
X0233000Y0102880D01*
X0233000Y0102281D02*
X0141157Y0102281D01*
X0141756Y0101683D02*
X0233000Y0101683D01*
X0233000Y0101084D02*
X0142354Y0101084D01*
X0142953Y0100486D02*
X0233000Y0100486D01*
X0233000Y0099887D02*
X0143551Y0099887D01*
X0144150Y0099289D02*
X0233000Y0099289D01*
X0233000Y0098690D02*
X0144748Y0098690D01*
X0145347Y0098092D02*
X0165571Y0098092D01*
X0164973Y0097493D02*
X0145945Y0097493D01*
X0146544Y0096895D02*
X0153516Y0096895D01*
X0152918Y0096296D02*
X0147142Y0096296D01*
X0147741Y0095698D02*
X0152411Y0095698D01*
X0152411Y0095099D02*
X0148339Y0095099D01*
X0148938Y0094501D02*
X0152411Y0094501D01*
X0152411Y0093902D02*
X0149536Y0093902D01*
X0150135Y0093303D02*
X0152918Y0093303D01*
X0153516Y0092705D02*
X0150733Y0092705D01*
X0151332Y0092106D02*
X0153156Y0092106D01*
X0152558Y0091508D02*
X0151930Y0091508D01*
X0154800Y0094800D02*
X0165658Y0094800D01*
X0167040Y0096182D01*
X0168737Y0094501D02*
X0233000Y0094501D01*
X0233000Y0095099D02*
X0169336Y0095099D01*
X0169429Y0095698D02*
X0233000Y0095698D01*
X0233000Y0096296D02*
X0169429Y0096296D01*
X0169429Y0096895D02*
X0233000Y0096895D01*
X0233000Y0097493D02*
X0169107Y0097493D01*
X0168509Y0098092D02*
X0233000Y0098092D01*
X0233000Y0093902D02*
X0168139Y0093902D01*
X0164651Y0096296D02*
X0156682Y0096296D01*
X0156084Y0096895D02*
X0164651Y0096895D01*
X0156682Y0093303D02*
X0233000Y0093303D01*
X0233000Y0092705D02*
X0156084Y0092705D01*
X0156392Y0092106D02*
X0233000Y0092106D01*
X0233000Y0091508D02*
X0156991Y0091508D01*
X0157163Y0090909D02*
X0233000Y0090909D01*
X0233000Y0090311D02*
X0157163Y0090311D01*
X0157246Y0089712D02*
X0193334Y0089712D01*
X0192735Y0089114D02*
X0157845Y0089114D01*
X0157317Y0086121D02*
X0193100Y0086121D01*
X0193699Y0085523D02*
X0157916Y0085523D01*
X0158514Y0084924D02*
X0233000Y0084924D01*
X0233000Y0084326D02*
X0159113Y0084326D01*
X0159711Y0083727D02*
X0233000Y0083727D01*
X0233000Y0083129D02*
X0210810Y0083129D01*
X0211408Y0082530D02*
X0233000Y0082530D01*
X0233000Y0081932D02*
X0212007Y0081932D01*
X0212605Y0081333D02*
X0233000Y0081333D01*
X0233000Y0080735D02*
X0213204Y0080735D01*
X0213802Y0080136D02*
X0233000Y0080136D01*
X0233000Y0079538D02*
X0214401Y0079538D01*
X0214999Y0078939D02*
X0233000Y0078939D01*
X0233000Y0078341D02*
X0215598Y0078341D01*
X0216196Y0077742D02*
X0233000Y0077742D01*
X0233000Y0077144D02*
X0216795Y0077144D01*
X0217393Y0076545D02*
X0233000Y0076545D01*
X0233000Y0075947D02*
X0217992Y0075947D01*
X0218590Y0075348D02*
X0233000Y0075348D01*
X0233000Y0074750D02*
X0219189Y0074750D01*
X0219600Y0074151D02*
X0233000Y0074151D01*
X0233000Y0073553D02*
X0219600Y0073553D01*
X0219600Y0072954D02*
X0233000Y0072954D01*
X0233000Y0072356D02*
X0219600Y0072356D01*
X0213390Y0072356D02*
X0154234Y0072356D01*
X0154833Y0072954D02*
X0213307Y0072954D01*
X0212709Y0073553D02*
X0155431Y0073553D01*
X0157530Y0074151D02*
X0212110Y0074151D01*
X0211512Y0074750D02*
X0158128Y0074750D01*
X0158727Y0075348D02*
X0210913Y0075348D01*
X0210315Y0075947D02*
X0160825Y0075947D01*
X0161424Y0076545D02*
X0209716Y0076545D01*
X0209118Y0077144D02*
X0162022Y0077144D01*
X0162189Y0077742D02*
X0208519Y0077742D01*
X0207921Y0078341D02*
X0162189Y0078341D01*
X0162189Y0078939D02*
X0207322Y0078939D01*
X0206724Y0079538D02*
X0161941Y0079538D01*
X0162156Y0072265D02*
X0161826Y0072177D01*
X0161529Y0072006D01*
X0161287Y0071764D01*
X0161116Y0071467D01*
X0161028Y0071137D01*
X0161028Y0069100D01*
X0166555Y0069100D01*
X0166555Y0068500D01*
X0167155Y0068500D01*
X0167155Y0065335D01*
X0171554Y0065335D01*
X0171884Y0065423D01*
X0172181Y0065594D01*
X0172423Y0065836D01*
X0172594Y0066133D01*
X0172683Y0066463D01*
X0172683Y0068500D01*
X0167155Y0068500D01*
X0167155Y0069100D01*
X0166555Y0069100D01*
X0166555Y0072265D01*
X0162156Y0072265D01*
X0161284Y0071757D02*
X0153189Y0071757D01*
X0153189Y0071159D02*
X0161033Y0071159D01*
X0161028Y0070560D02*
X0152939Y0070560D01*
X0152340Y0069962D02*
X0161028Y0069962D01*
X0161028Y0069363D02*
X0125100Y0069363D01*
X0125100Y0068765D02*
X0166555Y0068765D01*
X0166555Y0069363D02*
X0167155Y0069363D01*
X0167155Y0069100D02*
X0167155Y0072265D01*
X0171554Y0072265D01*
X0171884Y0072177D01*
X0172181Y0072006D01*
X0172423Y0071764D01*
X0172594Y0071467D01*
X0172683Y0071137D01*
X0172683Y0069100D01*
X0167155Y0069100D01*
X0167155Y0068765D02*
X0172983Y0068765D01*
X0172983Y0069363D02*
X0172683Y0069363D01*
X0172683Y0069962D02*
X0172983Y0069962D01*
X0172983Y0070560D02*
X0172683Y0070560D01*
X0172677Y0071159D02*
X0172983Y0071159D01*
X0172983Y0071338D02*
X0173510Y0071865D01*
X0176618Y0071865D01*
X0177145Y0071338D01*
X0177145Y0066262D01*
X0176618Y0065735D01*
X0173510Y0065735D01*
X0172983Y0066262D01*
X0172983Y0071338D01*
X0173402Y0071757D02*
X0172427Y0071757D01*
X0172683Y0068166D02*
X0172983Y0068166D01*
X0172983Y0067568D02*
X0172683Y0067568D01*
X0172683Y0066969D02*
X0172983Y0066969D01*
X0172983Y0066370D02*
X0172658Y0066370D01*
X0172358Y0065772D02*
X0173473Y0065772D01*
X0176655Y0065772D02*
X0178807Y0065772D01*
X0178317Y0066370D02*
X0177145Y0066370D01*
X0177145Y0066969D02*
X0178317Y0066969D01*
X0178317Y0067568D02*
X0177145Y0067568D01*
X0177145Y0068166D02*
X0178317Y0068166D01*
X0178317Y0068765D02*
X0177145Y0068765D01*
X0177145Y0069363D02*
X0178317Y0069363D01*
X0178317Y0069962D02*
X0177145Y0069962D01*
X0177145Y0070560D02*
X0178317Y0070560D01*
X0178317Y0071159D02*
X0177145Y0071159D01*
X0176726Y0071757D02*
X0178736Y0071757D01*
X0186280Y0071757D02*
X0186879Y0071757D01*
X0186879Y0071159D02*
X0186280Y0071159D01*
X0186280Y0070560D02*
X0186879Y0070560D01*
X0186879Y0069962D02*
X0186280Y0069962D01*
X0186280Y0069363D02*
X0186879Y0069363D01*
X0186880Y0069100D02*
X0190083Y0069100D01*
X0194468Y0069100D01*
X0194468Y0068500D01*
X0186880Y0068500D01*
X0186880Y0069100D01*
X0186880Y0068765D02*
X0194468Y0068765D01*
X0194469Y0069363D02*
X0195068Y0069363D01*
X0195068Y0069962D02*
X0194469Y0069962D01*
X0194469Y0070560D02*
X0195068Y0070560D01*
X0195068Y0071159D02*
X0194469Y0071159D01*
X0194469Y0071757D02*
X0195068Y0071757D01*
X0195068Y0068166D02*
X0194469Y0068166D01*
X0194469Y0067568D02*
X0195068Y0067568D01*
X0195068Y0066969D02*
X0194469Y0066969D01*
X0194469Y0066370D02*
X0195068Y0066370D01*
X0195068Y0065772D02*
X0194469Y0065772D01*
X0186879Y0065772D02*
X0186280Y0065772D01*
X0186280Y0066370D02*
X0186879Y0066370D01*
X0186879Y0066969D02*
X0186280Y0066969D01*
X0186280Y0067568D02*
X0186879Y0067568D01*
X0186879Y0068166D02*
X0186280Y0068166D01*
X0195901Y0085523D02*
X0233000Y0085523D01*
X0233000Y0086121D02*
X0196500Y0086121D01*
X0197098Y0086720D02*
X0233000Y0086720D01*
X0233000Y0087318D02*
X0197189Y0087318D01*
X0197189Y0087917D02*
X0233000Y0087917D01*
X0233000Y0088515D02*
X0197189Y0088515D01*
X0196865Y0089114D02*
X0233000Y0089114D01*
X0233000Y0089712D02*
X0196266Y0089712D01*
X0195068Y0115448D02*
X0194469Y0115448D01*
X0194469Y0116047D02*
X0195068Y0116047D01*
X0195068Y0116645D02*
X0194469Y0116645D01*
X0194469Y0117244D02*
X0195068Y0117244D01*
X0195068Y0117842D02*
X0194469Y0117842D01*
X0194469Y0118441D02*
X0195068Y0118441D01*
X0195069Y0119039D02*
X0201979Y0119039D01*
X0201979Y0118441D02*
X0199454Y0118441D01*
X0199454Y0117842D02*
X0201979Y0117842D01*
X0201979Y0117244D02*
X0199454Y0117244D01*
X0199454Y0116645D02*
X0201979Y0116645D01*
X0202194Y0116047D02*
X0199316Y0116047D01*
X0198700Y0115448D02*
X0209420Y0115448D01*
X0210856Y0115448D02*
X0211437Y0115448D01*
X0211437Y0116047D02*
X0210856Y0116047D01*
X0210856Y0116645D02*
X0211437Y0116645D01*
X0211437Y0117244D02*
X0210856Y0117244D01*
X0210856Y0117842D02*
X0211437Y0117842D01*
X0211437Y0118441D02*
X0210856Y0118441D01*
X0211146Y0118800D02*
X0210359Y0119587D01*
X0209213Y0122032D02*
X0208903Y0122032D01*
X0206229Y0122032D02*
X0198907Y0122032D01*
X0199375Y0121434D02*
X0202074Y0121434D01*
X0201979Y0120835D02*
X0199454Y0120835D01*
X0199454Y0120237D02*
X0201979Y0120237D01*
X0201979Y0119638D02*
X0199454Y0119638D01*
X0195068Y0119638D02*
X0194469Y0119638D01*
X0194468Y0119100D02*
X0194468Y0118500D01*
X0186880Y0118500D01*
X0186880Y0119100D01*
X0191698Y0119100D01*
X0194468Y0119100D01*
X0194468Y0119039D02*
X0186880Y0119039D01*
X0186879Y0118441D02*
X0186280Y0118441D01*
X0186280Y0117842D02*
X0186879Y0117842D01*
X0186879Y0117244D02*
X0186280Y0117244D01*
X0186280Y0116645D02*
X0186879Y0116645D01*
X0186879Y0116047D02*
X0186280Y0116047D01*
X0186280Y0115448D02*
X0186879Y0115448D01*
X0186879Y0119638D02*
X0186280Y0119638D01*
X0186280Y0120237D02*
X0186879Y0120237D01*
X0186879Y0120835D02*
X0186280Y0120835D01*
X0186280Y0121434D02*
X0186879Y0121434D01*
X0186879Y0122032D02*
X0186280Y0122032D01*
X0194469Y0122032D02*
X0195068Y0122032D01*
X0195068Y0121434D02*
X0194469Y0121434D01*
X0194469Y0120835D02*
X0195068Y0120835D01*
X0195068Y0120237D02*
X0194469Y0120237D01*
X0210059Y0126222D02*
X0210659Y0126222D01*
X0210659Y0126820D02*
X0210059Y0126820D01*
X0210059Y0127419D02*
X0210659Y0127419D01*
X0210659Y0128017D02*
X0210059Y0128017D01*
X0210659Y0128616D02*
X0215463Y0128616D01*
X0215463Y0129214D02*
X0213037Y0129214D01*
X0213037Y0129100D02*
X0213037Y0130743D01*
X0212948Y0131073D01*
X0212777Y0131370D01*
X0212535Y0131612D01*
X0212239Y0131783D01*
X0211908Y0131872D01*
X0210659Y0131872D01*
X0210659Y0129100D01*
X0213037Y0129100D01*
X0213037Y0129813D02*
X0215463Y0129813D01*
X0215463Y0130411D02*
X0213037Y0130411D01*
X0212965Y0131010D02*
X0215528Y0131010D01*
X0215653Y0131608D02*
X0212539Y0131608D01*
X0210659Y0131608D02*
X0210059Y0131608D01*
X0210059Y0131010D02*
X0210659Y0131010D01*
X0210659Y0130411D02*
X0210059Y0130411D01*
X0210059Y0129813D02*
X0210659Y0129813D01*
X0210659Y0129214D02*
X0210059Y0129214D01*
X0213037Y0128017D02*
X0215463Y0128017D01*
X0215463Y0127419D02*
X0213037Y0127419D01*
X0213027Y0126820D02*
X0215463Y0126820D01*
X0215897Y0126222D02*
X0212769Y0126222D01*
X0219041Y0122032D02*
X0219843Y0122032D01*
X0220050Y0115448D02*
X0212873Y0115448D01*
X0226398Y0115448D02*
X0226998Y0115448D01*
X0226998Y0116047D02*
X0226398Y0116047D01*
X0226398Y0116645D02*
X0226998Y0116645D01*
X0226998Y0117244D02*
X0226398Y0117244D01*
X0226398Y0117842D02*
X0226998Y0117842D01*
X0226998Y0118441D02*
X0226398Y0118441D01*
X0226398Y0071757D02*
X0226998Y0071757D01*
X0226998Y0071159D02*
X0226398Y0071159D01*
X0226398Y0070560D02*
X0226998Y0070560D01*
X0226998Y0069962D02*
X0226398Y0069962D01*
X0226398Y0069363D02*
X0226998Y0069363D01*
X0226998Y0068166D02*
X0226398Y0068166D01*
X0226398Y0067568D02*
X0226998Y0067568D01*
X0226998Y0066969D02*
X0226398Y0066969D01*
X0226398Y0066370D02*
X0226998Y0066370D01*
X0226998Y0065772D02*
X0226398Y0065772D01*
X0226519Y0061582D02*
X0226681Y0061582D01*
X0226681Y0060984D02*
X0226519Y0060984D01*
X0226519Y0060385D02*
X0226681Y0060385D01*
X0226693Y0059787D02*
X0226519Y0059787D01*
X0226519Y0059188D02*
X0226681Y0059188D01*
X0226681Y0058590D02*
X0226519Y0058590D01*
X0168665Y0043029D02*
X0168500Y0043029D01*
X0163850Y0040036D02*
X0163600Y0040036D01*
X0163600Y0039437D02*
X0163850Y0039437D01*
X0161352Y0065772D02*
X0155340Y0065772D01*
X0161028Y0067568D02*
X0125100Y0067568D01*
X0125100Y0068166D02*
X0161028Y0068166D01*
X0166555Y0068166D02*
X0167155Y0068166D01*
X0167155Y0067568D02*
X0166555Y0067568D01*
X0166555Y0066969D02*
X0167155Y0066969D01*
X0167155Y0066370D02*
X0166555Y0066370D01*
X0166555Y0065772D02*
X0167155Y0065772D01*
X0167155Y0069962D02*
X0166555Y0069962D01*
X0166555Y0070560D02*
X0167155Y0070560D01*
X0167155Y0071159D02*
X0166555Y0071159D01*
X0166555Y0071757D02*
X0167155Y0071757D01*
X0119315Y0075947D02*
X0117057Y0075947D01*
X0116459Y0076545D02*
X0118716Y0076545D01*
X0118118Y0077144D02*
X0115860Y0077144D01*
X0115262Y0077742D02*
X0117519Y0077742D01*
X0116921Y0078341D02*
X0114663Y0078341D01*
X0114065Y0078939D02*
X0116322Y0078939D01*
X0115724Y0079538D02*
X0113466Y0079538D01*
X0112868Y0080136D02*
X0115125Y0080136D01*
X0114527Y0080735D02*
X0112269Y0080735D01*
X0111671Y0081333D02*
X0113928Y0081333D01*
X0113330Y0081932D02*
X0111072Y0081932D01*
X0110474Y0082530D02*
X0112731Y0082530D01*
X0112133Y0083129D02*
X0109875Y0083129D01*
X0109277Y0083727D02*
X0111534Y0083727D01*
X0110936Y0084326D02*
X0108678Y0084326D01*
X0109739Y0085523D02*
X0102583Y0085523D01*
X0102899Y0084924D02*
X0110337Y0084924D01*
X0109140Y0086121D02*
X0101984Y0086121D01*
X0101357Y0086720D02*
X0108542Y0086720D01*
X0107943Y0087318D02*
X0099912Y0087318D01*
X0100476Y0088515D02*
X0106746Y0088515D01*
X0107345Y0087917D02*
X0067755Y0087917D01*
X0067157Y0087318D02*
X0097688Y0087318D01*
X0097124Y0088515D02*
X0068354Y0088515D01*
X0068952Y0089114D02*
X0095981Y0089114D01*
X0095382Y0089712D02*
X0069551Y0089712D01*
X0070149Y0090311D02*
X0094852Y0090311D01*
X0094604Y0090909D02*
X0070748Y0090909D01*
X0066558Y0086720D02*
X0096243Y0086720D01*
X0095616Y0086121D02*
X0065960Y0086121D01*
X0059512Y0089114D02*
X0052825Y0089114D01*
X0052226Y0089712D02*
X0059363Y0089712D01*
X0059363Y0090311D02*
X0051628Y0090311D01*
X0051029Y0090909D02*
X0059363Y0090909D01*
X0059629Y0091508D02*
X0050430Y0091508D01*
X0049832Y0092106D02*
X0060228Y0092106D01*
X0060452Y0092705D02*
X0049233Y0092705D01*
X0048635Y0093303D02*
X0060452Y0093303D01*
X0060452Y0093902D02*
X0048036Y0093902D01*
X0047438Y0094501D02*
X0060452Y0094501D01*
X0060452Y0095099D02*
X0046839Y0095099D01*
X0046241Y0095698D02*
X0060452Y0095698D01*
X0060452Y0096296D02*
X0045689Y0096296D01*
X0045689Y0096895D02*
X0059751Y0096895D01*
X0059152Y0097493D02*
X0045689Y0097493D01*
X0045387Y0098092D02*
X0058911Y0098092D01*
X0058911Y0098690D02*
X0044788Y0098690D01*
X0035000Y0098690D02*
X0029100Y0098690D01*
X0029100Y0098092D02*
X0035000Y0098092D01*
X0035000Y0097493D02*
X0029100Y0097493D01*
X0029100Y0096895D02*
X0035000Y0096895D01*
X0035000Y0096296D02*
X0029100Y0096296D01*
X0029100Y0095698D02*
X0035000Y0095698D01*
X0035000Y0095099D02*
X0029100Y0095099D01*
X0029100Y0094501D02*
X0035000Y0094501D01*
X0035000Y0093902D02*
X0029100Y0093902D01*
X0029100Y0093303D02*
X0035000Y0093303D01*
X0035000Y0092705D02*
X0029100Y0092705D01*
X0029100Y0092106D02*
X0035000Y0092106D01*
X0035000Y0091508D02*
X0029100Y0091508D01*
X0029100Y0090909D02*
X0035000Y0090909D01*
X0035000Y0090311D02*
X0029100Y0090311D01*
X0029100Y0089712D02*
X0035000Y0089712D01*
X0035000Y0089114D02*
X0029100Y0089114D01*
X0029100Y0088515D02*
X0035000Y0088515D01*
X0035000Y0087917D02*
X0029100Y0087917D01*
X0029100Y0087318D02*
X0035000Y0087318D01*
X0035000Y0086720D02*
X0029100Y0086720D01*
X0029100Y0086121D02*
X0035000Y0086121D01*
X0035000Y0085523D02*
X0029100Y0085523D01*
X0029100Y0084924D02*
X0035000Y0084924D01*
X0035000Y0084326D02*
X0029100Y0084326D01*
X0029100Y0083727D02*
X0035000Y0083727D01*
X0035000Y0083129D02*
X0029100Y0083129D01*
X0029100Y0082530D02*
X0035000Y0082530D01*
X0035000Y0081932D02*
X0029100Y0081932D01*
X0029100Y0081333D02*
X0035000Y0081333D01*
X0035000Y0080735D02*
X0029100Y0080735D01*
X0029100Y0080136D02*
X0035000Y0080136D01*
X0035000Y0079538D02*
X0029100Y0079538D01*
X0029100Y0078939D02*
X0035000Y0078939D01*
X0035000Y0078341D02*
X0029100Y0078341D01*
X0029100Y0077742D02*
X0035019Y0077742D01*
X0035411Y0077144D02*
X0029100Y0077144D01*
X0029100Y0076545D02*
X0035411Y0076545D01*
X0035411Y0075947D02*
X0029100Y0075947D01*
X0029100Y0075348D02*
X0035873Y0075348D01*
X0036472Y0074750D02*
X0029100Y0074750D01*
X0029100Y0099289D02*
X0035000Y0099289D01*
X0035000Y0099887D02*
X0029100Y0099887D01*
X0029100Y0100486D02*
X0035000Y0100486D01*
X0034637Y0101084D02*
X0029100Y0101084D01*
X0029100Y0101683D02*
X0034039Y0101683D01*
X0033911Y0102281D02*
X0029100Y0102281D01*
X0029100Y0102880D02*
X0033911Y0102880D01*
X0033911Y0103478D02*
X0029100Y0103478D01*
X0029100Y0104077D02*
X0034198Y0104077D01*
X0034797Y0104675D02*
X0029100Y0104675D01*
X0054689Y0102880D02*
X0057041Y0102880D01*
X0057640Y0103478D02*
X0054956Y0103478D01*
X0054689Y0102281D02*
X0056443Y0102281D01*
X0055844Y0101683D02*
X0054689Y0101683D01*
X0057127Y0099289D02*
X0058911Y0099289D01*
X0059085Y0099887D02*
X0057726Y0099887D01*
X0058324Y0100486D02*
X0059683Y0100486D01*
X0063720Y0111259D02*
X0069440Y0111259D01*
X0068842Y0110660D02*
X0067758Y0110660D01*
X0067507Y0113653D02*
X0073392Y0113653D01*
X0073989Y0114251D02*
X0067750Y0114251D01*
X0067750Y0114850D02*
X0071872Y0114850D01*
X0071273Y0115448D02*
X0067750Y0115448D01*
X0067750Y0116091D02*
X0067750Y0117349D01*
X0067661Y0117680D01*
X0067490Y0117976D01*
X0067248Y0118218D01*
X0066951Y0118389D01*
X0066621Y0118478D01*
X0065559Y0118478D01*
X0065559Y0116091D01*
X0067750Y0116091D01*
X0067750Y0116645D02*
X0070911Y0116645D01*
X0070911Y0116047D02*
X0065559Y0116047D01*
X0065559Y0116645D02*
X0064978Y0116645D01*
X0064978Y0117244D02*
X0065559Y0117244D01*
X0065559Y0117842D02*
X0064978Y0117842D01*
X0064978Y0118441D02*
X0065559Y0118441D01*
X0066759Y0118441D02*
X0071562Y0118441D01*
X0070964Y0117842D02*
X0067567Y0117842D01*
X0067750Y0117244D02*
X0070911Y0117244D01*
X0072794Y0113054D02*
X0060384Y0113054D01*
X0062523Y0112456D02*
X0072195Y0112456D01*
X0071597Y0111857D02*
X0063121Y0111857D01*
X0063689Y0111290D02*
X0063689Y0111290D01*
X0063030Y0113653D02*
X0063016Y0113653D01*
X0064978Y0113653D02*
X0065559Y0113653D01*
X0065559Y0114251D02*
X0064978Y0114251D01*
X0064978Y0114850D02*
X0065559Y0114850D01*
X0065559Y0115448D02*
X0064978Y0115448D01*
X0063337Y0127419D02*
X0062957Y0127419D01*
X0062712Y0128017D02*
X0063782Y0128017D01*
X0063228Y0141783D02*
X0062912Y0141783D01*
X0068668Y0144775D02*
X0070986Y0144775D01*
X0071585Y0144177D02*
X0069251Y0144177D01*
X0069372Y0143578D02*
X0072000Y0143578D01*
X0072000Y0142980D02*
X0069372Y0142980D01*
X0068737Y0145374D02*
X0070388Y0145374D01*
X0069789Y0145972D02*
X0068972Y0145972D01*
X0085777Y0127419D02*
X0096851Y0127419D01*
X0095827Y0126820D02*
X0085179Y0126820D01*
X0084699Y0126222D02*
X0095151Y0126222D01*
X0094671Y0125623D02*
X0084699Y0125623D01*
X0084699Y0125025D02*
X0094322Y0125025D01*
X0094071Y0124426D02*
X0084325Y0124426D01*
X0083726Y0123828D02*
X0093900Y0123828D01*
X0098500Y0123828D02*
X0099100Y0123828D01*
X0099100Y0124426D02*
X0098500Y0124426D01*
X0098500Y0125025D02*
X0099100Y0125025D01*
X0099100Y0125623D02*
X0098500Y0125623D01*
X0098500Y0126222D02*
X0099100Y0126222D01*
X0099100Y0126820D02*
X0098500Y0126820D01*
X0098500Y0127419D02*
X0099100Y0127419D01*
X0095965Y0106471D02*
X0086508Y0106471D01*
X0086689Y0105872D02*
X0095367Y0105872D01*
X0094846Y0105274D02*
X0086689Y0105274D01*
X0086689Y0104675D02*
X0094598Y0104675D01*
X0094350Y0104077D02*
X0086455Y0104077D01*
X0085857Y0103478D02*
X0094200Y0103478D01*
X0102996Y0090909D02*
X0104352Y0090909D01*
X0104951Y0090311D02*
X0102748Y0090311D01*
X0102218Y0089712D02*
X0105549Y0089712D01*
X0106148Y0089114D02*
X0101619Y0089114D01*
X0105176Y0076545D02*
X0076924Y0076545D01*
X0076325Y0075947D02*
X0105775Y0075947D01*
X0072911Y0078939D02*
X0072843Y0078939D01*
X0066891Y0037043D02*
X0082709Y0037043D01*
X0081540Y0036445D02*
X0068060Y0036445D01*
X0068658Y0035846D02*
X0080942Y0035846D01*
X0080570Y0035248D02*
X0069030Y0035248D01*
X0069278Y0034649D02*
X0080322Y0034649D01*
X0080187Y0034051D02*
X0069413Y0034051D01*
X0069413Y0033452D02*
X0080187Y0033452D01*
X0080206Y0032854D02*
X0069394Y0032854D01*
X0069146Y0032255D02*
X0080454Y0032255D01*
X0080702Y0031657D02*
X0068898Y0031657D01*
X0068341Y0031058D02*
X0081259Y0031058D01*
X0082030Y0030460D02*
X0067570Y0030460D01*
X0061415Y0024475D02*
X0088185Y0024475D01*
X0087714Y0023876D02*
X0061886Y0023876D01*
X0062134Y0023278D02*
X0087466Y0023278D01*
X0087218Y0022679D02*
X0062382Y0022679D01*
X0062413Y0022081D02*
X0087187Y0022081D01*
X0087187Y0021482D02*
X0062413Y0021482D01*
X0062367Y0020884D02*
X0087233Y0020884D01*
X0087481Y0020285D02*
X0062119Y0020285D01*
X0061871Y0019687D02*
X0087729Y0019687D01*
X0088222Y0019088D02*
X0061378Y0019088D01*
X0060817Y0025073D02*
X0088783Y0025073D01*
X0090002Y0025672D02*
X0059598Y0025672D01*
D32*
X0059800Y0044300D02*
X0069800Y0054300D01*
X0069800Y0078300D01*
X0074300Y0082800D01*
X0098800Y0082800D01*
X0107800Y0082800D01*
X0116800Y0073800D01*
X0116800Y0072300D01*
X0116800Y0056859D01*
X0119187Y0054472D01*
X0119199Y0054472D01*
X0120019Y0053652D01*
X0120019Y0053640D01*
X0122359Y0051300D01*
X0123540Y0050119D01*
X0123540Y0043918D01*
X0122300Y0038300D02*
X0118300Y0038300D01*
X0116060Y0036060D01*
X0116060Y0033682D01*
X0114741Y0032363D01*
X0114741Y0026300D01*
X0123540Y0033682D02*
X0124229Y0034371D01*
X0124229Y0036371D01*
X0122300Y0038300D01*
X0124229Y0034371D02*
X0129658Y0039800D01*
X0134300Y0039800D01*
D33*
X0145954Y0053146D02*
X0142300Y0056800D01*
X0142300Y0061800D01*
X0145954Y0053146D02*
X0156800Y0053146D01*
X0157194Y0053540D01*
X0163182Y0053540D01*
X0173418Y0053540D02*
X0175812Y0051146D01*
X0179800Y0051146D01*
X0180646Y0050300D01*
X0195300Y0050300D01*
X0201300Y0044300D01*
X0201300Y0040300D01*
X0201300Y0039800D01*
X0201418Y0039682D01*
D34*
X0201418Y0038233D01*
X0199918Y0036733D01*
X0199918Y0032800D01*
X0199918Y0032233D01*
M02*
