  0
SECTION
  2
HEADER
  9
$ACADVER
  1
AC1009
  9
$FILLMODE
 70
0
  9
$EXTMIN
 10
0.0000
 20
-4.1651
 30
0.0000
  9
$EXTMAX
 10
88.1321
 20
51.6611
 30
0.0000
  0
ENDSEC
  0
SECTION
  2
TABLES
  0
TABLE
  2
LTYPE
 70
1
  0
LTYPE
  2
CONTINUOUS
 70
64
  3
Solid line
 72
65
 73
0
 40
0
  0
ENDTAB
  0
TABLE
  2
LAYER
 70
255
  0
LAYER
  2
20
 70
64
 62
31
  6
CONTINUOUS
  0
ENDTAB
  0
ENDSEC
  0
SECTION
  2
BLOCKS
  0
BLOCK
  8
0
  2
RECT
 70
64
 10
0.0000
 20
0.0000
 30
0.0000
  3
RECT
  0
SOLID
  8
0
 10
-0.5000
 20
-0.5000
 30
0.0000
 11
0.5000
 21
-0.5000
 31
0.0000
 12
-0.5000
 22
0.5000
 32
0.0000
 13
0.5000
 23
0.5000
 33
0.0000
  0
ENDBLK
  8
0
  0
BLOCK
  8
0
  2
PIE
 70
64
 10
0.0000
 20
0.0000
 30
0.0000
  3
PIE
  0
CIRCLE
  8
0
 10
0.0000
 20
0.0000
 30
0.0000
 40
0.5000
  0
ENDBLK
  8
0
  0
BLOCK
  8
0
  2
OCTAGONP
 70
64
 10
0.0000
 20
0.0000
 30
0.0000
  3
OCTAGONP
  0
POLYLINE
  8
0
 66
1
 10
0.0000
 20
0.0000
 30
0.0000
 40
0.0000
 41
0.0000
 70
1
  0
VERTEX
  8
0
 10
-0.5000
 20
-0.2071
 30
0.0000
  0
VERTEX
  8
0
 10
-0.5000
 20
0.2071
 30
0.0000
  0
VERTEX
  8
0
 10
-0.2071
 20
0.5000
 30
0.0000
  0
VERTEX
  8
0
 10
0.2071
 20
0.5000
 30
0.0000
  0
VERTEX
  8
0
 10
0.5000
 20
0.2071
 30
0.0000
  0
VERTEX
  8
0
 10
0.5000
 20
-0.2071
 30
0.0000
  0
VERTEX
  8
0
 10
0.2071
 20
-0.5000
 30
0.0000
  0
VERTEX
  8
0
 10
-0.2071
 20
-0.5000
 30
0.0000
  0
SEQEND
  8
0
  0
ENDBLK
  8
0
  0
BLOCK
  8
0
  2
SQUAREP
 70
64
 10
0.0000
 20
0.0000
 30
0.0000
  3
SQUAREP
  0
SOLID
  8
0
 10
-0.5000
 20
-0.5000
 30
0.0000
 11
0.5000
 21
-0.5000
 31
0.0000
 12
-0.5000
 22
0.5000
 32
0.0000
 13
0.5000
 23
0.5000
 33
0.0000
  0
ENDBLK
  8
0
  0
BLOCK
  8
0
  2
ROUNDP
 70
64
 10
0.0000
 20
0.0000
 30
0.0000
  3
ROUNDP
  0
CIRCLE
  8
0
 10
0.0000
 20
0.0000
 30
0.0000
 40
0.5000
  0
ENDBLK
  8
0
  0
BLOCK
  8
0
  2
ANNULUSP
 70
64
 10
0.0000
 20
0.0000
 30
0.0000
  3
ANNULUSP
  0
CIRCLE
  8
0
 10
0.0000
 20
0.0000
 30
0.0000
 40
0.5000
  0
ENDBLK
  8
0
  0
BLOCK
  8
0
  2
THERMALP
 70
64
 10
0.0000
 20
0.0000
 30
0.0000
  3
THERMALP
  0
LINE
  8
0
 10
-0.2379
 20
0.4500
 30
0.0000
 11
0.2379
 21
0.4500
 31
0.0000
  0
LINE
  8
0
 10
0.4500
 20
0.2379
 30
0.0000
 11
0.4500
 21
-0.2379
 31
0.0000
  0
LINE
  8
0
 10
0.2379
 20
-0.4500
 30
0.0000
 11
-0.2379
 21
-0.4500
 31
0.0000
  0
LINE
  8
0
 10
-0.4500
 20
-0.2379
 30
0.0000
 11
-0.4500
 21
0.2379
 31
0.0000
  0
ENDBLK
  8
0
  0
BLOCK
  8
0
  2
OCTAGONV
 70
64
 10
0.0000
 20
0.0000
 30
0.0000
  3
OCTAGONV
  0
POLYLINE
  8
0
 66
1
 10
0.0000
 20
0.0000
 30
0.0000
 40
0.0000
 41
0.0000
 70
1
  0
VERTEX
  8
0
 10
-0.5000
 20
-0.2071
 30
0.0000
  0
VERTEX
  8
0
 10
-0.5000
 20
0.2071
 30
0.0000
  0
VERTEX
  8
0
 10
-0.2071
 20
0.5000
 30
0.0000
  0
VERTEX
  8
0
 10
0.2071
 20
0.5000
 30
0.0000
  0
VERTEX
  8
0
 10
0.5000
 20
0.2071
 30
0.0000
  0
VERTEX
  8
0
 10
0.5000
 20
-0.2071
 30
0.0000
  0
VERTEX
  8
0
 10
0.2071
 20
-0.5000
 30
0.0000
  0
VERTEX
  8
0
 10
-0.2071
 20
-0.5000
 30
0.0000
  0
SEQEND
  8
0
  0
ENDBLK
  8
0
  0
BLOCK
  8
0
  2
SQUAREV
 70
64
 10
0.0000
 20
0.0000
 30
0.0000
  3
SQUAREV
  0
SOLID
  8
0
 10
-0.5000
 20
-0.5000
 30
0.0000
 11
0.5000
 21
-0.5000
 31
0.0000
 12
-0.5000
 22
0.5000
 32
0.0000
 13
0.5000
 23
0.5000
 33
0.0000
  0
ENDBLK
  8
0
  0
BLOCK
  8
0
  2
ROUNDV
 70
64
 10
0.0000
 20
0.0000
 30
0.0000
  3
ROUNDV
  0
CIRCLE
  8
0
 10
0.0000
 20
0.0000
 30
0.0000
 40
0.5000
  0
ENDBLK
  8
0
  0
BLOCK
  8
0
  2
ANNULUSV
 70
64
 10
0.0000
 20
0.0000
 30
0.0000
  3
ANNULUSV
  0
CIRCLE
  8
0
 10
0.0000
 20
0.0000
 30
0.0000
 40
0.5000
  0
ENDBLK
  8
0
  0
BLOCK
  8
0
  2
THERMALV
 70
64
 10
0.0000
 20
0.0000
 30
0.0000
  3
THERMALV
  0
LINE
  8
0
 10
-0.2379
 20
0.4500
 30
0.0000
 11
0.2379
 21
0.4500
 31
0.0000
  0
LINE
  8
0
 10
0.4500
 20
0.2379
 30
0.0000
 11
0.4500
 21
-0.2379
 31
0.0000
  0
LINE
  8
0
 10
0.2379
 20
-0.4500
 30
0.0000
 11
-0.2379
 21
-0.4500
 31
0.0000
  0
LINE
  8
0
 10
-0.4500
 20
-0.2379
 30
0.0000
 11
-0.4500
 21
0.2379
 31
0.0000
  0
ENDBLK
  8
0
  0
ENDSEC
  0
SECTION
  2
ENTITIES
  0
ARC
  8
20
 10
78.6000
 20
26.9900
 30
0.0000
 40
2.0000
 50
270.0000
 51
0.0000
  0
LINE
  8
20
 10
80.6000
 20
26.9900
 30
0.0000
 11
80.6000
 21
35.5000
 31
0.0000
  0
LINE
  8
20
 10
12.7500
 20
49.9800
 30
0.0000
 11
78.0000
 21
49.9800
 31
0.0000
  0
LINE
  8
20
 10
12.7500
 20
49.9800
 30
0.0000
 11
12.7500
 21
47.6800
 31
0.0000
  0
ARC
  8
20
 10
12.0500
 20
47.6800
 30
0.0000
 40
0.7000
 50
270.0000
 51
0.0000
  0
LINE
  8
20
 10
12.0500
 20
46.9800
 30
0.0000
 11
11.9500
 21
46.9800
 31
0.0000
  0
ARC
  8
20
 10
11.9500
 20
47.6800
 30
0.0000
 40
0.7000
 50
180.0000
 51
270.0000
  0
LINE
  8
20
 10
11.2500
 20
47.6800
 30
0.0000
 11
11.2500
 21
49.9800
 31
0.0000
  0
LINE
  8
20
 10
1.0000
 20
49.9800
 30
0.0000
 11
11.2500
 21
49.9800
 31
0.0000
  0
ARC
  8
20
 10
1.0000
 20
48.9800
 30
0.0000
 40
1.0000
 50
90.0000
 51
180.0000
  0
LINE
  8
20
 10
0.0000
 20
1.0000
 30
0.0000
 11
0.0000
 21
48.9800
 31
0.0000
  0
ARC
  8
20
 10
1.0000
 20
1.0000
 30
0.0000
 40
1.0000
 50
180.0000
 51
270.0000
  0
LINE
  8
20
 10
1.0000
 20
0.0000
 30
0.0000
 11
14.2500
 21
0.0000
 31
0.0000
  0
LINE
  8
20
 10
14.2500
 20
2.3000
 30
0.0000
 11
14.2500
 21
0.0000
 31
0.0000
  0
ARC
  8
20
 10
14.9500
 20
2.3000
 30
0.0000
 40
0.7000
 50
90.0000
 51
180.0000
  0
LINE
  8
20
 10
15.0500
 20
3.0000
 30
0.0000
 11
14.9500
 21
3.0000
 31
0.0000
  0
ARC
  8
20
 10
15.0500
 20
2.3000
 30
0.0000
 40
0.7000
 50
0.0000
 51
90.0000
  0
LINE
  8
20
 10
15.7500
 20
0.0000
 30
0.0000
 11
15.7500
 21
2.3000
 31
0.0000
  0
LINE
  8
20
 10
30.6000
 20
0.0000
 30
0.0000
 11
15.7500
 21
0.0000
 31
0.0000
  0
ARC
  8
20
 10
30.6000
 20
2.0000
 30
0.0000
 40
2.0000
 50
270.0000
 51
0.0000
  0
LINE
  8
20
 10
32.6000
 20
22.9900
 30
0.0000
 11
32.6000
 21
2.0000
 31
0.0000
  0
ARC
  8
20
 10
34.6000
 20
22.9900
 30
0.0000
 40
2.0000
 50
90.0000
 51
180.0000
  0
LINE
  8
20
 10
78.6000
 20
24.9900
 30
0.0000
 11
34.6000
 21
24.9900
 31
0.0000
  0
LINE
  8
20
 10
79.0000
 20
47.0000
 30
0.0000
 11
79.0000
 21
48.9800
 31
0.0000
  0
LINE
  8
20
 10
80.0000
 20
36.0000
 30
0.0000
 11
80.1000
 21
36.0000
 31
0.0000
  0
LINE
  8
20
 10
80.0000
 20
46.0000
 30
0.0000
 11
80.6000
 21
46.0000
 31
0.0000
  0
LINE
  8
20
 10
79.0000
 20
39.0000
 30
0.0000
 11
79.0000
 21
37.0000
 31
0.0000
  0
LINE
  8
20
 10
80.0000
 20
40.0000
 30
0.0000
 11
80.6000
 21
40.0000
 31
0.0000
  0
LINE
  8
20
 10
80.6000
 20
40.0000
 30
0.0000
 11
80.6000
 21
46.0000
 31
0.0000
  0
ARC
  8
20
 10
78.0000
 20
48.9800
 30
0.0000
 40
1.0000
 50
0.0000
 51
90.0000
  0
ARC
  8
20
 10
80.0000
 20
39.0000
 30
0.0000
 40
1.0000
 50
90.0000
 51
180.0000
  0
ARC
  8
20
 10
80.0000
 20
37.0000
 30
0.0000
 40
1.0000
 50
180.0000
 51
270.0000
  0
ARC
  8
20
 10
80.0000
 20
47.0000
 30
0.0000
 40
1.0000
 50
180.0000
 51
270.0000
  0
ARC
  8
20
 10
80.1000
 20
35.5000
 30
0.0000
 40
0.5000
 50
0.0000
 51
90.0000
  0
CIRCLE
  8
20
 10
79.0000
 20
27.0000
 30
0.0000
 40
0.6000
  0
CIRCLE
  8
20
 10
18.0000
 20
1.0000
 30
0.0000
 40
0.6000
  0
CIRCLE
  8
20
 10
17.2500
 20
48.5000
 30
0.0000
 40
0.6000
  0
ENDSEC
  0
EOF
